<?xml version="1.0" encoding="UTF-8"?>
<svg width="512px" height="512px" viewBox="0 0 512 512" version="1.1" xmlns="http://www.w3.org/2000/svg" xmlns:xlink="http://www.w3.org/1999/xlink">
    <!-- Generator: Sketch 51.1 (57501) - http://www.bohemiancoding.com/sketch -->
    <title>neuron</title>
    <desc>Created with Sketch.</desc>
    <defs>
        <radialGradient cx="50%" cy="51.7214674%" fx="50%" fy="51.7214674%" r="69.5040769%" id="radialGradient-1">
            <stop stop-color="#FFFFFF" offset="0%"></stop>
            <stop stop-color="#FFD7D8" offset="100%"></stop>
        </radialGradient>
        <rect id="path-2" x="0" y="0" width="512" height="512" rx="96"></rect>
        <filter x="-0.6%" y="-0.6%" width="101.2%" height="101.2%" filterUnits="objectBoundingBox" id="filter-3">
            <feGaussianBlur stdDeviation="2" in="SourceAlpha" result="shadowBlurInner1"></feGaussianBlur>
            <feOffset dx="2" dy="2" in="shadowBlurInner1" result="shadowOffsetInner1"></feOffset>
            <feComposite in="shadowOffsetInner1" in2="SourceAlpha" operator="arithmetic" k2="-1" k3="1" result="shadowInnerInner1"></feComposite>
            <feColorMatrix values="0 0 0 0 0.980973639   0 0 0 0 0.141897465   0 0 0 0 0.141897465  0 0 0 0.5 0" type="matrix" in="shadowInnerInner1"></feColorMatrix>
        </filter>
    </defs>
    <g id="Page-1" stroke="none" stroke-width="1" fill="none" fill-rule="evenodd">
        <g id="neuron">
            <g id="background">
                <use fill="url(#radialGradient-1)" fill-rule="evenodd" xlink:href="#path-2"></use>
                <use fill="black" fill-opacity="1" filter="url(#filter-3)" xlink:href="#path-2"></use>
                <rect stroke="#FDC6C7" stroke-width="4" stroke-linejoin="square" x="2" y="2" width="508" height="508" rx="96"></rect>
            </g>
            <g id="frame" transform="translate(55.000000, 44.000000)" fill="#FFFFFF">
                <path d="M36.4814866,378.521081 C35.9932007,378.277738 35.5742215,377.970676 35.2493108,377.617226 C33.3421726,376.336093 30.3381344,374.828559 26.761507,374.828559 C24.6258584,374.828559 21.0567899,376.347968 16.0543015,379.386786 C14.3069967,380.595912 13.3394615,381.027778 13.1516961,380.682386 C13.0198605,380.439876 12.6346708,379.589996 13.1516961,378.34139 C13.2979243,377.988251 13.768252,377.40278 14.5626792,376.584974 C20.3105874,372.646147 24.3768633,370.676734 26.761507,370.676734 C28.5296308,370.676734 30.9489118,371.759452 34.01935,373.924887 C31.5047759,371.69768 27.9577817,369.299932 23.4701091,368.097464 C20.1442371,367.206299 14.024294,367.81362 5.11027981,369.919425 C1.94211634,370.858774 0.27568281,371.050971 0.110979225,370.496015 C-0.00466399575,370.106365 -0.2902888,368.772888 0.976542725,367.265688 C1.33483562,366.839413 2.28375597,366.227782 3.82330378,365.430797 C14.2309403,362.394124 21.2915761,361.37332 25.0052112,362.368385 C27.7094537,363.092985 34.5710471,364.560086 38.4592072,368.690916 C38.4803258,368.713352 38.5011479,368.7363 38.5216736,368.759757 C38.59303,368.688192 38.6675936,368.619879 38.7453644,368.554817 C40.8102289,366.827384 48.5502563,365.217152 50.3712989,364.729205 C54.0849339,363.73414 61.3259316,364.593818 72.0942918,367.308241 C76.6133864,368.927657 79.0520801,369.950503 79.410373,370.376778 C80.6772045,371.883978 79.5260162,371.464067 79.410373,371.853717 C79.2456694,372.408673 76.8069757,371.91636 72.0942918,370.376778 C63.1802776,368.270973 57.0603345,367.663652 53.7344625,368.554817 C50.7487154,369.354846 48.1793628,370.683969 46.053423,372.139942 C47.7057434,371.78121 49.810871,372.051817 52.368806,372.951765 C58.8017395,375.215037 62.8680154,376.932145 64.5676338,378.103089 C65.362061,378.920894 65.8323886,379.506366 65.9786168,379.859504 C66.4956421,381.108111 66.1104525,382.286434 65.9786168,382.528944 C65.7908514,382.874336 64.8233163,382.332989 63.0760114,380.904901 C58.073523,377.866083 54.5044545,376.346674 52.368806,376.346674 C46.5458704,376.346674 42.2406132,380.342472 41.7155608,380.85173 L41.7155569,383.981902 C43.987702,385.105142 45.744588,385.666762 46.9862151,385.666762 C48.4032355,385.666762 50.197373,384.935265 52.3686277,383.472272 C52.9566191,383.801133 53.2506149,384.107338 53.2506149,384.390885 C53.2506149,384.674433 52.9566191,385.099725 52.3686277,385.666762 C50.1262535,387.095415 48.332116,387.809742 46.9862151,387.809742 C45.8029849,387.809742 44.0460979,387.257653 41.7155541,386.153475 L41.7155476,391.247954 C43.0757948,391.707406 44.0504045,391.871725 44.6393767,391.740911 C45.4383423,391.563457 46.1148891,391.641852 46.6764379,390.656212 C48.0009222,388.331454 50.9339163,388.353482 55.47542,390.722296 C55.6640597,390.846889 55.7583795,390.967426 55.7583795,391.083907 C55.7583795,391.200388 55.6640597,391.257731 55.47542,391.255937 C53.5246538,390.882908 52.1373532,390.683 51.3135184,390.656212 C50.20769,390.620255 49.1048508,390.710398 48.2400974,391.083907 C47.8529118,391.251142 47.7993062,391.368473 47.4591366,391.740911 C45.768094,393.592368 43.8535638,393.837353 41.7155461,392.475868 L41.7155437,394.335721 C43.8459021,395.090199 45.4952551,395.467438 46.6636028,395.467438 C48.0076476,395.467438 49.7093883,394.968209 51.7688249,393.969751 C52.4493191,393.691291 52.8919677,393.544072 53.0967706,393.528096 C53.910522,393.464614 54.0850273,393.82927 54.0850273,393.969751 C54.0850273,394.163265 53.3129598,394.676266 51.7688249,395.508752 C49.6419314,396.83409 47.9401907,397.496759 46.6636028,397.496759 C45.5499835,397.496759 43.9006298,396.982003 41.7155417,395.95249 L41.7155356,400.734038 C44.3611738,399.443346 46.3351661,398.798001 47.6375123,398.798001 C49.0301537,398.798001 50.8865981,399.520912 53.2068456,400.966736 C54.8913564,401.874903 55.7336118,402.43454 55.7336118,402.645646 C55.7336118,402.798898 55.5432423,403.196705 54.6555136,403.127452 C54.4320922,403.110023 53.9492029,402.949421 53.2068456,402.645646 C50.9601875,401.55642 49.1037431,401.011806 47.6375123,401.011806 C46.2687147,401.011806 44.2947218,401.486444 41.7155334,402.435719 L41.7155286,406.235425 C44.8368886,405.132671 47.1620127,404.581294 48.6909007,404.581294 C50.3098617,404.581294 52.4679988,405.199553 55.1653121,406.436069 C55.8725968,406.926847 56.2262392,407.294942 56.2262392,407.540356 C56.2262392,407.785769 55.8725968,407.785769 55.1653121,407.540356 C52.5535473,406.819026 50.3954102,406.458361 48.6909007,406.458361 C47.0835968,406.458361 44.7584719,407.01472 41.7155262,408.127439 L41.7155253,408.866116 C48.0318145,415.105362 52.8417285,418.658919 56.1452673,419.526786 C59.4995739,420.407989 65.4200021,419.602458 73.906552,417.110191 C75.4691983,417.587723 76.3656904,418.009009 76.5960282,418.37405 C77.0106446,419.031136 75.9583076,419.328337 75.9583076,419.526786 C75.9583076,419.659085 75.2743891,419.843868 73.906552,420.081137 C65.8137877,423.388195 59.8933595,424.574564 56.1452673,423.640246 C52.7948308,422.805054 48.5180823,419.611677 43.3150219,414.060115 C43.8112494,416.968162 44.0781451,419.466126 44.078145,420.859719 C44.0781448,422.969238 43.5127128,422.969238 42.381849,420.859719 C42.344103,420.789308 42.3066481,420.718741 42.2694853,420.64802 L42.2712178,420.647109 C41.3949185,418.979507 40.7992672,418.247654 40.484264,418.451552 C39.4624282,419.112972 38.7657794,425.899275 37.9720874,423.259079 C37.363732,421.2354 37.0119829,419.065669 36.9168374,416.749887 C33.2098177,422.020307 27.7942224,423.964982 20.6700516,422.583911 C11.941151,420.891752 6.64580877,420.057494 4.78402486,420.081137 C3.41618777,419.843868 2.73226922,419.659085 2.73226922,419.526786 C2.73226922,419.328337 1.67993217,419.031136 2.09454859,418.37405 C2.32488646,418.009009 3.22137855,417.587723 4.78402486,417.110191 C10.1318637,417.118816 16.0522919,417.924348 22.5453095,419.526786 C28.5652848,421.012479 33.2222091,417.983116 36.5160825,410.438695 C36.4794777,409.599567 36.4463142,408.766006 36.4165919,407.93801 C33.6305371,406.951577 31.4808354,406.458361 29.9674866,406.458361 C28.2629772,406.458361 26.1048401,406.819026 23.4930753,407.540356 C22.7857906,407.785769 22.4321482,407.785769 22.4321482,407.540356 C22.4321482,407.294942 22.7857906,406.926847 23.4930753,406.436069 C26.1903885,405.199553 28.3485257,404.581294 29.9674866,404.581294 C31.3986231,404.581294 33.5274335,405.064419 36.3539178,406.030669 C36.3066705,404.444664 36.2723153,402.879512 36.250852,401.335213 C34.2907895,400.685861 32.7447106,400.361186 31.6126152,400.361186 C30.1463845,400.361186 28.2899401,400.905799 26.043282,401.995026 C25.3009247,402.2988 24.8180353,402.459402 24.5946139,402.476831 C23.7068852,402.546084 23.5165158,402.148277 23.5165158,401.995026 C23.5165158,401.783919 24.3587712,401.224282 26.043282,400.316115 C28.3635294,398.870292 30.2199739,398.14738 31.6126152,398.14738 C32.6913377,398.14738 34.2308542,398.59013 36.2311648,399.475631 C36.2236821,398.441949 36.2221034,397.417817 36.2264288,396.403234 C35.2998528,396.474654 34.4270239,396.128346 33.6079421,395.364309 C32.6556559,394.476019 31.5702214,393.929419 30.184147,393.967817 C29.4708866,393.987576 28.2697884,394.135034 26.5808525,394.41019 C26.4175319,394.411513 26.3358716,394.369215 26.3358716,394.283296 C26.3358716,394.197376 26.4175319,394.108465 26.5808525,394.016563 C30.5896351,392.046258 33.167383,391.918506 34.3140962,393.633308 C34.7681352,394.312281 35.1388489,394.608874 35.772161,394.767919 C35.9043093,394.801106 36.0596043,394.818641 36.2380462,394.820523 C36.2504264,393.635562 36.2710209,392.463887 36.2998297,391.305498 C34.080685,390.959965 32.2982637,390.787198 30.9525657,390.787198 C29.4051421,390.787198 27.6691501,391.15383 25.6579176,391.572629 C25.2970898,391.647764 24.7246083,391.72322 23.940473,391.798998 C23.6422079,391.701203 23.4930753,391.51093 23.4930753,391.228176 C23.4930753,391.192549 23.5045321,391.153983 23.5274459,391.11248 C23.5045321,391.053676 23.4930753,390.987768 23.4930753,390.914755 C23.4930753,390.669341 24.1193951,390.263326 25.3720347,389.69671 C26.8167083,389.135436 28.3485257,388.854799 29.9674866,388.854799 C30.1031201,388.854799 30.2450201,388.858065 30.3931865,388.864597 C30.578632,388.858065 30.7650917,388.854799 30.9525657,388.854799 C32.2517807,388.854799 34.0500453,389.114913 36.3473594,389.635143 C36.3781084,388.676638 36.4146083,387.727434 36.4568592,386.787533 C34.1967734,387.462363 32.4239437,387.799777 31.1383702,387.799777 C29.2678459,387.799777 26.7743652,387.085451 23.6579281,385.656797 C22.8407415,385.08976 22.4321482,384.664468 22.4321482,384.38092 C22.4321482,384.097373 22.8407415,383.791168 23.6579281,383.462307 C26.6755238,384.9253 29.1690044,385.656797 31.1383702,385.656797 C32.5010655,385.656797 34.3103321,385.306564 36.5661697,384.606098 C36.673287,382.670735 36.8055581,380.776057 36.9629831,378.922065 C36.8278653,378.804862 36.6668781,378.669586 36.4814866,378.521081 Z" id="Combined-Shape"></path>
                <path d="M36.4814866,16.521081 C35.9932007,16.2777384 35.5742215,15.9706757 35.2493108,15.6172259 C33.3421726,14.3360926 30.3381344,12.828559 26.761507,12.828559 C24.6258584,12.828559 21.0567899,14.347968 16.0543015,17.3867859 C14.3069967,18.5959117 13.3394615,19.0277784 13.1516961,18.6823862 C13.0198605,18.4398761 12.6346708,17.5899964 13.1516961,16.3413898 C13.2979243,15.9882514 13.768252,15.4027796 14.5626792,14.5849744 C20.3105874,10.6461473 24.3768633,8.6767338 26.761507,8.6767338 C28.5296308,8.6767338 30.9489118,9.7594516 34.01935,11.9248872 C31.5047759,9.69768008 27.9577817,7.29993233 23.4701091,6.09746408 C20.1442371,5.20629937 14.024294,5.81361972 5.11027981,7.91942512 C1.94211634,8.8587741 0.27568281,9.05097082 0.110979225,8.49601526 C-0.00466399575,8.10636467 -0.2902888,6.77288849 0.976542725,5.2656883 C1.33483562,4.8394129 2.28375597,4.22778248 3.82330378,3.43079704 C14.2309403,0.394123651 21.2915761,-0.626680286 25.0052112,0.368385234 C27.7094537,1.09298483 34.5710471,2.56008635 38.4592072,6.69091579 C38.4803258,6.71335242 38.5011479,6.73629951 38.5216736,6.75975707 C38.59303,6.6881923 38.6675936,6.61987899 38.7453644,6.55481714 C40.8102289,4.82738355 48.5502563,3.2171523 50.3712989,2.7292054 C54.0849339,1.73413988 61.3259316,2.59381849 72.0942918,5.30824121 C76.6133864,6.92765711 79.0520801,7.95050277 79.410373,8.37677817 C80.6772045,9.88397836 79.5260162,9.46406669 79.410373,9.85371727 C79.2456694,10.4086728 76.8069757,9.9163598 72.0942918,8.37677817 C63.1802776,6.27097277 57.0603345,5.66365242 53.7344625,6.55481714 C50.7487154,7.35484565 48.1793628,8.68396857 46.053423,10.1399424 C47.7057434,9.78120976 49.810871,10.0518173 52.368806,10.951765 C58.8017395,13.2150374 62.8680154,14.9321455 64.5676338,16.1030891 C65.362061,16.9208942 65.8323886,17.506366 65.9786168,17.8595044 C66.4956421,19.108111 66.1104525,20.2864341 65.9786168,20.5289441 C65.7908514,20.8743364 64.8233163,20.3329885 63.0760114,18.9049006 C58.073523,15.8660826 54.5044545,14.3466737 52.368806,14.3466737 C46.5458704,14.3466737 42.2406132,18.3424719 41.7155608,18.8517299 L41.7155569,21.9819022 C43.987702,23.1051419 45.744588,23.6667617 46.9862151,23.6667617 C48.4032355,23.6667617 50.197373,22.935265 52.3686277,21.4722716 C52.9566191,21.8011332 53.2506149,22.1073377 53.2506149,22.3908852 C53.2506149,22.6744327 52.9566191,23.0997249 52.3686277,23.6667617 C50.1262535,25.0954153 48.332116,25.8097421 46.9862151,25.8097421 C45.8029849,25.8097421 44.0460979,25.2576529 41.7155541,24.1534746 L41.7155476,29.2479535 C43.0757948,29.7074059 44.0504045,29.8717251 44.6393767,29.7409113 C45.4383423,29.5634568 46.1148891,29.6418524 46.6764379,28.6562122 C48.0009222,26.3314538 50.9339163,26.3534819 55.47542,28.7222965 C55.6640597,28.8468888 55.7583795,28.9674255 55.7583795,29.0839066 C55.7583795,29.2003877 55.6640597,29.2577313 55.47542,29.2559373 C53.5246538,28.8829083 52.1373532,28.6829999 51.3135184,28.6562122 C50.20769,28.6202551 49.1048508,28.7103978 48.2400974,29.0839066 C47.8529118,29.2511419 47.7993062,29.3684729 47.4591366,29.7409113 C45.768094,31.5923675 43.8535638,31.8373531 41.7155461,30.4758681 L41.7155437,32.3357209 C43.8459021,33.0901986 45.4952551,33.4674375 46.6636028,33.4674375 C48.0076476,33.4674375 49.7093883,32.9682086 51.7688249,31.9697507 C52.4493191,31.6912908 52.8919677,31.5440725 53.0967706,31.5280956 C53.910522,31.464614 54.0850273,31.8292701 54.0850273,31.9697507 C54.0850273,32.163265 53.3129598,32.6762655 51.7688249,33.5087521 C49.6419314,34.8340903 47.9401907,35.4967594 46.6636028,35.4967594 C45.5499835,35.4967594 43.9006298,34.9820031 41.7155417,33.9524904 L41.7155356,38.7340383 C44.3611738,37.4433465 46.3351661,36.7980005 47.6375123,36.7980005 C49.0301537,36.7980005 50.8865981,37.5209123 53.2068456,38.9667358 C54.8913564,39.874903 55.7336118,40.4345398 55.7336118,40.6456464 C55.7336118,40.798898 55.5432423,41.1967046 54.6555136,41.127452 C54.4320922,41.1100227 53.9492029,40.9494208 53.2068456,40.6456464 C50.9601875,39.5564196 49.1037431,39.0118062 47.6375123,39.0118062 C46.2687147,39.0118062 44.2947218,39.4864438 41.7155334,40.4357191 L41.7155286,44.2354252 C44.8368886,43.1326714 47.1620127,42.5812945 48.6909007,42.5812945 C50.3098617,42.5812945 52.4679988,43.1995528 55.1653121,44.4360694 C55.8725968,44.9268465 56.2262392,45.294942 56.2262392,45.5403557 C56.2262392,45.7857694 55.8725968,45.7857694 55.1653121,45.5403557 C52.5535473,44.8190256 50.3954102,44.4583605 48.6909007,44.4583605 C47.0835968,44.4583605 44.7584719,45.0147201 41.7155262,46.1274392 L41.7155253,46.8661156 C48.0318145,53.1053624 52.8417285,56.6589191 56.1452673,57.5267857 C59.4995739,58.4079895 65.4200021,57.602458 73.906552,55.1101912 C75.4691983,55.5877227 76.3656904,56.0090088 76.5960282,56.3740496 C77.0106446,57.031136 75.9583076,57.3283372 75.9583076,57.5267857 C75.9583076,57.6590848 75.2743891,57.8438684 73.906552,58.0811367 C65.8137877,61.3881946 59.8933595,62.5745642 56.1452673,61.6402456 C52.7948308,60.8050539 48.5180823,57.6116771 43.3150219,52.0601153 C43.8112494,54.9681617 44.0781451,57.4661256 44.078145,58.8597194 C44.0781448,60.9692378 43.5127128,60.9692378 42.381849,58.8597195 C42.344103,58.7893079 42.3066481,58.7187407 42.2694853,58.6480196 L42.2712178,58.6471092 C41.3949185,56.9795067 40.7992672,56.2476542 40.484264,56.4515516 C39.4624282,57.1129723 38.7657794,63.8992754 37.9720874,61.2590787 C37.363732,59.2353996 37.0119829,57.065669 36.9168374,54.7498868 C33.2098177,60.0203074 27.7942224,61.9649821 20.6700516,60.5839111 C11.941151,58.8917519 6.64580877,58.0574938 4.78402486,58.0811367 C3.41618777,57.8438684 2.73226922,57.6590848 2.73226922,57.5267857 C2.73226922,57.3283372 1.67993217,57.031136 2.09454859,56.3740496 C2.32488646,56.0090088 3.22137855,55.5877227 4.78402486,55.1101912 C10.1318637,55.1188165 16.0522919,55.924348 22.5453095,57.5267857 C28.5652848,59.0124795 33.2222091,55.9831159 36.5160825,48.438695 C36.4794777,47.5995673 36.4463142,46.7660056 36.4165919,45.9380099 C33.6305371,44.951577 31.4808354,44.4583605 29.9674866,44.4583605 C28.2629772,44.4583605 26.1048401,44.8190256 23.4930753,45.5403557 C22.7857906,45.7857694 22.4321482,45.7857694 22.4321482,45.5403557 C22.4321482,45.294942 22.7857906,44.9268465 23.4930753,44.4360694 C26.1903885,43.1995528 28.3485257,42.5812945 29.9674866,42.5812945 C31.3986231,42.5812945 33.5274335,43.0644192 36.3539178,44.0306687 C36.3066705,42.4446643 36.2723153,40.8795122 36.250852,39.3352125 C34.2907895,38.6858613 32.7447106,38.3611857 31.6126152,38.3611857 C30.1463845,38.3611857 28.2899401,38.9057991 26.043282,39.9950258 C25.3009247,40.2988002 24.8180353,40.4594021 24.5946139,40.4768314 C23.7068852,40.546084 23.5165158,40.1482774 23.5165158,39.9950258 C23.5165158,39.7839193 24.3587712,39.2242824 26.043282,38.3161152 C28.3635294,36.8702917 30.2199739,36.14738 31.6126152,36.14738 C32.6913377,36.14738 34.2308542,36.5901305 36.2311648,37.4756315 C36.2236821,36.4419493 36.2221034,35.4178166 36.2264288,34.4032336 C35.2998528,34.4746539 34.4270239,34.1283456 33.6079421,33.3643087 C32.6556559,32.476019 31.5702214,31.9294189 30.184147,31.9678171 C29.4708866,31.9875764 28.2697884,32.135034 26.5808525,32.4101899 C26.4175319,32.4115132 26.3358716,32.3692151 26.3358716,32.2832956 C26.3358716,32.1973761 26.4175319,32.1084651 26.5808525,32.0165626 C30.5896351,30.0462577 33.167383,29.9185063 34.3140962,31.6333082 C34.7681352,32.3122809 35.1388489,32.6088741 35.772161,32.7679192 C35.9043093,32.8011059 36.0596043,32.8186406 36.2380462,32.8205233 C36.2504264,31.6355618 36.2710209,30.4638866 36.2998297,29.3054977 C34.080685,28.9599647 32.2982637,28.7871983 30.9525657,28.7871983 C29.4051421,28.7871983 27.6691501,29.1538303 25.6579176,29.5726288 C25.2970898,29.6477638 24.7246083,29.7232202 23.940473,29.7989977 C23.6422079,29.7012034 23.4930753,29.5109296 23.4930753,29.2281762 C23.4930753,29.1925485 23.5045321,29.153983 23.5274459,29.1124798 C23.5045321,29.053676 23.4930753,28.9877677 23.4930753,28.9147547 C23.4930753,28.669341 24.1193951,28.2633262 25.3720347,27.6967102 C26.8167083,27.1354357 28.3485257,26.8547985 29.9674866,26.8547985 C30.1031201,26.8547985 30.2450201,26.8580647 30.3931865,26.8645972 C30.578632,26.8580647 30.7650917,26.8547985 30.9525657,26.8547985 C32.2517807,26.8547985 34.0500453,27.1149132 36.3473594,27.6351426 C36.3781084,26.6766376 36.4146083,25.7274344 36.4568592,24.7875331 C34.1967734,25.4623626 32.4239437,25.7997774 31.1383702,25.7997774 C29.2678459,25.7997774 26.7743652,25.0854506 23.6579281,23.656797 C22.8407415,23.0897602 22.4321482,22.664468 22.4321482,22.3809205 C22.4321482,22.097373 22.8407415,21.7911685 23.6579281,21.4623069 C26.6755238,22.9253003 29.1690044,23.656797 31.1383702,23.656797 C32.5010655,23.656797 34.3103321,23.3065639 36.5661697,22.6060977 C36.673287,20.6707348 36.8055581,18.7760571 36.9629831,16.9220647 C36.8278653,16.8048621 36.6668781,16.6695856 36.4814866,16.521081 Z" id="Combined-Shape"></path>
                <path d="M359.481487,16.521081 C358.993201,16.2777384 358.574222,15.9706757 358.249311,15.6172259 C356.342173,14.3360926 353.338134,12.828559 349.761507,12.828559 C347.625858,12.828559 344.05679,14.347968 339.054302,17.3867859 C337.306997,18.5959117 336.339462,19.0277784 336.151696,18.6823862 C336.01986,18.4398761 335.634671,17.5899964 336.151696,16.3413898 C336.297924,15.9882514 336.768252,15.4027796 337.562679,14.5849744 C343.310587,10.6461473 347.376863,8.6767338 349.761507,8.6767338 C351.529631,8.6767338 353.948912,9.7594516 357.01935,11.9248872 C354.504776,9.69768008 350.957782,7.29993233 346.470109,6.09746408 C343.144237,5.20629937 337.024294,5.81361972 328.11028,7.91942512 C324.942116,8.8587741 323.275683,9.05097082 323.110979,8.49601526 C322.995336,8.10636467 322.709711,6.77288849 323.976543,5.2656883 C324.334836,4.8394129 325.283756,4.22778248 326.823304,3.43079704 C337.23094,0.394123651 344.291576,-0.626680286 348.005211,0.368385234 C350.709454,1.09298483 357.571047,2.56008635 361.459207,6.69091579 C361.480326,6.71335242 361.501148,6.73629951 361.521674,6.75975707 C361.59303,6.6881923 361.667594,6.61987899 361.745364,6.55481714 C363.810229,4.82738355 371.550256,3.2171523 373.371299,2.7292054 C377.084934,1.73413988 384.325932,2.59381849 395.094292,5.30824121 C399.613386,6.92765711 402.05208,7.95050277 402.410373,8.37677817 C403.677205,9.88397836 402.526016,9.46406669 402.410373,9.85371727 C402.245669,10.4086728 399.806976,9.9163598 395.094292,8.37677817 C386.180278,6.27097277 380.060334,5.66365242 376.734462,6.55481714 C373.748715,7.35484565 371.179363,8.68396857 369.053423,10.1399424 C370.705743,9.78120976 372.810871,10.0518173 375.368806,10.951765 C381.801739,13.2150374 385.868015,14.9321455 387.567634,16.1030891 C388.362061,16.9208942 388.832389,17.506366 388.978617,17.8595044 C389.495642,19.108111 389.110452,20.2864341 388.978617,20.5289441 C388.790851,20.8743364 387.823316,20.3329885 386.076011,18.9049006 C381.073523,15.8660826 377.504455,14.3466737 375.368806,14.3466737 C369.54587,14.3466737 365.240613,18.3424719 364.715561,18.8517299 L364.715557,21.9819022 C366.987702,23.1051419 368.744588,23.6667617 369.986215,23.6667617 C371.403235,23.6667617 373.197373,22.935265 375.368628,21.4722716 C375.956619,21.8011332 376.250615,22.1073377 376.250615,22.3908852 C376.250615,22.6744327 375.956619,23.0997249 375.368628,23.6667617 C373.126254,25.0954153 371.332116,25.8097421 369.986215,25.8097421 C368.802985,25.8097421 367.046098,25.2576529 364.715554,24.1534746 L364.715548,29.2479535 C366.075795,29.7074059 367.050404,29.8717251 367.639377,29.7409113 C368.438342,29.5634568 369.114889,29.6418524 369.676438,28.6562122 C371.000922,26.3314538 373.933916,26.3534819 378.47542,28.7222965 C378.66406,28.8468888 378.758379,28.9674255 378.758379,29.0839066 C378.758379,29.2003877 378.66406,29.2577313 378.47542,29.2559373 C376.524654,28.8829083 375.137353,28.6829999 374.313518,28.6562122 C373.20769,28.6202551 372.104851,28.7103978 371.240097,29.0839066 C370.852912,29.2511419 370.799306,29.3684729 370.459137,29.7409113 C368.768094,31.5923675 366.853564,31.8373531 364.715546,30.4758681 L364.715544,32.3357209 C366.845902,33.0901986 368.495255,33.4674375 369.663603,33.4674375 C371.007648,33.4674375 372.709388,32.9682086 374.768825,31.9697507 C375.449319,31.6912908 375.891968,31.5440725 376.096771,31.5280956 C376.910522,31.464614 377.085027,31.8292701 377.085027,31.9697507 C377.085027,32.163265 376.31296,32.6762655 374.768825,33.5087521 C372.641931,34.8340903 370.940191,35.4967594 369.663603,35.4967594 C368.549983,35.4967594 366.90063,34.9820031 364.715542,33.9524904 L364.715536,38.7340383 C367.361174,37.4433465 369.335166,36.7980005 370.637512,36.7980005 C372.030154,36.7980005 373.886598,37.5209123 376.206846,38.9667358 C377.891356,39.874903 378.733612,40.4345398 378.733612,40.6456464 C378.733612,40.798898 378.543242,41.1967046 377.655514,41.127452 C377.432092,41.1100227 376.949203,40.9494208 376.206846,40.6456464 C373.960187,39.5564196 372.103743,39.0118062 370.637512,39.0118062 C369.268715,39.0118062 367.294722,39.4864438 364.715533,40.4357191 L364.715529,44.2354252 C367.836889,43.1326714 370.162013,42.5812945 371.690901,42.5812945 C373.309862,42.5812945 375.467999,43.1995528 378.165312,44.4360694 C378.872597,44.9268465 379.226239,45.294942 379.226239,45.5403557 C379.226239,45.7857694 378.872597,45.7857694 378.165312,45.5403557 C375.553547,44.8190256 373.39541,44.4583605 371.690901,44.4583605 C370.083597,44.4583605 367.758472,45.0147201 364.715526,46.1274392 L364.715525,46.8661156 C371.031815,53.1053624 375.841729,56.6589191 379.145267,57.5267857 C382.499574,58.4079895 388.420002,57.602458 396.906552,55.1101912 C398.469198,55.5877227 399.36569,56.0090088 399.596028,56.3740496 C400.010645,57.031136 398.958308,57.3283372 398.958308,57.5267857 C398.958308,57.6590848 398.274389,57.8438684 396.906552,58.0811367 C388.813788,61.3881946 382.893359,62.5745642 379.145267,61.6402456 C375.794831,60.8050539 371.518082,57.6116771 366.315022,52.0601153 C366.811249,54.9681617 367.078145,57.4661256 367.078145,58.8597194 C367.078145,60.9692378 366.512713,60.9692378 365.381849,58.8597195 C365.344103,58.7893079 365.306648,58.7187407 365.269485,58.6480196 L365.271218,58.6471092 C364.394918,56.9795067 363.799267,56.2476542 363.484264,56.4515516 C362.462428,57.1129723 361.765779,63.8992754 360.972087,61.2590787 C360.363732,59.2353996 360.011983,57.065669 359.916837,54.7498868 C356.209818,60.0203074 350.794222,61.9649821 343.670052,60.5839111 C334.941151,58.8917519 329.645809,58.0574938 327.784025,58.0811367 C326.416188,57.8438684 325.732269,57.6590848 325.732269,57.5267857 C325.732269,57.3283372 324.679932,57.031136 325.094549,56.3740496 C325.324886,56.0090088 326.221379,55.5877227 327.784025,55.1101912 C333.131864,55.1188165 339.052292,55.924348 345.54531,57.5267857 C351.565285,59.0124795 356.222209,55.9831159 359.516082,48.438695 C359.479478,47.5995673 359.446314,46.7660056 359.416592,45.9380099 C356.630537,44.951577 354.480835,44.4583605 352.967487,44.4583605 C351.262977,44.4583605 349.10484,44.8190256 346.493075,45.5403557 C345.785791,45.7857694 345.432148,45.7857694 345.432148,45.5403557 C345.432148,45.294942 345.785791,44.9268465 346.493075,44.4360694 C349.190389,43.1995528 351.348526,42.5812945 352.967487,42.5812945 C354.398623,42.5812945 356.527433,43.0644192 359.353918,44.0306687 C359.306671,42.4446643 359.272315,40.8795122 359.250852,39.3352125 C357.290789,38.6858613 355.744711,38.3611857 354.612615,38.3611857 C353.146385,38.3611857 351.28994,38.9057991 349.043282,39.9950258 C348.300925,40.2988002 347.818035,40.4594021 347.594614,40.4768314 C346.706885,40.546084 346.516516,40.1482774 346.516516,39.9950258 C346.516516,39.7839193 347.358771,39.2242824 349.043282,38.3161152 C351.363529,36.8702917 353.219974,36.14738 354.612615,36.14738 C355.691338,36.14738 357.230854,36.5901305 359.231165,37.4756315 C359.223682,36.4419493 359.222103,35.4178166 359.226429,34.4032336 C358.299853,34.4746539 357.427024,34.1283456 356.607942,33.3643087 C355.655656,32.476019 354.570221,31.9294189 353.184147,31.9678171 C352.470887,31.9875764 351.269788,32.135034 349.580852,32.4101899 C349.417532,32.4115132 349.335872,32.3692151 349.335872,32.2832956 C349.335872,32.1973761 349.417532,32.1084651 349.580852,32.0165626 C353.589635,30.0462577 356.167383,29.9185063 357.314096,31.6333082 C357.768135,32.3122809 358.138849,32.6088741 358.772161,32.7679192 C358.904309,32.8011059 359.059604,32.8186406 359.238046,32.8205233 C359.250426,31.6355618 359.271021,30.4638866 359.29983,29.3054977 C357.080685,28.9599647 355.298264,28.7871983 353.952566,28.7871983 C352.405142,28.7871983 350.66915,29.1538303 348.657918,29.5726288 C348.29709,29.6477638 347.724608,29.7232202 346.940473,29.7989977 C346.642208,29.7012034 346.493075,29.5109296 346.493075,29.2281762 C346.493075,29.1925485 346.504532,29.153983 346.527446,29.1124798 C346.504532,29.053676 346.493075,28.9877677 346.493075,28.9147547 C346.493075,28.669341 347.119395,28.2633262 348.372035,27.6967102 C349.816708,27.1354357 351.348526,26.8547985 352.967487,26.8547985 C353.10312,26.8547985 353.24502,26.8580647 353.393187,26.8645972 C353.578632,26.8580647 353.765092,26.8547985 353.952566,26.8547985 C355.251781,26.8547985 357.050045,27.1149132 359.347359,27.6351426 C359.378108,26.6766376 359.414608,25.7274344 359.456859,24.7875331 C357.196773,25.4623626 355.423944,25.7997774 354.13837,25.7997774 C352.267846,25.7997774 349.774365,25.0854506 346.657928,23.656797 C345.840742,23.0897602 345.432148,22.664468 345.432148,22.3809205 C345.432148,22.097373 345.840742,21.7911685 346.657928,21.4623069 C349.675524,22.9253003 352.169004,23.656797 354.13837,23.656797 C355.501066,23.656797 357.310332,23.3065639 359.56617,22.6060977 C359.673287,20.6707348 359.805558,18.7760571 359.962983,16.9220647 C359.827865,16.8048621 359.666878,16.6695856 359.481487,16.521081 Z" id="Combined-Shape"></path>
                <path d="M359.481487,378.521081 C358.993201,378.277738 358.574222,377.970676 358.249311,377.617226 C356.342173,376.336093 353.338134,374.828559 349.761507,374.828559 C347.625858,374.828559 344.05679,376.347968 339.054302,379.386786 C337.306997,380.595912 336.339462,381.027778 336.151696,380.682386 C336.01986,380.439876 335.634671,379.589996 336.151696,378.34139 C336.297924,377.988251 336.768252,377.40278 337.562679,376.584974 C343.310587,372.646147 347.376863,370.676734 349.761507,370.676734 C351.529631,370.676734 353.948912,371.759452 357.01935,373.924887 C354.504776,371.69768 350.957782,369.299932 346.470109,368.097464 C343.144237,367.206299 337.024294,367.81362 328.11028,369.919425 C324.942116,370.858774 323.275683,371.050971 323.110979,370.496015 C322.995336,370.106365 322.709711,368.772888 323.976543,367.265688 C324.334836,366.839413 325.283756,366.227782 326.823304,365.430797 C337.23094,362.394124 344.291576,361.37332 348.005211,362.368385 C350.709454,363.092985 357.571047,364.560086 361.459207,368.690916 C361.480326,368.713352 361.501148,368.7363 361.521674,368.759757 C361.59303,368.688192 361.667594,368.619879 361.745364,368.554817 C363.810229,366.827384 371.550256,365.217152 373.371299,364.729205 C377.084934,363.73414 384.325932,364.593818 395.094292,367.308241 C399.613386,368.927657 402.05208,369.950503 402.410373,370.376778 C403.677205,371.883978 402.526016,371.464067 402.410373,371.853717 C402.245669,372.408673 399.806976,371.91636 395.094292,370.376778 C386.180278,368.270973 380.060334,367.663652 376.734462,368.554817 C373.748715,369.354846 371.179363,370.683969 369.053423,372.139942 C370.705743,371.78121 372.810871,372.051817 375.368806,372.951765 C381.801739,375.215037 385.868015,376.932145 387.567634,378.103089 C388.362061,378.920894 388.832389,379.506366 388.978617,379.859504 C389.495642,381.108111 389.110452,382.286434 388.978617,382.528944 C388.790851,382.874336 387.823316,382.332989 386.076011,380.904901 C381.073523,377.866083 377.504455,376.346674 375.368806,376.346674 C369.54587,376.346674 365.240613,380.342472 364.715561,380.85173 L364.715557,383.981902 C366.987702,385.105142 368.744588,385.666762 369.986215,385.666762 C371.403235,385.666762 373.197373,384.935265 375.368628,383.472272 C375.956619,383.801133 376.250615,384.107338 376.250615,384.390885 C376.250615,384.674433 375.956619,385.099725 375.368628,385.666762 C373.126254,387.095415 371.332116,387.809742 369.986215,387.809742 C368.802985,387.809742 367.046098,387.257653 364.715554,386.153475 L364.715548,391.247954 C366.075795,391.707406 367.050404,391.871725 367.639377,391.740911 C368.438342,391.563457 369.114889,391.641852 369.676438,390.656212 C371.000922,388.331454 373.933916,388.353482 378.47542,390.722296 C378.66406,390.846889 378.758379,390.967426 378.758379,391.083907 C378.758379,391.200388 378.66406,391.257731 378.47542,391.255937 C376.524654,390.882908 375.137353,390.683 374.313518,390.656212 C373.20769,390.620255 372.104851,390.710398 371.240097,391.083907 C370.852912,391.251142 370.799306,391.368473 370.459137,391.740911 C368.768094,393.592368 366.853564,393.837353 364.715546,392.475868 L364.715544,394.335721 C366.845902,395.090199 368.495255,395.467438 369.663603,395.467438 C371.007648,395.467438 372.709388,394.968209 374.768825,393.969751 C375.449319,393.691291 375.891968,393.544072 376.096771,393.528096 C376.910522,393.464614 377.085027,393.82927 377.085027,393.969751 C377.085027,394.163265 376.31296,394.676266 374.768825,395.508752 C372.641931,396.83409 370.940191,397.496759 369.663603,397.496759 C368.549983,397.496759 366.90063,396.982003 364.715542,395.95249 L364.715536,400.734038 C367.361174,399.443346 369.335166,398.798001 370.637512,398.798001 C372.030154,398.798001 373.886598,399.520912 376.206846,400.966736 C377.891356,401.874903 378.733612,402.43454 378.733612,402.645646 C378.733612,402.798898 378.543242,403.196705 377.655514,403.127452 C377.432092,403.110023 376.949203,402.949421 376.206846,402.645646 C373.960187,401.55642 372.103743,401.011806 370.637512,401.011806 C369.268715,401.011806 367.294722,401.486444 364.715533,402.435719 L364.715529,406.235425 C367.836889,405.132671 370.162013,404.581294 371.690901,404.581294 C373.309862,404.581294 375.467999,405.199553 378.165312,406.436069 C378.872597,406.926847 379.226239,407.294942 379.226239,407.540356 C379.226239,407.785769 378.872597,407.785769 378.165312,407.540356 C375.553547,406.819026 373.39541,406.458361 371.690901,406.458361 C370.083597,406.458361 367.758472,407.01472 364.715526,408.127439 L364.715525,408.866116 C371.031815,415.105362 375.841729,418.658919 379.145267,419.526786 C382.499574,420.407989 388.420002,419.602458 396.906552,417.110191 C398.469198,417.587723 399.36569,418.009009 399.596028,418.37405 C400.010645,419.031136 398.958308,419.328337 398.958308,419.526786 C398.958308,419.659085 398.274389,419.843868 396.906552,420.081137 C388.813788,423.388195 382.893359,424.574564 379.145267,423.640246 C375.794831,422.805054 371.518082,419.611677 366.315022,414.060115 C366.811249,416.968162 367.078145,419.466126 367.078145,420.859719 C367.078145,422.969238 366.512713,422.969238 365.381849,420.859719 C365.344103,420.789308 365.306648,420.718741 365.269485,420.64802 L365.271218,420.647109 C364.394918,418.979507 363.799267,418.247654 363.484264,418.451552 C362.462428,419.112972 361.765779,425.899275 360.972087,423.259079 C360.363732,421.2354 360.011983,419.065669 359.916837,416.749887 C356.209818,422.020307 350.794222,423.964982 343.670052,422.583911 C334.941151,420.891752 329.645809,420.057494 327.784025,420.081137 C326.416188,419.843868 325.732269,419.659085 325.732269,419.526786 C325.732269,419.328337 324.679932,419.031136 325.094549,418.37405 C325.324886,418.009009 326.221379,417.587723 327.784025,417.110191 C333.131864,417.118816 339.052292,417.924348 345.54531,419.526786 C351.565285,421.012479 356.222209,417.983116 359.516082,410.438695 C359.479478,409.599567 359.446314,408.766006 359.416592,407.93801 C356.630537,406.951577 354.480835,406.458361 352.967487,406.458361 C351.262977,406.458361 349.10484,406.819026 346.493075,407.540356 C345.785791,407.785769 345.432148,407.785769 345.432148,407.540356 C345.432148,407.294942 345.785791,406.926847 346.493075,406.436069 C349.190389,405.199553 351.348526,404.581294 352.967487,404.581294 C354.398623,404.581294 356.527433,405.064419 359.353918,406.030669 C359.306671,404.444664 359.272315,402.879512 359.250852,401.335213 C357.290789,400.685861 355.744711,400.361186 354.612615,400.361186 C353.146385,400.361186 351.28994,400.905799 349.043282,401.995026 C348.300925,402.2988 347.818035,402.459402 347.594614,402.476831 C346.706885,402.546084 346.516516,402.148277 346.516516,401.995026 C346.516516,401.783919 347.358771,401.224282 349.043282,400.316115 C351.363529,398.870292 353.219974,398.14738 354.612615,398.14738 C355.691338,398.14738 357.230854,398.59013 359.231165,399.475631 C359.223682,398.441949 359.222103,397.417817 359.226429,396.403234 C358.299853,396.474654 357.427024,396.128346 356.607942,395.364309 C355.655656,394.476019 354.570221,393.929419 353.184147,393.967817 C352.470887,393.987576 351.269788,394.135034 349.580852,394.41019 C349.417532,394.411513 349.335872,394.369215 349.335872,394.283296 C349.335872,394.197376 349.417532,394.108465 349.580852,394.016563 C353.589635,392.046258 356.167383,391.918506 357.314096,393.633308 C357.768135,394.312281 358.138849,394.608874 358.772161,394.767919 C358.904309,394.801106 359.059604,394.818641 359.238046,394.820523 C359.250426,393.635562 359.271021,392.463887 359.29983,391.305498 C357.080685,390.959965 355.298264,390.787198 353.952566,390.787198 C352.405142,390.787198 350.66915,391.15383 348.657918,391.572629 C348.29709,391.647764 347.724608,391.72322 346.940473,391.798998 C346.642208,391.701203 346.493075,391.51093 346.493075,391.228176 C346.493075,391.192549 346.504532,391.153983 346.527446,391.11248 C346.504532,391.053676 346.493075,390.987768 346.493075,390.914755 C346.493075,390.669341 347.119395,390.263326 348.372035,389.69671 C349.816708,389.135436 351.348526,388.854799 352.967487,388.854799 C353.10312,388.854799 353.24502,388.858065 353.393187,388.864597 C353.578632,388.858065 353.765092,388.854799 353.952566,388.854799 C355.251781,388.854799 357.050045,389.114913 359.347359,389.635143 C359.378108,388.676638 359.414608,387.727434 359.456859,386.787533 C357.196773,387.462363 355.423944,387.799777 354.13837,387.799777 C352.267846,387.799777 349.774365,387.085451 346.657928,385.656797 C345.840742,385.08976 345.432148,384.664468 345.432148,384.38092 C345.432148,384.097373 345.840742,383.791168 346.657928,383.462307 C349.675524,384.9253 352.169004,385.656797 354.13837,385.656797 C355.501066,385.656797 357.310332,385.306564 359.56617,384.606098 C359.673287,382.670735 359.805558,380.776057 359.962983,378.922065 C359.827865,378.804862 359.666878,378.669586 359.481487,378.521081 Z" id="Combined-Shape"></path>
            </g>
            <g id="shape" transform="translate(94.000000, 93.000000)">
                <path d="M221.431422,182.580381 C219.749396,191.764632 215.41388,199.999897 209.264592,206.432131 C209.152837,207.786814 209.366179,208.957663 209.366179,209.625526 C209.366179,212.055301 214.885529,215.526711 216.405139,217.817465 C225.174518,223.513399 229.804667,235.729892 235.655983,245.766301 C243.810859,249.118626 254.175182,248.238285 266.748952,243.125278 C279.099143,235.399452 298.181432,234.942364 323.99582,241.754015 C300.96333,237.697286 281.881041,240.497887 266.748952,250.155817 C257.793667,255.871453 250.21646,257.676245 244.36374,257.667238 C254.625465,268.912429 268.994814,277.199205 287.471788,282.527566 C274.816257,280.452349 263.95162,277.522621 254.877876,273.738384 C257.122444,282.878024 262.187755,290.512022 269.29626,298.104665 C272.672022,301.71034 278.82187,307.004757 287.745804,313.987916 C266.022322,299.716475 253.550963,285.952653 250.331729,272.696449 C249.842233,272.07457 249.39734,271.522453 248.99705,271.0401 C236.564058,264.765224 228.184867,256.556111 223.859476,246.412762 C217.521215,231.549089 207.456011,223.664787 193.663864,222.759856 C191.275986,223.792431 187.829964,224.910991 185.323399,227.417556 C182.421291,230.319664 180.444445,234.594358 179.737328,236.274693 C179.880654,236.912509 180.016121,237.56658 180.143209,238.237287 C183.33627,255.088725 193.994483,269.707585 212.117848,282.093869 C190.203959,269.813109 177.888633,256.851362 175.171867,243.208629 C172.995994,237.694005 170.684342,233.319789 168.236913,230.085982 C166.633995,229.170756 163.982646,226.569878 160.983161,226.569878 C158.541249,226.569878 156.330073,228.293676 154.727493,229.42838 C153.013669,231.186813 150.888133,233.030549 148.281227,234.95417 C131.958318,246.998748 127.225011,262.187538 134.081305,280.52054 C131.164192,275.314086 129.035843,270.451679 127.696259,265.93332 C126.78615,269.272219 125.648687,272.844602 124.002667,276.834628 C115.507425,297.427472 106.777494,306.316538 97.1177687,314.645373 C90.7856949,320.105031 80.6088118,324.22324 66.5871193,327 C90.7578819,319.4173 107.54729,303.952767 116.955344,280.606401 C119.691536,273.816461 120.840765,265.550216 122.46631,258.1147 C116.617551,264.580559 108.437859,269.934233 97.927232,274.175721 L98.9693269,274.183268 C98.3479099,274.250188 97.7536893,274.346168 97.1866651,274.471209 C96.0818781,274.907058 94.9518635,275.33087 93.7966214,275.742645 C90.8849824,277.407151 89.1343496,280.31225 88.5447232,284.457944 C88.4124937,285.387656 88.1778452,286.298372 87.8407775,287.190091 C87.9703526,288.237805 88.2299327,289.246093 88.6195177,290.214956 C89.7869846,293.118341 88.7735935,296.793677 85.5793442,301.240963 C87.4405108,297.871353 88.0211713,294.710003 87.3213257,291.756912 C87.1505732,291.036399 86.8998981,290.294048 86.679151,289.555954 C84.1939449,293.640058 79.3852214,297.293199 72.2529806,300.515376 C78.8462256,296.540207 83.0133096,291.645247 84.7542324,285.830498 C85.5128773,283.296595 85.8995973,280.387081 86.8497511,277.985341 C80.6510528,279.794338 73.8342537,281.308413 66.3993538,282.527566 C90.0547998,275.705844 106.977514,264.03504 117.167497,247.515152 C124.015402,236.413404 128.870513,221.82039 139.64751,216.582695 C139.860032,216.479408 140.079754,216.37265 140.306676,216.262421 C140.384449,216.032157 140.456038,215.795463 140.520721,215.551991 C141.725865,211.015771 137.417375,200.126031 136.612738,196.830539 C134.672638,193.332781 133.164746,189.554081 132.162779,185.569414 C122.551412,180.089295 111.488483,178.429124 98.9739933,180.588902 L99.4156305,181.35384 C96.042332,185.258624 93.5571272,188.132241 91.9600161,189.974692 C88.1179513,194.406954 81.400752,195.719787 74.9154582,197.203033 C74.6171175,198.761328 74.3846821,199.97205 74.2181521,200.835199 C73.508308,204.514426 69.4932935,207.162075 66.6941428,210.129097 C66.4293819,210.409736 66.1727407,210.697006 65.9242193,210.990908 C66.2308691,211.873133 66.4645346,212.546518 66.6252155,213.011063 C67.2376506,214.781676 66.1610107,216.931895 65.6906982,218.916441 C64.9908527,221.869532 65.5715132,225.030882 67.4326797,228.400492 C64.2384305,223.953206 63.2250393,220.27787 64.3925063,217.374485 C65.0839519,215.654922 65.1384257,214.128862 64.5559276,212.796305 C61.7886723,216.881931 60.3457937,222.049142 60.2272919,228.297937 C59.4532946,220.526572 60.2078134,214.544379 62.4908484,210.351358 C62.4763592,210.340642 62.4618062,210.329946 62.4471893,210.319269 L62.5083694,210.319269 C63.4239448,208.647106 64.5836766,207.260736 65.9875647,206.160158 C68.9711722,203.821159 70.5982807,201.166443 70.8688901,198.196012 C70.453075,198.309251 70.0411906,198.426318 69.6341523,198.548185 C58.0046543,202.03003 48.2147361,210.364198 40.2643977,223.550688 C49.2817513,203.590911 59.986706,192.72975 72.379262,190.967203 C79.1557782,190.003405 84.2749292,187.488565 87.7367148,183.422685 C64.5836309,190.651811 35.3380593,184.120806 0,163.82967 C10.8604381,168.625269 21.4504491,172.091587 31.7700328,174.228624 C29.9313273,171.531389 25.289435,166.448676 22.6300207,161.53914 C20.9237085,158.389123 19.0776407,153.089199 17.0918175,145.639366 C19.8455045,152.349723 22.1026219,157.030763 23.8631697,159.682487 C27.2307407,164.754697 32.0229968,168.482326 34.7429601,171.741754 C35.9089274,173.138973 36.9770103,174.343102 37.9472089,175.354141 C51.0330731,177.409428 63.6748071,177.281599 75.8724108,174.970653 C81.4216777,173.919294 87.1328692,172.394177 92.8197064,171.022194 C92.8595012,170.724063 92.8958033,170.422664 92.9286126,170.117996 L93.3737591,170.889012 C103.76891,168.399735 114.062404,166.490529 123.115434,168.993872 C125.173222,169.562891 127.743244,170.275022 130.8255,171.130265 C131.212093,164.692341 132.88626,158.608267 135.589426,153.141028 C123.764972,134.052962 111.172612,126.318773 97.8123485,129.938454 C92.5555518,131.362672 85.7581057,128.876213 82.2140456,126.453301 C78.0254176,123.589729 74.6309663,114.841961 72.0306917,100.209999 C71.8287726,99.7576009 71.5294105,98.9407914 71.1326055,97.7595702 C69.9623047,94.2757839 68.1410206,91.6981545 65.6687532,90.0266822 L58.9930054,86.2589908 C62.6902372,86.9032259 65.7722347,87.8157862 68.238998,88.9966715 C70.497193,90.0777113 71.76689,91.1572325 72.048089,92.2352348 L74.4418611,76.2561978 C74.5924544,101.888078 78.699014,117.181079 86.7615399,122.135201 C91.2251718,124.877936 100.902056,121.007094 107.149331,122.135201 C123.050937,125.006647 135.37851,130.087 144.13205,137.376261 C145.002529,137.700446 145.964341,138.083886 146.998153,138.443248 C151.290449,134.759961 156.25871,131.865799 161.686663,129.980725 C161.90116,129.225808 162.081462,128.385447 162.081462,127.49979 C162.081462,125.66131 161.304522,124.018014 161.057567,122.929036 C160.776413,122.25226 160.485817,121.573834 160.185779,120.89376 L159.978395,121.25296 C156.967111,112.067922 149.668885,105.894912 138.083717,102.733928 C126.498549,99.5729443 115.092761,89.9256616 103.866352,73.7920799 C113.103822,84.7491928 123.295309,92.3878231 134.440813,96.7079708 C139.88841,98.8195329 146.059258,100.379498 151.071121,102.969679 C139.720731,77.9965831 137.902744,44.0041369 145.61716,0.992340248 C143.800857,22.3220442 144.74257,42.1254212 148.442297,60.4024714 C148.580195,60.5678178 148.723081,60.7417926 148.871135,60.9246081 C152.812721,65.7916645 160.975654,42.6982479 160.975654,46.166296 C160.975654,48.1431801 155.877102,60.4670022 152.712899,66.8088659 C152.480167,68.4866128 151.957755,70.8621959 151.957755,73.4962009 C151.957755,73.9062847 151.970418,74.3101047 151.992679,74.7060026 C153.902944,81.1564344 156.18953,87.3986048 158.852436,93.4325138 C159.830573,95.6488851 160.872127,97.8737953 161.947864,100.104709 C164.166538,101.415864 167.11993,103.325348 168.852863,99.4411772 C174.087537,87.7082487 177.769475,58.9477172 183.52487,52.0602182 C188.68202,45.8886418 199.964502,42.0118154 217.372316,40.4297388 C201.835958,44.0338278 191.951567,48.7954238 187.719144,54.7145268 C180.732255,64.485789 179.748306,104.201292 176.38583,120.372372 C178.018808,122.37973 179.897103,125.513967 182.649561,127.916627 C187.756577,128.617895 192.59612,130.176514 197.023527,132.44535 C197.972755,132.581349 198.789523,132.753252 199.414724,133.028323 C201.528686,130.011723 203.335913,126.46752 204.836402,122.395714 C207.678005,114.684596 212.870666,108.216082 220.414388,102.990172 C220.874227,101.673231 221.257835,100.433835 221.540368,99.3555161 C223.45704,92.0403272 222.074413,89.0131015 225.056102,80.7187133 C233.697255,56.6809673 242.577129,46.3048808 252.402766,36.5827458 C258.843598,30.2097614 269.195276,25.402632 283.457801,22.1613574 C258.871889,31.0125396 241.794111,49.0640785 232.224467,76.3159741 C229.651043,83.6444271 229.792818,90.7969843 229.065135,98.0233948 C239.937583,92.842274 254.117583,89.409292 271.605134,87.7244486 C246.279929,93.3998771 228.672371,104.876952 218.782461,122.155673 C215.335024,128.178712 212.54371,135.26797 209.06751,141.382321 C215.955434,148.499449 220.607024,157.861955 221.864077,168.291874 C222.663893,168.278332 223.47261,168.26594 224.287734,168.258385 C231.777204,165.365673 238.309703,161.131682 243.885233,155.556411 L243.446764,155.303261 C243.814689,155.182638 244.172948,155.048258 244.521541,154.90012 C246.268617,152.166678 248.509658,149.890247 251.244663,148.070827 C251.394399,147.856806 251.529431,147.635957 251.64976,147.40828 C251.828028,146.994975 251.995936,146.566923 252.153483,146.124126 C252.506061,144.814348 252.461569,143.320189 252.020007,141.641649 C251.256234,138.738264 251.919209,135.062928 254.008931,130.615642 C252.79133,133.985252 252.411454,137.146602 252.869302,140.099693 C252.990808,140.883398 253.174175,141.69294 253.326919,142.494738 C255.359055,137.34076 259.975816,132.258261 267.177204,127.24724 C261.698647,131.865975 257.879332,136.961718 255.719258,142.53447 C255.253194,143.736865 254.840874,145.009729 254.414263,146.272105 C261.313515,142.953101 270.670231,141.907717 282.484411,143.135955 C266.010383,143.353954 253.956475,149.587003 246.322689,161.8351 C244.222764,165.204343 242.103535,167.689261 240.042805,169.490375 C258.892524,172.708379 268.8283,178.613324 278.51191,185.433845 C285.336557,190.240695 291.882157,199.171443 298.148709,212.226089 C284.690524,190.446013 265.656316,177.956513 241.046083,174.757589 C237.22778,174.261273 231.868478,174.286404 226.267269,174.460368 C229.704631,177.476003 233.185679,181.892194 236.25923,188.270191 C243.704963,203.721004 257.783646,215.083191 278.495278,222.35675 C254.149593,216.166178 238.899153,206.833534 232.743961,194.358816 C228.764575,188.987343 224.993729,185.061198 221.431422,182.580381 Z M173.923026,220.45228 C173.495854,220.428406 173.070244,220.398569 172.646275,220.36285 C172.90103,220.68341 173.153787,221.015973 173.404021,221.360924 C173.564527,221.053112 173.737531,220.749977 173.923026,220.45228 Z M250.089769,271.616815 C250.087087,271.603753 250.084414,271.590692 250.08175,271.577632 C250.013183,271.544268 249.944734,271.510847 249.876405,271.47737 C249.94808,271.523887 250.019261,271.570383 250.089769,271.616815 Z" id="Combined-Shape" fill="#FC817D"></path>
                <path d="M153.693111,165.296053 C149.311728,165.296053 145.759916,161.712367 145.759916,157.291667 C145.759916,152.870966 149.311728,149.287281 153.693111,149.287281 C158.074493,149.287281 161.626305,152.870966 161.626305,157.291667 C161.626305,161.712367 158.074493,165.296053 153.693111,165.296053 Z M181.617954,155.210526 C176.360295,155.210526 172.098121,150.910104 172.098121,145.605263 C172.098121,140.300423 176.360295,136 181.617954,136 C186.875613,136 191.137787,140.300423 191.137787,145.605263 C191.137787,150.910104 186.875613,155.210526 181.617954,155.210526 Z M206.845511,173.780702 C201.237342,173.780702 196.691023,169.193584 196.691023,163.535088 C196.691023,157.876591 201.237342,153.289474 206.845511,153.289474 C212.453681,153.289474 217,157.876591 217,163.535088 C217,169.193584 212.453681,173.780702 206.845511,173.780702 Z M145.759916,185.14693 C143.131087,185.14693 141,182.996718 141,180.344298 C141,177.691878 143.131087,175.541667 145.759916,175.541667 C148.388746,175.541667 150.519833,177.691878 150.519833,180.344298 C150.519833,182.996718 148.388746,185.14693 145.759916,185.14693 Z M154.169102,201.796053 C152.416549,201.796053 150.995825,200.362578 150.995825,198.594298 C150.995825,196.826018 152.416549,195.392544 154.169102,195.392544 C155.921655,195.392544 157.34238,196.826018 157.34238,198.594298 C157.34238,200.362578 155.921655,201.796053 154.169102,201.796053 Z M167.814196,209 C166.762665,209 165.91023,208.139915 165.91023,207.078947 C165.91023,206.017979 166.762665,205.157895 167.814196,205.157895 C168.865728,205.157895 169.718163,206.017979 169.718163,207.078947 C169.718163,208.139915 168.865728,209 167.814196,209 Z" id="Combined-Shape" fill="#FFFFFF"></path>
                <circle id="nucleus" fill="#FFFFFF" cx="176.5" cy="178.5" r="14.5"></circle>
            </g>
        </g>
    </g>
</svg>