<?xml version="1.0" encoding="UTF-8"?>
<svg width="506px" height="506px" viewBox="0 0 506 506" version="1.1" xmlns="http://www.w3.org/2000/svg" xmlns:xlink="http://www.w3.org/1999/xlink">
    <!-- Generator: Sketch 51.1 (57501) - http://www.bohemiancoding.com/sketch -->
    <title>neuron</title>
    <desc>Created with Sketch.</desc>
    <defs>
        <radialGradient cx="50%" cy="51.7214674%" fx="50%" fy="51.7214674%" r="69.5040769%" id="radialGradient-1">
            <stop stop-color="#FFFFFF" offset="0%"></stop>
            <stop stop-color="#FFEEB8" offset="100%"></stop>
        </radialGradient>
    </defs>
    <g id="Page-1" stroke="none" stroke-width="1" fill="none" fill-rule="evenodd">
        <g id="neuron" transform="translate(-3.000000, -3.000000)">
            <rect id="Rectangle" stroke="#FBEAB1" stroke-width="4" fill="url(#radialGradient-1)" x="5" y="5" width="502" height="502" rx="96"></rect>
            <g id="frame" transform="translate(52.000000, 54.000000)" fill="#FFFFFF" stroke-width="2">
                <g id="medulla" stroke="#FDD8B5">
                    <path d="M1.5645325,14.3786295 C-1.00196722,20.8516902 1.39196927,31.5534389 8.74634198,46.4838757 C10.5263793,50.097608 13.8502719,56.0755912 18.71802,64.4178254 C24.8524004,67.2863607 29.3944213,68.7206283 32.3440827,68.7206283 C35.2937441,68.7206283 39.7879215,67.2863607 45.8266147,64.4178254 C43.8087739,56.5656392 42.5492393,50.587656 42.0480111,46.4838757 C41.5467829,42.3800953 41.5467829,38.0457046 42.0480111,33.4807033 C45.4184726,25.2193557 47.3837001,19.6450573 47.9436936,16.7578081 C48.5036872,13.870559 48.5036872,9.31241684 47.9436936,3.08338174 C37.543953,3.08338174 32.3440827,3.08338174 32.3440827,3.08338174 C32.3440827,3.08338174 29.7181056,3.08338174 24.4661514,3.08338174 C12.6966907,1.79039683 5.06281771,5.55547943 1.5645325,14.3786295 Z" id="Path-13"></path>
                    <path d="M47.0809489,3.49213242 C45.009481,-0.238314352 31.7674035,-0.534997099 29.5311916,3.49213242 C27.2949798,7.51926193 33.9186309,19.2945585 38.3060702,19.2945585 C42.6935096,19.2945585 49.1524167,7.22257918 47.0809489,3.49213242 Z" id="Path-14"></path>
                    <path d="M6.64651202,7.11160409 C5.91040513,0.874674269 23.0465985,-3.45622861 28.3574418,4.15830242 C30.2546201,6.87842086 27.7589473,10.5354713 28.3574418,16.5637006 C28.8758729,21.7855056 29.0734962,30.8641906 25.7822227,34.5478234 C23.0729792,37.5800412 19.1577792,33.6338104 16.3564077,29.9954017 C10.8732652,22.8739209 6.9713091,9.86356395 6.64651202,7.11160409 Z" id="Path-15"></path>
                    <path d="M23.6136675,36.0517763 C21.7082444,38.0757682 21.7082444,42.9344929 23.6136675,50.6279503 C25.5190905,58.3214078 27.0230434,64.2472526 28.1255261,68.4054847 L18.2593456,64.2087697 C11.2460099,53.1371098 6.72635063,44.7527805 4.70036787,39.0557817 C2.6743851,33.358783 1.14547035,24.7347157 0.113623594,13.1835798 L7.45397455,9.28016685 C9.08881041,16.3346624 10.8059793,21.3525191 12.6054812,24.3337367 C14.4049831,27.3149544 18.0743785,31.2209676 23.6136675,36.0517763 Z" id="Path-16"></path>
                    <path d="M24.9038843,36.9036002 C27.0903068,29.8199367 28.4164064,24.3605669 28.8821829,20.5254909 C29.3479594,16.6904149 29.3479594,11.2310451 28.8821829,4.1473816 C30.7239083,9.49190561 32.4753998,13.6433772 34.1366573,16.6017964 C35.5410299,19.102747 36.8551685,20.4106451 38.0790732,20.5254909 C35.4507959,25.9252295 34.1366573,31.3845993 34.1366573,36.9036002 C34.1366573,42.4226011 35.4507959,52.5638823 38.0790732,67.3274438 L28.8821829,69.3618365 C25.0584285,59.4332644 22.8623036,52.2952086 22.2938084,47.9476692 C21.7253132,43.6001297 22.5953385,39.9187733 24.9038843,36.9036002 Z" id="Path-17"></path>
                    <path d="M37.8200938,19.2929984 C41.6649142,17.3205534 44.2313068,15.3386846 45.5192716,13.3473921 C46.8072365,11.3560997 47.5082491,8.28630925 47.6223095,4.1380209 C51.3697202,9.66083543 50.6687075,17.1192352 45.5192716,26.5132203 C40.3698357,35.9072054 40.3698357,48.611239 45.5192716,64.6253209 L37.8200938,67.8110801 C35.3946317,53.6755524 34.1819007,43.0633759 34.1819007,35.9745505 C34.1819007,28.8857251 35.3946317,23.3252077 37.8200938,19.2929984 Z" id="Path-18"></path>
                </g>
                <g id="medulla" transform="translate(384.000000, 35.000000) scale(-1, 1) translate(-384.000000, -35.000000) translate(359.000000, 0.000000)" stroke="#FEDBB9">
                    <path d="M1.5645325,14.3786295 C-1.00196722,20.8516902 1.39196927,31.5534389 8.74634198,46.4838757 C10.5263793,50.097608 13.8502719,56.0755912 18.71802,64.4178254 C24.8524004,67.2863607 29.3944213,68.7206283 32.3440827,68.7206283 C35.2937441,68.7206283 39.7879215,67.2863607 45.8266147,64.4178254 C43.8087739,56.5656392 42.5492393,50.587656 42.0480111,46.4838757 C41.5467829,42.3800953 41.5467829,38.0457046 42.0480111,33.4807033 C45.4184726,25.2193557 47.3837001,19.6450573 47.9436936,16.7578081 C48.5036872,13.870559 48.5036872,9.31241684 47.9436936,3.08338174 C37.543953,3.08338174 32.3440827,3.08338174 32.3440827,3.08338174 C32.3440827,3.08338174 29.7181056,3.08338174 24.4661514,3.08338174 C12.6966907,1.79039683 5.06281771,5.55547943 1.5645325,14.3786295 Z" id="Path-13"></path>
                    <path d="M47.0809489,3.49213242 C45.009481,-0.238314352 31.7674035,-0.534997099 29.5311916,3.49213242 C27.2949798,7.51926193 33.9186309,19.2945585 38.3060702,19.2945585 C42.6935096,19.2945585 49.1524167,7.22257918 47.0809489,3.49213242 Z" id="Path-14"></path>
                    <path d="M6.64651202,7.11160409 C5.91040513,0.874674269 23.0465985,-3.45622861 28.3574418,4.15830242 C30.2546201,6.87842086 27.7589473,10.5354713 28.3574418,16.5637006 C28.8758729,21.7855056 29.0734962,30.8641906 25.7822227,34.5478234 C23.0729792,37.5800412 19.1577792,33.6338104 16.3564077,29.9954017 C10.8732652,22.8739209 6.9713091,9.86356395 6.64651202,7.11160409 Z" id="Path-15"></path>
                    <path d="M23.6136675,36.0517763 C21.7082444,38.0757682 21.7082444,42.9344929 23.6136675,50.6279503 C25.5190905,58.3214078 27.0230434,64.2472526 28.1255261,68.4054847 L18.2593456,64.2087697 C11.2460099,53.1371098 6.72635063,44.7527805 4.70036787,39.0557817 C2.6743851,33.358783 1.14547035,24.7347157 0.113623594,13.1835798 L7.45397455,9.28016685 C9.08881041,16.3346624 10.8059793,21.3525191 12.6054812,24.3337367 C14.4049831,27.3149544 18.0743785,31.2209676 23.6136675,36.0517763 Z" id="Path-16"></path>
                    <path d="M24.9038843,36.9036002 C27.0903068,29.8199367 28.4164064,24.3605669 28.8821829,20.5254909 C29.3479594,16.6904149 29.3479594,11.2310451 28.8821829,4.1473816 C30.7239083,9.49190561 32.4753998,13.6433772 34.1366573,16.6017964 C35.5410299,19.102747 36.8551685,20.4106451 38.0790732,20.5254909 C35.4507959,25.9252295 34.1366573,31.3845993 34.1366573,36.9036002 C34.1366573,42.4226011 35.4507959,52.5638823 38.0790732,67.3274438 L28.8821829,69.3618365 C25.0584285,59.4332644 22.8623036,52.2952086 22.2938084,47.9476692 C21.7253132,43.6001297 22.5953385,39.9187733 24.9038843,36.9036002 Z" id="Path-17"></path>
                    <path d="M37.8200938,19.2929984 C41.6649142,17.3205534 44.2313068,15.3386846 45.5192716,13.3473921 C46.8072365,11.3560997 47.5082491,8.28630925 47.6223095,4.1380209 C51.3697202,9.66083543 50.6687075,17.1192352 45.5192716,26.5132203 C40.3698357,35.9072054 40.3698357,48.611239 45.5192716,64.6253209 L37.8200938,67.8110801 C35.3946317,53.6755524 34.1819007,43.0633759 34.1819007,35.9745505 C34.1819007,28.8857251 35.3946317,23.3252077 37.8200938,19.2929984 Z" id="Path-18"></path>
                </g>
                <g id="medulla" transform="translate(384.000000, 371.000000) scale(-1, -1) translate(-384.000000, -371.000000) translate(359.000000, 336.000000)" stroke="#E3D3CA">
                    <path d="M1.5645325,14.3786295 C-1.00196722,20.8516902 1.39196927,31.5534389 8.74634198,46.4838757 C10.5263793,50.097608 13.8502719,56.0755912 18.71802,64.4178254 C24.8524004,67.2863607 29.3944213,68.7206283 32.3440827,68.7206283 C35.2937441,68.7206283 39.7879215,67.2863607 45.8266147,64.4178254 C43.8087739,56.5656392 42.5492393,50.587656 42.0480111,46.4838757 C41.5467829,42.3800953 41.5467829,38.0457046 42.0480111,33.4807033 C45.4184726,25.2193557 47.3837001,19.6450573 47.9436936,16.7578081 C48.5036872,13.870559 48.5036872,9.31241684 47.9436936,3.08338174 C37.543953,3.08338174 32.3440827,3.08338174 32.3440827,3.08338174 C32.3440827,3.08338174 29.7181056,3.08338174 24.4661514,3.08338174 C12.6966907,1.79039683 5.06281771,5.55547943 1.5645325,14.3786295 Z" id="Path-13"></path>
                    <path d="M47.0809489,3.49213242 C45.009481,-0.238314352 31.7674035,-0.534997099 29.5311916,3.49213242 C27.2949798,7.51926193 33.9186309,19.2945585 38.3060702,19.2945585 C42.6935096,19.2945585 49.1524167,7.22257918 47.0809489,3.49213242 Z" id="Path-14"></path>
                    <path d="M6.64651202,7.11160409 C5.91040513,0.874674269 23.0465985,-3.45622861 28.3574418,4.15830242 C30.2546201,6.87842086 27.7589473,10.5354713 28.3574418,16.5637006 C28.8758729,21.7855056 29.0734962,30.8641906 25.7822227,34.5478234 C23.0729792,37.5800412 19.1577792,33.6338104 16.3564077,29.9954017 C10.8732652,22.8739209 6.9713091,9.86356395 6.64651202,7.11160409 Z" id="Path-15"></path>
                    <path d="M23.6136675,36.0517763 C21.7082444,38.0757682 21.7082444,42.9344929 23.6136675,50.6279503 C25.5190905,58.3214078 27.0230434,64.2472526 28.1255261,68.4054847 L18.2593456,64.2087697 C11.2460099,53.1371098 6.72635063,44.7527805 4.70036787,39.0557817 C2.6743851,33.358783 1.14547035,24.7347157 0.113623594,13.1835798 L7.45397455,9.28016685 C9.08881041,16.3346624 10.8059793,21.3525191 12.6054812,24.3337367 C14.4049831,27.3149544 18.0743785,31.2209676 23.6136675,36.0517763 Z" id="Path-16"></path>
                    <path d="M24.9038843,36.9036002 C27.0903068,29.8199367 28.4164064,24.3605669 28.8821829,20.5254909 C29.3479594,16.6904149 29.3479594,11.2310451 28.8821829,4.1473816 C30.7239083,9.49190561 32.4753998,13.6433772 34.1366573,16.6017964 C35.5410299,19.102747 36.8551685,20.4106451 38.0790732,20.5254909 C35.4507959,25.9252295 34.1366573,31.3845993 34.1366573,36.9036002 C34.1366573,42.4226011 35.4507959,52.5638823 38.0790732,67.3274438 L28.8821829,69.3618365 C25.0584285,59.4332644 22.8623036,52.2952086 22.2938084,47.9476692 C21.7253132,43.6001297 22.5953385,39.9187733 24.9038843,36.9036002 Z" id="Path-17"></path>
                    <path d="M37.8200938,19.2929984 C41.6649142,17.3205534 44.2313068,15.3386846 45.5192716,13.3473921 C46.8072365,11.3560997 47.5082491,8.28630925 47.6223095,4.1380209 C51.3697202,9.66083543 50.6687075,17.1192352 45.5192716,26.5132203 C40.3698357,35.9072054 40.3698357,48.611239 45.5192716,64.6253209 L37.8200938,67.8110801 C35.3946317,53.6755524 34.1819007,43.0633759 34.1819007,35.9745505 C34.1819007,28.8857251 35.3946317,23.3252077 37.8200938,19.2929984 Z" id="Path-18"></path>
                </g>
                <g id="medulla" transform="translate(25.000000, 371.000000) scale(1, -1) translate(-25.000000, -371.000000) translate(0.000000, 336.000000)" stroke="#FEE0C2">
                    <path d="M1.5645325,14.3786295 C-1.00196722,20.8516902 1.39196927,31.5534389 8.74634198,46.4838757 C10.5263793,50.097608 13.8502719,56.0755912 18.71802,64.4178254 C24.8524004,67.2863607 29.3944213,68.7206283 32.3440827,68.7206283 C35.2937441,68.7206283 39.7879215,67.2863607 45.8266147,64.4178254 C43.8087739,56.5656392 42.5492393,50.587656 42.0480111,46.4838757 C41.5467829,42.3800953 41.5467829,38.0457046 42.0480111,33.4807033 C45.4184726,25.2193557 47.3837001,19.6450573 47.9436936,16.7578081 C48.5036872,13.870559 48.5036872,9.31241684 47.9436936,3.08338174 C37.543953,3.08338174 32.3440827,3.08338174 32.3440827,3.08338174 C32.3440827,3.08338174 29.7181056,3.08338174 24.4661514,3.08338174 C12.6966907,1.79039683 5.06281771,5.55547943 1.5645325,14.3786295 Z" id="Path-13"></path>
                    <path d="M47.0809489,3.49213242 C45.009481,-0.238314352 31.7674035,-0.534997099 29.5311916,3.49213242 C27.2949798,7.51926193 33.9186309,19.2945585 38.3060702,19.2945585 C42.6935096,19.2945585 49.1524167,7.22257918 47.0809489,3.49213242 Z" id="Path-14"></path>
                    <path d="M6.64651202,7.11160409 C5.91040513,0.874674269 23.0465985,-3.45622861 28.3574418,4.15830242 C30.2546201,6.87842086 27.7589473,10.5354713 28.3574418,16.5637006 C28.8758729,21.7855056 29.0734962,30.8641906 25.7822227,34.5478234 C23.0729792,37.5800412 19.1577792,33.6338104 16.3564077,29.9954017 C10.8732652,22.8739209 6.9713091,9.86356395 6.64651202,7.11160409 Z" id="Path-15"></path>
                    <path d="M23.6136675,36.0517763 C21.7082444,38.0757682 21.7082444,42.9344929 23.6136675,50.6279503 C25.5190905,58.3214078 27.0230434,64.2472526 28.1255261,68.4054847 L18.2593456,64.2087697 C11.2460099,53.1371098 6.72635063,44.7527805 4.70036787,39.0557817 C2.6743851,33.358783 1.14547035,24.7347157 0.113623594,13.1835798 L7.45397455,9.28016685 C9.08881041,16.3346624 10.8059793,21.3525191 12.6054812,24.3337367 C14.4049831,27.3149544 18.0743785,31.2209676 23.6136675,36.0517763 Z" id="Path-16"></path>
                    <path d="M24.9038843,36.9036002 C27.0903068,29.8199367 28.4164064,24.3605669 28.8821829,20.5254909 C29.3479594,16.6904149 29.3479594,11.2310451 28.8821829,4.1473816 C30.7239083,9.49190561 32.4753998,13.6433772 34.1366573,16.6017964 C35.5410299,19.102747 36.8551685,20.4106451 38.0790732,20.5254909 C35.4507959,25.9252295 34.1366573,31.3845993 34.1366573,36.9036002 C34.1366573,42.4226011 35.4507959,52.5638823 38.0790732,67.3274438 L28.8821829,69.3618365 C25.0584285,59.4332644 22.8623036,52.2952086 22.2938084,47.9476692 C21.7253132,43.6001297 22.5953385,39.9187733 24.9038843,36.9036002 Z" id="Path-17"></path>
                    <path d="M37.8200938,19.2929984 C41.6649142,17.3205534 44.2313068,15.3386846 45.5192716,13.3473921 C46.8072365,11.3560997 47.5082491,8.28630925 47.6223095,4.1380209 C51.3697202,9.66083543 50.6687075,17.1192352 45.5192716,26.5132203 C40.3698357,35.9072054 40.3698357,48.611239 45.5192716,64.6253209 L37.8200938,67.8110801 C35.3946317,53.6755524 34.1819007,43.0633759 34.1819007,35.9745505 C34.1819007,28.8857251 35.3946317,23.3252077 37.8200938,19.2929984 Z" id="Path-18"></path>
                </g>
            </g>
            <g id="shape" transform="translate(94.000000, 93.000000)">
                <path d="M221.424148,182.573272 C219.74201,191.757551 215.406747,199.992835 209.257936,206.425148 C209.146184,207.779909 209.359519,208.950826 209.359519,209.618727 C209.359519,212.049855 214.884198,215.523716 216.400526,217.814567 C225.169342,223.510989 229.798835,235.727826 235.649982,245.763888 C243.804529,249.113576 254.167705,248.232545 266.73951,243.120796 C279.090416,235.395216 298.173811,234.938143 323.989694,241.749576 C300.95587,237.692977 281.872475,240.493488 266.73951,250.151111 C257.785175,255.865628 250.208546,257.670708 244.355881,257.662298 C254.617254,268.90733 268.986512,277.193671 287.463655,282.521322 C274.807574,280.446566 263.942584,277.517145 254.868684,273.733058 C257.113401,282.873954 262.179378,290.508933 269.288923,298.102642 C272.664891,301.708516 278.815056,307.003278 287.739421,313.986928 C266.014297,299.713855 253.542052,285.948856 250.322686,272.691931 C249.83286,272.069595 249.387709,271.517143 248.987235,271.034576 C236.555296,264.760285 228.176929,256.551727 223.852133,246.4089 C217.513462,231.542985 207.446317,223.65889 193.650697,222.756614 C191.263033,223.7884 187.82156,224.907413 185.317504,227.411469 C182.415002,230.31397 180.437857,234.589248 179.730798,236.269364 C179.874181,236.907297 180.009704,237.561491 180.136845,238.232326 C183.330704,255.084127 193.989712,269.703657 212.113869,282.090915 C190.199143,269.809012 177.883074,256.846543 175.165661,243.20351 C172.989161,237.687826 170.676888,233.312928 168.228843,230.078816 C166.625698,229.162151 163.975735,226.564061 160.97804,226.564061 C158.536206,226.564061 156.3251,228.287959 154.722571,229.422729 C153.008802,231.181264 150.883333,233.025107 148.276511,234.948838 C131.954121,246.994114 127.220964,262.183784 134.07704,280.517848 C131.16002,275.311092 129.031738,270.448404 127.692197,265.929783 C126.782117,269.268875 125.64469,272.841465 123.998722,276.831723 C115.503751,297.425759 106.774097,306.31534 97.1146794,314.644657 C90.7828071,320.104631 80.6062477,324.223079 66.5850012,327 C90.754995,319.416861 107.543869,303.951433 116.951624,280.603714 C119.687665,273.813539 120.836868,265.547041 122.462301,258.111229 C116.612327,264.578271 108.430311,269.932516 97.9162513,274.173967 L98.9665662,274.181614 C98.3380616,274.24927 97.7373776,274.346652 97.1645144,274.47376 C96.0707773,274.904958 94.9523267,275.324364 93.8091627,275.731976 C90.8882418,277.394904 89.1325182,280.302841 88.5419918,284.455788 C88.4097812,285.385575 88.1751278,286.296357 87.8380317,287.188136 C87.9676152,288.235808 88.2272094,289.244056 88.6168141,290.212881 C89.7843487,293.116174 88.7708988,296.791393 85.5764646,301.238538 C87.4377389,297.869035 88.018433,294.707786 87.318547,291.754789 C87.1477914,291.034328 86.8971152,290.292031 86.6763617,289.55399 C84.1911711,293.637833 79.3824822,297.290649 72.2502949,300.512437 C78.8436194,296.537561 83.0106611,291.64281 84.7514198,285.828183 C85.5103777,283.293048 85.8970057,280.381911 86.8481535,277.979528 C80.6490651,279.788459 73.8317573,281.30239 66.3962302,282.521322 C90.0516789,275.700572 106.974091,264.030374 117.163465,247.510728 C124.010962,236.409142 128.865482,221.816156 139.642384,216.578876 C139.854823,216.475636 140.074457,216.368929 140.301286,216.258753 C140.379414,216.027612 140.451313,215.789989 140.516251,215.545536 C141.721357,211.009054 137.413003,200.118682 136.608392,196.822999 C134.668354,193.325039 133.16051,189.54612 132.158575,185.561222 C122.547317,180.080674 111.484485,178.420451 98.9700796,180.580554 L99.4126029,181.347027 C96.0394878,185.251818 93.5544179,188.12544 91.9573933,189.967894 C88.1155673,194.40013 81.3985579,195.712762 74.9134302,197.195795 C74.6150494,198.754535 74.3825904,199.965563 74.2160532,200.828879 C73.5063268,204.508043 69.4912728,207.155511 66.692138,210.122396 C66.4273087,210.403097 66.170604,210.690432 65.9220239,210.984402 C66.2287834,211.866863 66.4625245,212.540406 66.6232474,213.005031 C67.235718,214.775587 66.1590157,216.925738 65.688676,218.910221 C64.9887899,221.863218 65.5694841,225.024467 67.4307584,228.39397 C64.2363241,223.946825 63.2228743,220.271606 64.3904088,217.368313 C65.0819596,215.648643 65.1363817,214.122506 64.5536753,212.789903 C61.78666,216.87532 60.3440228,222.042291 60.2257635,228.290815 C59.4514791,220.519917 60.2056676,214.538038 62.4883289,210.345179 C62.473942,210.334541 62.4594921,210.323922 62.4449792,210.313322 L62.505721,210.313322 C63.421342,208.6408 64.5812286,207.254182 65.9853806,206.153467 C68.9692916,203.81438 70.5963808,201.159465 70.8666482,198.188724 C70.4508877,198.301939 70.0390572,198.418983 69.6320721,198.540824 C58.0028184,202.022342 48.2133158,210.356425 40.2635643,223.543074 C49.2800578,203.582939 59.9844901,192.721808 72.3768614,190.95968 C79.1541141,189.995992 84.2735471,187.480759 87.7351604,183.413983 C64.5826242,190.644148 35.3375682,184.112894 0,163.820219 C10.8604696,168.616263 21.4505018,172.082856 31.7700966,174.219997 C29.9315897,171.52292 25.2886872,166.43956 22.6287276,161.529487 C20.9222324,158.379433 19.0758933,153.079486 17.08971,145.629646 C19.8437556,152.340047 22.101135,157.021131 23.8618483,159.672898 C27.2297359,164.745192 32.0223069,168.472973 34.7424933,171.732475 C35.9088101,173.130031 36.9771889,174.33441 37.9476298,175.345613 C51.0324983,177.400753 63.6732875,177.272831 75.8699974,174.961847 C81.41902,173.91044 87.1299581,172.385259 92.8165456,171.01321 C92.8562476,170.715575 92.8924688,170.414682 92.9252093,170.110531 L93.3696081,170.880253 C103.764829,168.390694 114.058433,166.481137 123.111518,168.98472 C125.16924,169.553772 127.73918,170.265945 130.821339,171.121237 C131.207919,164.68294 132.882033,158.598513 135.585113,153.130958 C123.761035,134.041786 111.169075,126.307149 97.8092372,129.92704 C92.5526077,131.351341 85.7553778,128.864737 82.2114304,126.441686 C78.0229356,123.577947 74.6285923,114.829673 72.0284005,100.196863 C71.8264878,99.7444389 71.5271352,98.927582 71.1303428,97.7462925 C69.9600793,94.2623043 68.1388531,91.6845257 65.6666643,90.0129565 L58.9911289,86.2450469 C62.6882431,86.8893193 65.7701426,87.8019324 68.2368273,88.9828862 C70.4949506,90.0639886 71.7646072,91.1435723 72.0457972,92.2216371 L74.4394932,76.2416745 C74.5900817,101.875039 78.6965106,117.168926 86.7587801,122.123335 C91.22227,124.866229 100.898846,120.995162 107.145923,122.123335 C123.047023,124.994947 135.374204,130.075595 144.127466,137.365278 C144.997917,137.689481 145.959698,138.072944 146.993477,138.432326 C151.285637,134.748826 156.253739,131.854497 161.681519,129.969314 C161.89601,129.214353 162.076306,128.373943 162.076306,127.488235 C162.076306,125.646253 161.296519,124.000188 161.051081,122.911188 C160.770392,122.235618 160.480294,121.558405 160.180786,120.879548 L159.973014,121.23942 C156.962114,112.054174 149.664197,105.881228 138.07926,102.720582 C126.494324,99.5599363 115.089017,89.9127544 103.863341,73.7790364 C113.100298,84.7361792 123.291393,92.3746846 134.436625,96.6945526 C139.883802,98.8058666 146.054167,100.365594 151.065741,102.955427 C139.715434,77.9832557 137.898157,43.9918193 145.61391,0.981117841 C143.797135,22.3091368 144.738248,42.1109747 148.437249,60.3866313 C148.575245,60.5521134 148.718235,60.7262275 148.866399,60.9091968 C152.80786,65.7765351 160.970533,42.681781 160.970533,46.1500299 C160.970533,48.1270285 155.872143,60.4515644 152.708041,66.7937954 C152.475317,68.4716396 151.952922,70.8473602 151.952922,73.4815178 C151.952922,73.891822 151.965596,74.295856 151.987876,74.691959 C153.898142,81.1424571 156.184783,87.384674 158.847799,93.4186097 C159.826338,95.6358111 160.86835,97.8615568 161.944562,100.093309 C164.162895,101.404443 167.11475,103.311342 168.847135,99.4282507 C174.081938,87.6945957 177.764426,58.9324887 183.519827,52.044503 C188.676982,45.8724906 199.95926,41.9952098 217.366661,40.4126606 C201.830623,44.0172853 191.94638,48.7793502 187.713933,54.6988554 C180.726886,64.4709486 179.742157,104.189727 176.379266,120.361192 C178.012231,122.368405 179.890519,125.502297 182.642754,127.904959 C187.750658,128.606296 192.591002,130.165383 197.019038,132.434993 C197.966857,132.570853 198.782576,132.742528 199.407344,133.016991 C201.521634,130.000133 203.329062,126.455484 204.829627,122.383044 C207.670949,114.671876 212.863463,108.203459 220.407169,102.977793 C220.867085,101.660553 221.250754,100.420875 221.533321,99.3423307 C223.449932,92.0267182 222.067349,88.9993171 225.048943,80.7044485 C233.689821,56.6653103 242.569413,46.2886227 252.394738,36.5659246 C258.835364,30.1925711 269.186713,25.3851632 283.448784,22.1437009 C258.863654,30.9953958 241.786419,49.0479803 232.21708,76.3014543 C229.643584,83.6307701 229.785525,90.7841588 229.057718,98.0114289 C239.930058,92.8307642 254.110044,89.398395 271.597676,87.7143212 C246.272394,93.3886876 228.665121,104.865122 218.775858,122.143625 C215.328374,128.167062 212.537174,135.256928 209.060822,141.371531 C215.948547,148.489076 220.600004,157.852139 221.85702,168.282681 C222.65681,168.269138 223.465502,168.256746 224.2806,168.24919 C231.770195,165.35617 238.302757,161.121663 243.878288,155.545669 L243.438766,155.291911 C243.807208,155.171137 244.165955,155.036568 244.515009,154.888202 C246.261598,152.155862 248.501758,149.88021 251.235492,148.061248 C251.385932,147.846373 251.521545,147.624614 251.64233,147.395969 C251.820323,146.983207 251.987982,146.555738 252.145309,146.113563 C252.498051,144.803708 252.453601,143.309432 252.011959,141.630735 C251.248141,138.727442 251.911154,135.052223 254.000997,130.605078 C252.783326,133.974581 252.403428,137.135831 252.861303,140.088828 C252.982804,140.872434 253.166158,141.681871 253.318903,142.483568 C255.350976,137.329829 259.967661,132.247664 267.168958,127.237075 C261.690387,131.855554 257.871134,136.951101 255.7112,142.523717 C255.245121,143.726198 254.832801,144.999165 254.40618,146.261633 C261.305211,142.942439 270.661627,141.896997 282.475426,143.125306 C266.001921,143.343318 253.948397,149.576727 246.314854,161.825534 C244.214996,165.194972 242.095834,167.680034 240.03517,169.481252 C258.884289,172.699443 268.819749,178.604729 278.50305,185.425646 C285.327481,190.232774 291.872873,199.164039 298.139225,212.219441 C284.681468,190.438103 265.647865,177.94788 241.038416,174.748771 C237.219608,174.252345 231.859344,174.277567 226.257315,174.451619 C229.695167,177.467375 233.176801,181.883843 236.250938,188.262376 C243.697536,203.713334 257.77716,215.075961 278.48981,222.350257 C254.14302,216.158797 238.891677,206.825647 232.735781,194.350807 C228.756702,188.980118 224.986158,185.054273 221.424148,182.573272 Z M173.917605,220.446115 C173.489587,220.422192 173.063136,220.392283 172.638334,220.356467 C172.893603,220.677641 173.146867,221.010865 173.397599,221.356525 C173.558392,221.048107 173.731729,220.744382 173.917605,220.446115 Z M250.08087,271.612986 C250.078092,271.599459 250.075324,271.585934 250.072565,271.572409 C250.001468,271.537815 249.930499,271.50316 249.859658,271.468444 C249.933985,271.516662 250.007788,271.564858 250.08087,271.612986 Z" id="Combined-Shape" fill="#CEA872"></path>
                <path d="M153.693111,165.296053 C149.311728,165.296053 145.759916,161.712367 145.759916,157.291667 C145.759916,152.870966 149.311728,149.287281 153.693111,149.287281 C158.074493,149.287281 161.626305,152.870966 161.626305,157.291667 C161.626305,161.712367 158.074493,165.296053 153.693111,165.296053 Z M181.617954,155.210526 C176.360295,155.210526 172.098121,150.910104 172.098121,145.605263 C172.098121,140.300423 176.360295,136 181.617954,136 C186.875613,136 191.137787,140.300423 191.137787,145.605263 C191.137787,150.910104 186.875613,155.210526 181.617954,155.210526 Z M206.845511,173.780702 C201.237342,173.780702 196.691023,169.193584 196.691023,163.535088 C196.691023,157.876591 201.237342,153.289474 206.845511,153.289474 C212.453681,153.289474 217,157.876591 217,163.535088 C217,169.193584 212.453681,173.780702 206.845511,173.780702 Z M145.759916,185.14693 C143.131087,185.14693 141,182.996718 141,180.344298 C141,177.691878 143.131087,175.541667 145.759916,175.541667 C148.388746,175.541667 150.519833,177.691878 150.519833,180.344298 C150.519833,182.996718 148.388746,185.14693 145.759916,185.14693 Z M154.169102,201.796053 C152.416549,201.796053 150.995825,200.362578 150.995825,198.594298 C150.995825,196.826018 152.416549,195.392544 154.169102,195.392544 C155.921655,195.392544 157.34238,196.826018 157.34238,198.594298 C157.34238,200.362578 155.921655,201.796053 154.169102,201.796053 Z M167.814196,209 C166.762665,209 165.91023,208.139915 165.91023,207.078947 C165.91023,206.017979 166.762665,205.157895 167.814196,205.157895 C168.865728,205.157895 169.718163,206.017979 169.718163,207.078947 C169.718163,208.139915 168.865728,209 167.814196,209 Z" id="Combined-Shape" fill="#FFFFFF"></path>
                <circle id="nucleus" fill="#FFFFFF" cx="176.5" cy="178.5" r="14.5"></circle>
            </g>
        </g>
    </g>
</svg>