<?xml version="1.0" encoding="UTF-8"?>
<svg width="506px" height="506px" viewBox="0 0 506 506" version="1.1" xmlns="http://www.w3.org/2000/svg" xmlns:xlink="http://www.w3.org/1999/xlink">
    <!-- Generator: Sketch 51.1 (57501) - http://www.bohemiancoding.com/sketch -->
    <title>neuron</title>
    <desc>Created with Sketch.</desc>
    <defs>
        <radialGradient cx="50%" cy="51.7214674%" fx="50%" fy="51.7214674%" r="67.8672283%" id="radialGradient-1">
            <stop stop-color="#FFFFFF" offset="0%"></stop>
            <stop stop-color="#D2D2D2" offset="100%"></stop>
        </radialGradient>
    </defs>
    <g id="Page-1" stroke="none" stroke-width="1" fill="none" fill-rule="evenodd">
        <g id="neuron" transform="translate(-3.000000, -3.000000)">
            <rect id="Rectangle" stroke="#D1CECE" stroke-width="4" fill="url(#radialGradient-1)" x="5" y="5" width="502" height="502" rx="96"></rect>
            <g id="frame" transform="translate(45.000000, 44.000000)" fill="#FFFFFF">
                <path d="M67.4542931,0.328474178 C70.3963036,1.6666639 62.9055842,3.49739 63.296547,4.99859685 C63.4500411,5.58797901 71.790252,3.38507672 72.3472669,4.24354952 C74.3230466,7.28862609 74.9864072,8.61770676 74.9864072,11.9369874 C74.9864072,15.256268 71.5513533,17.8198306 71.5513533,22.8391129 C71.5513533,27.8583952 74.9864072,25.1480117 74.9864072,28.5985691 C74.9864072,32.0491265 72.5065781,35.3204635 71.5513533,42.5450382 C70.5961284,49.7696128 73.6609189,52.0829787 71.5513533,54.5786343 C69.4417876,57.0742898 63.7891899,52.2745782 61.3794124,54.5786343 C58.9696349,56.8826903 65.5806387,54.8523399 69.0870983,57.2342369 C72.5935579,59.6161339 71.7879876,61.819654 71.5513533,64.2888607 C71.3640641,66.2431654 73.2699961,69.2482102 71.5513533,72.1784408 C68.5585414,75.9397029 64.4168528,74.2720571 61.3794124,74.2720571 C58.3419721,74.2720571 55.9317399,76.0497327 51.0619532,74.2720571 C46.1921664,72.4943814 46.9056621,72.6097921 45.3621411,68.4250838 C43.81862,64.2403755 44.0080746,62.1084532 45.3621411,58.8190443 C46.7162075,55.5296354 48.1735583,54.5786343 51.0619532,54.5786343 C53.950348,54.5786343 56.2749739,59.8802192 57.8869709,58.8190443 C59.498968,57.7578695 55.6654254,55.5957809 54.1272978,52.9561354 C52.5891703,50.31649 48.0637717,52.3837881 45.3621411,52.9561354 C42.6605104,53.5284828 41.3899356,60.1526376 41.3899356,64.2888607 C41.3899356,68.4250838 43.7798301,72.6512637 45.3621411,74.2720571 C46.944452,75.8928504 48.5479633,75.1274063 49.1960826,75.8928504 C49.7811894,76.5838752 47.8915395,77.5605539 46.944452,77.6160339 C44.770695,77.7433716 36.5407964,74.5774347 33.8887329,72.1784408 C32.1271438,70.5849489 30.4680258,66.8181005 30.4680258,61.4883147 C30.4680258,56.1585289 33.8887329,56.1412413 33.8887329,51.0591981 C33.8887329,45.9771549 29.327794,44.9624884 30.4680258,42.5450382 C31.6082576,40.1275879 36.7355167,37.0395188 39.79555,38.5359232 C42.8555834,40.0323276 38.3576761,47.1063441 39.79555,47.1063441 C41.233424,47.1063441 43.7186336,40.715555 48.3196488,38.5359232 C52.9206639,36.3562914 53.6949002,41.1387447 57.8869709,38.5359232 C60.6816847,36.8007088 62.8275687,33.4882575 64.3246228,28.5985691 C66.9170777,22.0970407 67.9603011,18.3515188 67.4542931,17.3620034 C66.9482851,16.372488 65.9050616,19.1500374 64.3246228,25.6946515 C61.7961723,30.8093972 59.6502883,34.3357966 57.8869709,36.2738498 C55.2419948,39.1809295 54.331733,34.3955326 52.6357166,34.3955326 C50.9397003,34.3955326 45.2283832,39.7313012 42.808444,36.2738498 C40.3885049,32.8163983 44.6656881,27.6050415 48.3196488,22.8391129 C51.9736094,18.0731843 53.1324642,19.8452803 57.8869709,16.6066478 C62.6414776,13.3680153 65.5034494,12.7435377 64.3246228,11.9369874 C63.1457961,11.1304371 57.0815835,14.1110135 51.0619532,11.9369874 C45.0423229,9.76296134 46.8156843,7.22175172 48.3196488,6.1566938 C49.8236132,5.09163587 63.3572329,-1.53509627 67.4542931,0.328474178 Z M42.5931251,11.7228935 C45.9445968,9.70964513 47.0434114,14.4818234 53.5354411,14.4818234 C56.5816463,14.4818234 54.0175618,15.1839782 49.1619771,18.8369285 C47.1187925,20.3740559 46.7766984,20.3960515 44.0700618,25.1451756 C41.9082584,28.9383236 41.7905521,30.759109 40.1283459,32.7707558 C39.7094248,33.2777454 41.4639937,35.9725582 40.7914196,36.5384232 C40.2058373,37.0310985 36.8418134,36.1621511 36.4423115,36.5384232 C35.2810972,37.6321166 33.7080967,38.0784395 32.0686412,38.817407 C31.0538459,39.2748155 30.3962593,42.0155147 28.5296656,42.3521721 C26.5265228,42.7134574 25.1728221,39.5683883 23.2998704,38.817407 C21.4828815,38.0888648 12.6235791,37.9346702 17.3387806,32.7707558 C22.0539822,27.6068415 29.9051362,30.0448849 35.7840679,25.1451756 C41.6629996,20.2454664 39.2416533,13.7361419 42.5931251,11.7228935 Z M39.1998329,13.0189463 C40.0406496,14.3379327 39.2759492,17.2528017 36.9057318,21.7635534 L31.7271231,26.0172584 L21.8698468,28.4565597 L26.5848738,20.737753 L32.6438979,15.0780282 C36.1737046,12.3863205 38.3590162,11.6999598 39.1998329,13.0189463 Z M39.445989,9.43154846 C41.8169531,7.67091313 43.1168047,6.02942265 44.2948199,6.02942265 C44.5903078,6.02942265 45.1979612,5.79957255 45.4491256,6.02942265 C45.6444099,6.2081348 47.3353832,5.21764602 47.3772376,5.6054116 C47.4210116,6.01096124 45.6127266,7.06218389 45.4491256,7.697525 C45.2555453,8.44928993 46.8821102,10.4159277 46.7693993,10.6474266 C46.370228,11.4672918 43.5223852,9.71538676 42.1415035,10.6474266 C40.7606218,11.5794665 41.4827074,12.6122747 40.5215799,12.7574445 C39.8854776,12.8535221 39.1927629,12.1048627 38.7475233,11.4345502 C38.520022,11.0920447 36.0746704,12.1592207 36.0169594,11.9807691 C35.846303,11.4530726 37.0750249,11.1921838 39.445989,9.43154846 Z M27.9192729,44.3822429 C30.5520496,46.233172 31.9575742,47.0337951 32.2074381,50.53068 C32.4573021,54.027565 29.6829888,54.4450902 28.9011711,58.124062 C28.1193533,61.8030339 27.5772459,61.5014674 28.9011711,66.0888632 C30.2250963,70.676259 33.5662059,73.3584616 33.5662059,74.2883903 C33.5662059,74.8295508 35.0713789,78.6911801 32.2074381,79.7560454 C30.1499916,80.5210414 24.0087061,78.6673318 21.967449,78.5855031 C17.0847867,78.3897697 11.8989341,74.4936003 10.368692,73.3584616 C8.83844995,72.2233228 7.0320872,68.1622355 10.368692,67.0540008 C13.7052969,65.9457661 18.3480143,70.1192445 20.1211273,70.1192445 C21.8942404,70.1192445 25.296628,68.902635 23.1652833,67.0540008 C21.0339385,65.2053666 16.0563775,65.5745075 14.0830648,64.8820961 C12.109752,64.1896847 11.0767132,64.674191 10.368692,62.5638329 C9.89667795,61.1569275 10.2328049,59.2411501 11.3770729,56.8165009 C12.1672904,53.3706913 13.0692877,51.7667312 14.0830648,52.0046205 C15.0968418,52.2425097 16.0522572,54.2823236 16.9493111,58.124062 L23.1652833,62.5638329 L21.967449,56.8165009 L16.9493111,50.53068 L20.1211273,42.0336034 C23.5647066,42.3654103 26.1640885,43.1482902 27.9192729,44.3822429 Z M18.9285512,40.638804 C19.1187111,42.2828958 17.8708115,45.2227948 15.1848523,49.4585008 C13.8251154,49.9856589 12.5422153,49.9856589 11.3361519,49.4585008 C10.1300885,48.9313428 9.10445218,47.9223049 8.25924297,46.4313872 L9.99461689,41.8571976 C11.6875649,39.4195247 12.8881039,38.2006883 13.596234,38.2006883 C14.6584291,38.2006883 18.6433113,38.1726662 18.9285512,40.638804 Z M7.19858279,49.129839 C8.21108488,48.6172026 8.68416321,49.6322601 9.49019106,50.127198 C10.3387991,50.6482821 11.5010824,50.6944021 11.7817993,51.9345887 C12.3291479,54.3527335 9.88477509,57.0085392 9.49019106,59.2539926 C9.09560703,61.499446 9.49019106,61.9964578 9.49019106,64.9754094 C9.49019106,66.1081136 7.69556147,67.165678 7.19858279,67.9543611 C6.94900083,68.3504365 6.94900083,68.8146508 7.19858279,69.3470039 C7.19858279,71.1013512 7.96245221,72.5763913 9.49019106,73.7721242 C10.5267511,74.5834206 8.32455004,75.8529286 6.62574194,75.8282 C4.56885551,75.798259 2.74140033,74.3294836 1.7289714,73.7721242 C-0.119635186,72.7544349 -0.479473029,70.2644226 0.618799929,68.5008871 C1.71707289,66.7373516 5.3520864,68.7100584 5.3520864,67.9543611 C5.3520864,67.4553205 4.83231293,67.1493403 3.76551272,66.8162334 C3.21685684,66.6449164 1.99410611,67.0028132 1.7289714,66.2029734 C1.12913057,64.3934156 1.47499077,66.0210903 2.8544614,63.5692115 C3.27029537,62.8301059 2.30091982,60.7521954 2.8544614,59.6923887 C3.14055831,59.1446296 5.83193784,57.5078583 6.0824652,57.0244016 C7.92465455,53.4694252 5.36891536,50.0562117 7.19858279,49.129839 Z" id="Combined-Shape"></path>
                <path d="M67.4542931,354.328474 C70.3963036,355.666664 62.9055842,357.49739 63.296547,358.998597 C63.4500411,359.587979 71.790252,357.385077 72.3472669,358.24355 C74.3230466,361.288626 74.9864072,362.617707 74.9864072,365.936987 C74.9864072,369.256268 71.5513533,371.819831 71.5513533,376.839113 C71.5513533,381.858395 74.9864072,379.148012 74.9864072,382.598569 C74.9864072,386.049127 72.5065781,389.320463 71.5513533,396.545038 C70.5961284,403.769613 73.6609189,406.082979 71.5513533,408.578634 C69.4417876,411.07429 63.7891899,406.274578 61.3794124,408.578634 C58.9696349,410.88269 65.5806387,408.85234 69.0870983,411.234237 C72.5935579,413.616134 71.7879876,415.819654 71.5513533,418.288861 C71.3640641,420.243165 73.2699961,423.24821 71.5513533,426.178441 C68.5585414,429.939703 64.4168528,428.272057 61.3794124,428.272057 C58.3419721,428.272057 55.9317399,430.049733 51.0619532,428.272057 C46.1921664,426.494381 46.9056621,426.609792 45.3621411,422.425084 C43.81862,418.240376 44.0080746,416.108453 45.3621411,412.819044 C46.7162075,409.529635 48.1735583,408.578634 51.0619532,408.578634 C53.950348,408.578634 56.2749739,413.880219 57.8869709,412.819044 C59.498968,411.757869 55.6654254,409.595781 54.1272978,406.956135 C52.5891703,404.31649 48.0637717,406.383788 45.3621411,406.956135 C42.6605104,407.528483 41.3899356,414.152638 41.3899356,418.288861 C41.3899356,422.425084 43.7798301,426.651264 45.3621411,428.272057 C46.944452,429.89285 48.5479633,429.127406 49.1960826,429.89285 C49.7811894,430.583875 47.8915395,431.560554 46.944452,431.616034 C44.770695,431.743372 36.5407964,428.577435 33.8887329,426.178441 C32.1271438,424.584949 30.4680258,420.8181 30.4680258,415.488315 C30.4680258,410.158529 33.8887329,410.141241 33.8887329,405.059198 C33.8887329,399.977155 29.327794,398.962488 30.4680258,396.545038 C31.6082576,394.127588 36.7355167,391.039519 39.79555,392.535923 C42.8555834,394.032328 38.3576761,401.106344 39.79555,401.106344 C41.233424,401.106344 43.7186336,394.715555 48.3196488,392.535923 C52.9206639,390.356291 53.6949002,395.138745 57.8869709,392.535923 C60.6816847,390.800709 62.8275687,387.488257 64.3246228,382.598569 C66.9170777,376.097041 67.9603011,372.351519 67.4542931,371.362003 C66.9482851,370.372488 65.9050616,373.150037 64.3246228,379.694652 C61.7961723,384.809397 59.6502883,388.335797 57.8869709,390.27385 C55.2419948,393.180929 54.331733,388.395533 52.6357166,388.395533 C50.9397003,388.395533 45.2283832,393.731301 42.808444,390.27385 C40.3885049,386.816398 44.6656881,381.605041 48.3196488,376.839113 C51.9736094,372.073184 53.1324642,373.84528 57.8869709,370.606648 C62.6414776,367.368015 65.5034494,366.743538 64.3246228,365.936987 C63.1457961,365.130437 57.0815835,368.111013 51.0619532,365.936987 C45.0423229,363.762961 46.8156843,361.221752 48.3196488,360.156694 C49.8236132,359.091636 63.3572329,352.464904 67.4542931,354.328474 Z M42.5931251,365.722893 C45.9445968,363.709645 47.0434114,368.481823 53.5354411,368.481823 C56.5816463,368.481823 54.0175618,369.183978 49.1619771,372.836929 C47.1187925,374.374056 46.7766984,374.396051 44.0700618,379.145176 C41.9082584,382.938324 41.7905521,384.759109 40.1283459,386.770756 C39.7094248,387.277745 41.4639937,389.972558 40.7914196,390.538423 C40.2058373,391.031098 36.8418134,390.162151 36.4423115,390.538423 C35.2810972,391.632117 33.7080967,392.078439 32.0686412,392.817407 C31.0538459,393.274816 30.3962593,396.015515 28.5296656,396.352172 C26.5265228,396.713457 25.1728221,393.568388 23.2998704,392.817407 C21.4828815,392.088865 12.6235791,391.93467 17.3387806,386.770756 C22.0539822,381.606842 29.9051362,384.044885 35.7840679,379.145176 C41.6629996,374.245466 39.2416533,367.736142 42.5931251,365.722893 Z M39.1998329,367.018946 C40.0406496,368.337933 39.2759492,371.252802 36.9057318,375.763553 L31.7271231,380.017258 L21.8698468,382.45656 L26.5848738,374.737753 L32.6438979,369.078028 C36.1737046,366.38632 38.3590162,365.69996 39.1998329,367.018946 Z M39.445989,363.431548 C41.8169531,361.670913 43.1168047,360.029423 44.2948199,360.029423 C44.5903078,360.029423 45.1979612,359.799573 45.4491256,360.029423 C45.6444099,360.208135 47.3353832,359.217646 47.3772376,359.605412 C47.4210116,360.010961 45.6127266,361.062184 45.4491256,361.697525 C45.2555453,362.44929 46.8821102,364.415928 46.7693993,364.647427 C46.370228,365.467292 43.5223852,363.715387 42.1415035,364.647427 C40.7606218,365.579466 41.4827074,366.612275 40.5215799,366.757445 C39.8854776,366.853522 39.1927629,366.104863 38.7475233,365.43455 C38.520022,365.092045 36.0746704,366.159221 36.0169594,365.980769 C35.846303,365.453073 37.0750249,365.192184 39.445989,363.431548 Z M27.9192729,398.382243 C30.5520496,400.233172 31.9575742,401.033795 32.2074381,404.53068 C32.4573021,408.027565 29.6829888,408.44509 28.9011711,412.124062 C28.1193533,415.803034 27.5772459,415.501467 28.9011711,420.088863 C30.2250963,424.676259 33.5662059,427.358462 33.5662059,428.28839 C33.5662059,428.829551 35.0713789,432.69118 32.2074381,433.756045 C30.1499916,434.521041 24.0087061,432.667332 21.967449,432.585503 C17.0847867,432.38977 11.8989341,428.4936 10.368692,427.358462 C8.83844995,426.223323 7.0320872,422.162235 10.368692,421.054001 C13.7052969,419.945766 18.3480143,424.119245 20.1211273,424.119245 C21.8942404,424.119245 25.296628,422.902635 23.1652833,421.054001 C21.0339385,419.205367 16.0563775,419.574507 14.0830648,418.882096 C12.109752,418.189685 11.0767132,418.674191 10.368692,416.563833 C9.89667795,415.156927 10.2328049,413.24115 11.3770729,410.816501 C12.1672904,407.370691 13.0692877,405.766731 14.0830648,406.00462 C15.0968418,406.24251 16.0522572,408.282324 16.9493111,412.124062 L23.1652833,416.563833 L21.967449,410.816501 L16.9493111,404.53068 L20.1211273,396.033603 C23.5647066,396.36541 26.1640885,397.14829 27.9192729,398.382243 Z M18.9285512,394.638804 C19.1187111,396.282896 17.8708115,399.222795 15.1848523,403.458501 C13.8251154,403.985659 12.5422153,403.985659 11.3361519,403.458501 C10.1300885,402.931343 9.10445218,401.922305 8.25924297,400.431387 L9.99461689,395.857198 C11.6875649,393.419525 12.8881039,392.200688 13.596234,392.200688 C14.6584291,392.200688 18.6433113,392.172666 18.9285512,394.638804 Z M7.19858279,403.129839 C8.21108488,402.617203 8.68416321,403.63226 9.49019106,404.127198 C10.3387991,404.648282 11.5010824,404.694402 11.7817993,405.934589 C12.3291479,408.352734 9.88477509,411.008539 9.49019106,413.253993 C9.09560703,415.499446 9.49019106,415.996458 9.49019106,418.975409 C9.49019106,420.108114 7.69556147,421.165678 7.19858279,421.954361 C6.94900083,422.350437 6.94900083,422.814651 7.19858279,423.347004 C7.19858279,425.101351 7.96245221,426.576391 9.49019106,427.772124 C10.5267511,428.583421 8.32455004,429.852929 6.62574194,429.8282 C4.56885551,429.798259 2.74140033,428.329484 1.7289714,427.772124 C-0.119635186,426.754435 -0.479473029,424.264423 0.618799929,422.500887 C1.71707289,420.737352 5.3520864,422.710058 5.3520864,421.954361 C5.3520864,421.455321 4.83231293,421.14934 3.76551272,420.816233 C3.21685684,420.644916 1.99410611,421.002813 1.7289714,420.202973 C1.12913057,418.393416 1.47499077,420.02109 2.8544614,417.569211 C3.27029537,416.830106 2.30091982,414.752195 2.8544614,413.692389 C3.14055831,413.14463 5.83193784,411.507858 6.0824652,411.024402 C7.92465455,407.469425 5.36891536,404.056212 7.19858279,403.129839 Z" id="Combined-Shape" transform="translate(37.493204, 393.970362) scale(1, -1) translate(-37.493204, -393.970362) "></path>
                <path d="M417.454293,354.328474 C420.396304,355.666664 412.905584,357.49739 413.296547,358.998597 C413.450041,359.587979 421.790252,357.385077 422.347267,358.24355 C424.323047,361.288626 424.986407,362.617707 424.986407,365.936987 C424.986407,369.256268 421.551353,371.819831 421.551353,376.839113 C421.551353,381.858395 424.986407,379.148012 424.986407,382.598569 C424.986407,386.049127 422.506578,389.320463 421.551353,396.545038 C420.596128,403.769613 423.660919,406.082979 421.551353,408.578634 C419.441788,411.07429 413.78919,406.274578 411.379412,408.578634 C408.969635,410.88269 415.580639,408.85234 419.087098,411.234237 C422.593558,413.616134 421.787988,415.819654 421.551353,418.288861 C421.364064,420.243165 423.269996,423.24821 421.551353,426.178441 C418.558541,429.939703 414.416853,428.272057 411.379412,428.272057 C408.341972,428.272057 405.93174,430.049733 401.061953,428.272057 C396.192166,426.494381 396.905662,426.609792 395.362141,422.425084 C393.81862,418.240376 394.008075,416.108453 395.362141,412.819044 C396.716208,409.529635 398.173558,408.578634 401.061953,408.578634 C403.950348,408.578634 406.274974,413.880219 407.886971,412.819044 C409.498968,411.757869 405.665425,409.595781 404.127298,406.956135 C402.58917,404.31649 398.063772,406.383788 395.362141,406.956135 C392.66051,407.528483 391.389936,414.152638 391.389936,418.288861 C391.389936,422.425084 393.77983,426.651264 395.362141,428.272057 C396.944452,429.89285 398.547963,429.127406 399.196083,429.89285 C399.781189,430.583875 397.89154,431.560554 396.944452,431.616034 C394.770695,431.743372 386.540796,428.577435 383.888733,426.178441 C382.127144,424.584949 380.468026,420.8181 380.468026,415.488315 C380.468026,410.158529 383.888733,410.141241 383.888733,405.059198 C383.888733,399.977155 379.327794,398.962488 380.468026,396.545038 C381.608258,394.127588 386.735517,391.039519 389.79555,392.535923 C392.855583,394.032328 388.357676,401.106344 389.79555,401.106344 C391.233424,401.106344 393.718634,394.715555 398.319649,392.535923 C402.920664,390.356291 403.6949,395.138745 407.886971,392.535923 C410.681685,390.800709 412.827569,387.488257 414.324623,382.598569 C416.917078,376.097041 417.960301,372.351519 417.454293,371.362003 C416.948285,370.372488 415.905062,373.150037 414.324623,379.694652 C411.796172,384.809397 409.650288,388.335797 407.886971,390.27385 C405.241995,393.180929 404.331733,388.395533 402.635717,388.395533 C400.9397,388.395533 395.228383,393.731301 392.808444,390.27385 C390.388505,386.816398 394.665688,381.605041 398.319649,376.839113 C401.973609,372.073184 403.132464,373.84528 407.886971,370.606648 C412.641478,367.368015 415.503449,366.743538 414.324623,365.936987 C413.145796,365.130437 407.081583,368.111013 401.061953,365.936987 C395.042323,363.762961 396.815684,361.221752 398.319649,360.156694 C399.823613,359.091636 413.357233,352.464904 417.454293,354.328474 Z M392.593125,365.722893 C395.944597,363.709645 397.043411,368.481823 403.535441,368.481823 C406.581646,368.481823 404.017562,369.183978 399.161977,372.836929 C397.118792,374.374056 396.776698,374.396051 394.070062,379.145176 C391.908258,382.938324 391.790552,384.759109 390.128346,386.770756 C389.709425,387.277745 391.463994,389.972558 390.79142,390.538423 C390.205837,391.031098 386.841813,390.162151 386.442312,390.538423 C385.281097,391.632117 383.708097,392.078439 382.068641,392.817407 C381.053846,393.274816 380.396259,396.015515 378.529666,396.352172 C376.526523,396.713457 375.172822,393.568388 373.29987,392.817407 C371.482882,392.088865 362.623579,391.93467 367.338781,386.770756 C372.053982,381.606842 379.905136,384.044885 385.784068,379.145176 C391.663,374.245466 389.241653,367.736142 392.593125,365.722893 Z M389.199833,367.018946 C390.04065,368.337933 389.275949,371.252802 386.905732,375.763553 L381.727123,380.017258 L371.869847,382.45656 L376.584874,374.737753 L382.643898,369.078028 C386.173705,366.38632 388.359016,365.69996 389.199833,367.018946 Z M389.445989,363.431548 C391.816953,361.670913 393.116805,360.029423 394.29482,360.029423 C394.590308,360.029423 395.197961,359.799573 395.449126,360.029423 C395.64441,360.208135 397.335383,359.217646 397.377238,359.605412 C397.421012,360.010961 395.612727,361.062184 395.449126,361.697525 C395.255545,362.44929 396.88211,364.415928 396.769399,364.647427 C396.370228,365.467292 393.522385,363.715387 392.141504,364.647427 C390.760622,365.579466 391.482707,366.612275 390.52158,366.757445 C389.885478,366.853522 389.192763,366.104863 388.747523,365.43455 C388.520022,365.092045 386.07467,366.159221 386.016959,365.980769 C385.846303,365.453073 387.075025,365.192184 389.445989,363.431548 Z M377.919273,398.382243 C380.55205,400.233172 381.957574,401.033795 382.207438,404.53068 C382.457302,408.027565 379.682989,408.44509 378.901171,412.124062 C378.119353,415.803034 377.577246,415.501467 378.901171,420.088863 C380.225096,424.676259 383.566206,427.358462 383.566206,428.28839 C383.566206,428.829551 385.071379,432.69118 382.207438,433.756045 C380.149992,434.521041 374.008706,432.667332 371.967449,432.585503 C367.084787,432.38977 361.898934,428.4936 360.368692,427.358462 C358.83845,426.223323 357.032087,422.162235 360.368692,421.054001 C363.705297,419.945766 368.348014,424.119245 370.121127,424.119245 C371.89424,424.119245 375.296628,422.902635 373.165283,421.054001 C371.033938,419.205367 366.056377,419.574507 364.083065,418.882096 C362.109752,418.189685 361.076713,418.674191 360.368692,416.563833 C359.896678,415.156927 360.232805,413.24115 361.377073,410.816501 C362.16729,407.370691 363.069288,405.766731 364.083065,406.00462 C365.096842,406.24251 366.052257,408.282324 366.949311,412.124062 L373.165283,416.563833 L371.967449,410.816501 L366.949311,404.53068 L370.121127,396.033603 C373.564707,396.36541 376.164088,397.14829 377.919273,398.382243 Z M368.928551,394.638804 C369.118711,396.282896 367.870811,399.222795 365.184852,403.458501 C363.825115,403.985659 362.542215,403.985659 361.336152,403.458501 C360.130088,402.931343 359.104452,401.922305 358.259243,400.431387 L359.994617,395.857198 C361.687565,393.419525 362.888104,392.200688 363.596234,392.200688 C364.658429,392.200688 368.643311,392.172666 368.928551,394.638804 Z M357.198583,403.129839 C358.211085,402.617203 358.684163,403.63226 359.490191,404.127198 C360.338799,404.648282 361.501082,404.694402 361.781799,405.934589 C362.329148,408.352734 359.884775,411.008539 359.490191,413.253993 C359.095607,415.499446 359.490191,415.996458 359.490191,418.975409 C359.490191,420.108114 357.695561,421.165678 357.198583,421.954361 C356.949001,422.350437 356.949001,422.814651 357.198583,423.347004 C357.198583,425.101351 357.962452,426.576391 359.490191,427.772124 C360.526751,428.583421 358.32455,429.852929 356.625742,429.8282 C354.568856,429.798259 352.7414,428.329484 351.728971,427.772124 C349.880365,426.754435 349.520527,424.264423 350.6188,422.500887 C351.717073,420.737352 355.352086,422.710058 355.352086,421.954361 C355.352086,421.455321 354.832313,421.14934 353.765513,420.816233 C353.216857,420.644916 351.994106,421.002813 351.728971,420.202973 C351.129131,418.393416 351.474991,420.02109 352.854461,417.569211 C353.270295,416.830106 352.30092,414.752195 352.854461,413.692389 C353.140558,413.14463 355.831938,411.507858 356.082465,411.024402 C357.924655,407.469425 355.368915,404.056212 357.198583,403.129839 Z" id="Combined-Shape" transform="translate(387.493204, 393.970362) scale(-1, -1) translate(-387.493204, -393.970362) "></path>
                <path d="M417.454293,0.328474178 C420.396304,1.6666639 412.905584,3.49739 413.296547,4.99859685 C413.450041,5.58797901 421.790252,3.38507672 422.347267,4.24354952 C424.323047,7.28862609 424.986407,8.61770676 424.986407,11.9369874 C424.986407,15.256268 421.551353,17.8198306 421.551353,22.8391129 C421.551353,27.8583952 424.986407,25.1480117 424.986407,28.5985691 C424.986407,32.0491265 422.506578,35.3204635 421.551353,42.5450382 C420.596128,49.7696128 423.660919,52.0829787 421.551353,54.5786343 C419.441788,57.0742898 413.78919,52.2745782 411.379412,54.5786343 C408.969635,56.8826903 415.580639,54.8523399 419.087098,57.2342369 C422.593558,59.6161339 421.787988,61.819654 421.551353,64.2888607 C421.364064,66.2431654 423.269996,69.2482102 421.551353,72.1784408 C418.558541,75.9397029 414.416853,74.2720571 411.379412,74.2720571 C408.341972,74.2720571 405.93174,76.0497327 401.061953,74.2720571 C396.192166,72.4943814 396.905662,72.6097921 395.362141,68.4250838 C393.81862,64.2403755 394.008075,62.1084532 395.362141,58.8190443 C396.716208,55.5296354 398.173558,54.5786343 401.061953,54.5786343 C403.950348,54.5786343 406.274974,59.8802192 407.886971,58.8190443 C409.498968,57.7578695 405.665425,55.5957809 404.127298,52.9561354 C402.58917,50.31649 398.063772,52.3837881 395.362141,52.9561354 C392.66051,53.5284828 391.389936,60.1526376 391.389936,64.2888607 C391.389936,68.4250838 393.77983,72.6512637 395.362141,74.2720571 C396.944452,75.8928504 398.547963,75.1274063 399.196083,75.8928504 C399.781189,76.5838752 397.89154,77.5605539 396.944452,77.6160339 C394.770695,77.7433716 386.540796,74.5774347 383.888733,72.1784408 C382.127144,70.5849489 380.468026,66.8181005 380.468026,61.4883147 C380.468026,56.1585289 383.888733,56.1412413 383.888733,51.0591981 C383.888733,45.9771549 379.327794,44.9624884 380.468026,42.5450382 C381.608258,40.1275879 386.735517,37.0395188 389.79555,38.5359232 C392.855583,40.0323276 388.357676,47.1063441 389.79555,47.1063441 C391.233424,47.1063441 393.718634,40.715555 398.319649,38.5359232 C402.920664,36.3562914 403.6949,41.1387447 407.886971,38.5359232 C410.681685,36.8007088 412.827569,33.4882575 414.324623,28.5985691 C416.917078,22.0970407 417.960301,18.3515188 417.454293,17.3620034 C416.948285,16.372488 415.905062,19.1500374 414.324623,25.6946515 C411.796172,30.8093972 409.650288,34.3357966 407.886971,36.2738498 C405.241995,39.1809295 404.331733,34.3955326 402.635717,34.3955326 C400.9397,34.3955326 395.228383,39.7313012 392.808444,36.2738498 C390.388505,32.8163983 394.665688,27.6050415 398.319649,22.8391129 C401.973609,18.0731843 403.132464,19.8452803 407.886971,16.6066478 C412.641478,13.3680153 415.503449,12.7435377 414.324623,11.9369874 C413.145796,11.1304371 407.081583,14.1110135 401.061953,11.9369874 C395.042323,9.76296134 396.815684,7.22175172 398.319649,6.1566938 C399.823613,5.09163587 413.357233,-1.53509627 417.454293,0.328474178 Z M392.593125,11.7228935 C395.944597,9.70964513 397.043411,14.4818234 403.535441,14.4818234 C406.581646,14.4818234 404.017562,15.1839782 399.161977,18.8369285 C397.118792,20.3740559 396.776698,20.3960515 394.070062,25.1451756 C391.908258,28.9383236 391.790552,30.759109 390.128346,32.7707558 C389.709425,33.2777454 391.463994,35.9725582 390.79142,36.5384232 C390.205837,37.0310985 386.841813,36.1621511 386.442312,36.5384232 C385.281097,37.6321166 383.708097,38.0784395 382.068641,38.817407 C381.053846,39.2748155 380.396259,42.0155147 378.529666,42.3521721 C376.526523,42.7134574 375.172822,39.5683883 373.29987,38.817407 C371.482882,38.0888648 362.623579,37.9346702 367.338781,32.7707558 C372.053982,27.6068415 379.905136,30.0448849 385.784068,25.1451756 C391.663,20.2454664 389.241653,13.7361419 392.593125,11.7228935 Z M389.199833,13.0189463 C390.04065,14.3379327 389.275949,17.2528017 386.905732,21.7635534 L381.727123,26.0172584 L371.869847,28.4565597 L376.584874,20.737753 L382.643898,15.0780282 C386.173705,12.3863205 388.359016,11.6999598 389.199833,13.0189463 Z M389.445989,9.43154846 C391.816953,7.67091313 393.116805,6.02942265 394.29482,6.02942265 C394.590308,6.02942265 395.197961,5.79957255 395.449126,6.02942265 C395.64441,6.2081348 397.335383,5.21764602 397.377238,5.6054116 C397.421012,6.01096124 395.612727,7.06218389 395.449126,7.697525 C395.255545,8.44928993 396.88211,10.4159277 396.769399,10.6474266 C396.370228,11.4672918 393.522385,9.71538676 392.141504,10.6474266 C390.760622,11.5794665 391.482707,12.6122747 390.52158,12.7574445 C389.885478,12.8535221 389.192763,12.1048627 388.747523,11.4345502 C388.520022,11.0920447 386.07467,12.1592207 386.016959,11.9807691 C385.846303,11.4530726 387.075025,11.1921838 389.445989,9.43154846 Z M377.919273,44.3822429 C380.55205,46.233172 381.957574,47.0337951 382.207438,50.53068 C382.457302,54.027565 379.682989,54.4450902 378.901171,58.124062 C378.119353,61.8030339 377.577246,61.5014674 378.901171,66.0888632 C380.225096,70.676259 383.566206,73.3584616 383.566206,74.2883903 C383.566206,74.8295508 385.071379,78.6911801 382.207438,79.7560454 C380.149992,80.5210414 374.008706,78.6673318 371.967449,78.5855031 C367.084787,78.3897697 361.898934,74.4936003 360.368692,73.3584616 C358.83845,72.2233228 357.032087,68.1622355 360.368692,67.0540008 C363.705297,65.9457661 368.348014,70.1192445 370.121127,70.1192445 C371.89424,70.1192445 375.296628,68.902635 373.165283,67.0540008 C371.033938,65.2053666 366.056377,65.5745075 364.083065,64.8820961 C362.109752,64.1896847 361.076713,64.674191 360.368692,62.5638329 C359.896678,61.1569275 360.232805,59.2411501 361.377073,56.8165009 C362.16729,53.3706913 363.069288,51.7667312 364.083065,52.0046205 C365.096842,52.2425097 366.052257,54.2823236 366.949311,58.124062 L373.165283,62.5638329 L371.967449,56.8165009 L366.949311,50.53068 L370.121127,42.0336034 C373.564707,42.3654103 376.164088,43.1482902 377.919273,44.3822429 Z M368.928551,40.638804 C369.118711,42.2828958 367.870811,45.2227948 365.184852,49.4585008 C363.825115,49.9856589 362.542215,49.9856589 361.336152,49.4585008 C360.130088,48.9313428 359.104452,47.9223049 358.259243,46.4313872 L359.994617,41.8571976 C361.687565,39.4195247 362.888104,38.2006883 363.596234,38.2006883 C364.658429,38.2006883 368.643311,38.1726662 368.928551,40.638804 Z M357.198583,49.129839 C358.211085,48.6172026 358.684163,49.6322601 359.490191,50.127198 C360.338799,50.6482821 361.501082,50.6944021 361.781799,51.9345887 C362.329148,54.3527335 359.884775,57.0085392 359.490191,59.2539926 C359.095607,61.499446 359.490191,61.9964578 359.490191,64.9754094 C359.490191,66.1081136 357.695561,67.165678 357.198583,67.9543611 C356.949001,68.3504365 356.949001,68.8146508 357.198583,69.3470039 C357.198583,71.1013512 357.962452,72.5763913 359.490191,73.7721242 C360.526751,74.5834206 358.32455,75.8529286 356.625742,75.8282 C354.568856,75.798259 352.7414,74.3294836 351.728971,73.7721242 C349.880365,72.7544349 349.520527,70.2644226 350.6188,68.5008871 C351.717073,66.7373516 355.352086,68.7100584 355.352086,67.9543611 C355.352086,67.4553205 354.832313,67.1493403 353.765513,66.8162334 C353.216857,66.6449164 351.994106,67.0028132 351.728971,66.2029734 C351.129131,64.3934156 351.474991,66.0210903 352.854461,63.5692115 C353.270295,62.8301059 352.30092,60.7521954 352.854461,59.6923887 C353.140558,59.1446296 355.831938,57.5078583 356.082465,57.0244016 C357.924655,53.4694252 355.368915,50.0562117 357.198583,49.129839 Z" id="Combined-Shape" transform="translate(387.493204, 39.970362) scale(-1, 1) translate(-387.493204, -39.970362) "></path>
            </g>
            <g id="shape" transform="translate(94.000000, 93.000000)">
                <path d="M221.431422,182.580381 C219.749396,191.764632 215.41388,199.999897 209.264592,206.432131 C209.152837,207.786814 209.366179,208.957663 209.366179,209.625526 C209.366179,212.055301 214.885529,215.526711 216.405139,217.817465 C225.174518,223.513399 229.804667,235.729892 235.655983,245.766301 C243.810859,249.118626 254.175182,248.238285 266.748952,243.125278 C279.099143,235.399452 298.181432,234.942364 323.99582,241.754015 C300.96333,237.697286 281.881041,240.497887 266.748952,250.155817 C257.793667,255.871453 250.21646,257.676245 244.36374,257.667238 C254.625465,268.912429 268.994814,277.199205 287.471788,282.527566 C274.816257,280.452349 263.95162,277.522621 254.877876,273.738384 C257.122444,282.878024 262.187755,290.512022 269.29626,298.104665 C272.672022,301.71034 278.82187,307.004757 287.745804,313.987916 C266.022322,299.716475 253.550963,285.952653 250.331729,272.696449 C249.842233,272.07457 249.39734,271.522453 248.99705,271.0401 C236.564058,264.765224 228.184867,256.556111 223.859476,246.412762 C217.521215,231.549089 207.456011,223.664787 193.663864,222.759856 C191.275986,223.792431 187.829964,224.910991 185.323399,227.417556 C182.421291,230.319664 180.444445,234.594358 179.737328,236.274693 C179.880654,236.912509 180.016121,237.56658 180.143209,238.237287 C183.33627,255.088725 193.994483,269.707585 212.117848,282.093869 C190.203959,269.813109 177.888633,256.851362 175.171867,243.208629 C172.995994,237.694005 170.684342,233.319789 168.236913,230.085982 C166.633995,229.170756 163.982646,226.569878 160.983161,226.569878 C158.541249,226.569878 156.330073,228.293676 154.727493,229.42838 C153.013669,231.186813 150.888133,233.030549 148.281227,234.95417 C131.958318,246.998748 127.225011,262.187538 134.081305,280.52054 C131.164192,275.314086 129.035843,270.451679 127.696259,265.93332 C126.78615,269.272219 125.648687,272.844602 124.002667,276.834628 C115.507425,297.427472 106.777494,306.316538 97.1177687,314.645373 C90.7856949,320.105031 80.6088118,324.22324 66.5871193,327 C90.7578819,319.4173 107.54729,303.952767 116.955344,280.606401 C119.691536,273.816461 120.840765,265.550216 122.46631,258.1147 C116.617551,264.580559 108.437859,269.934233 97.927232,274.175721 L98.9693269,274.183268 C98.3479099,274.250188 97.7536893,274.346168 97.1866651,274.471209 C96.0818781,274.907058 94.9518635,275.33087 93.7966214,275.742645 C90.8849824,277.407151 89.1343496,280.31225 88.5447232,284.457944 C88.4124937,285.387656 88.1778452,286.298372 87.8407775,287.190091 C87.9703526,288.237805 88.2299327,289.246093 88.6195177,290.214956 C89.7869846,293.118341 88.7735935,296.793677 85.5793442,301.240963 C87.4405108,297.871353 88.0211713,294.710003 87.3213257,291.756912 C87.1505732,291.036399 86.8998981,290.294048 86.679151,289.555954 C84.1939449,293.640058 79.3852214,297.293199 72.2529806,300.515376 C78.8462256,296.540207 83.0133096,291.645247 84.7542324,285.830498 C85.5128773,283.296595 85.8995973,280.387081 86.8497511,277.985341 C80.6510528,279.794338 73.8342537,281.308413 66.3993538,282.527566 C90.0547998,275.705844 106.977514,264.03504 117.167497,247.515152 C124.015402,236.413404 128.870513,221.82039 139.64751,216.582695 C139.860032,216.479408 140.079754,216.37265 140.306676,216.262421 C140.384449,216.032157 140.456038,215.795463 140.520721,215.551991 C141.725865,211.015771 137.417375,200.126031 136.612738,196.830539 C134.672638,193.332781 133.164746,189.554081 132.162779,185.569414 C122.551412,180.089295 111.488483,178.429124 98.9739933,180.588902 L99.4156305,181.35384 C96.042332,185.258624 93.5571272,188.132241 91.9600161,189.974692 C88.1179513,194.406954 81.400752,195.719787 74.9154582,197.203033 C74.6171175,198.761328 74.3846821,199.97205 74.2181521,200.835199 C73.508308,204.514426 69.4932935,207.162075 66.6941428,210.129097 C66.4293819,210.409736 66.1727407,210.697006 65.9242193,210.990908 C66.2308691,211.873133 66.4645346,212.546518 66.6252155,213.011063 C67.2376506,214.781676 66.1610107,216.931895 65.6906982,218.916441 C64.9908527,221.869532 65.5715132,225.030882 67.4326797,228.400492 C64.2384305,223.953206 63.2250393,220.27787 64.3925063,217.374485 C65.0839519,215.654922 65.1384257,214.128862 64.5559276,212.796305 C61.7886723,216.881931 60.3457937,222.049142 60.2272919,228.297937 C59.4532946,220.526572 60.2078134,214.544379 62.4908484,210.351358 C62.4763592,210.340642 62.4618062,210.329946 62.4471893,210.319269 L62.5083694,210.319269 C63.4239448,208.647106 64.5836766,207.260736 65.9875647,206.160158 C68.9711722,203.821159 70.5982807,201.166443 70.8688901,198.196012 C70.453075,198.309251 70.0411906,198.426318 69.6341523,198.548185 C58.0046543,202.03003 48.2147361,210.364198 40.2643977,223.550688 C49.2817513,203.590911 59.986706,192.72975 72.379262,190.967203 C79.1557782,190.003405 84.2749292,187.488565 87.7367148,183.422685 C64.5836309,190.651811 35.3380593,184.120806 0,163.82967 C10.8604381,168.625269 21.4504491,172.091587 31.7700328,174.228624 C29.9313273,171.531389 25.289435,166.448676 22.6300207,161.53914 C20.9237085,158.389123 19.0776407,153.089199 17.0918175,145.639366 C19.8455045,152.349723 22.1026219,157.030763 23.8631697,159.682487 C27.2307407,164.754697 32.0229968,168.482326 34.7429601,171.741754 C35.9089274,173.138973 36.9770103,174.343102 37.9472089,175.354141 C51.0330731,177.409428 63.6748071,177.281599 75.8724108,174.970653 C81.4216777,173.919294 87.1328692,172.394177 92.8197064,171.022194 C92.8595012,170.724063 92.8958033,170.422664 92.9286126,170.117996 L93.3737591,170.889012 C103.76891,168.399735 114.062404,166.490529 123.115434,168.993872 C125.173222,169.562891 127.743244,170.275022 130.8255,171.130265 C131.212093,164.692341 132.88626,158.608267 135.589426,153.141028 C123.764972,134.052962 111.172612,126.318773 97.8123485,129.938454 C92.5555518,131.362672 85.7581057,128.876213 82.2140456,126.453301 C78.0254176,123.589729 74.6309663,114.841961 72.0306917,100.209999 C71.8287726,99.7576009 71.5294105,98.9407914 71.1326055,97.7595702 C69.9623047,94.2757839 68.1410206,91.6981545 65.6687532,90.0266822 L58.9930054,86.2589908 C62.6902372,86.9032259 65.7722347,87.8157862 68.238998,88.9966715 C70.497193,90.0777113 71.76689,91.1572325 72.048089,92.2352348 L74.4418611,76.2561978 C74.5924544,101.888078 78.699014,117.181079 86.7615399,122.135201 C91.2251718,124.877936 100.902056,121.007094 107.149331,122.135201 C123.050937,125.006647 135.37851,130.087 144.13205,137.376261 C145.002529,137.700446 145.964341,138.083886 146.998153,138.443248 C151.290449,134.759961 156.25871,131.865799 161.686663,129.980725 C161.90116,129.225808 162.081462,128.385447 162.081462,127.49979 C162.081462,125.66131 161.304522,124.018014 161.057567,122.929036 C160.776413,122.25226 160.485817,121.573834 160.185779,120.89376 L159.978395,121.25296 C156.967111,112.067922 149.668885,105.894912 138.083717,102.733928 C126.498549,99.5729443 115.092761,89.9256616 103.866352,73.7920799 C113.103822,84.7491928 123.295309,92.3878231 134.440813,96.7079708 C139.88841,98.8195329 146.059258,100.379498 151.071121,102.969679 C139.720731,77.9965831 137.902744,44.0041369 145.61716,0.992340248 C143.800857,22.3220442 144.74257,42.1254212 148.442297,60.4024714 C148.580195,60.5678178 148.723081,60.7417926 148.871135,60.9246081 C152.812721,65.7916645 160.975654,42.6982479 160.975654,46.166296 C160.975654,48.1431801 155.877102,60.4670022 152.712899,66.8088659 C152.480167,68.4866128 151.957755,70.8621959 151.957755,73.4962009 C151.957755,73.9062847 151.970418,74.3101047 151.992679,74.7060026 C153.902944,81.1564344 156.18953,87.3986048 158.852436,93.4325138 C159.830573,95.6488851 160.872127,97.8737953 161.947864,100.104709 C164.166538,101.415864 167.11993,103.325348 168.852863,99.4411772 C174.087537,87.7082487 177.769475,58.9477172 183.52487,52.0602182 C188.68202,45.8886418 199.964502,42.0118154 217.372316,40.4297388 C201.835958,44.0338278 191.951567,48.7954238 187.719144,54.7145268 C180.732255,64.485789 179.748306,104.201292 176.38583,120.372372 C178.018808,122.37973 179.897103,125.513967 182.649561,127.916627 C187.756577,128.617895 192.59612,130.176514 197.023527,132.44535 C197.972755,132.581349 198.789523,132.753252 199.414724,133.028323 C201.528686,130.011723 203.335913,126.46752 204.836402,122.395714 C207.678005,114.684596 212.870666,108.216082 220.414388,102.990172 C220.874227,101.673231 221.257835,100.433835 221.540368,99.3555161 C223.45704,92.0403272 222.074413,89.0131015 225.056102,80.7187133 C233.697255,56.6809673 242.577129,46.3048808 252.402766,36.5827458 C258.843598,30.2097614 269.195276,25.402632 283.457801,22.1613574 C258.871889,31.0125396 241.794111,49.0640785 232.224467,76.3159741 C229.651043,83.6444271 229.792818,90.7969843 229.065135,98.0233948 C239.937583,92.842274 254.117583,89.409292 271.605134,87.7244486 C246.279929,93.3998771 228.672371,104.876952 218.782461,122.155673 C215.335024,128.178712 212.54371,135.26797 209.06751,141.382321 C215.955434,148.499449 220.607024,157.861955 221.864077,168.291874 C222.663893,168.278332 223.47261,168.26594 224.287734,168.258385 C231.777204,165.365673 238.309703,161.131682 243.885233,155.556411 L243.446764,155.303261 C243.814689,155.182638 244.172948,155.048258 244.521541,154.90012 C246.268617,152.166678 248.509658,149.890247 251.244663,148.070827 C251.394399,147.856806 251.529431,147.635957 251.64976,147.40828 C251.828028,146.994975 251.995936,146.566923 252.153483,146.124126 C252.506061,144.814348 252.461569,143.320189 252.020007,141.641649 C251.256234,138.738264 251.919209,135.062928 254.008931,130.615642 C252.79133,133.985252 252.411454,137.146602 252.869302,140.099693 C252.990808,140.883398 253.174175,141.69294 253.326919,142.494738 C255.359055,137.34076 259.975816,132.258261 267.177204,127.24724 C261.698647,131.865975 257.879332,136.961718 255.719258,142.53447 C255.253194,143.736865 254.840874,145.009729 254.414263,146.272105 C261.313515,142.953101 270.670231,141.907717 282.484411,143.135955 C266.010383,143.353954 253.956475,149.587003 246.322689,161.8351 C244.222764,165.204343 242.103535,167.689261 240.042805,169.490375 C258.892524,172.708379 268.8283,178.613324 278.51191,185.433845 C285.336557,190.240695 291.882157,199.171443 298.148709,212.226089 C284.690524,190.446013 265.656316,177.956513 241.046083,174.757589 C237.22778,174.261273 231.868478,174.286404 226.267269,174.460368 C229.704631,177.476003 233.185679,181.892194 236.25923,188.270191 C243.704963,203.721004 257.783646,215.083191 278.495278,222.35675 C254.149593,216.166178 238.899153,206.833534 232.743961,194.358816 C228.764575,188.987343 224.993729,185.061198 221.431422,182.580381 Z M173.923026,220.45228 C173.495854,220.428406 173.070244,220.398569 172.646275,220.36285 C172.90103,220.68341 173.153787,221.015973 173.404021,221.360924 C173.564527,221.053112 173.737531,220.749977 173.923026,220.45228 Z M250.089769,271.616815 C250.087087,271.603753 250.084414,271.590692 250.08175,271.577632 C250.013183,271.544268 249.944734,271.510847 249.876405,271.47737 C249.94808,271.523887 250.019261,271.570383 250.089769,271.616815 Z" id="Combined-Shape" fill="#7F7F7F"></path>
                <path d="M153.693111,165.296053 C149.311728,165.296053 145.759916,161.712367 145.759916,157.291667 C145.759916,152.870966 149.311728,149.287281 153.693111,149.287281 C158.074493,149.287281 161.626305,152.870966 161.626305,157.291667 C161.626305,161.712367 158.074493,165.296053 153.693111,165.296053 Z M181.617954,155.210526 C176.360295,155.210526 172.098121,150.910104 172.098121,145.605263 C172.098121,140.300423 176.360295,136 181.617954,136 C186.875613,136 191.137787,140.300423 191.137787,145.605263 C191.137787,150.910104 186.875613,155.210526 181.617954,155.210526 Z M206.845511,173.780702 C201.237342,173.780702 196.691023,169.193584 196.691023,163.535088 C196.691023,157.876591 201.237342,153.289474 206.845511,153.289474 C212.453681,153.289474 217,157.876591 217,163.535088 C217,169.193584 212.453681,173.780702 206.845511,173.780702 Z M145.759916,185.14693 C143.131087,185.14693 141,182.996718 141,180.344298 C141,177.691878 143.131087,175.541667 145.759916,175.541667 C148.388746,175.541667 150.519833,177.691878 150.519833,180.344298 C150.519833,182.996718 148.388746,185.14693 145.759916,185.14693 Z M154.169102,201.796053 C152.416549,201.796053 150.995825,200.362578 150.995825,198.594298 C150.995825,196.826018 152.416549,195.392544 154.169102,195.392544 C155.921655,195.392544 157.34238,196.826018 157.34238,198.594298 C157.34238,200.362578 155.921655,201.796053 154.169102,201.796053 Z M167.814196,209 C166.762665,209 165.91023,208.139915 165.91023,207.078947 C165.91023,206.017979 166.762665,205.157895 167.814196,205.157895 C168.865728,205.157895 169.718163,206.017979 169.718163,207.078947 C169.718163,208.139915 168.865728,209 167.814196,209 Z" id="Combined-Shape" fill="#FFFFFF"></path>
                <circle id="nucleus" fill="#FFFFFF" cx="176.5" cy="178.5" r="14.5"></circle>
            </g>
        </g>
    </g>
</svg>