<?xml version="1.0" encoding="UTF-8"?>
<svg width="512px" height="512px" viewBox="0 0 512 512" version="1.1" xmlns="http://www.w3.org/2000/svg" xmlns:xlink="http://www.w3.org/1999/xlink">
    <!-- Generator: Sketch 51.1 (57501) - http://www.bohemiancoding.com/sketch -->
    <title>neuron</title>
    <desc>Created with Sketch.</desc>
    <defs>
        <radialGradient cx="50%" cy="51.7214674%" fx="50%" fy="51.7214674%" r="66.7341537%" id="radialGradient-1">
            <stop stop-color="#FFFFFF" offset="0%"></stop>
            <stop stop-color="#B6E1B5" offset="100%"></stop>
        </radialGradient>
        <rect id="path-2" x="0" y="0" width="512" height="512" rx="96"></rect>
        <filter x="-0.6%" y="-0.6%" width="101.2%" height="101.2%" filterUnits="objectBoundingBox" id="filter-3">
            <feGaussianBlur stdDeviation="2" in="SourceAlpha" result="shadowBlurInner1"></feGaussianBlur>
            <feOffset dx="2" dy="2" in="shadowBlurInner1" result="shadowOffsetInner1"></feOffset>
            <feComposite in="shadowOffsetInner1" in2="SourceAlpha" operator="arithmetic" k2="-1" k3="1" result="shadowInnerInner1"></feComposite>
            <feColorMatrix values="0 0 0 0 0.980973639   0 0 0 0 0.141897465   0 0 0 0 0.141897465  0 0 0 0.5 0" type="matrix" in="shadowInnerInner1"></feColorMatrix>
        </filter>
    </defs>
    <g id="Page-1" stroke="none" stroke-width="1" fill="none" fill-rule="evenodd">
        <g id="neuron">
            <g id="background">
                <use fill="url(#radialGradient-1)" fill-rule="evenodd" xlink:href="#path-2"></use>
                <use fill="black" fill-opacity="1" filter="url(#filter-3)" xlink:href="#path-2"></use>
                <rect stroke="#B8E7B6" stroke-width="4" stroke-linejoin="square" x="2" y="2" width="508" height="508" rx="96"></rect>
            </g>
            <g id="frame" transform="translate(258.500000, 254.500000) scale(-1, 1) translate(-258.500000, -254.500000) translate(49.000000, 39.000000)" fill="#FFFFFF" stroke="#EEF6E4" stroke-width="2">
                <g id="cerebrum_upper" transform="translate(369.000000, 393.500000) scale(-1, -1) translate(-369.000000, -393.500000) translate(319.000000, 356.000000)">
                    <path d="M1.06000216,51.1114363 C2.21615105,49.2632947 0.972115108,57.3876072 7.88266462,62.7205764 C10.0969719,64.4293887 15.397694,66.4053663 23.7848309,68.6485092 L21.2803328,74.3297164 C15.2155403,72.7951221 10.7496509,70.9013864 7.88266462,68.6485092 C5.01567837,66.395632 2.74145755,62.9929905 1.06000216,58.4405846 C0.289236229,54.7865801 0.289236229,52.3435307 1.06000216,51.1114363 Z" id="Path-23"></path>
                    <path d="M23.9833312,68.3930112 L27.587929,62.2218785 C19.3344044,61.6743567 13.7923649,60.3601067 10.9618104,58.2791284 C6.71597862,55.157661 2.40391855,43.6643042 0.801306183,42.528783 C-0.267102061,41.7717689 -0.267102061,44.622163 0.801306183,51.0799653 C3.28035967,57.273018 5.81443674,61.3363541 8.40353741,63.2699737 C10.9926381,65.2035934 16.1859027,66.9112725 23.9833312,68.3930112 Z" id="Path-24"></path>
                    <path d="M27.6218802,61.9054528 L32.1229062,56.152732 C23.9710613,52.9689665 18.2043737,50.0927044 14.8228435,47.5239458 C9.75054825,43.6708078 3.61986219,34.1774444 1.8320101,33.1424387 C0.0441580138,32.1074331 0.826662546,37.5200578 0.596839323,39.288368 C0.44362384,40.4672414 0.44362384,41.5864897 0.596839323,42.646113 C4.60397392,51.2644295 8.0441183,56.5973614 10.9172725,58.6449088 C13.7904266,60.6924563 19.3586292,61.7793042 27.6218802,61.9054528 Z" id="Path-25"></path>
                    <path d="M32.3609945,56.1641656 L38.6851068,49.6817871 C19.7108191,32.3727573 8.81658994,23.0904714 6.00241945,21.8349294 C1.7811637,19.9516163 -1.04092897,25.1007361 1.36768942,33.032623 C3.7763078,40.9645098 8.91557054,44.1053248 13.8932216,47.8203448 C17.2116556,50.2970247 23.3675799,53.0782983 32.3609945,56.1641656 Z" id="Path-26"></path>
                    <path d="M38.7594557,49.7166494 L45.7420424,44.9802805 C27.2749807,25.0939808 16.6343646,14.5230599 13.8201941,13.2675178 C9.59893838,11.3842048 3.17665365,14.9194454 5.58527203,22.8513322 C7.99389042,30.7832191 14.5103591,35.7680526 19.4880101,39.4830725 C22.8064441,41.9597525 29.2302593,45.3709448 38.7594557,49.7166494 Z" id="Path-26"></path>
                    <path d="M45.9463642,45.6687031 C31.4904148,35.1214458 21.4348589,26.9879824 15.7796963,21.2683129 C7.29695249,12.6888087 12.7706186,-1.30117921 28.6606131,10.6514847 C39.2539428,18.6199273 47.7203696,29.5806204 54.0598935,43.5335639 L45.9463642,45.6687031 Z" id="Path-27"></path>
                    <path d="M53.645413,43.2714767 C37.7986802,29.1148072 28.0997594,17.470745 24.5486507,8.33929012 C22.6011232,3.33134426 26.8508646,-6.22528896 39.0970319,5.86122039 C47.2611434,13.9188933 53.7358637,25.9214596 58.5211927,41.8689192 L53.645413,43.2714767 Z" id="Path-28"></path>
                    <path d="M58.7625133,42.598522 C46.6447503,22.5745631 40.399429,10.5209155 40.0265494,6.43757905 C39.4672302,0.312574405 47.8468332,-3.6166438 55.5705502,7.64390937 C60.7196949,15.1509448 63.806069,26.8024823 64.8296727,42.598522 L58.7625133,42.598522 Z" id="Path-29"></path>
                    <path d="M64.9438898,41.5908005 C58.3906887,23.5230837 55.4002478,12.2509189 55.9725672,7.77430594 C56.8310462,1.05938651 64.8448923,1.39483892 68.941319,10.3233912 C71.6722702,16.2757595 72.5210309,26.6982292 71.4876011,41.5908005 L64.9438898,41.5908005 Z" id="Path-30"></path>
                    <path d="M71.8921634,41.6785927 C69.1193975,26.0366448 68.2838638,15.8658212 69.3855622,11.1661219 C70.9974661,4.28995352 76.8060212,6.4071954 78.4210662,13.8271582 C79.4977629,18.7738 78.6997315,28.0576115 76.0269721,41.6785927 L71.8921634,41.6785927 Z" id="Path-31"></path>
                    <path d="M76.1445783,41.2946378 L78.8000242,13.6891814 C83.579211,10.1133412 86.0930331,11.0548598 86.3414905,16.5137372 C86.5899479,21.9726146 84.4949409,30.2329148 80.0564694,41.2946378 L76.1445783,41.2946378 Z" id="Path-32"></path>
                    <path d="M80.7228916,40.9435919 L86.4712331,16.6567441 C89.2240453,14.8487115 91.3251087,15.5069826 92.7744231,18.6315572 C94.2237375,21.7561319 91.4699935,29.1934768 84.5131912,40.9435919 L80.7228916,40.9435919 Z" id="Path-33"></path>
                    <path d="M84.8192771,40.8184426 L93.073521,19.2499328 C93.8119213,17.6096126 95.228625,18.1236976 97.323632,20.7921878 C99.4186391,23.460678 96.9378936,30.4827018 89.8813955,41.8582593 L84.8192771,40.8184426 Z" id="Path-34"></path>
                    <path d="M90.3614458,41.6096855 C92.9996483,30.3781654 95.4007305,23.5785934 97.5646922,21.2109695 C98.9797559,19.6627263 100.398883,25.6698233 99.6834584,31.4103275 C99.2065088,35.2373302 97.6528401,38.6371162 95.0224521,41.6096855 L90.3614458,41.6096855 Z" id="Path-35"></path>
                </g>
                <g id="cerebrum_upper" transform="translate(50.000000, 393.500000) scale(1, -1) translate(-50.000000, -393.500000) translate(0.000000, 356.000000)">
                    <path d="M1.06000216,51.1114363 C2.21615105,49.2632947 0.972115108,57.3876072 7.88266462,62.7205764 C10.0969719,64.4293887 15.397694,66.4053663 23.7848309,68.6485092 L21.2803328,74.3297164 C15.2155403,72.7951221 10.7496509,70.9013864 7.88266462,68.6485092 C5.01567837,66.395632 2.74145755,62.9929905 1.06000216,58.4405846 C0.289236229,54.7865801 0.289236229,52.3435307 1.06000216,51.1114363 Z" id="Path-23"></path>
                    <path d="M23.9833312,68.3930112 L27.587929,62.2218785 C19.3344044,61.6743567 13.7923649,60.3601067 10.9618104,58.2791284 C6.71597862,55.157661 2.40391855,43.6643042 0.801306183,42.528783 C-0.267102061,41.7717689 -0.267102061,44.622163 0.801306183,51.0799653 C3.28035967,57.273018 5.81443674,61.3363541 8.40353741,63.2699737 C10.9926381,65.2035934 16.1859027,66.9112725 23.9833312,68.3930112 Z" id="Path-24"></path>
                    <path d="M27.6218802,61.9054528 L32.1229062,56.152732 C23.9710613,52.9689665 18.2043737,50.0927044 14.8228435,47.5239458 C9.75054825,43.6708078 3.61986219,34.1774444 1.8320101,33.1424387 C0.0441580138,32.1074331 0.826662546,37.5200578 0.596839323,39.288368 C0.44362384,40.4672414 0.44362384,41.5864897 0.596839323,42.646113 C4.60397392,51.2644295 8.0441183,56.5973614 10.9172725,58.6449088 C13.7904266,60.6924563 19.3586292,61.7793042 27.6218802,61.9054528 Z" id="Path-25"></path>
                    <path d="M32.3609945,56.1641656 L38.6851068,49.6817871 C19.7108191,32.3727573 8.81658994,23.0904714 6.00241945,21.8349294 C1.7811637,19.9516163 -1.04092897,25.1007361 1.36768942,33.032623 C3.7763078,40.9645098 8.91557054,44.1053248 13.8932216,47.8203448 C17.2116556,50.2970247 23.3675799,53.0782983 32.3609945,56.1641656 Z" id="Path-26"></path>
                    <path d="M38.7594557,49.7166494 L45.7420424,44.9802805 C27.2749807,25.0939808 16.6343646,14.5230599 13.8201941,13.2675178 C9.59893838,11.3842048 3.17665365,14.9194454 5.58527203,22.8513322 C7.99389042,30.7832191 14.5103591,35.7680526 19.4880101,39.4830725 C22.8064441,41.9597525 29.2302593,45.3709448 38.7594557,49.7166494 Z" id="Path-26"></path>
                    <path d="M45.9463642,45.6687031 C31.4904148,35.1214458 21.4348589,26.9879824 15.7796963,21.2683129 C7.29695249,12.6888087 12.7706186,-1.30117921 28.6606131,10.6514847 C39.2539428,18.6199273 47.7203696,29.5806204 54.0598935,43.5335639 L45.9463642,45.6687031 Z" id="Path-27"></path>
                    <path d="M53.645413,43.2714767 C37.7986802,29.1148072 28.0997594,17.470745 24.5486507,8.33929012 C22.6011232,3.33134426 26.8508646,-6.22528896 39.0970319,5.86122039 C47.2611434,13.9188933 53.7358637,25.9214596 58.5211927,41.8689192 L53.645413,43.2714767 Z" id="Path-28"></path>
                    <path d="M58.7625133,42.598522 C46.6447503,22.5745631 40.399429,10.5209155 40.0265494,6.43757905 C39.4672302,0.312574405 47.8468332,-3.6166438 55.5705502,7.64390937 C60.7196949,15.1509448 63.806069,26.8024823 64.8296727,42.598522 L58.7625133,42.598522 Z" id="Path-29"></path>
                    <path d="M64.9438898,41.5908005 C58.3906887,23.5230837 55.4002478,12.2509189 55.9725672,7.77430594 C56.8310462,1.05938651 64.8448923,1.39483892 68.941319,10.3233912 C71.6722702,16.2757595 72.5210309,26.6982292 71.4876011,41.5908005 L64.9438898,41.5908005 Z" id="Path-30"></path>
                    <path d="M71.8921634,41.6785927 C69.1193975,26.0366448 68.2838638,15.8658212 69.3855622,11.1661219 C70.9974661,4.28995352 76.8060212,6.4071954 78.4210662,13.8271582 C79.4977629,18.7738 78.6997315,28.0576115 76.0269721,41.6785927 L71.8921634,41.6785927 Z" id="Path-31"></path>
                    <path d="M76.1445783,41.2946378 L78.8000242,13.6891814 C83.579211,10.1133412 86.0930331,11.0548598 86.3414905,16.5137372 C86.5899479,21.9726146 84.4949409,30.2329148 80.0564694,41.2946378 L76.1445783,41.2946378 Z" id="Path-32"></path>
                    <path d="M80.7228916,40.9435919 L86.4712331,16.6567441 C89.2240453,14.8487115 91.3251087,15.5069826 92.7744231,18.6315572 C94.2237375,21.7561319 91.4699935,29.1934768 84.5131912,40.9435919 L80.7228916,40.9435919 Z" id="Path-33"></path>
                    <path d="M84.8192771,40.8184426 L93.073521,19.2499328 C93.8119213,17.6096126 95.228625,18.1236976 97.323632,20.7921878 C99.4186391,23.460678 96.9378936,30.4827018 89.8813955,41.8582593 L84.8192771,40.8184426 Z" id="Path-34"></path>
                    <path d="M90.3614458,41.6096855 C92.9996483,30.3781654 95.4007305,23.5785934 97.5646922,21.2109695 C98.9797559,19.6627263 100.398883,25.6698233 99.6834584,31.4103275 C99.2065088,35.2373302 97.6528401,38.6371162 95.0224521,41.6096855 L90.3614458,41.6096855 Z" id="Path-35"></path>
                </g>
                <g id="cerebrum_upper" transform="translate(369.000000, 37.500000) scale(-1, 1) translate(-369.000000, -37.500000) translate(319.000000, 0.000000)">
                    <path d="M1.06000216,51.1114363 C2.21615105,49.2632947 0.972115108,57.3876072 7.88266462,62.7205764 C10.0969719,64.4293887 15.397694,66.4053663 23.7848309,68.6485092 L21.2803328,74.3297164 C15.2155403,72.7951221 10.7496509,70.9013864 7.88266462,68.6485092 C5.01567837,66.395632 2.74145755,62.9929905 1.06000216,58.4405846 C0.289236229,54.7865801 0.289236229,52.3435307 1.06000216,51.1114363 Z" id="Path-23"></path>
                    <path d="M23.9833312,68.3930112 L27.587929,62.2218785 C19.3344044,61.6743567 13.7923649,60.3601067 10.9618104,58.2791284 C6.71597862,55.157661 2.40391855,43.6643042 0.801306183,42.528783 C-0.267102061,41.7717689 -0.267102061,44.622163 0.801306183,51.0799653 C3.28035967,57.273018 5.81443674,61.3363541 8.40353741,63.2699737 C10.9926381,65.2035934 16.1859027,66.9112725 23.9833312,68.3930112 Z" id="Path-24"></path>
                    <path d="M27.6218802,61.9054528 L32.1229062,56.152732 C23.9710613,52.9689665 18.2043737,50.0927044 14.8228435,47.5239458 C9.75054825,43.6708078 3.61986219,34.1774444 1.8320101,33.1424387 C0.0441580138,32.1074331 0.826662546,37.5200578 0.596839323,39.288368 C0.44362384,40.4672414 0.44362384,41.5864897 0.596839323,42.646113 C4.60397392,51.2644295 8.0441183,56.5973614 10.9172725,58.6449088 C13.7904266,60.6924563 19.3586292,61.7793042 27.6218802,61.9054528 Z" id="Path-25"></path>
                    <path d="M32.3609945,56.1641656 L38.6851068,49.6817871 C19.7108191,32.3727573 8.81658994,23.0904714 6.00241945,21.8349294 C1.7811637,19.9516163 -1.04092897,25.1007361 1.36768942,33.032623 C3.7763078,40.9645098 8.91557054,44.1053248 13.8932216,47.8203448 C17.2116556,50.2970247 23.3675799,53.0782983 32.3609945,56.1641656 Z" id="Path-26"></path>
                    <path d="M38.7594557,49.7166494 L45.7420424,44.9802805 C27.2749807,25.0939808 16.6343646,14.5230599 13.8201941,13.2675178 C9.59893838,11.3842048 3.17665365,14.9194454 5.58527203,22.8513322 C7.99389042,30.7832191 14.5103591,35.7680526 19.4880101,39.4830725 C22.8064441,41.9597525 29.2302593,45.3709448 38.7594557,49.7166494 Z" id="Path-26"></path>
                    <path d="M45.9463642,45.6687031 C31.4904148,35.1214458 21.4348589,26.9879824 15.7796963,21.2683129 C7.29695249,12.6888087 12.7706186,-1.30117921 28.6606131,10.6514847 C39.2539428,18.6199273 47.7203696,29.5806204 54.0598935,43.5335639 L45.9463642,45.6687031 Z" id="Path-27"></path>
                    <path d="M53.645413,43.2714767 C37.7986802,29.1148072 28.0997594,17.470745 24.5486507,8.33929012 C22.6011232,3.33134426 26.8508646,-6.22528896 39.0970319,5.86122039 C47.2611434,13.9188933 53.7358637,25.9214596 58.5211927,41.8689192 L53.645413,43.2714767 Z" id="Path-28"></path>
                    <path d="M58.7625133,42.598522 C46.6447503,22.5745631 40.399429,10.5209155 40.0265494,6.43757905 C39.4672302,0.312574405 47.8468332,-3.6166438 55.5705502,7.64390937 C60.7196949,15.1509448 63.806069,26.8024823 64.8296727,42.598522 L58.7625133,42.598522 Z" id="Path-29"></path>
                    <path d="M64.9438898,41.5908005 C58.3906887,23.5230837 55.4002478,12.2509189 55.9725672,7.77430594 C56.8310462,1.05938651 64.8448923,1.39483892 68.941319,10.3233912 C71.6722702,16.2757595 72.5210309,26.6982292 71.4876011,41.5908005 L64.9438898,41.5908005 Z" id="Path-30"></path>
                    <path d="M71.8921634,41.6785927 C69.1193975,26.0366448 68.2838638,15.8658212 69.3855622,11.1661219 C70.9974661,4.28995352 76.8060212,6.4071954 78.4210662,13.8271582 C79.4977629,18.7738 78.6997315,28.0576115 76.0269721,41.6785927 L71.8921634,41.6785927 Z" id="Path-31"></path>
                    <path d="M76.1445783,41.2946378 L78.8000242,13.6891814 C83.579211,10.1133412 86.0930331,11.0548598 86.3414905,16.5137372 C86.5899479,21.9726146 84.4949409,30.2329148 80.0564694,41.2946378 L76.1445783,41.2946378 Z" id="Path-32"></path>
                    <path d="M80.7228916,40.9435919 L86.4712331,16.6567441 C89.2240453,14.8487115 91.3251087,15.5069826 92.7744231,18.6315572 C94.2237375,21.7561319 91.4699935,29.1934768 84.5131912,40.9435919 L80.7228916,40.9435919 Z" id="Path-33"></path>
                    <path d="M84.8192771,40.8184426 L93.073521,19.2499328 C93.8119213,17.6096126 95.228625,18.1236976 97.323632,20.7921878 C99.4186391,23.460678 96.9378936,30.4827018 89.8813955,41.8582593 L84.8192771,40.8184426 Z" id="Path-34"></path>
                    <path d="M90.3614458,41.6096855 C92.9996483,30.3781654 95.4007305,23.5785934 97.5646922,21.2109695 C98.9797559,19.6627263 100.398883,25.6698233 99.6834584,31.4103275 C99.2065088,35.2373302 97.6528401,38.6371162 95.0224521,41.6096855 L90.3614458,41.6096855 Z" id="Path-35"></path>
                </g>
                <g id="cerebrum_upper" transform="translate(9.000000, 0.000000)">
                    <path d="M1.06000216,51.1114363 C2.21615105,49.2632947 0.972115108,57.3876072 7.88266462,62.7205764 C10.0969719,64.4293887 15.397694,66.4053663 23.7848309,68.6485092 L21.2803328,74.3297164 C15.2155403,72.7951221 10.7496509,70.9013864 7.88266462,68.6485092 C5.01567837,66.395632 2.74145755,62.9929905 1.06000216,58.4405846 C0.289236229,54.7865801 0.289236229,52.3435307 1.06000216,51.1114363 Z" id="Path-23"></path>
                    <path d="M23.9833312,68.3930112 L27.587929,62.2218785 C19.3344044,61.6743567 13.7923649,60.3601067 10.9618104,58.2791284 C6.71597862,55.157661 2.40391855,43.6643042 0.801306183,42.528783 C-0.267102061,41.7717689 -0.267102061,44.622163 0.801306183,51.0799653 C3.28035967,57.273018 5.81443674,61.3363541 8.40353741,63.2699737 C10.9926381,65.2035934 16.1859027,66.9112725 23.9833312,68.3930112 Z" id="Path-24"></path>
                    <path d="M27.6218802,61.9054528 L32.1229062,56.152732 C23.9710613,52.9689665 18.2043737,50.0927044 14.8228435,47.5239458 C9.75054825,43.6708078 3.61986219,34.1774444 1.8320101,33.1424387 C0.0441580138,32.1074331 0.826662546,37.5200578 0.596839323,39.288368 C0.44362384,40.4672414 0.44362384,41.5864897 0.596839323,42.646113 C4.60397392,51.2644295 8.0441183,56.5973614 10.9172725,58.6449088 C13.7904266,60.6924563 19.3586292,61.7793042 27.6218802,61.9054528 Z" id="Path-25"></path>
                    <path d="M32.3609945,56.1641656 L38.6851068,49.6817871 C19.7108191,32.3727573 8.81658994,23.0904714 6.00241945,21.8349294 C1.7811637,19.9516163 -1.04092897,25.1007361 1.36768942,33.032623 C3.7763078,40.9645098 8.91557054,44.1053248 13.8932216,47.8203448 C17.2116556,50.2970247 23.3675799,53.0782983 32.3609945,56.1641656 Z" id="Path-26"></path>
                    <path d="M38.7594557,49.7166494 L45.7420424,44.9802805 C27.2749807,25.0939808 16.6343646,14.5230599 13.8201941,13.2675178 C9.59893838,11.3842048 3.17665365,14.9194454 5.58527203,22.8513322 C7.99389042,30.7832191 14.5103591,35.7680526 19.4880101,39.4830725 C22.8064441,41.9597525 29.2302593,45.3709448 38.7594557,49.7166494 Z" id="Path-26"></path>
                    <path d="M45.9463642,45.6687031 C31.4904148,35.1214458 21.4348589,26.9879824 15.7796963,21.2683129 C7.29695249,12.6888087 12.7706186,-1.30117921 28.6606131,10.6514847 C39.2539428,18.6199273 47.7203696,29.5806204 54.0598935,43.5335639 L45.9463642,45.6687031 Z" id="Path-27"></path>
                    <path d="M53.645413,43.2714767 C37.7986802,29.1148072 28.0997594,17.470745 24.5486507,8.33929012 C22.6011232,3.33134426 26.8508646,-6.22528896 39.0970319,5.86122039 C47.2611434,13.9188933 53.7358637,25.9214596 58.5211927,41.8689192 L53.645413,43.2714767 Z" id="Path-28"></path>
                    <path d="M58.7625133,42.598522 C46.6447503,22.5745631 40.399429,10.5209155 40.0265494,6.43757905 C39.4672302,0.312574405 47.8468332,-3.6166438 55.5705502,7.64390937 C60.7196949,15.1509448 63.806069,26.8024823 64.8296727,42.598522 L58.7625133,42.598522 Z" id="Path-29"></path>
                    <path d="M64.9438898,41.5908005 C58.3906887,23.5230837 55.4002478,12.2509189 55.9725672,7.77430594 C56.8310462,1.05938651 64.8448923,1.39483892 68.941319,10.3233912 C71.6722702,16.2757595 72.5210309,26.6982292 71.4876011,41.5908005 L64.9438898,41.5908005 Z" id="Path-30"></path>
                    <path d="M71.8921634,41.6785927 C69.1193975,26.0366448 68.2838638,15.8658212 69.3855622,11.1661219 C70.9974661,4.28995352 76.8060212,6.4071954 78.4210662,13.8271582 C79.4977629,18.7738 78.6997315,28.0576115 76.0269721,41.6785927 L71.8921634,41.6785927 Z" id="Path-31"></path>
                    <path d="M76.1445783,41.2946378 L78.8000242,13.6891814 C83.579211,10.1133412 86.0930331,11.0548598 86.3414905,16.5137372 C86.5899479,21.9726146 84.4949409,30.2329148 80.0564694,41.2946378 L76.1445783,41.2946378 Z" id="Path-32"></path>
                    <path d="M80.7228916,40.9435919 L86.4712331,16.6567441 C89.2240453,14.8487115 91.3251087,15.5069826 92.7744231,18.6315572 C94.2237375,21.7561319 91.4699935,29.1934768 84.5131912,40.9435919 L80.7228916,40.9435919 Z" id="Path-33"></path>
                    <path d="M84.8192771,40.8184426 L93.073521,19.2499328 C93.8119213,17.6096126 95.228625,18.1236976 97.323632,20.7921878 C99.4186391,23.460678 96.9378936,30.4827018 89.8813955,41.8582593 L84.8192771,40.8184426 Z" id="Path-34"></path>
                    <path d="M90.3614458,41.6096855 C92.9996483,30.3781654 95.4007305,23.5785934 97.5646922,21.2109695 C98.9797559,19.6627263 100.398883,25.6698233 99.6834584,31.4103275 C99.2065088,35.2373302 97.6528401,38.6371162 95.0224521,41.6096855 L90.3614458,41.6096855 Z" id="Path-35"></path>
                </g>
            </g>
            <g id="shape" transform="translate(94.000000, 91.000000)">
                <path d="M221.431422,182.580381 C219.749396,191.764632 215.41388,199.999897 209.264592,206.432131 C209.152837,207.786814 209.366179,208.957663 209.366179,209.625526 C209.366179,212.055301 214.885529,215.526711 216.405139,217.817465 C225.174518,223.513399 229.804667,235.729892 235.655983,245.766301 C243.810859,249.118626 254.175182,248.238285 266.748952,243.125278 C279.099143,235.399452 298.181432,234.942364 323.99582,241.754015 C300.96333,237.697286 281.881041,240.497887 266.748952,250.155817 C257.793667,255.871453 250.21646,257.676245 244.36374,257.667238 C254.625465,268.912429 268.994814,277.199205 287.471788,282.527566 C274.816257,280.452349 263.95162,277.522621 254.877876,273.738384 C257.122444,282.878024 262.187755,290.512022 269.29626,298.104665 C272.672022,301.71034 278.82187,307.004757 287.745804,313.987916 C266.022322,299.716475 253.550963,285.952653 250.331729,272.696449 C249.842233,272.07457 249.39734,271.522453 248.99705,271.0401 C236.564058,264.765224 228.184867,256.556111 223.859476,246.412762 C217.521215,231.549089 207.456011,223.664787 193.663864,222.759856 C191.275986,223.792431 187.829964,224.910991 185.323399,227.417556 C182.421291,230.319664 180.444445,234.594358 179.737328,236.274693 C179.880654,236.912509 180.016121,237.56658 180.143209,238.237287 C183.33627,255.088725 193.994483,269.707585 212.117848,282.093869 C190.203959,269.813109 177.888633,256.851362 175.171867,243.208629 C172.995994,237.694005 170.684342,233.319789 168.236913,230.085982 C166.633995,229.170756 163.982646,226.569878 160.983161,226.569878 C158.541249,226.569878 156.330073,228.293676 154.727493,229.42838 C153.013669,231.186813 150.888133,233.030549 148.281227,234.95417 C131.958318,246.998748 127.225011,262.187538 134.081305,280.52054 C131.164192,275.314086 129.035843,270.451679 127.696259,265.93332 C126.78615,269.272219 125.648687,272.844602 124.002667,276.834628 C115.507425,297.427472 106.777494,306.316538 97.1177687,314.645373 C90.7856949,320.105031 80.6088118,324.22324 66.5871193,327 C90.7578819,319.4173 107.54729,303.952767 116.955344,280.606401 C119.691536,273.816461 120.840765,265.550216 122.46631,258.1147 C116.617551,264.580559 108.437859,269.934233 97.927232,274.175721 L98.9693269,274.183268 C98.3479099,274.250188 97.7536893,274.346168 97.1866651,274.471209 C96.0818781,274.907058 94.9518635,275.33087 93.7966214,275.742645 C90.8849824,277.407151 89.1343496,280.31225 88.5447232,284.457944 C88.4124937,285.387656 88.1778452,286.298372 87.8407775,287.190091 C87.9703526,288.237805 88.2299327,289.246093 88.6195177,290.214956 C89.7869846,293.118341 88.7735935,296.793677 85.5793442,301.240963 C87.4405108,297.871353 88.0211713,294.710003 87.3213257,291.756912 C87.1505732,291.036399 86.8998981,290.294048 86.679151,289.555954 C84.1939449,293.640058 79.3852214,297.293199 72.2529806,300.515376 C78.8462256,296.540207 83.0133096,291.645247 84.7542324,285.830498 C85.5128773,283.296595 85.8995973,280.387081 86.8497511,277.985341 C80.6510528,279.794338 73.8342537,281.308413 66.3993538,282.527566 C90.0547998,275.705844 106.977514,264.03504 117.167497,247.515152 C124.015402,236.413404 128.870513,221.82039 139.64751,216.582695 C139.860032,216.479408 140.079754,216.37265 140.306676,216.262421 C140.384449,216.032157 140.456038,215.795463 140.520721,215.551991 C141.725865,211.015771 137.417375,200.126031 136.612738,196.830539 C134.672638,193.332781 133.164746,189.554081 132.162779,185.569414 C122.551412,180.089295 111.488483,178.429124 98.9739933,180.588902 L99.4156305,181.35384 C96.042332,185.258624 93.5571272,188.132241 91.9600161,189.974692 C88.1179513,194.406954 81.400752,195.719787 74.9154582,197.203033 C74.6171175,198.761328 74.3846821,199.97205 74.2181521,200.835199 C73.508308,204.514426 69.4932935,207.162075 66.6941428,210.129097 C66.4293819,210.409736 66.1727407,210.697006 65.9242193,210.990908 C66.2308691,211.873133 66.4645346,212.546518 66.6252155,213.011063 C67.2376506,214.781676 66.1610107,216.931895 65.6906982,218.916441 C64.9908527,221.869532 65.5715132,225.030882 67.4326797,228.400492 C64.2384305,223.953206 63.2250393,220.27787 64.3925063,217.374485 C65.0839519,215.654922 65.1384257,214.128862 64.5559276,212.796305 C61.7886723,216.881931 60.3457937,222.049142 60.2272919,228.297937 C59.4532946,220.526572 60.2078134,214.544379 62.4908484,210.351358 C62.4763592,210.340642 62.4618062,210.329946 62.4471893,210.319269 L62.5083694,210.319269 C63.4239448,208.647106 64.5836766,207.260736 65.9875647,206.160158 C68.9711722,203.821159 70.5982807,201.166443 70.8688901,198.196012 C70.453075,198.309251 70.0411906,198.426318 69.6341523,198.548185 C58.0046543,202.03003 48.2147361,210.364198 40.2643977,223.550688 C49.2817513,203.590911 59.986706,192.72975 72.379262,190.967203 C79.1557782,190.003405 84.2749292,187.488565 87.7367148,183.422685 C64.5836309,190.651811 35.3380593,184.120806 0,163.82967 C10.8604381,168.625269 21.4504491,172.091587 31.7700328,174.228624 C29.9313273,171.531389 25.289435,166.448676 22.6300207,161.53914 C20.9237085,158.389123 19.0776407,153.089199 17.0918175,145.639366 C19.8455045,152.349723 22.1026219,157.030763 23.8631697,159.682487 C27.2307407,164.754697 32.0229968,168.482326 34.7429601,171.741754 C35.9089274,173.138973 36.9770103,174.343102 37.9472089,175.354141 C51.0330731,177.409428 63.6748071,177.281599 75.8724108,174.970653 C81.4216777,173.919294 87.1328692,172.394177 92.8197064,171.022194 C92.8595012,170.724063 92.8958033,170.422664 92.9286126,170.117996 L93.3737591,170.889012 C103.76891,168.399735 114.062404,166.490529 123.115434,168.993872 C125.173222,169.562891 127.743244,170.275022 130.8255,171.130265 C131.212093,164.692341 132.88626,158.608267 135.589426,153.141028 C123.764972,134.052962 111.172612,126.318773 97.8123485,129.938454 C92.5555518,131.362672 85.7581057,128.876213 82.2140456,126.453301 C78.0254176,123.589729 74.6309663,114.841961 72.0306917,100.209999 C71.8287726,99.7576009 71.5294105,98.9407914 71.1326055,97.7595702 C69.9623047,94.2757839 68.1410206,91.6981545 65.6687532,90.0266822 L58.9930054,86.2589908 C62.6902372,86.9032259 65.7722347,87.8157862 68.238998,88.9966715 C70.497193,90.0777113 71.76689,91.1572325 72.048089,92.2352348 L74.4418611,76.2561978 C74.5924544,101.888078 78.699014,117.181079 86.7615399,122.135201 C91.2251718,124.877936 100.902056,121.007094 107.149331,122.135201 C123.050937,125.006647 135.37851,130.087 144.13205,137.376261 C145.002529,137.700446 145.964341,138.083886 146.998153,138.443248 C151.290449,134.759961 156.25871,131.865799 161.686663,129.980725 C161.90116,129.225808 162.081462,128.385447 162.081462,127.49979 C162.081462,125.66131 161.304522,124.018014 161.057567,122.929036 C160.776413,122.25226 160.485817,121.573834 160.185779,120.89376 L159.978395,121.25296 C156.967111,112.067922 149.668885,105.894912 138.083717,102.733928 C126.498549,99.5729443 115.092761,89.9256616 103.866352,73.7920799 C113.103822,84.7491928 123.295309,92.3878231 134.440813,96.7079708 C139.88841,98.8195329 146.059258,100.379498 151.071121,102.969679 C139.720731,77.9965831 137.902744,44.0041369 145.61716,0.992340248 C143.800857,22.3220442 144.74257,42.1254212 148.442297,60.4024714 C148.580195,60.5678178 148.723081,60.7417926 148.871135,60.9246081 C152.812721,65.7916645 160.975654,42.6982479 160.975654,46.166296 C160.975654,48.1431801 155.877102,60.4670022 152.712899,66.8088659 C152.480167,68.4866128 151.957755,70.8621959 151.957755,73.4962009 C151.957755,73.9062847 151.970418,74.3101047 151.992679,74.7060026 C153.902944,81.1564344 156.18953,87.3986048 158.852436,93.4325138 C159.830573,95.6488851 160.872127,97.8737953 161.947864,100.104709 C164.166538,101.415864 167.11993,103.325348 168.852863,99.4411772 C174.087537,87.7082487 177.769475,58.9477172 183.52487,52.0602182 C188.68202,45.8886418 199.964502,42.0118154 217.372316,40.4297388 C201.835958,44.0338278 191.951567,48.7954238 187.719144,54.7145268 C180.732255,64.485789 179.748306,104.201292 176.38583,120.372372 C178.018808,122.37973 179.897103,125.513967 182.649561,127.916627 C187.756577,128.617895 192.59612,130.176514 197.023527,132.44535 C197.972755,132.581349 198.789523,132.753252 199.414724,133.028323 C201.528686,130.011723 203.335913,126.46752 204.836402,122.395714 C207.678005,114.684596 212.870666,108.216082 220.414388,102.990172 C220.874227,101.673231 221.257835,100.433835 221.540368,99.3555161 C223.45704,92.0403272 222.074413,89.0131015 225.056102,80.7187133 C233.697255,56.6809673 242.577129,46.3048808 252.402766,36.5827458 C258.843598,30.2097614 269.195276,25.402632 283.457801,22.1613574 C258.871889,31.0125396 241.794111,49.0640785 232.224467,76.3159741 C229.651043,83.6444271 229.792818,90.7969843 229.065135,98.0233948 C239.937583,92.842274 254.117583,89.409292 271.605134,87.7244486 C246.279929,93.3998771 228.672371,104.876952 218.782461,122.155673 C215.335024,128.178712 212.54371,135.26797 209.06751,141.382321 C215.955434,148.499449 220.607024,157.861955 221.864077,168.291874 C222.663893,168.278332 223.47261,168.26594 224.287734,168.258385 C231.777204,165.365673 238.309703,161.131682 243.885233,155.556411 L243.446764,155.303261 C243.814689,155.182638 244.172948,155.048258 244.521541,154.90012 C246.268617,152.166678 248.509658,149.890247 251.244663,148.070827 C251.394399,147.856806 251.529431,147.635957 251.64976,147.40828 C251.828028,146.994975 251.995936,146.566923 252.153483,146.124126 C252.506061,144.814348 252.461569,143.320189 252.020007,141.641649 C251.256234,138.738264 251.919209,135.062928 254.008931,130.615642 C252.79133,133.985252 252.411454,137.146602 252.869302,140.099693 C252.990808,140.883398 253.174175,141.69294 253.326919,142.494738 C255.359055,137.34076 259.975816,132.258261 267.177204,127.24724 C261.698647,131.865975 257.879332,136.961718 255.719258,142.53447 C255.253194,143.736865 254.840874,145.009729 254.414263,146.272105 C261.313515,142.953101 270.670231,141.907717 282.484411,143.135955 C266.010383,143.353954 253.956475,149.587003 246.322689,161.8351 C244.222764,165.204343 242.103535,167.689261 240.042805,169.490375 C258.892524,172.708379 268.8283,178.613324 278.51191,185.433845 C285.336557,190.240695 291.882157,199.171443 298.148709,212.226089 C284.690524,190.446013 265.656316,177.956513 241.046083,174.757589 C237.22778,174.261273 231.868478,174.286404 226.267269,174.460368 C229.704631,177.476003 233.185679,181.892194 236.25923,188.270191 C243.704963,203.721004 257.783646,215.083191 278.495278,222.35675 C254.149593,216.166178 238.899153,206.833534 232.743961,194.358816 C228.764575,188.987343 224.993729,185.061198 221.431422,182.580381 Z M173.923026,220.45228 C173.495854,220.428406 173.070244,220.398569 172.646275,220.36285 C172.90103,220.68341 173.153787,221.015973 173.404021,221.360924 C173.564527,221.053112 173.737531,220.749977 173.923026,220.45228 Z M250.089769,271.616815 C250.087087,271.603753 250.084414,271.590692 250.08175,271.577632 C250.013183,271.544268 249.944734,271.510847 249.876405,271.47737 C249.94808,271.523887 250.019261,271.570383 250.089769,271.616815 Z" id="Combined-Shape" fill="#77A376"></path>
                <path d="M153.693111,165.296053 C149.311728,165.296053 145.759916,161.712367 145.759916,157.291667 C145.759916,152.870966 149.311728,149.287281 153.693111,149.287281 C158.074493,149.287281 161.626305,152.870966 161.626305,157.291667 C161.626305,161.712367 158.074493,165.296053 153.693111,165.296053 Z M181.617954,155.210526 C176.360295,155.210526 172.098121,150.910104 172.098121,145.605263 C172.098121,140.300423 176.360295,136 181.617954,136 C186.875613,136 191.137787,140.300423 191.137787,145.605263 C191.137787,150.910104 186.875613,155.210526 181.617954,155.210526 Z M206.845511,173.780702 C201.237342,173.780702 196.691023,169.193584 196.691023,163.535088 C196.691023,157.876591 201.237342,153.289474 206.845511,153.289474 C212.453681,153.289474 217,157.876591 217,163.535088 C217,169.193584 212.453681,173.780702 206.845511,173.780702 Z M145.759916,185.14693 C143.131087,185.14693 141,182.996718 141,180.344298 C141,177.691878 143.131087,175.541667 145.759916,175.541667 C148.388746,175.541667 150.519833,177.691878 150.519833,180.344298 C150.519833,182.996718 148.388746,185.14693 145.759916,185.14693 Z M154.169102,201.796053 C152.416549,201.796053 150.995825,200.362578 150.995825,198.594298 C150.995825,196.826018 152.416549,195.392544 154.169102,195.392544 C155.921655,195.392544 157.34238,196.826018 157.34238,198.594298 C157.34238,200.362578 155.921655,201.796053 154.169102,201.796053 Z M167.814196,209 C166.762665,209 165.91023,208.139915 165.91023,207.078947 C165.91023,206.017979 166.762665,205.157895 167.814196,205.157895 C168.865728,205.157895 169.718163,206.017979 169.718163,207.078947 C169.718163,208.139915 168.865728,209 167.814196,209 Z" id="Combined-Shape" fill="#FFFFFF"></path>
                <circle id="nucleus" fill="#FFFFFF" cx="176.5" cy="178.5" r="14.5"></circle>
            </g>
        </g>
    </g>
</svg>