<?xml version="1.0" encoding="UTF-8"?>
<svg width="512px" height="512px" viewBox="0 0 512 512" version="1.1" xmlns="http://www.w3.org/2000/svg" xmlns:xlink="http://www.w3.org/1999/xlink">
    <!-- Generator: Sketch 51.1 (57501) - http://www.bohemiancoding.com/sketch -->
    <title>neuron</title>
    <desc>Created with Sketch.</desc>
    <defs>
        <radialGradient cx="50%" cy="51.7214674%" fx="50%" fy="51.7214674%" r="69.5040769%" id="radialGradient-1">
            <stop stop-color="#FFFFFF" offset="0%"></stop>
            <stop stop-color="#FFD6D6" offset="100%"></stop>
        </radialGradient>
        <rect id="path-2" x="0" y="0" width="512" height="512" rx="96"></rect>
        <filter x="-0.6%" y="-0.6%" width="101.2%" height="101.2%" filterUnits="objectBoundingBox" id="filter-3">
            <feGaussianBlur stdDeviation="2" in="SourceAlpha" result="shadowBlurInner1"></feGaussianBlur>
            <feOffset dx="2" dy="2" in="shadowBlurInner1" result="shadowOffsetInner1"></feOffset>
            <feComposite in="shadowOffsetInner1" in2="SourceAlpha" operator="arithmetic" k2="-1" k3="1" result="shadowInnerInner1"></feComposite>
            <feColorMatrix values="0 0 0 0 0.980973639   0 0 0 0 0.141897465   0 0 0 0 0.141897465  0 0 0 0.5 0" type="matrix" in="shadowInnerInner1"></feColorMatrix>
        </filter>
    </defs>
    <g id="Page-1" stroke="none" stroke-width="1" fill="none" fill-rule="evenodd">
        <g id="neuron">
            <g id="background">
                <use fill="url(#radialGradient-1)" fill-rule="evenodd" xlink:href="#path-2"></use>
                <use fill="black" fill-opacity="1" filter="url(#filter-3)" xlink:href="#path-2"></use>
                <rect stroke="#FFD1D1" stroke-width="4" stroke-linejoin="square" x="2" y="2" width="508" height="508" rx="96"></rect>
            </g>
            <g id="frame" transform="translate(40.000000, 36.000000)" fill="#FFFFFF">
                <g id="Group-2">
                    <path d="M365.532114,0.328474178 C369.629174,-1.53509627 383.162794,5.09163587 384.666758,6.1566938 C386.170723,7.22175172 387.944084,9.76296134 381.924454,11.9369874 C375.904824,14.1110135 369.840611,11.1304371 368.661784,11.9369874 C367.482958,12.7435377 370.34493,13.3680153 375.099436,16.6066478 C379.853943,19.8452803 381.012798,18.0731843 384.666758,22.8391129 C388.320719,27.6050415 392.597902,32.8163983 390.177963,36.2738498 C387.758024,39.7313012 382.046707,34.3955326 380.350691,34.3955326 C378.654674,34.3955326 377.744412,39.1809295 375.099436,36.2738498 C373.336119,34.3357966 371.190235,30.8093972 368.661784,25.6946515 C367.081346,19.1500374 366.038122,16.372488 365.532114,17.3620034 C365.026106,18.3515188 366.06933,22.0970407 368.661784,28.5985691 C370.158839,33.4882575 372.304723,36.8007088 375.099436,38.5359232 C379.291507,41.1387447 380.065743,36.3562914 384.666758,38.5359232 C389.267774,40.715555 391.752983,47.1063441 393.190857,47.1063441 C394.628731,47.1063441 390.130824,40.0323276 393.190857,38.5359232 C396.250891,37.0395188 401.37815,40.1275879 402.518381,42.5450382 C403.658613,44.9624884 399.097674,45.9771549 399.097674,51.0591981 C399.097674,56.1412413 402.518381,56.1585289 402.518381,61.4883147 C402.518381,66.8181005 400.859263,70.5849489 399.097674,72.1784408 C396.445611,74.5774347 388.215712,77.7433716 386.041955,77.6160339 C385.094868,77.5605539 383.205218,76.5838752 383.790325,75.8928504 C384.438444,75.1274063 386.041955,75.8928504 387.624266,74.2720571 C389.206577,72.6512637 391.596472,68.4250838 391.596472,64.2888607 C391.596472,60.1526376 390.325897,53.5284828 387.624266,52.9561354 C384.922636,52.3837881 380.397237,50.31649 378.859109,52.9561354 C377.320982,55.5957809 373.487439,57.7578695 375.099436,58.8190443 C376.711433,59.8802192 379.036059,54.5786343 381.924454,54.5786343 C384.812849,54.5786343 386.2702,55.5296354 387.624266,58.8190443 C388.978333,62.1084532 389.167787,64.2403755 387.624266,68.4250838 C386.080745,72.6097921 386.794241,72.4943814 381.924454,74.2720571 C377.054667,76.0497327 374.644435,74.2720571 371.606995,74.2720571 C368.569554,74.2720571 364.427866,75.9397029 361.435054,72.1784408 C359.716411,69.2482102 361.622343,66.2431654 361.435054,64.2888607 C361.19842,61.819654 360.392849,59.6161339 363.899309,57.2342369 C367.405769,54.8523399 374.016772,56.8826903 371.606995,54.5786343 C369.197217,52.2745782 363.54462,57.0742898 361.435054,54.5786343 C359.325488,52.0829787 362.390279,49.7696128 361.435054,42.5450382 C360.479829,35.3204635 358,32.0491265 358,28.5985691 C358,25.1480117 361.435054,27.8583952 361.435054,22.8391129 C361.435054,17.8198306 358,15.256268 358,11.9369874 C358,8.61770676 358.663361,7.28862609 360.63914,4.24354952 C361.196155,3.38507672 369.536366,5.58797901 369.68986,4.99859685 C370.080823,3.49739 362.590104,1.6666639 365.532114,0.328474178 Z M390.393282,11.7228935 C393.744754,13.7361419 391.323408,20.2454664 397.202339,25.1451756 C403.081271,30.0448849 410.932425,27.6068415 415.647627,32.7707558 C420.362828,37.9346702 411.503526,38.0888648 409.686537,38.817407 C407.813585,39.5683883 406.459884,42.7134574 404.456742,42.3521721 C402.590148,42.0155147 401.932561,39.2748155 400.917766,38.817407 C399.278311,38.0784395 397.70531,37.6321166 396.544096,36.5384232 C396.144594,36.1621511 392.78057,37.0310985 392.194988,36.5384232 C391.522414,35.9725582 393.276982,33.2777454 392.858061,32.7707558 C391.195855,30.759109 391.078149,28.9383236 388.916345,25.1451756 C386.209709,20.3960515 385.867615,20.3740559 383.82443,18.8369285 C378.968845,15.1839782 376.404761,14.4818234 379.450966,14.4818234 C385.942996,14.4818234 387.04181,9.70964513 390.393282,11.7228935 Z M393.786574,13.0189463 C394.627391,11.6999598 396.812703,12.3863205 400.342509,15.0780282 L406.401533,20.737753 L411.11656,28.4565597 L401.259284,26.0172584 L396.080675,21.7635534 C393.710458,17.2528017 392.945758,14.3379327 393.786574,13.0189463 Z M393.540418,9.43154846 C395.911382,11.1921838 397.140104,11.4530726 396.969448,11.9807691 C396.911737,12.1592207 394.466385,11.0920447 394.238884,11.4345502 C393.793644,12.1048627 393.10093,12.8535221 392.464827,12.7574445 C391.5037,12.6122747 392.225785,11.5794665 390.844904,10.6474266 C389.464022,9.71538676 386.616179,11.4672918 386.217008,10.6474266 C386.104297,10.4159277 387.730862,8.44928993 387.537282,7.697525 C387.373681,7.06218389 385.565396,6.01096124 385.60917,5.6054116 C385.651024,5.21764602 387.341997,6.2081348 387.537282,6.02942265 C387.788446,5.79957255 388.396099,6.02942265 388.691587,6.02942265 C389.869603,6.02942265 391.169454,7.67091313 393.540418,9.43154846 Z M405.067134,44.3822429 C406.822319,43.1482902 409.421701,42.3654103 412.86528,42.0336034 L416.037096,50.53068 L411.018958,56.8165009 L409.821124,62.5638329 L416.037096,58.124062 C416.93415,54.2823236 417.889565,52.2425097 418.903342,52.0046205 C419.91712,51.7667312 420.819117,53.3706913 421.609334,56.8165009 C422.753602,59.2411501 423.089729,61.1569275 422.617715,62.5638329 C421.909694,64.674191 420.876655,64.1896847 418.903342,64.8820961 C416.93003,65.5745075 411.952469,65.2053666 409.821124,67.0540008 C407.689779,68.902635 411.092167,70.1192445 412.86528,70.1192445 C414.638393,70.1192445 419.28111,65.9457661 422.617715,67.0540008 C425.95432,68.1622355 424.147957,72.2233228 422.617715,73.3584616 C421.087473,74.4936003 415.901621,78.3897697 411.018958,78.5855031 C408.977701,78.6673318 402.836416,80.5210414 400.778969,79.7560454 C397.915028,78.6911801 399.420201,74.8295508 399.420201,74.2883903 C399.420201,73.3584616 402.761311,70.676259 404.085236,66.0888632 C405.409161,61.5014674 404.867054,61.8030339 404.085236,58.124062 C403.303418,54.4450902 400.529105,54.027565 400.778969,50.53068 C401.028833,47.0337951 402.434358,46.233172 405.067134,44.3822429 Z M414.057856,40.638804 C414.343096,38.1726662 418.327978,38.2006883 419.390173,38.2006883 C420.098303,38.2006883 421.298842,39.4195247 422.99179,41.8571976 L424.727164,46.4313872 C423.881955,47.9223049 422.856319,48.9313428 421.650255,49.4585008 C420.444192,49.9856589 419.161292,49.9856589 417.801555,49.4585008 C415.115596,45.2227948 413.867696,42.2828958 414.057856,40.638804 Z M425.787824,49.129839 C427.617492,50.0562117 425.061753,53.4694252 426.903942,57.0244016 C427.154469,57.5078583 429.845849,59.1446296 430.131946,59.6923887 C430.685487,60.7521954 429.716112,62.8301059 430.131946,63.5692115 C431.511416,66.0210903 431.857277,64.3934156 431.257436,66.2029734 C430.992301,67.0028132 429.76955,66.6449164 429.220895,66.8162334 C428.154094,67.1493403 427.634321,67.4553205 427.634321,67.9543611 C427.634321,68.7100584 431.269334,66.7373516 432.367607,68.5008871 C433.46588,70.2644226 433.106042,72.7544349 431.257436,73.7721242 C430.245007,74.3294836 428.417552,75.798259 426.360665,75.8282 C424.661857,75.8529286 422.459656,74.5834206 423.496216,73.7721242 C425.023955,72.5763913 425.787824,71.1013512 425.787824,69.3470039 C426.037406,68.8146508 426.037406,68.3504365 425.787824,67.9543611 C425.290846,67.165678 423.496216,66.1081136 423.496216,64.9754094 C423.496216,61.9964578 423.8908,61.499446 423.496216,59.2539926 C423.101632,57.0085392 420.657259,54.3527335 421.204608,51.9345887 C421.485325,50.6944021 422.647608,50.6482821 423.496216,50.127198 C424.302244,49.6322601 424.775322,48.6172026 425.787824,49.129839 Z" id="Combined-Shape"></path>
                    <path d="M67.4542931,439.612249 C63.3572329,441.47582 49.8236132,434.849088 48.3196488,433.78403 C46.8156843,432.718972 45.0423229,430.177762 51.0619532,428.003736 C57.0815835,425.82971 63.1457961,428.810286 64.3246228,428.003736 C65.5034494,427.197186 62.6414776,426.572708 57.8869709,423.334076 C53.1324642,420.095443 51.9736094,421.867539 48.3196488,417.101611 C44.6656881,412.335682 40.3885049,407.124325 42.808444,403.666874 C45.2283832,400.209422 50.9397003,405.545191 52.6357166,405.545191 C54.331733,405.545191 55.2419948,400.759794 57.8869709,403.666874 C59.6502883,405.604927 61.7961723,409.131326 64.3246228,414.246072 C65.9050616,420.790686 66.9482851,423.568235 67.4542931,422.57872 C67.9603011,421.589205 66.9170777,417.843683 64.3246228,411.342154 C62.8275687,406.452466 60.6816847,403.140015 57.8869709,401.4048 C53.6949002,398.801979 52.9206639,403.584432 48.3196488,401.4048 C43.7186336,399.225168 41.233424,392.834379 39.79555,392.834379 C38.3576761,392.834379 42.8555834,399.908396 39.79555,401.4048 C36.7355167,402.901205 31.6082576,399.813136 30.4680258,397.395685 C29.327794,394.978235 33.8887329,393.963569 33.8887329,388.881525 C33.8887329,383.799482 30.4680258,383.782195 30.4680258,378.452409 C30.4680258,373.122623 32.1271438,369.355775 33.8887329,367.762283 C36.5407964,365.363289 44.770695,362.197352 46.944452,362.32469 C47.8915395,362.38017 49.7811894,363.356848 49.1960826,364.047873 C48.5479633,364.813317 46.944452,364.047873 45.3621411,365.668666 C43.7798301,367.28946 41.3899356,371.51564 41.3899356,375.651863 C41.3899356,379.788086 42.6605104,386.412241 45.3621411,386.984588 C48.0637717,387.556935 52.5891703,389.624233 54.1272978,386.984588 C55.6654254,384.344943 59.498968,382.182854 57.8869709,381.121679 C56.2749739,380.060504 53.950348,385.362089 51.0619532,385.362089 C48.1735583,385.362089 46.7162075,384.411088 45.3621411,381.121679 C44.0080746,377.83227 43.81862,375.700348 45.3621411,371.51564 C46.9056621,367.330931 46.1921664,367.446342 51.0619532,365.668666 C55.9317399,363.890991 58.3419721,365.668666 61.3794124,365.668666 C64.4168528,365.668666 68.5585414,364.001021 71.5513533,367.762283 C73.2699961,370.692513 71.3640641,373.697558 71.5513533,375.651863 C71.7879876,378.12107 72.5935579,380.32459 69.0870983,382.706487 C65.5806387,385.088384 58.9696349,383.058033 61.3794124,385.362089 C63.7891899,387.666145 69.4417876,382.866434 71.5513533,385.362089 C73.6609189,387.857745 70.5961284,390.171111 71.5513533,397.395685 C72.5065781,404.62026 74.9864072,407.891597 74.9864072,411.342154 C74.9864072,414.792712 71.5513533,412.082328 71.5513533,417.101611 C71.5513533,422.120893 74.9864072,424.684455 74.9864072,428.003736 C74.9864072,431.323017 74.3230466,432.652097 72.3472669,435.697174 C71.790252,436.555647 63.4500411,434.352744 63.296547,434.942127 C62.9055842,436.443333 70.3963036,438.27406 67.4542931,439.612249 Z M42.5931251,428.21783 C39.2416533,426.204582 41.6629996,419.695257 35.7840679,414.795548 C29.9051362,409.895839 22.0539822,412.333882 17.3387806,407.169968 C12.6235791,402.006053 21.4828815,401.851859 23.2998704,401.123316 C25.1728221,400.372335 26.5265228,397.227266 28.5296656,397.588551 C30.3962593,397.925209 31.0538459,400.665908 32.0686412,401.123316 C33.7080967,401.862284 35.2810972,402.308607 36.4423115,403.4023 C36.8418134,403.778572 40.2058373,402.909625 40.7914196,403.4023 C41.4639937,403.968165 39.7094248,406.662978 40.1283459,407.169968 C41.7905521,409.181614 41.9082584,411.0024 44.0700618,414.795548 C46.7766984,419.544672 47.1187925,419.566668 49.1619771,421.103795 C54.0175618,424.756745 56.5816463,425.4589 53.5354411,425.4589 C47.0434114,425.4589 45.9445968,430.231078 42.5931251,428.21783 Z M39.1998329,426.921777 C38.3590162,428.240764 36.1737046,427.554403 32.6438979,424.862695 L26.5848738,419.20297 L21.8698468,411.484164 L31.7271231,413.923465 L36.9057318,418.17717 C39.2759492,422.687922 40.0406496,425.602791 39.1998329,426.921777 Z M39.445989,430.509175 C37.0750249,428.74854 35.846303,428.487651 36.0169594,427.959954 C36.0746704,427.781503 38.520022,428.848679 38.7475233,428.506173 C39.1927629,427.835861 39.8854776,427.087201 40.5215799,427.183279 C41.4827074,427.328449 40.7606218,428.361257 42.1415035,429.293297 C43.5223852,430.225337 46.370228,428.473432 46.7693993,429.293297 C46.8821102,429.524796 45.2555453,431.491434 45.4491256,432.243198 C45.6127266,432.87854 47.4210116,433.929762 47.3772376,434.335312 C47.3353832,434.723077 45.6444099,433.732589 45.4491256,433.911301 C45.1979612,434.141151 44.5903078,433.911301 44.2948199,433.911301 C43.1168047,433.911301 41.8169531,432.26981 39.445989,430.509175 Z M27.9192729,395.558481 C26.1640885,396.792433 23.5647066,397.575313 20.1211273,397.90712 L16.9493111,389.410043 L21.967449,383.124223 L23.1652833,377.376891 L16.9493111,381.816661 C16.0522572,385.6584 15.0968418,387.698214 14.0830648,387.936103 C13.0692877,388.173992 12.1672904,386.570032 11.3770729,383.124223 C10.2328049,380.699573 9.89667795,378.783796 10.368692,377.376891 C11.0767132,375.266532 12.109752,375.751039 14.0830648,375.058627 C16.0563775,374.366216 21.0339385,374.735357 23.1652833,372.886723 C25.296628,371.038088 21.8942404,369.821479 20.1211273,369.821479 C18.3480143,369.821479 13.7052969,373.994957 10.368692,372.886723 C7.0320872,371.778488 8.83844995,367.717401 10.368692,366.582262 C11.8989341,365.447123 17.0847867,361.550954 21.967449,361.35522 C24.0087061,361.273392 30.1499916,359.419682 32.2074381,360.184678 C35.0713789,361.249543 33.5662059,365.111173 33.5662059,365.652333 C33.5662059,366.582262 30.2250963,369.264464 28.9011711,373.85186 C27.5772459,378.439256 28.1193533,378.13769 28.9011711,381.816661 C29.6829888,385.495633 32.4573021,385.913159 32.2074381,389.410043 C31.9575742,392.906928 30.5520496,393.707551 27.9192729,395.558481 Z M18.9285512,399.30192 C18.6433113,401.768057 14.6584291,401.740035 13.596234,401.740035 C12.8881039,401.740035 11.6875649,400.521199 9.99461689,398.083526 L8.25924297,393.509336 C9.10445218,392.018419 10.1300885,391.009381 11.3361519,390.482223 C12.5422153,389.955065 13.8251154,389.955065 15.1848523,390.482223 C17.8708115,394.717929 19.1187111,397.657828 18.9285512,399.30192 Z M7.19858279,390.810884 C5.36891536,389.884512 7.92465455,386.471298 6.0824652,382.916322 C5.83193784,382.432865 3.14055831,380.796094 2.8544614,380.248335 C2.30091982,379.188528 3.27029537,377.110618 2.8544614,376.371512 C1.47499077,373.919633 1.12913057,375.547308 1.7289714,373.73775 C1.99410611,372.93791 3.21685684,373.295807 3.76551272,373.12449 C4.83231293,372.791383 5.3520864,372.485403 5.3520864,371.986362 C5.3520864,371.230665 1.71707289,373.203372 0.618799929,371.439836 C-0.479473029,369.676301 -0.119635186,367.186289 1.7289714,366.168599 C2.74140033,365.61124 4.56885551,364.142464 6.62574194,364.112524 C8.32455004,364.087795 10.5267511,365.357303 9.49019106,366.168599 C7.96245221,367.364332 7.19858279,368.839372 7.19858279,370.59372 C6.94900083,371.126073 6.94900083,371.590287 7.19858279,371.986362 C7.69556147,372.775045 9.49019106,373.83261 9.49019106,374.965314 C9.49019106,377.944266 9.09560703,378.441277 9.49019106,380.686731 C9.88477509,382.932184 12.3291479,385.58799 11.7817993,388.006135 C11.5010824,389.246321 10.3387991,389.292441 9.49019106,389.813525 C8.68416321,390.308463 8.21108488,391.323521 7.19858279,390.810884 Z" id="Combined-Shape"></path>
                    <path d="M365.532114,439.612249 C362.590104,438.27406 370.080823,436.443333 369.68986,434.942127 C369.536366,434.352744 361.196155,436.555647 360.63914,435.697174 C358.663361,432.652097 358,431.323017 358,428.003736 C358,424.684455 361.435054,422.120893 361.435054,417.101611 C361.435054,412.082328 358,414.792712 358,411.342154 C358,407.891597 360.479829,404.62026 361.435054,397.395685 C362.390279,390.171111 359.325488,387.857745 361.435054,385.362089 C363.54462,382.866434 369.197217,387.666145 371.606995,385.362089 C374.016772,383.058033 367.405769,385.088384 363.899309,382.706487 C360.392849,380.32459 361.19842,378.12107 361.435054,375.651863 C361.622343,373.697558 359.716411,370.692513 361.435054,367.762283 C364.427866,364.001021 368.569554,365.668666 371.606995,365.668666 C374.644435,365.668666 377.054667,363.890991 381.924454,365.668666 C386.794241,367.446342 386.080745,367.330931 387.624266,371.51564 C389.167787,375.700348 388.978333,377.83227 387.624266,381.121679 C386.2702,384.411088 384.812849,385.362089 381.924454,385.362089 C379.036059,385.362089 376.711433,380.060504 375.099436,381.121679 C373.487439,382.182854 377.320982,384.344943 378.859109,386.984588 C380.397237,389.624233 384.922636,387.556935 387.624266,386.984588 C390.325897,386.412241 391.596472,379.788086 391.596472,375.651863 C391.596472,371.51564 389.206577,367.28946 387.624266,365.668666 C386.041955,364.047873 384.438444,364.813317 383.790325,364.047873 C383.205218,363.356848 385.094868,362.38017 386.041955,362.32469 C388.215712,362.197352 396.445611,365.363289 399.097674,367.762283 C400.859263,369.355775 402.518381,373.122623 402.518381,378.452409 C402.518381,383.782195 399.097674,383.799482 399.097674,388.881525 C399.097674,393.963569 403.658613,394.978235 402.518381,397.395685 C401.37815,399.813136 396.250891,402.901205 393.190857,401.4048 C390.130824,399.908396 394.628731,392.834379 393.190857,392.834379 C391.752983,392.834379 389.267774,399.225168 384.666758,401.4048 C380.065743,403.584432 379.291507,398.801979 375.099436,401.4048 C372.304723,403.140015 370.158839,406.452466 368.661784,411.342154 C366.06933,417.843683 365.026106,421.589205 365.532114,422.57872 C366.038122,423.568235 367.081346,420.790686 368.661784,414.246072 C371.190235,409.131326 373.336119,405.604927 375.099436,403.666874 C377.744412,400.759794 378.654674,405.545191 380.350691,405.545191 C382.046707,405.545191 387.758024,400.209422 390.177963,403.666874 C392.597902,407.124325 388.320719,412.335682 384.666758,417.101611 C381.012798,421.867539 379.853943,420.095443 375.099436,423.334076 C370.34493,426.572708 367.482958,427.197186 368.661784,428.003736 C369.840611,428.810286 375.904824,425.82971 381.924454,428.003736 C387.944084,430.177762 386.170723,432.718972 384.666758,433.78403 C383.162794,434.849088 369.629174,441.47582 365.532114,439.612249 Z M390.393282,428.21783 C387.04181,430.231078 385.942996,425.4589 379.450966,425.4589 C376.404761,425.4589 378.968845,424.756745 383.82443,421.103795 C385.867615,419.566668 386.209709,419.544672 388.916345,414.795548 C391.078149,411.0024 391.195855,409.181614 392.858061,407.169968 C393.276982,406.662978 391.522414,403.968165 392.194988,403.4023 C392.78057,402.909625 396.144594,403.778572 396.544096,403.4023 C397.70531,402.308607 399.278311,401.862284 400.917766,401.123316 C401.932561,400.665908 402.590148,397.925209 404.456742,397.588551 C406.459884,397.227266 407.813585,400.372335 409.686537,401.123316 C411.503526,401.851859 420.362828,402.006053 415.647627,407.169968 C410.932425,412.333882 403.081271,409.895839 397.202339,414.795548 C391.323408,419.695257 393.744754,426.204582 390.393282,428.21783 Z M393.786574,426.921777 C392.945758,425.602791 393.710458,422.687922 396.080675,418.17717 L401.259284,413.923465 L411.11656,411.484164 L406.401533,419.20297 L400.342509,424.862695 C396.812703,427.554403 394.627391,428.240764 393.786574,426.921777 Z M393.540418,430.509175 C391.169454,432.26981 389.869603,433.911301 388.691587,433.911301 C388.396099,433.911301 387.788446,434.141151 387.537282,433.911301 C387.341997,433.732589 385.651024,434.723077 385.60917,434.335312 C385.565396,433.929762 387.373681,432.87854 387.537282,432.243198 C387.730862,431.491434 386.104297,429.524796 386.217008,429.293297 C386.616179,428.473432 389.464022,430.225337 390.844904,429.293297 C392.225785,428.361257 391.5037,427.328449 392.464827,427.183279 C393.10093,427.087201 393.793644,427.835861 394.238884,428.506173 C394.466385,428.848679 396.911737,427.781503 396.969448,427.959954 C397.140104,428.487651 395.911382,428.74854 393.540418,430.509175 Z M405.067134,395.558481 C402.434358,393.707551 401.028833,392.906928 400.778969,389.410043 C400.529105,385.913159 403.303418,385.495633 404.085236,381.816661 C404.867054,378.13769 405.409161,378.439256 404.085236,373.85186 C402.761311,369.264464 399.420201,366.582262 399.420201,365.652333 C399.420201,365.111173 397.915028,361.249543 400.778969,360.184678 C402.836416,359.419682 408.977701,361.273392 411.018958,361.35522 C415.901621,361.550954 421.087473,365.447123 422.617715,366.582262 C424.147957,367.717401 425.95432,371.778488 422.617715,372.886723 C419.28111,373.994957 414.638393,369.821479 412.86528,369.821479 C411.092167,369.821479 407.689779,371.038088 409.821124,372.886723 C411.952469,374.735357 416.93003,374.366216 418.903342,375.058627 C420.876655,375.751039 421.909694,375.266532 422.617715,377.376891 C423.089729,378.783796 422.753602,380.699573 421.609334,383.124223 C420.819117,386.570032 419.91712,388.173992 418.903342,387.936103 C417.889565,387.698214 416.93415,385.6584 416.037096,381.816661 L409.821124,377.376891 L411.018958,383.124223 L416.037096,389.410043 L412.86528,397.90712 C409.421701,397.575313 406.822319,396.792433 405.067134,395.558481 Z M414.057856,399.30192 C413.867696,397.657828 415.115596,394.717929 417.801555,390.482223 C419.161292,389.955065 420.444192,389.955065 421.650255,390.482223 C422.856319,391.009381 423.881955,392.018419 424.727164,393.509336 L422.99179,398.083526 C421.298842,400.521199 420.098303,401.740035 419.390173,401.740035 C418.327978,401.740035 414.343096,401.768057 414.057856,399.30192 Z M425.787824,390.810884 C424.775322,391.323521 424.302244,390.308463 423.496216,389.813525 C422.647608,389.292441 421.485325,389.246321 421.204608,388.006135 C420.657259,385.58799 423.101632,382.932184 423.496216,380.686731 C423.8908,378.441277 423.496216,377.944266 423.496216,374.965314 C423.496216,373.83261 425.290846,372.775045 425.787824,371.986362 C426.037406,371.590287 426.037406,371.126073 425.787824,370.59372 C425.787824,368.839372 425.023955,367.364332 423.496216,366.168599 C422.459656,365.357303 424.661857,364.087795 426.360665,364.112524 C428.417552,364.142464 430.245007,365.61124 431.257436,366.168599 C433.106042,367.186289 433.46588,369.676301 432.367607,371.439836 C431.269334,373.203372 427.634321,371.230665 427.634321,371.986362 C427.634321,372.485403 428.154094,372.791383 429.220895,373.12449 C429.76955,373.295807 430.992301,372.93791 431.257436,373.73775 C431.857277,375.547308 431.511416,373.919633 430.131946,376.371512 C429.716112,377.110618 430.685487,379.188528 430.131946,380.248335 C429.845849,380.796094 427.154469,382.432865 426.903942,382.916322 C425.061753,386.471298 427.617492,389.884512 425.787824,390.810884 Z" id="Combined-Shape"></path>
                    <path d="M67.4542931,0.328474178 C70.3963036,1.6666639 62.9055842,3.49739 63.296547,4.99859685 C63.4500411,5.58797901 71.790252,3.38507672 72.3472669,4.24354952 C74.3230466,7.28862609 74.9864072,8.61770676 74.9864072,11.9369874 C74.9864072,15.256268 71.5513533,17.8198306 71.5513533,22.8391129 C71.5513533,27.8583952 74.9864072,25.1480117 74.9864072,28.5985691 C74.9864072,32.0491265 72.5065781,35.3204635 71.5513533,42.5450382 C70.5961284,49.7696128 73.6609189,52.0829787 71.5513533,54.5786343 C69.4417876,57.0742898 63.7891899,52.2745782 61.3794124,54.5786343 C58.9696349,56.8826903 65.5806387,54.8523399 69.0870983,57.2342369 C72.5935579,59.6161339 71.7879876,61.819654 71.5513533,64.2888607 C71.3640641,66.2431654 73.2699961,69.2482102 71.5513533,72.1784408 C68.5585414,75.9397029 64.4168528,74.2720571 61.3794124,74.2720571 C58.3419721,74.2720571 55.9317399,76.0497327 51.0619532,74.2720571 C46.1921664,72.4943814 46.9056621,72.6097921 45.3621411,68.4250838 C43.81862,64.2403755 44.0080746,62.1084532 45.3621411,58.8190443 C46.7162075,55.5296354 48.1735583,54.5786343 51.0619532,54.5786343 C53.950348,54.5786343 56.2749739,59.8802192 57.8869709,58.8190443 C59.498968,57.7578695 55.6654254,55.5957809 54.1272978,52.9561354 C52.5891703,50.31649 48.0637717,52.3837881 45.3621411,52.9561354 C42.6605104,53.5284828 41.3899356,60.1526376 41.3899356,64.2888607 C41.3899356,68.4250838 43.7798301,72.6512637 45.3621411,74.2720571 C46.944452,75.8928504 48.5479633,75.1274063 49.1960826,75.8928504 C49.7811894,76.5838752 47.8915395,77.5605539 46.944452,77.6160339 C44.770695,77.7433716 36.5407964,74.5774347 33.8887329,72.1784408 C32.1271438,70.5849489 30.4680258,66.8181005 30.4680258,61.4883147 C30.4680258,56.1585289 33.8887329,56.1412413 33.8887329,51.0591981 C33.8887329,45.9771549 29.327794,44.9624884 30.4680258,42.5450382 C31.6082576,40.1275879 36.7355167,37.0395188 39.79555,38.5359232 C42.8555834,40.0323276 38.3576761,47.1063441 39.79555,47.1063441 C41.233424,47.1063441 43.7186336,40.715555 48.3196488,38.5359232 C52.9206639,36.3562914 53.6949002,41.1387447 57.8869709,38.5359232 C60.6816847,36.8007088 62.8275687,33.4882575 64.3246228,28.5985691 C66.9170777,22.0970407 67.9603011,18.3515188 67.4542931,17.3620034 C66.9482851,16.372488 65.9050616,19.1500374 64.3246228,25.6946515 C61.7961723,30.8093972 59.6502883,34.3357966 57.8869709,36.2738498 C55.2419948,39.1809295 54.331733,34.3955326 52.6357166,34.3955326 C50.9397003,34.3955326 45.2283832,39.7313012 42.808444,36.2738498 C40.3885049,32.8163983 44.6656881,27.6050415 48.3196488,22.8391129 C51.9736094,18.0731843 53.1324642,19.8452803 57.8869709,16.6066478 C62.6414776,13.3680153 65.5034494,12.7435377 64.3246228,11.9369874 C63.1457961,11.1304371 57.0815835,14.1110135 51.0619532,11.9369874 C45.0423229,9.76296134 46.8156843,7.22175172 48.3196488,6.1566938 C49.8236132,5.09163587 63.3572329,-1.53509627 67.4542931,0.328474178 Z M42.5931251,11.7228935 C45.9445968,9.70964513 47.0434114,14.4818234 53.5354411,14.4818234 C56.5816463,14.4818234 54.0175618,15.1839782 49.1619771,18.8369285 C47.1187925,20.3740559 46.7766984,20.3960515 44.0700618,25.1451756 C41.9082584,28.9383236 41.7905521,30.759109 40.1283459,32.7707558 C39.7094248,33.2777454 41.4639937,35.9725582 40.7914196,36.5384232 C40.2058373,37.0310985 36.8418134,36.1621511 36.4423115,36.5384232 C35.2810972,37.6321166 33.7080967,38.0784395 32.0686412,38.817407 C31.0538459,39.2748155 30.3962593,42.0155147 28.5296656,42.3521721 C26.5265228,42.7134574 25.1728221,39.5683883 23.2998704,38.817407 C21.4828815,38.0888648 12.6235791,37.9346702 17.3387806,32.7707558 C22.0539822,27.6068415 29.9051362,30.0448849 35.7840679,25.1451756 C41.6629996,20.2454664 39.2416533,13.7361419 42.5931251,11.7228935 Z M39.1998329,13.0189463 C40.0406496,14.3379327 39.2759492,17.2528017 36.9057318,21.7635534 L31.7271231,26.0172584 L21.8698468,28.4565597 L26.5848738,20.737753 L32.6438979,15.0780282 C36.1737046,12.3863205 38.3590162,11.6999598 39.1998329,13.0189463 Z M39.445989,9.43154846 C41.8169531,7.67091313 43.1168047,6.02942265 44.2948199,6.02942265 C44.5903078,6.02942265 45.1979612,5.79957255 45.4491256,6.02942265 C45.6444099,6.2081348 47.3353832,5.21764602 47.3772376,5.6054116 C47.4210116,6.01096124 45.6127266,7.06218389 45.4491256,7.697525 C45.2555453,8.44928993 46.8821102,10.4159277 46.7693993,10.6474266 C46.370228,11.4672918 43.5223852,9.71538676 42.1415035,10.6474266 C40.7606218,11.5794665 41.4827074,12.6122747 40.5215799,12.7574445 C39.8854776,12.8535221 39.1927629,12.1048627 38.7475233,11.4345502 C38.520022,11.0920447 36.0746704,12.1592207 36.0169594,11.9807691 C35.846303,11.4530726 37.0750249,11.1921838 39.445989,9.43154846 Z M27.9192729,44.3822429 C30.5520496,46.233172 31.9575742,47.0337951 32.2074381,50.53068 C32.4573021,54.027565 29.6829888,54.4450902 28.9011711,58.124062 C28.1193533,61.8030339 27.5772459,61.5014674 28.9011711,66.0888632 C30.2250963,70.676259 33.5662059,73.3584616 33.5662059,74.2883903 C33.5662059,74.8295508 35.0713789,78.6911801 32.2074381,79.7560454 C30.1499916,80.5210414 24.0087061,78.6673318 21.967449,78.5855031 C17.0847867,78.3897697 11.8989341,74.4936003 10.368692,73.3584616 C8.83844995,72.2233228 7.0320872,68.1622355 10.368692,67.0540008 C13.7052969,65.9457661 18.3480143,70.1192445 20.1211273,70.1192445 C21.8942404,70.1192445 25.296628,68.902635 23.1652833,67.0540008 C21.0339385,65.2053666 16.0563775,65.5745075 14.0830648,64.8820961 C12.109752,64.1896847 11.0767132,64.674191 10.368692,62.5638329 C9.89667795,61.1569275 10.2328049,59.2411501 11.3770729,56.8165009 C12.1672904,53.3706913 13.0692877,51.7667312 14.0830648,52.0046205 C15.0968418,52.2425097 16.0522572,54.2823236 16.9493111,58.124062 L23.1652833,62.5638329 L21.967449,56.8165009 L16.9493111,50.53068 L20.1211273,42.0336034 C23.5647066,42.3654103 26.1640885,43.1482902 27.9192729,44.3822429 Z M18.9285512,40.638804 C19.1187111,42.2828958 17.8708115,45.2227948 15.1848523,49.4585008 C13.8251154,49.9856589 12.5422153,49.9856589 11.3361519,49.4585008 C10.1300885,48.9313428 9.10445218,47.9223049 8.25924297,46.4313872 L9.99461689,41.8571976 C11.6875649,39.4195247 12.8881039,38.2006883 13.596234,38.2006883 C14.6584291,38.2006883 18.6433113,38.1726662 18.9285512,40.638804 Z M7.19858279,49.129839 C8.21108488,48.6172026 8.68416321,49.6322601 9.49019106,50.127198 C10.3387991,50.6482821 11.5010824,50.6944021 11.7817993,51.9345887 C12.3291479,54.3527335 9.88477509,57.0085392 9.49019106,59.2539926 C9.09560703,61.499446 9.49019106,61.9964578 9.49019106,64.9754094 C9.49019106,66.1081136 7.69556147,67.165678 7.19858279,67.9543611 C6.94900083,68.3504365 6.94900083,68.8146508 7.19858279,69.3470039 C7.19858279,71.1013512 7.96245221,72.5763913 9.49019106,73.7721242 C10.5267511,74.5834206 8.32455004,75.8529286 6.62574194,75.8282 C4.56885551,75.798259 2.74140033,74.3294836 1.7289714,73.7721242 C-0.119635186,72.7544349 -0.479473029,70.2644226 0.618799929,68.5008871 C1.71707289,66.7373516 5.3520864,68.7100584 5.3520864,67.9543611 C5.3520864,67.4553205 4.83231293,67.1493403 3.76551272,66.8162334 C3.21685684,66.6449164 1.99410611,67.0028132 1.7289714,66.2029734 C1.12913057,64.3934156 1.47499077,66.0210903 2.8544614,63.5692115 C3.27029537,62.8301059 2.30091982,60.7521954 2.8544614,59.6923887 C3.14055831,59.1446296 5.83193784,57.5078583 6.0824652,57.0244016 C7.92465455,53.4694252 5.36891536,50.0562117 7.19858279,49.129839 Z" id="Combined-Shape"></path>
                </g>
            </g>
            <g id="shape" transform="translate(94.000000, 93.000000)">
                <path d="M221.406209,182.555751 C219.723796,191.740094 215.389157,199.975426 209.241519,206.407933 C209.129776,207.762888 209.343094,208.933972 209.343094,209.601969 C209.343094,212.036424 214.880893,215.51632 216.389107,217.807399 C225.156558,223.505011 229.784441,235.722711 235.635174,245.757933 C243.788912,249.101126 254.149262,248.218398 266.716224,243.109748 C279.068894,235.384774 298.155013,234.927736 323.974582,241.738636 C300.93747,237.682354 281.851351,240.482646 266.716224,250.139512 C257.764232,255.85127 250.189027,257.657059 244.336499,257.650118 C254.597004,268.89476 268.966037,277.18003 287.443597,282.505927 C274.78616,280.432312 263.920298,277.503646 254.846014,273.719929 C257.0911,282.863921 262.15872,290.501319 269.270828,298.097655 C272.647303,301.704018 278.798252,306.99963 287.723676,313.984493 C265.994507,299.707396 253.520076,285.939496 250.300384,272.680792 C249.809742,272.05733 249.363959,271.504053 248.963034,271.02096 C236.533689,264.748112 228.157353,256.540919 223.834024,246.39938 C217.494339,231.52793 207.422397,223.644347 193.618199,222.748631 C191.231104,223.778481 187.800834,224.898595 185.302966,227.396463 C182.399493,230.299936 180.421609,234.576653 179.714693,236.256227 C179.858218,236.89445 179.993878,237.548946 180.12115,238.220097 C183.316976,255.072793 193.977944,269.693972 212.104054,282.083633 C190.187265,269.798911 177.869366,256.834663 175.150357,243.19089 C172.972307,237.672585 170.658497,233.295998 168.208929,230.061131 C166.605231,229.140936 163.958688,226.549722 160.965411,226.549722 C158.523768,226.549722 156.312836,228.273866 154.710433,229.408798 C152.996799,231.167583 150.871497,233.01169 148.264878,234.935696 C131.943769,246.982692 127.210984,262.17453 134.066522,280.511211 C131.14973,275.303713 129.021616,270.44033 127.68218,265.921064 C126.772171,269.260633 125.634834,272.833733 123.988995,276.82456 C115.49469,297.421537 106.765721,306.312387 97.1070607,314.642893 C90.7756852,320.103647 80.5999241,324.222682 66.5797776,327 C90.7478752,319.415778 107.535432,303.948142 116.942449,280.59709 C119.678118,273.806335 120.827256,265.539216 122.452414,258.102674 C116.599444,264.57263 108.411695,269.928285 97.8891686,274.169641 L98.9597574,274.177537 C98.3134537,274.24704 97.6965698,274.347974 97.1091057,274.480339 C96.0431409,274.899877 94.9537301,275.308226 93.8408732,275.705384 C90.8965849,277.364285 89.1280457,280.279315 88.5352554,284.450475 C88.4030915,285.380444 88.1684263,286.29139 87.8312598,287.183315 C87.9608641,288.230885 88.2204931,289.239036 88.6101466,290.207768 C89.7778478,293.110833 88.7642533,296.785764 85.5693629,301.23256 C87.430903,297.863321 88.01168,294.70232 87.311694,291.749554 C87.1409311,291.029221 86.8902519,290.287059 86.6694829,289.549148 C84.1843305,293.632349 79.3757268,297.284363 72.2436716,300.505191 C78.8371921,296.531039 83.0041293,291.6368 84.7444833,285.822475 C85.5042133,283.284303 85.8906131,280.36916 86.8442176,277.965196 C80.6441662,279.773965 73.8256028,281.287542 66.3885274,282.505927 C90.0439824,275.687575 106.965648,264.018874 117.153523,247.499823 C124.000012,236.398638 128.853073,221.805719 139.629743,216.569463 C139.841977,216.46634 140.061392,216.359758 140.287988,216.249714 C140.366996,216.01641 140.43966,215.7765 140.505228,215.529624 C141.710239,210.992494 137.402223,200.100568 136.597675,196.804414 C134.657789,193.305954 133.150064,189.526495 132.148208,185.541029 C122.53722,180.059423 111.474627,178.399072 98.9604285,180.559975 L99.4051361,181.330232 C96.0324731,185.235041 93.547736,188.108677 91.9509249,189.951139 C88.1096873,194.383308 81.3931463,195.695447 74.9084283,197.177952 C74.6099489,198.737791 74.3774317,199.949573 74.2108767,200.813298 C73.5014407,204.492309 69.4862891,207.139332 66.6871936,210.10588 C66.4221957,210.386731 66.1653343,210.674226 65.9166094,210.968366 C66.2236393,211.851408 66.4575674,212.525339 66.6183937,212.99016 C67.2309517,214.760578 66.1540957,216.91056 65.6836888,218.894887 C64.9837028,221.847652 65.5644798,225.008654 67.4260199,228.377892 C64.2311296,223.931096 63.217535,220.256166 64.3852363,217.3531 C65.0770461,215.633166 65.1313409,214.10684 64.5481204,212.774122 C61.7816976,216.859022 60.3396554,222.025401 60.221994,228.273258 C59.4470019,220.503513 60.2003759,214.52241 62.482116,210.329949 C62.4679811,210.319502 62.4537854,210.309073 62.4395289,210.298662 L62.4991903,210.298662 C63.4149237,208.625255 64.5751917,207.238026 65.9799943,206.136975 C68.9646534,203.79767 70.5916948,201.142265 70.8611187,198.17076 C70.445493,198.283916 70.0337958,198.4009 69.6269416,198.52268 C57.9982905,202.003388 48.2098129,210.337263 40.2615085,223.524304 C49.2758813,203.563287 59.9790256,192.702231 72.3709412,190.941136 C79.1500111,189.977719 84.2701399,187.461517 87.7313275,183.39253 C64.5801196,190.625253 35.3363437,184.093383 0,163.796921 C10.8605469,168.594061 21.4506313,172.061331 31.7702533,174.198734 C29.9322373,171.502044 25.2868433,166.417088 22.625539,161.50569 C20.9185929,158.355546 19.0715845,153.055545 17.0845139,145.605687 C19.8394431,152.316196 22.0974684,156.997388 23.8585897,159.649263 C27.2272577,164.721761 32.020605,168.449915 34.7413416,171.709602 C35.9085203,173.107988 36.9776289,174.312984 37.9486672,175.324592 C51.0310802,177.379369 63.6695396,177.251218 75.8640453,174.94014 C81.4124654,173.888615 87.1227785,172.363277 92.80875,170.991064 C92.8482234,170.694651 92.8842455,170.395006 92.9168163,170.092132 L93.3593719,170.858661 C103.754767,168.368406 114.04864,166.457986 123.10186,168.96216 C125.15942,169.531294 127.729159,170.243568 130.811076,171.098982 C131.197626,164.659766 132.871608,158.57447 135.574476,153.106135 C123.751326,134.014237 111.160354,126.278496 97.801564,129.898904 C92.5453469,131.323408 85.7486503,128.836449 82.2049809,126.413052 C78.0168147,123.548904 74.6227377,114.799381 72.0227498,100.164482 C71.8208529,99.7119936 71.5215239,98.8950201 71.1247626,97.7135619 C69.9545909,94.2290763 68.1335076,91.6509296 65.6615127,89.9791218 L58.986501,86.2106742 C62.6833252,86.8550387 65.7649829,87.7677821 68.2314741,88.9489044 C70.4894202,90.0301612 71.7589772,91.109899 72.0401452,92.1881177 L74.4336534,76.2058737 C74.5842301,101.842898 78.6903369,117.138968 86.7519738,122.094084 C91.2151136,124.837371 100.890931,120.965751 107.137517,122.094084 C123.03737,124.966107 135.363584,130.04748 144.116159,137.338204 C144.986542,137.662453 145.948247,138.04597 146.981946,138.405404 C151.273768,134.721378 156.241481,131.826636 161.668835,129.941183 C161.883309,129.186115 162.063592,128.345585 162.063592,127.45975 C162.063592,125.609218 161.276834,123.956396 161.035166,122.867383 C160.755599,122.194723 160.4667,121.520433 160.168471,120.844515 L159.959742,121.206044 C156.949792,112.020283 149.652635,105.847496 138.068269,102.687683 C126.483904,99.5278708 115.079785,89.8809376 103.855914,73.7468838 C113.091609,84.7041001 123.281736,92.3422974 134.426296,96.6614756 C139.872436,98.7721781 146.041613,100.33132 151.052472,102.920295 C139.702371,77.9504033 137.886845,43.9614574 145.605893,0.953456903 C143.787952,22.2773348 144.72759,42.0753889 148.424808,60.3476193 C148.563037,60.5134008 148.706282,60.6878586 148.85472,60.8712069 C152.795872,65.7392402 160.957905,42.6411888 160.957905,46.1099329 C160.957905,48.0872137 155.859915,60.4135092 152.696061,66.7566457 C152.463355,68.4347294 151.941001,70.8107892 151.941001,73.4453229 C151.941001,73.8561705 151.953704,74.2607322 151.976031,74.6573412 C153.8863,81.1080024 156.173077,87.3503336 158.836363,93.3843349 C159.815895,95.6035836 160.859036,97.8313898 161.936419,100.06521 C164.153906,101.376283 167.101973,103.276815 168.833011,99.3963862 C174.068129,87.6609403 177.751973,58.8949495 183.50739,52.0057641 C188.664558,45.8326768 199.946332,41.954276 217.352713,40.3705616 C201.817464,43.9765066 191.933587,48.7397275 187.701082,54.6602242 C180.713645,64.4343643 179.726993,104.161202 176.363081,120.333625 C177.996011,122.340489 179.874282,125.473531 182.62597,127.876197 C187.736063,128.577703 192.578376,130.137946 197.007964,132.409461 C197.952312,132.54498 198.765447,132.716094 199.389142,132.98906 C201.50424,129.971568 203.312165,126.425818 204.812919,122.35181 C207.653548,114.640521 212.845697,108.172344 220.389365,102.947277 C220.849473,101.629303 221.233292,100.388927 221.515942,99.309828 C223.432402,91.993171 222.049927,88.9653377 225.031288,80.6692849 C233.671488,56.6267145 242.550383,46.2485455 252.374937,36.5244592 C258.815058,30.1501958 269.165595,25.3421016 283.426547,22.1001765 C258.843346,30.9531352 241.767451,49.008297 232.198862,76.265662 C229.625189,83.5971048 229.76754,90.7525435 229.039426,97.9819326 C239.9115,92.8023926 254.091451,89.3715344 271.57928,87.689358 C246.253811,93.3611056 228.647242,104.835962 218.759572,122.113927 C215.311975,128.138344 212.521055,135.229711 209.044328,141.344932 C215.931564,148.463506 220.582692,157.827943 221.839615,168.260021 C222.639343,168.246476 223.447971,168.234082 224.263005,168.226525 C231.752909,165.332746 238.285626,161.096967 243.861158,155.519187 L243.419044,155.263932 C243.788757,155.142786 244.148709,155.00775 244.498899,154.858824 C246.244284,152.129202 248.482273,149.855475 251.212866,148.037642 C251.365049,147.82066 251.502097,147.596653 251.624009,147.365619 C251.801321,146.954196 251.968368,146.528166 252.125149,146.087528 C252.478298,144.777483 252.433952,143.282917 251.992109,141.603831 C251.228183,138.700765 251.89129,135.025835 253.981431,130.579039 C252.763586,133.948277 252.383634,137.109279 252.841574,140.062044 C252.963065,140.845405 253.146387,141.654583 253.299132,142.456033 C255.331051,137.302881 259.947548,132.221543 267.148624,127.212019 C261.670016,131.829866 257.850917,136.924929 255.691328,142.497209 C255.225212,143.699905 254.812893,144.973123 254.386246,146.235817 C261.284734,142.916159 270.640407,141.870571 282.453265,143.099054 C265.981053,143.317097 253.928475,149.551396 246.29553,161.801952 C244.195837,165.171871 242.076841,167.657288 240.016339,169.458763 C258.863979,172.677413 268.79866,178.583543 278.481202,185.405433 C285.305097,190.213247 291.849975,199.145787 298.115836,212.203054 C284.659135,190.418606 265.627025,177.9266 241.019506,174.727034 C237.199454,174.230336 231.836821,174.255784 226.232771,174.43005 C229.671828,177.446105 233.154906,181.863257 236.23049,188.243112 C243.67922,203.694426 257.761164,215.058138 278.476321,222.33425 C254.126809,216.140602 238.873238,206.806207 232.715609,194.331066 C228.737288,188.962306 224.967488,185.037202 221.406209,182.555751 Z M173.904236,220.430918 C173.474131,220.406876 173.045608,220.376786 172.61875,220.340732 C172.875288,220.663421 173.129803,220.998275 173.381762,221.345684 C173.54326,221.03577 173.717421,220.730589 173.904236,220.430918 Z M250.058923,271.603545 C250.05591,271.588874 250.052907,271.574203 250.049916,271.559533 C249.972557,271.521896 249.895349,271.484186 249.818293,271.446404 C249.899184,271.498824 249.979478,271.551225 250.058923,271.603545 Z" id="Combined-Shape" fill="#D18383"></path>
                <path d="M153.693111,165.296053 C149.311728,165.296053 145.759916,161.712367 145.759916,157.291667 C145.759916,152.870966 149.311728,149.287281 153.693111,149.287281 C158.074493,149.287281 161.626305,152.870966 161.626305,157.291667 C161.626305,161.712367 158.074493,165.296053 153.693111,165.296053 Z M181.617954,155.210526 C176.360295,155.210526 172.098121,150.910104 172.098121,145.605263 C172.098121,140.300423 176.360295,136 181.617954,136 C186.875613,136 191.137787,140.300423 191.137787,145.605263 C191.137787,150.910104 186.875613,155.210526 181.617954,155.210526 Z M206.845511,173.780702 C201.237342,173.780702 196.691023,169.193584 196.691023,163.535088 C196.691023,157.876591 201.237342,153.289474 206.845511,153.289474 C212.453681,153.289474 217,157.876591 217,163.535088 C217,169.193584 212.453681,173.780702 206.845511,173.780702 Z M145.759916,185.14693 C143.131087,185.14693 141,182.996718 141,180.344298 C141,177.691878 143.131087,175.541667 145.759916,175.541667 C148.388746,175.541667 150.519833,177.691878 150.519833,180.344298 C150.519833,182.996718 148.388746,185.14693 145.759916,185.14693 Z M154.169102,201.796053 C152.416549,201.796053 150.995825,200.362578 150.995825,198.594298 C150.995825,196.826018 152.416549,195.392544 154.169102,195.392544 C155.921655,195.392544 157.34238,196.826018 157.34238,198.594298 C157.34238,200.362578 155.921655,201.796053 154.169102,201.796053 Z M167.814196,209 C166.762665,209 165.91023,208.139915 165.91023,207.078947 C165.91023,206.017979 166.762665,205.157895 167.814196,205.157895 C168.865728,205.157895 169.718163,206.017979 169.718163,207.078947 C169.718163,208.139915 168.865728,209 167.814196,209 Z" id="Combined-Shape" fill="#FFFFFF"></path>
                <circle id="nucleus" fill="#FFFFFF" cx="176.5" cy="178.5" r="14.5"></circle>
            </g>
        </g>
    </g>
</svg>