<?xml version="1.0" encoding="UTF-8"?>
<svg width="512px" height="512px" viewBox="0 0 512 512" version="1.1" xmlns="http://www.w3.org/2000/svg" xmlns:xlink="http://www.w3.org/1999/xlink">
    <!-- Generator: Sketch 51.1 (57501) - http://www.bohemiancoding.com/sketch -->
    <title>neuron</title>
    <desc>Created with Sketch.</desc>
    <defs>
        <radialGradient cx="50%" cy="51.7214674%" fx="50%" fy="51.7214674%" r="66.7341537%" id="radialGradient-1">
            <stop stop-color="#FFFFFF" offset="0%"></stop>
            <stop stop-color="#CED1FF" offset="100%"></stop>
        </radialGradient>
        <rect id="path-2" x="0" y="0" width="512" height="512" rx="96"></rect>
        <filter x="-0.6%" y="-0.6%" width="101.2%" height="101.2%" filterUnits="objectBoundingBox" id="filter-3">
            <feGaussianBlur stdDeviation="2" in="SourceAlpha" result="shadowBlurInner1"></feGaussianBlur>
            <feOffset dx="2" dy="2" in="shadowBlurInner1" result="shadowOffsetInner1"></feOffset>
            <feComposite in="shadowOffsetInner1" in2="SourceAlpha" operator="arithmetic" k2="-1" k3="1" result="shadowInnerInner1"></feComposite>
            <feColorMatrix values="0 0 0 0 0.980973639   0 0 0 0 0.141897465   0 0 0 0 0.141897465  0 0 0 0.5 0" type="matrix" in="shadowInnerInner1"></feColorMatrix>
        </filter>
    </defs>
    <g id="Page-1" stroke="none" stroke-width="1" fill="none" fill-rule="evenodd">
        <g id="neuron">
            <g id="background">
                <use fill="url(#radialGradient-1)" fill-rule="evenodd" xlink:href="#path-2"></use>
                <use fill="black" fill-opacity="1" filter="url(#filter-3)" xlink:href="#path-2"></use>
                <rect stroke="#BABDFF" stroke-width="4" stroke-linejoin="square" x="2" y="2" width="508" height="508" rx="96"></rect>
            </g>
            <g id="frame" transform="translate(40.000000, 36.000000)" fill="#FFFFFF" opacity="0.796428571">
                <g id="Group-2">
                    <path d="M365.532114,0.328474178 C369.629174,-1.53509627 383.162794,5.09163587 384.666758,6.1566938 C386.170723,7.22175172 387.944084,9.76296134 381.924454,11.9369874 C375.904824,14.1110135 369.840611,11.1304371 368.661784,11.9369874 C367.482958,12.7435377 370.34493,13.3680153 375.099436,16.6066478 C379.853943,19.8452803 381.012798,18.0731843 384.666758,22.8391129 C388.320719,27.6050415 392.597902,32.8163983 390.177963,36.2738498 C387.758024,39.7313012 382.046707,34.3955326 380.350691,34.3955326 C378.654674,34.3955326 377.744412,39.1809295 375.099436,36.2738498 C373.336119,34.3357966 371.190235,30.8093972 368.661784,25.6946515 C367.081346,19.1500374 366.038122,16.372488 365.532114,17.3620034 C365.026106,18.3515188 366.06933,22.0970407 368.661784,28.5985691 C370.158839,33.4882575 372.304723,36.8007088 375.099436,38.5359232 C379.291507,41.1387447 380.065743,36.3562914 384.666758,38.5359232 C389.267774,40.715555 391.752983,47.1063441 393.190857,47.1063441 C394.628731,47.1063441 390.130824,40.0323276 393.190857,38.5359232 C396.250891,37.0395188 401.37815,40.1275879 402.518381,42.5450382 C403.658613,44.9624884 399.097674,45.9771549 399.097674,51.0591981 C399.097674,56.1412413 402.518381,56.1585289 402.518381,61.4883147 C402.518381,66.8181005 400.859263,70.5849489 399.097674,72.1784408 C396.445611,74.5774347 388.215712,77.7433716 386.041955,77.6160339 C385.094868,77.5605539 383.205218,76.5838752 383.790325,75.8928504 C384.438444,75.1274063 386.041955,75.8928504 387.624266,74.2720571 C389.206577,72.6512637 391.596472,68.4250838 391.596472,64.2888607 C391.596472,60.1526376 390.325897,53.5284828 387.624266,52.9561354 C384.922636,52.3837881 380.397237,50.31649 378.859109,52.9561354 C377.320982,55.5957809 373.487439,57.7578695 375.099436,58.8190443 C376.711433,59.8802192 379.036059,54.5786343 381.924454,54.5786343 C384.812849,54.5786343 386.2702,55.5296354 387.624266,58.8190443 C388.978333,62.1084532 389.167787,64.2403755 387.624266,68.4250838 C386.080745,72.6097921 386.794241,72.4943814 381.924454,74.2720571 C377.054667,76.0497327 374.644435,74.2720571 371.606995,74.2720571 C368.569554,74.2720571 364.427866,75.9397029 361.435054,72.1784408 C359.716411,69.2482102 361.622343,66.2431654 361.435054,64.2888607 C361.19842,61.819654 360.392849,59.6161339 363.899309,57.2342369 C367.405769,54.8523399 374.016772,56.8826903 371.606995,54.5786343 C369.197217,52.2745782 363.54462,57.0742898 361.435054,54.5786343 C359.325488,52.0829787 362.390279,49.7696128 361.435054,42.5450382 C360.479829,35.3204635 358,32.0491265 358,28.5985691 C358,25.1480117 361.435054,27.8583952 361.435054,22.8391129 C361.435054,17.8198306 358,15.256268 358,11.9369874 C358,8.61770676 358.663361,7.28862609 360.63914,4.24354952 C361.196155,3.38507672 369.536366,5.58797901 369.68986,4.99859685 C370.080823,3.49739 362.590104,1.6666639 365.532114,0.328474178 Z M390.393282,11.7228935 C393.744754,13.7361419 391.323408,20.2454664 397.202339,25.1451756 C403.081271,30.0448849 410.932425,27.6068415 415.647627,32.7707558 C420.362828,37.9346702 411.503526,38.0888648 409.686537,38.817407 C407.813585,39.5683883 406.459884,42.7134574 404.456742,42.3521721 C402.590148,42.0155147 401.932561,39.2748155 400.917766,38.817407 C399.278311,38.0784395 397.70531,37.6321166 396.544096,36.5384232 C396.144594,36.1621511 392.78057,37.0310985 392.194988,36.5384232 C391.522414,35.9725582 393.276982,33.2777454 392.858061,32.7707558 C391.195855,30.759109 391.078149,28.9383236 388.916345,25.1451756 C386.209709,20.3960515 385.867615,20.3740559 383.82443,18.8369285 C378.968845,15.1839782 376.404761,14.4818234 379.450966,14.4818234 C385.942996,14.4818234 387.04181,9.70964513 390.393282,11.7228935 Z M393.786574,13.0189463 C394.627391,11.6999598 396.812703,12.3863205 400.342509,15.0780282 L406.401533,20.737753 L411.11656,28.4565597 L401.259284,26.0172584 L396.080675,21.7635534 C393.710458,17.2528017 392.945758,14.3379327 393.786574,13.0189463 Z M393.540418,9.43154846 C395.911382,11.1921838 397.140104,11.4530726 396.969448,11.9807691 C396.911737,12.1592207 394.466385,11.0920447 394.238884,11.4345502 C393.793644,12.1048627 393.10093,12.8535221 392.464827,12.7574445 C391.5037,12.6122747 392.225785,11.5794665 390.844904,10.6474266 C389.464022,9.71538676 386.616179,11.4672918 386.217008,10.6474266 C386.104297,10.4159277 387.730862,8.44928993 387.537282,7.697525 C387.373681,7.06218389 385.565396,6.01096124 385.60917,5.6054116 C385.651024,5.21764602 387.341997,6.2081348 387.537282,6.02942265 C387.788446,5.79957255 388.396099,6.02942265 388.691587,6.02942265 C389.869603,6.02942265 391.169454,7.67091313 393.540418,9.43154846 Z M405.067134,44.3822429 C406.822319,43.1482902 409.421701,42.3654103 412.86528,42.0336034 L416.037096,50.53068 L411.018958,56.8165009 L409.821124,62.5638329 L416.037096,58.124062 C416.93415,54.2823236 417.889565,52.2425097 418.903342,52.0046205 C419.91712,51.7667312 420.819117,53.3706913 421.609334,56.8165009 C422.753602,59.2411501 423.089729,61.1569275 422.617715,62.5638329 C421.909694,64.674191 420.876655,64.1896847 418.903342,64.8820961 C416.93003,65.5745075 411.952469,65.2053666 409.821124,67.0540008 C407.689779,68.902635 411.092167,70.1192445 412.86528,70.1192445 C414.638393,70.1192445 419.28111,65.9457661 422.617715,67.0540008 C425.95432,68.1622355 424.147957,72.2233228 422.617715,73.3584616 C421.087473,74.4936003 415.901621,78.3897697 411.018958,78.5855031 C408.977701,78.6673318 402.836416,80.5210414 400.778969,79.7560454 C397.915028,78.6911801 399.420201,74.8295508 399.420201,74.2883903 C399.420201,73.3584616 402.761311,70.676259 404.085236,66.0888632 C405.409161,61.5014674 404.867054,61.8030339 404.085236,58.124062 C403.303418,54.4450902 400.529105,54.027565 400.778969,50.53068 C401.028833,47.0337951 402.434358,46.233172 405.067134,44.3822429 Z M414.057856,40.638804 C414.343096,38.1726662 418.327978,38.2006883 419.390173,38.2006883 C420.098303,38.2006883 421.298842,39.4195247 422.99179,41.8571976 L424.727164,46.4313872 C423.881955,47.9223049 422.856319,48.9313428 421.650255,49.4585008 C420.444192,49.9856589 419.161292,49.9856589 417.801555,49.4585008 C415.115596,45.2227948 413.867696,42.2828958 414.057856,40.638804 Z M425.787824,49.129839 C427.617492,50.0562117 425.061753,53.4694252 426.903942,57.0244016 C427.154469,57.5078583 429.845849,59.1446296 430.131946,59.6923887 C430.685487,60.7521954 429.716112,62.8301059 430.131946,63.5692115 C431.511416,66.0210903 431.857277,64.3934156 431.257436,66.2029734 C430.992301,67.0028132 429.76955,66.6449164 429.220895,66.8162334 C428.154094,67.1493403 427.634321,67.4553205 427.634321,67.9543611 C427.634321,68.7100584 431.269334,66.7373516 432.367607,68.5008871 C433.46588,70.2644226 433.106042,72.7544349 431.257436,73.7721242 C430.245007,74.3294836 428.417552,75.798259 426.360665,75.8282 C424.661857,75.8529286 422.459656,74.5834206 423.496216,73.7721242 C425.023955,72.5763913 425.787824,71.1013512 425.787824,69.3470039 C426.037406,68.8146508 426.037406,68.3504365 425.787824,67.9543611 C425.290846,67.165678 423.496216,66.1081136 423.496216,64.9754094 C423.496216,61.9964578 423.8908,61.499446 423.496216,59.2539926 C423.101632,57.0085392 420.657259,54.3527335 421.204608,51.9345887 C421.485325,50.6944021 422.647608,50.6482821 423.496216,50.127198 C424.302244,49.6322601 424.775322,48.6172026 425.787824,49.129839 Z" id="Combined-Shape"></path>
                    <path d="M67.4542931,439.612249 C63.3572329,441.47582 49.8236132,434.849088 48.3196488,433.78403 C46.8156843,432.718972 45.0423229,430.177762 51.0619532,428.003736 C57.0815835,425.82971 63.1457961,428.810286 64.3246228,428.003736 C65.5034494,427.197186 62.6414776,426.572708 57.8869709,423.334076 C53.1324642,420.095443 51.9736094,421.867539 48.3196488,417.101611 C44.6656881,412.335682 40.3885049,407.124325 42.808444,403.666874 C45.2283832,400.209422 50.9397003,405.545191 52.6357166,405.545191 C54.331733,405.545191 55.2419948,400.759794 57.8869709,403.666874 C59.6502883,405.604927 61.7961723,409.131326 64.3246228,414.246072 C65.9050616,420.790686 66.9482851,423.568235 67.4542931,422.57872 C67.9603011,421.589205 66.9170777,417.843683 64.3246228,411.342154 C62.8275687,406.452466 60.6816847,403.140015 57.8869709,401.4048 C53.6949002,398.801979 52.9206639,403.584432 48.3196488,401.4048 C43.7186336,399.225168 41.233424,392.834379 39.79555,392.834379 C38.3576761,392.834379 42.8555834,399.908396 39.79555,401.4048 C36.7355167,402.901205 31.6082576,399.813136 30.4680258,397.395685 C29.327794,394.978235 33.8887329,393.963569 33.8887329,388.881525 C33.8887329,383.799482 30.4680258,383.782195 30.4680258,378.452409 C30.4680258,373.122623 32.1271438,369.355775 33.8887329,367.762283 C36.5407964,365.363289 44.770695,362.197352 46.944452,362.32469 C47.8915395,362.38017 49.7811894,363.356848 49.1960826,364.047873 C48.5479633,364.813317 46.944452,364.047873 45.3621411,365.668666 C43.7798301,367.28946 41.3899356,371.51564 41.3899356,375.651863 C41.3899356,379.788086 42.6605104,386.412241 45.3621411,386.984588 C48.0637717,387.556935 52.5891703,389.624233 54.1272978,386.984588 C55.6654254,384.344943 59.498968,382.182854 57.8869709,381.121679 C56.2749739,380.060504 53.950348,385.362089 51.0619532,385.362089 C48.1735583,385.362089 46.7162075,384.411088 45.3621411,381.121679 C44.0080746,377.83227 43.81862,375.700348 45.3621411,371.51564 C46.9056621,367.330931 46.1921664,367.446342 51.0619532,365.668666 C55.9317399,363.890991 58.3419721,365.668666 61.3794124,365.668666 C64.4168528,365.668666 68.5585414,364.001021 71.5513533,367.762283 C73.2699961,370.692513 71.3640641,373.697558 71.5513533,375.651863 C71.7879876,378.12107 72.5935579,380.32459 69.0870983,382.706487 C65.5806387,385.088384 58.9696349,383.058033 61.3794124,385.362089 C63.7891899,387.666145 69.4417876,382.866434 71.5513533,385.362089 C73.6609189,387.857745 70.5961284,390.171111 71.5513533,397.395685 C72.5065781,404.62026 74.9864072,407.891597 74.9864072,411.342154 C74.9864072,414.792712 71.5513533,412.082328 71.5513533,417.101611 C71.5513533,422.120893 74.9864072,424.684455 74.9864072,428.003736 C74.9864072,431.323017 74.3230466,432.652097 72.3472669,435.697174 C71.790252,436.555647 63.4500411,434.352744 63.296547,434.942127 C62.9055842,436.443333 70.3963036,438.27406 67.4542931,439.612249 Z M42.5931251,428.21783 C39.2416533,426.204582 41.6629996,419.695257 35.7840679,414.795548 C29.9051362,409.895839 22.0539822,412.333882 17.3387806,407.169968 C12.6235791,402.006053 21.4828815,401.851859 23.2998704,401.123316 C25.1728221,400.372335 26.5265228,397.227266 28.5296656,397.588551 C30.3962593,397.925209 31.0538459,400.665908 32.0686412,401.123316 C33.7080967,401.862284 35.2810972,402.308607 36.4423115,403.4023 C36.8418134,403.778572 40.2058373,402.909625 40.7914196,403.4023 C41.4639937,403.968165 39.7094248,406.662978 40.1283459,407.169968 C41.7905521,409.181614 41.9082584,411.0024 44.0700618,414.795548 C46.7766984,419.544672 47.1187925,419.566668 49.1619771,421.103795 C54.0175618,424.756745 56.5816463,425.4589 53.5354411,425.4589 C47.0434114,425.4589 45.9445968,430.231078 42.5931251,428.21783 Z M39.1998329,426.921777 C38.3590162,428.240764 36.1737046,427.554403 32.6438979,424.862695 L26.5848738,419.20297 L21.8698468,411.484164 L31.7271231,413.923465 L36.9057318,418.17717 C39.2759492,422.687922 40.0406496,425.602791 39.1998329,426.921777 Z M39.445989,430.509175 C37.0750249,428.74854 35.846303,428.487651 36.0169594,427.959954 C36.0746704,427.781503 38.520022,428.848679 38.7475233,428.506173 C39.1927629,427.835861 39.8854776,427.087201 40.5215799,427.183279 C41.4827074,427.328449 40.7606218,428.361257 42.1415035,429.293297 C43.5223852,430.225337 46.370228,428.473432 46.7693993,429.293297 C46.8821102,429.524796 45.2555453,431.491434 45.4491256,432.243198 C45.6127266,432.87854 47.4210116,433.929762 47.3772376,434.335312 C47.3353832,434.723077 45.6444099,433.732589 45.4491256,433.911301 C45.1979612,434.141151 44.5903078,433.911301 44.2948199,433.911301 C43.1168047,433.911301 41.8169531,432.26981 39.445989,430.509175 Z M27.9192729,395.558481 C26.1640885,396.792433 23.5647066,397.575313 20.1211273,397.90712 L16.9493111,389.410043 L21.967449,383.124223 L23.1652833,377.376891 L16.9493111,381.816661 C16.0522572,385.6584 15.0968418,387.698214 14.0830648,387.936103 C13.0692877,388.173992 12.1672904,386.570032 11.3770729,383.124223 C10.2328049,380.699573 9.89667795,378.783796 10.368692,377.376891 C11.0767132,375.266532 12.109752,375.751039 14.0830648,375.058627 C16.0563775,374.366216 21.0339385,374.735357 23.1652833,372.886723 C25.296628,371.038088 21.8942404,369.821479 20.1211273,369.821479 C18.3480143,369.821479 13.7052969,373.994957 10.368692,372.886723 C7.0320872,371.778488 8.83844995,367.717401 10.368692,366.582262 C11.8989341,365.447123 17.0847867,361.550954 21.967449,361.35522 C24.0087061,361.273392 30.1499916,359.419682 32.2074381,360.184678 C35.0713789,361.249543 33.5662059,365.111173 33.5662059,365.652333 C33.5662059,366.582262 30.2250963,369.264464 28.9011711,373.85186 C27.5772459,378.439256 28.1193533,378.13769 28.9011711,381.816661 C29.6829888,385.495633 32.4573021,385.913159 32.2074381,389.410043 C31.9575742,392.906928 30.5520496,393.707551 27.9192729,395.558481 Z M18.9285512,399.30192 C18.6433113,401.768057 14.6584291,401.740035 13.596234,401.740035 C12.8881039,401.740035 11.6875649,400.521199 9.99461689,398.083526 L8.25924297,393.509336 C9.10445218,392.018419 10.1300885,391.009381 11.3361519,390.482223 C12.5422153,389.955065 13.8251154,389.955065 15.1848523,390.482223 C17.8708115,394.717929 19.1187111,397.657828 18.9285512,399.30192 Z M7.19858279,390.810884 C5.36891536,389.884512 7.92465455,386.471298 6.0824652,382.916322 C5.83193784,382.432865 3.14055831,380.796094 2.8544614,380.248335 C2.30091982,379.188528 3.27029537,377.110618 2.8544614,376.371512 C1.47499077,373.919633 1.12913057,375.547308 1.7289714,373.73775 C1.99410611,372.93791 3.21685684,373.295807 3.76551272,373.12449 C4.83231293,372.791383 5.3520864,372.485403 5.3520864,371.986362 C5.3520864,371.230665 1.71707289,373.203372 0.618799929,371.439836 C-0.479473029,369.676301 -0.119635186,367.186289 1.7289714,366.168599 C2.74140033,365.61124 4.56885551,364.142464 6.62574194,364.112524 C8.32455004,364.087795 10.5267511,365.357303 9.49019106,366.168599 C7.96245221,367.364332 7.19858279,368.839372 7.19858279,370.59372 C6.94900083,371.126073 6.94900083,371.590287 7.19858279,371.986362 C7.69556147,372.775045 9.49019106,373.83261 9.49019106,374.965314 C9.49019106,377.944266 9.09560703,378.441277 9.49019106,380.686731 C9.88477509,382.932184 12.3291479,385.58799 11.7817993,388.006135 C11.5010824,389.246321 10.3387991,389.292441 9.49019106,389.813525 C8.68416321,390.308463 8.21108488,391.323521 7.19858279,390.810884 Z" id="Combined-Shape"></path>
                    <path d="M365.532114,439.612249 C362.590104,438.27406 370.080823,436.443333 369.68986,434.942127 C369.536366,434.352744 361.196155,436.555647 360.63914,435.697174 C358.663361,432.652097 358,431.323017 358,428.003736 C358,424.684455 361.435054,422.120893 361.435054,417.101611 C361.435054,412.082328 358,414.792712 358,411.342154 C358,407.891597 360.479829,404.62026 361.435054,397.395685 C362.390279,390.171111 359.325488,387.857745 361.435054,385.362089 C363.54462,382.866434 369.197217,387.666145 371.606995,385.362089 C374.016772,383.058033 367.405769,385.088384 363.899309,382.706487 C360.392849,380.32459 361.19842,378.12107 361.435054,375.651863 C361.622343,373.697558 359.716411,370.692513 361.435054,367.762283 C364.427866,364.001021 368.569554,365.668666 371.606995,365.668666 C374.644435,365.668666 377.054667,363.890991 381.924454,365.668666 C386.794241,367.446342 386.080745,367.330931 387.624266,371.51564 C389.167787,375.700348 388.978333,377.83227 387.624266,381.121679 C386.2702,384.411088 384.812849,385.362089 381.924454,385.362089 C379.036059,385.362089 376.711433,380.060504 375.099436,381.121679 C373.487439,382.182854 377.320982,384.344943 378.859109,386.984588 C380.397237,389.624233 384.922636,387.556935 387.624266,386.984588 C390.325897,386.412241 391.596472,379.788086 391.596472,375.651863 C391.596472,371.51564 389.206577,367.28946 387.624266,365.668666 C386.041955,364.047873 384.438444,364.813317 383.790325,364.047873 C383.205218,363.356848 385.094868,362.38017 386.041955,362.32469 C388.215712,362.197352 396.445611,365.363289 399.097674,367.762283 C400.859263,369.355775 402.518381,373.122623 402.518381,378.452409 C402.518381,383.782195 399.097674,383.799482 399.097674,388.881525 C399.097674,393.963569 403.658613,394.978235 402.518381,397.395685 C401.37815,399.813136 396.250891,402.901205 393.190857,401.4048 C390.130824,399.908396 394.628731,392.834379 393.190857,392.834379 C391.752983,392.834379 389.267774,399.225168 384.666758,401.4048 C380.065743,403.584432 379.291507,398.801979 375.099436,401.4048 C372.304723,403.140015 370.158839,406.452466 368.661784,411.342154 C366.06933,417.843683 365.026106,421.589205 365.532114,422.57872 C366.038122,423.568235 367.081346,420.790686 368.661784,414.246072 C371.190235,409.131326 373.336119,405.604927 375.099436,403.666874 C377.744412,400.759794 378.654674,405.545191 380.350691,405.545191 C382.046707,405.545191 387.758024,400.209422 390.177963,403.666874 C392.597902,407.124325 388.320719,412.335682 384.666758,417.101611 C381.012798,421.867539 379.853943,420.095443 375.099436,423.334076 C370.34493,426.572708 367.482958,427.197186 368.661784,428.003736 C369.840611,428.810286 375.904824,425.82971 381.924454,428.003736 C387.944084,430.177762 386.170723,432.718972 384.666758,433.78403 C383.162794,434.849088 369.629174,441.47582 365.532114,439.612249 Z M390.393282,428.21783 C387.04181,430.231078 385.942996,425.4589 379.450966,425.4589 C376.404761,425.4589 378.968845,424.756745 383.82443,421.103795 C385.867615,419.566668 386.209709,419.544672 388.916345,414.795548 C391.078149,411.0024 391.195855,409.181614 392.858061,407.169968 C393.276982,406.662978 391.522414,403.968165 392.194988,403.4023 C392.78057,402.909625 396.144594,403.778572 396.544096,403.4023 C397.70531,402.308607 399.278311,401.862284 400.917766,401.123316 C401.932561,400.665908 402.590148,397.925209 404.456742,397.588551 C406.459884,397.227266 407.813585,400.372335 409.686537,401.123316 C411.503526,401.851859 420.362828,402.006053 415.647627,407.169968 C410.932425,412.333882 403.081271,409.895839 397.202339,414.795548 C391.323408,419.695257 393.744754,426.204582 390.393282,428.21783 Z M393.786574,426.921777 C392.945758,425.602791 393.710458,422.687922 396.080675,418.17717 L401.259284,413.923465 L411.11656,411.484164 L406.401533,419.20297 L400.342509,424.862695 C396.812703,427.554403 394.627391,428.240764 393.786574,426.921777 Z M393.540418,430.509175 C391.169454,432.26981 389.869603,433.911301 388.691587,433.911301 C388.396099,433.911301 387.788446,434.141151 387.537282,433.911301 C387.341997,433.732589 385.651024,434.723077 385.60917,434.335312 C385.565396,433.929762 387.373681,432.87854 387.537282,432.243198 C387.730862,431.491434 386.104297,429.524796 386.217008,429.293297 C386.616179,428.473432 389.464022,430.225337 390.844904,429.293297 C392.225785,428.361257 391.5037,427.328449 392.464827,427.183279 C393.10093,427.087201 393.793644,427.835861 394.238884,428.506173 C394.466385,428.848679 396.911737,427.781503 396.969448,427.959954 C397.140104,428.487651 395.911382,428.74854 393.540418,430.509175 Z M405.067134,395.558481 C402.434358,393.707551 401.028833,392.906928 400.778969,389.410043 C400.529105,385.913159 403.303418,385.495633 404.085236,381.816661 C404.867054,378.13769 405.409161,378.439256 404.085236,373.85186 C402.761311,369.264464 399.420201,366.582262 399.420201,365.652333 C399.420201,365.111173 397.915028,361.249543 400.778969,360.184678 C402.836416,359.419682 408.977701,361.273392 411.018958,361.35522 C415.901621,361.550954 421.087473,365.447123 422.617715,366.582262 C424.147957,367.717401 425.95432,371.778488 422.617715,372.886723 C419.28111,373.994957 414.638393,369.821479 412.86528,369.821479 C411.092167,369.821479 407.689779,371.038088 409.821124,372.886723 C411.952469,374.735357 416.93003,374.366216 418.903342,375.058627 C420.876655,375.751039 421.909694,375.266532 422.617715,377.376891 C423.089729,378.783796 422.753602,380.699573 421.609334,383.124223 C420.819117,386.570032 419.91712,388.173992 418.903342,387.936103 C417.889565,387.698214 416.93415,385.6584 416.037096,381.816661 L409.821124,377.376891 L411.018958,383.124223 L416.037096,389.410043 L412.86528,397.90712 C409.421701,397.575313 406.822319,396.792433 405.067134,395.558481 Z M414.057856,399.30192 C413.867696,397.657828 415.115596,394.717929 417.801555,390.482223 C419.161292,389.955065 420.444192,389.955065 421.650255,390.482223 C422.856319,391.009381 423.881955,392.018419 424.727164,393.509336 L422.99179,398.083526 C421.298842,400.521199 420.098303,401.740035 419.390173,401.740035 C418.327978,401.740035 414.343096,401.768057 414.057856,399.30192 Z M425.787824,390.810884 C424.775322,391.323521 424.302244,390.308463 423.496216,389.813525 C422.647608,389.292441 421.485325,389.246321 421.204608,388.006135 C420.657259,385.58799 423.101632,382.932184 423.496216,380.686731 C423.8908,378.441277 423.496216,377.944266 423.496216,374.965314 C423.496216,373.83261 425.290846,372.775045 425.787824,371.986362 C426.037406,371.590287 426.037406,371.126073 425.787824,370.59372 C425.787824,368.839372 425.023955,367.364332 423.496216,366.168599 C422.459656,365.357303 424.661857,364.087795 426.360665,364.112524 C428.417552,364.142464 430.245007,365.61124 431.257436,366.168599 C433.106042,367.186289 433.46588,369.676301 432.367607,371.439836 C431.269334,373.203372 427.634321,371.230665 427.634321,371.986362 C427.634321,372.485403 428.154094,372.791383 429.220895,373.12449 C429.76955,373.295807 430.992301,372.93791 431.257436,373.73775 C431.857277,375.547308 431.511416,373.919633 430.131946,376.371512 C429.716112,377.110618 430.685487,379.188528 430.131946,380.248335 C429.845849,380.796094 427.154469,382.432865 426.903942,382.916322 C425.061753,386.471298 427.617492,389.884512 425.787824,390.810884 Z" id="Combined-Shape"></path>
                    <path d="M67.4542931,0.328474178 C70.3963036,1.6666639 62.9055842,3.49739 63.296547,4.99859685 C63.4500411,5.58797901 71.790252,3.38507672 72.3472669,4.24354952 C74.3230466,7.28862609 74.9864072,8.61770676 74.9864072,11.9369874 C74.9864072,15.256268 71.5513533,17.8198306 71.5513533,22.8391129 C71.5513533,27.8583952 74.9864072,25.1480117 74.9864072,28.5985691 C74.9864072,32.0491265 72.5065781,35.3204635 71.5513533,42.5450382 C70.5961284,49.7696128 73.6609189,52.0829787 71.5513533,54.5786343 C69.4417876,57.0742898 63.7891899,52.2745782 61.3794124,54.5786343 C58.9696349,56.8826903 65.5806387,54.8523399 69.0870983,57.2342369 C72.5935579,59.6161339 71.7879876,61.819654 71.5513533,64.2888607 C71.3640641,66.2431654 73.2699961,69.2482102 71.5513533,72.1784408 C68.5585414,75.9397029 64.4168528,74.2720571 61.3794124,74.2720571 C58.3419721,74.2720571 55.9317399,76.0497327 51.0619532,74.2720571 C46.1921664,72.4943814 46.9056621,72.6097921 45.3621411,68.4250838 C43.81862,64.2403755 44.0080746,62.1084532 45.3621411,58.8190443 C46.7162075,55.5296354 48.1735583,54.5786343 51.0619532,54.5786343 C53.950348,54.5786343 56.2749739,59.8802192 57.8869709,58.8190443 C59.498968,57.7578695 55.6654254,55.5957809 54.1272978,52.9561354 C52.5891703,50.31649 48.0637717,52.3837881 45.3621411,52.9561354 C42.6605104,53.5284828 41.3899356,60.1526376 41.3899356,64.2888607 C41.3899356,68.4250838 43.7798301,72.6512637 45.3621411,74.2720571 C46.944452,75.8928504 48.5479633,75.1274063 49.1960826,75.8928504 C49.7811894,76.5838752 47.8915395,77.5605539 46.944452,77.6160339 C44.770695,77.7433716 36.5407964,74.5774347 33.8887329,72.1784408 C32.1271438,70.5849489 30.4680258,66.8181005 30.4680258,61.4883147 C30.4680258,56.1585289 33.8887329,56.1412413 33.8887329,51.0591981 C33.8887329,45.9771549 29.327794,44.9624884 30.4680258,42.5450382 C31.6082576,40.1275879 36.7355167,37.0395188 39.79555,38.5359232 C42.8555834,40.0323276 38.3576761,47.1063441 39.79555,47.1063441 C41.233424,47.1063441 43.7186336,40.715555 48.3196488,38.5359232 C52.9206639,36.3562914 53.6949002,41.1387447 57.8869709,38.5359232 C60.6816847,36.8007088 62.8275687,33.4882575 64.3246228,28.5985691 C66.9170777,22.0970407 67.9603011,18.3515188 67.4542931,17.3620034 C66.9482851,16.372488 65.9050616,19.1500374 64.3246228,25.6946515 C61.7961723,30.8093972 59.6502883,34.3357966 57.8869709,36.2738498 C55.2419948,39.1809295 54.331733,34.3955326 52.6357166,34.3955326 C50.9397003,34.3955326 45.2283832,39.7313012 42.808444,36.2738498 C40.3885049,32.8163983 44.6656881,27.6050415 48.3196488,22.8391129 C51.9736094,18.0731843 53.1324642,19.8452803 57.8869709,16.6066478 C62.6414776,13.3680153 65.5034494,12.7435377 64.3246228,11.9369874 C63.1457961,11.1304371 57.0815835,14.1110135 51.0619532,11.9369874 C45.0423229,9.76296134 46.8156843,7.22175172 48.3196488,6.1566938 C49.8236132,5.09163587 63.3572329,-1.53509627 67.4542931,0.328474178 Z M42.5931251,11.7228935 C45.9445968,9.70964513 47.0434114,14.4818234 53.5354411,14.4818234 C56.5816463,14.4818234 54.0175618,15.1839782 49.1619771,18.8369285 C47.1187925,20.3740559 46.7766984,20.3960515 44.0700618,25.1451756 C41.9082584,28.9383236 41.7905521,30.759109 40.1283459,32.7707558 C39.7094248,33.2777454 41.4639937,35.9725582 40.7914196,36.5384232 C40.2058373,37.0310985 36.8418134,36.1621511 36.4423115,36.5384232 C35.2810972,37.6321166 33.7080967,38.0784395 32.0686412,38.817407 C31.0538459,39.2748155 30.3962593,42.0155147 28.5296656,42.3521721 C26.5265228,42.7134574 25.1728221,39.5683883 23.2998704,38.817407 C21.4828815,38.0888648 12.6235791,37.9346702 17.3387806,32.7707558 C22.0539822,27.6068415 29.9051362,30.0448849 35.7840679,25.1451756 C41.6629996,20.2454664 39.2416533,13.7361419 42.5931251,11.7228935 Z M39.1998329,13.0189463 C40.0406496,14.3379327 39.2759492,17.2528017 36.9057318,21.7635534 L31.7271231,26.0172584 L21.8698468,28.4565597 L26.5848738,20.737753 L32.6438979,15.0780282 C36.1737046,12.3863205 38.3590162,11.6999598 39.1998329,13.0189463 Z M39.445989,9.43154846 C41.8169531,7.67091313 43.1168047,6.02942265 44.2948199,6.02942265 C44.5903078,6.02942265 45.1979612,5.79957255 45.4491256,6.02942265 C45.6444099,6.2081348 47.3353832,5.21764602 47.3772376,5.6054116 C47.4210116,6.01096124 45.6127266,7.06218389 45.4491256,7.697525 C45.2555453,8.44928993 46.8821102,10.4159277 46.7693993,10.6474266 C46.370228,11.4672918 43.5223852,9.71538676 42.1415035,10.6474266 C40.7606218,11.5794665 41.4827074,12.6122747 40.5215799,12.7574445 C39.8854776,12.8535221 39.1927629,12.1048627 38.7475233,11.4345502 C38.520022,11.0920447 36.0746704,12.1592207 36.0169594,11.9807691 C35.846303,11.4530726 37.0750249,11.1921838 39.445989,9.43154846 Z M27.9192729,44.3822429 C30.5520496,46.233172 31.9575742,47.0337951 32.2074381,50.53068 C32.4573021,54.027565 29.6829888,54.4450902 28.9011711,58.124062 C28.1193533,61.8030339 27.5772459,61.5014674 28.9011711,66.0888632 C30.2250963,70.676259 33.5662059,73.3584616 33.5662059,74.2883903 C33.5662059,74.8295508 35.0713789,78.6911801 32.2074381,79.7560454 C30.1499916,80.5210414 24.0087061,78.6673318 21.967449,78.5855031 C17.0847867,78.3897697 11.8989341,74.4936003 10.368692,73.3584616 C8.83844995,72.2233228 7.0320872,68.1622355 10.368692,67.0540008 C13.7052969,65.9457661 18.3480143,70.1192445 20.1211273,70.1192445 C21.8942404,70.1192445 25.296628,68.902635 23.1652833,67.0540008 C21.0339385,65.2053666 16.0563775,65.5745075 14.0830648,64.8820961 C12.109752,64.1896847 11.0767132,64.674191 10.368692,62.5638329 C9.89667795,61.1569275 10.2328049,59.2411501 11.3770729,56.8165009 C12.1672904,53.3706913 13.0692877,51.7667312 14.0830648,52.0046205 C15.0968418,52.2425097 16.0522572,54.2823236 16.9493111,58.124062 L23.1652833,62.5638329 L21.967449,56.8165009 L16.9493111,50.53068 L20.1211273,42.0336034 C23.5647066,42.3654103 26.1640885,43.1482902 27.9192729,44.3822429 Z M18.9285512,40.638804 C19.1187111,42.2828958 17.8708115,45.2227948 15.1848523,49.4585008 C13.8251154,49.9856589 12.5422153,49.9856589 11.3361519,49.4585008 C10.1300885,48.9313428 9.10445218,47.9223049 8.25924297,46.4313872 L9.99461689,41.8571976 C11.6875649,39.4195247 12.8881039,38.2006883 13.596234,38.2006883 C14.6584291,38.2006883 18.6433113,38.1726662 18.9285512,40.638804 Z M7.19858279,49.129839 C8.21108488,48.6172026 8.68416321,49.6322601 9.49019106,50.127198 C10.3387991,50.6482821 11.5010824,50.6944021 11.7817993,51.9345887 C12.3291479,54.3527335 9.88477509,57.0085392 9.49019106,59.2539926 C9.09560703,61.499446 9.49019106,61.9964578 9.49019106,64.9754094 C9.49019106,66.1081136 7.69556147,67.165678 7.19858279,67.9543611 C6.94900083,68.3504365 6.94900083,68.8146508 7.19858279,69.3470039 C7.19858279,71.1013512 7.96245221,72.5763913 9.49019106,73.7721242 C10.5267511,74.5834206 8.32455004,75.8529286 6.62574194,75.8282 C4.56885551,75.798259 2.74140033,74.3294836 1.7289714,73.7721242 C-0.119635186,72.7544349 -0.479473029,70.2644226 0.618799929,68.5008871 C1.71707289,66.7373516 5.3520864,68.7100584 5.3520864,67.9543611 C5.3520864,67.4553205 4.83231293,67.1493403 3.76551272,66.8162334 C3.21685684,66.6449164 1.99410611,67.0028132 1.7289714,66.2029734 C1.12913057,64.3934156 1.47499077,66.0210903 2.8544614,63.5692115 C3.27029537,62.8301059 2.30091982,60.7521954 2.8544614,59.6923887 C3.14055831,59.1446296 5.83193784,57.5078583 6.0824652,57.0244016 C7.92465455,53.4694252 5.36891536,50.0562117 7.19858279,49.129839 Z" id="Combined-Shape"></path>
                </g>
            </g>
            <g id="shape" transform="translate(94.000000, 93.000000)">
                <path d="M221.424148,182.573272 C219.74201,191.757551 215.406747,199.992835 209.257936,206.425148 C209.146184,207.779909 209.359519,208.950826 209.359519,209.618727 C209.359519,212.049855 214.884198,215.523716 216.400526,217.814567 C225.169342,223.510989 229.798835,235.727826 235.649982,245.763888 C243.804529,249.113576 254.167705,248.232545 266.73951,243.120796 C279.090416,235.395216 298.173811,234.938143 323.989694,241.749576 C300.95587,237.692977 281.872475,240.493488 266.73951,250.151111 C257.785175,255.865628 250.208546,257.670708 244.355881,257.662298 C254.617254,268.90733 268.986512,277.193671 287.463655,282.521322 C274.807574,280.446566 263.942584,277.517145 254.868684,273.733058 C257.113401,282.873954 262.179378,290.508933 269.288923,298.102642 C272.664891,301.708516 278.815056,307.003278 287.739421,313.986928 C266.014297,299.713855 253.542052,285.948856 250.322686,272.691931 C249.83286,272.069595 249.387709,271.517143 248.987235,271.034576 C236.555296,264.760285 228.176929,256.551727 223.852133,246.4089 C217.513462,231.542985 207.446317,223.65889 193.650697,222.756614 C191.263033,223.7884 187.82156,224.907413 185.317504,227.411469 C182.415002,230.31397 180.437857,234.589248 179.730798,236.269364 C179.874181,236.907297 180.009704,237.561491 180.136845,238.232326 C183.330704,255.084127 193.989712,269.703657 212.113869,282.090915 C190.199143,269.809012 177.883074,256.846543 175.165661,243.20351 C172.989161,237.687826 170.676888,233.312928 168.228843,230.078816 C166.625698,229.162151 163.975735,226.564061 160.97804,226.564061 C158.536206,226.564061 156.3251,228.287959 154.722571,229.422729 C153.008802,231.181264 150.883333,233.025107 148.276511,234.948838 C131.954121,246.994114 127.220964,262.183784 134.07704,280.517848 C131.16002,275.311092 129.031738,270.448404 127.692197,265.929783 C126.782117,269.268875 125.64469,272.841465 123.998722,276.831723 C115.503751,297.425759 106.774097,306.31534 97.1146794,314.644657 C90.7828071,320.104631 80.6062477,324.223079 66.5850012,327 C90.754995,319.416861 107.543869,303.951433 116.951624,280.603714 C119.687665,273.813539 120.836868,265.547041 122.462301,258.111229 C116.612327,264.578271 108.430311,269.932516 97.9162513,274.173967 L98.9665662,274.181614 C98.3380616,274.24927 97.7373776,274.346652 97.1645144,274.47376 C96.0707773,274.904958 94.9523267,275.324364 93.8091627,275.731976 C90.8882418,277.394904 89.1325182,280.302841 88.5419918,284.455788 C88.4097812,285.385575 88.1751278,286.296357 87.8380317,287.188136 C87.9676152,288.235808 88.2272094,289.244056 88.6168141,290.212881 C89.7843487,293.116174 88.7708988,296.791393 85.5764646,301.238538 C87.4377389,297.869035 88.018433,294.707786 87.318547,291.754789 C87.1477914,291.034328 86.8971152,290.292031 86.6763617,289.55399 C84.1911711,293.637833 79.3824822,297.290649 72.2502949,300.512437 C78.8436194,296.537561 83.0106611,291.64281 84.7514198,285.828183 C85.5103777,283.293048 85.8970057,280.381911 86.8481535,277.979528 C80.6490651,279.788459 73.8317573,281.30239 66.3962302,282.521322 C90.0516789,275.700572 106.974091,264.030374 117.163465,247.510728 C124.010962,236.409142 128.865482,221.816156 139.642384,216.578876 C139.854823,216.475636 140.074457,216.368929 140.301286,216.258753 C140.379414,216.027612 140.451313,215.789989 140.516251,215.545536 C141.721357,211.009054 137.413003,200.118682 136.608392,196.822999 C134.668354,193.325039 133.16051,189.54612 132.158575,185.561222 C122.547317,180.080674 111.484485,178.420451 98.9700796,180.580554 L99.4126029,181.347027 C96.0394878,185.251818 93.5544179,188.12544 91.9573933,189.967894 C88.1155673,194.40013 81.3985579,195.712762 74.9134302,197.195795 C74.6150494,198.754535 74.3825904,199.965563 74.2160532,200.828879 C73.5063268,204.508043 69.4912728,207.155511 66.692138,210.122396 C66.4273087,210.403097 66.170604,210.690432 65.9220239,210.984402 C66.2287834,211.866863 66.4625245,212.540406 66.6232474,213.005031 C67.235718,214.775587 66.1590157,216.925738 65.688676,218.910221 C64.9887899,221.863218 65.5694841,225.024467 67.4307584,228.39397 C64.2363241,223.946825 63.2228743,220.271606 64.3904088,217.368313 C65.0819596,215.648643 65.1363817,214.122506 64.5536753,212.789903 C61.78666,216.87532 60.3440228,222.042291 60.2257635,228.290815 C59.4514791,220.519917 60.2056676,214.538038 62.4883289,210.345179 C62.473942,210.334541 62.4594921,210.323922 62.4449792,210.313322 L62.505721,210.313322 C63.421342,208.6408 64.5812286,207.254182 65.9853806,206.153467 C68.9692916,203.81438 70.5963808,201.159465 70.8666482,198.188724 C70.4508877,198.301939 70.0390572,198.418983 69.6320721,198.540824 C58.0028184,202.022342 48.2133158,210.356425 40.2635643,223.543074 C49.2800578,203.582939 59.9844901,192.721808 72.3768614,190.95968 C79.1541141,189.995992 84.2735471,187.480759 87.7351604,183.413983 C64.5826242,190.644148 35.3375682,184.112894 0,163.820219 C10.8604696,168.616263 21.4505018,172.082856 31.7700966,174.219997 C29.9315897,171.52292 25.2886872,166.43956 22.6287276,161.529487 C20.9222324,158.379433 19.0758933,153.079486 17.08971,145.629646 C19.8437556,152.340047 22.101135,157.021131 23.8618483,159.672898 C27.2297359,164.745192 32.0223069,168.472973 34.7424933,171.732475 C35.9088101,173.130031 36.9771889,174.33441 37.9476298,175.345613 C51.0324983,177.400753 63.6732875,177.272831 75.8699974,174.961847 C81.41902,173.91044 87.1299581,172.385259 92.8165456,171.01321 C92.8562476,170.715575 92.8924688,170.414682 92.9252093,170.110531 L93.3696081,170.880253 C103.764829,168.390694 114.058433,166.481137 123.111518,168.98472 C125.16924,169.553772 127.73918,170.265945 130.821339,171.121237 C131.207919,164.68294 132.882033,158.598513 135.585113,153.130958 C123.761035,134.041786 111.169075,126.307149 97.8092372,129.92704 C92.5526077,131.351341 85.7553778,128.864737 82.2114304,126.441686 C78.0229356,123.577947 74.6285923,114.829673 72.0284005,100.196863 C71.8264878,99.7444389 71.5271352,98.927582 71.1303428,97.7462925 C69.9600793,94.2623043 68.1388531,91.6845257 65.6666643,90.0129565 L58.9911289,86.2450469 C62.6882431,86.8893193 65.7701426,87.8019324 68.2368273,88.9828862 C70.4949506,90.0639886 71.7646072,91.1435723 72.0457972,92.2216371 L74.4394932,76.2416745 C74.5900817,101.875039 78.6965106,117.168926 86.7587801,122.123335 C91.22227,124.866229 100.898846,120.995162 107.145923,122.123335 C123.047023,124.994947 135.374204,130.075595 144.127466,137.365278 C144.997917,137.689481 145.959698,138.072944 146.993477,138.432326 C151.285637,134.748826 156.253739,131.854497 161.681519,129.969314 C161.89601,129.214353 162.076306,128.373943 162.076306,127.488235 C162.076306,125.646253 161.296519,124.000188 161.051081,122.911188 C160.770392,122.235618 160.480294,121.558405 160.180786,120.879548 L159.973014,121.23942 C156.962114,112.054174 149.664197,105.881228 138.07926,102.720582 C126.494324,99.5599363 115.089017,89.9127544 103.863341,73.7790364 C113.100298,84.7361792 123.291393,92.3746846 134.436625,96.6945526 C139.883802,98.8058666 146.054167,100.365594 151.065741,102.955427 C139.715434,77.9832557 137.898157,43.9918193 145.61391,0.981117841 C143.797135,22.3091368 144.738248,42.1109747 148.437249,60.3866313 C148.575245,60.5521134 148.718235,60.7262275 148.866399,60.9091968 C152.80786,65.7765351 160.970533,42.681781 160.970533,46.1500299 C160.970533,48.1270285 155.872143,60.4515644 152.708041,66.7937954 C152.475317,68.4716396 151.952922,70.8473602 151.952922,73.4815178 C151.952922,73.891822 151.965596,74.295856 151.987876,74.691959 C153.898142,81.1424571 156.184783,87.384674 158.847799,93.4186097 C159.826338,95.6358111 160.86835,97.8615568 161.944562,100.093309 C164.162895,101.404443 167.11475,103.311342 168.847135,99.4282507 C174.081938,87.6945957 177.764426,58.9324887 183.519827,52.044503 C188.676982,45.8724906 199.95926,41.9952098 217.366661,40.4126606 C201.830623,44.0172853 191.94638,48.7793502 187.713933,54.6988554 C180.726886,64.4709486 179.742157,104.189727 176.379266,120.361192 C178.012231,122.368405 179.890519,125.502297 182.642754,127.904959 C187.750658,128.606296 192.591002,130.165383 197.019038,132.434993 C197.966857,132.570853 198.782576,132.742528 199.407344,133.016991 C201.521634,130.000133 203.329062,126.455484 204.829627,122.383044 C207.670949,114.671876 212.863463,108.203459 220.407169,102.977793 C220.867085,101.660553 221.250754,100.420875 221.533321,99.3423307 C223.449932,92.0267182 222.067349,88.9993171 225.048943,80.7044485 C233.689821,56.6653103 242.569413,46.2886227 252.394738,36.5659246 C258.835364,30.1925711 269.186713,25.3851632 283.448784,22.1437009 C258.863654,30.9953958 241.786419,49.0479803 232.21708,76.3014543 C229.643584,83.6307701 229.785525,90.7841588 229.057718,98.0114289 C239.930058,92.8307642 254.110044,89.398395 271.597676,87.7143212 C246.272394,93.3886876 228.665121,104.865122 218.775858,122.143625 C215.328374,128.167062 212.537174,135.256928 209.060822,141.371531 C215.948547,148.489076 220.600004,157.852139 221.85702,168.282681 C222.65681,168.269138 223.465502,168.256746 224.2806,168.24919 C231.770195,165.35617 238.302757,161.121663 243.878288,155.545669 L243.438766,155.291911 C243.807208,155.171137 244.165955,155.036568 244.515009,154.888202 C246.261598,152.155862 248.501758,149.88021 251.235492,148.061248 C251.385932,147.846373 251.521545,147.624614 251.64233,147.395969 C251.820323,146.983207 251.987982,146.555738 252.145309,146.113563 C252.498051,144.803708 252.453601,143.309432 252.011959,141.630735 C251.248141,138.727442 251.911154,135.052223 254.000997,130.605078 C252.783326,133.974581 252.403428,137.135831 252.861303,140.088828 C252.982804,140.872434 253.166158,141.681871 253.318903,142.483568 C255.350976,137.329829 259.967661,132.247664 267.168958,127.237075 C261.690387,131.855554 257.871134,136.951101 255.7112,142.523717 C255.245121,143.726198 254.832801,144.999165 254.40618,146.261633 C261.305211,142.942439 270.661627,141.896997 282.475426,143.125306 C266.001921,143.343318 253.948397,149.576727 246.314854,161.825534 C244.214996,165.194972 242.095834,167.680034 240.03517,169.481252 C258.884289,172.699443 268.819749,178.604729 278.50305,185.425646 C285.327481,190.232774 291.872873,199.164039 298.139225,212.219441 C284.681468,190.438103 265.647865,177.94788 241.038416,174.748771 C237.219608,174.252345 231.859344,174.277567 226.257315,174.451619 C229.695167,177.467375 233.176801,181.883843 236.250938,188.262376 C243.697536,203.713334 257.77716,215.075961 278.48981,222.350257 C254.14302,216.158797 238.891677,206.825647 232.735781,194.350807 C228.756702,188.980118 224.986158,185.054273 221.424148,182.573272 Z M173.917605,220.446115 C173.489587,220.422192 173.063136,220.392283 172.638334,220.356467 C172.893603,220.677641 173.146867,221.010865 173.397599,221.356525 C173.558392,221.048107 173.731729,220.744382 173.917605,220.446115 Z M250.08087,271.612986 C250.078092,271.599459 250.075324,271.585934 250.072565,271.572409 C250.001468,271.537815 249.930499,271.50316 249.859658,271.468444 C249.933985,271.516662 250.007788,271.564858 250.08087,271.612986 Z" id="Combined-Shape" fill="#9E7FA5"></path>
                <path d="M153.693111,165.296053 C149.311728,165.296053 145.759916,161.712367 145.759916,157.291667 C145.759916,152.870966 149.311728,149.287281 153.693111,149.287281 C158.074493,149.287281 161.626305,152.870966 161.626305,157.291667 C161.626305,161.712367 158.074493,165.296053 153.693111,165.296053 Z M181.617954,155.210526 C176.360295,155.210526 172.098121,150.910104 172.098121,145.605263 C172.098121,140.300423 176.360295,136 181.617954,136 C186.875613,136 191.137787,140.300423 191.137787,145.605263 C191.137787,150.910104 186.875613,155.210526 181.617954,155.210526 Z M206.845511,173.780702 C201.237342,173.780702 196.691023,169.193584 196.691023,163.535088 C196.691023,157.876591 201.237342,153.289474 206.845511,153.289474 C212.453681,153.289474 217,157.876591 217,163.535088 C217,169.193584 212.453681,173.780702 206.845511,173.780702 Z M145.759916,185.14693 C143.131087,185.14693 141,182.996718 141,180.344298 C141,177.691878 143.131087,175.541667 145.759916,175.541667 C148.388746,175.541667 150.519833,177.691878 150.519833,180.344298 C150.519833,182.996718 148.388746,185.14693 145.759916,185.14693 Z M154.169102,201.796053 C152.416549,201.796053 150.995825,200.362578 150.995825,198.594298 C150.995825,196.826018 152.416549,195.392544 154.169102,195.392544 C155.921655,195.392544 157.34238,196.826018 157.34238,198.594298 C157.34238,200.362578 155.921655,201.796053 154.169102,201.796053 Z M167.814196,209 C166.762665,209 165.91023,208.139915 165.91023,207.078947 C165.91023,206.017979 166.762665,205.157895 167.814196,205.157895 C168.865728,205.157895 169.718163,206.017979 169.718163,207.078947 C169.718163,208.139915 168.865728,209 167.814196,209 Z" id="Combined-Shape" fill="#FFFFFF"></path>
                <circle id="nucleus" fill="#FFFFFF" cx="176.5" cy="178.5" r="14.5"></circle>
            </g>
        </g>
    </g>
</svg>