<?xml version="1.0" encoding="UTF-8"?>
<svg width="512px" height="512px" viewBox="0 0 512 512" version="1.1" xmlns="http://www.w3.org/2000/svg" xmlns:xlink="http://www.w3.org/1999/xlink">
    <!-- Generator: Sketch 51.1 (57501) - http://www.bohemiancoding.com/sketch -->
    <title>neuron</title>
    <desc>Created with Sketch.</desc>
    <defs>
        <radialGradient cx="50%" cy="51.7214674%" fx="50%" fy="51.7214674%" r="64.6878888%" id="radialGradient-1">
            <stop stop-color="#FFFFFF" offset="0%"></stop>
            <stop stop-color="#FFCED8" offset="100%"></stop>
        </radialGradient>
        <rect id="path-2" x="0" y="0" width="512" height="512" rx="96"></rect>
        <filter x="-0.6%" y="-0.6%" width="101.2%" height="101.2%" filterUnits="objectBoundingBox" id="filter-3">
            <feGaussianBlur stdDeviation="2" in="SourceAlpha" result="shadowBlurInner1"></feGaussianBlur>
            <feOffset dx="2" dy="2" in="shadowBlurInner1" result="shadowOffsetInner1"></feOffset>
            <feComposite in="shadowOffsetInner1" in2="SourceAlpha" operator="arithmetic" k2="-1" k3="1" result="shadowInnerInner1"></feComposite>
            <feColorMatrix values="0 0 0 0 0.980973639   0 0 0 0 0.141897465   0 0 0 0 0.141897465  0 0 0 0.5 0" type="matrix" in="shadowInnerInner1"></feColorMatrix>
        </filter>
    </defs>
    <g id="Page-1" stroke="none" stroke-width="1" fill="none" fill-rule="evenodd">
        <g id="neuron">
            <g id="background">
                <use fill="url(#radialGradient-1)" fill-rule="evenodd" xlink:href="#path-2"></use>
                <use fill="black" fill-opacity="1" filter="url(#filter-3)" xlink:href="#path-2"></use>
                <rect stroke="#FDBFCB" stroke-width="4" stroke-linejoin="square" x="2" y="2" width="508" height="508" rx="96"></rect>
            </g>
            <g id="frame" transform="translate(44.000000, 40.000000)" fill="#FFFFFF">
                <path d="M67.4542931,0.328474178 C70.3963036,1.6666639 62.9055842,3.49739 63.296547,4.99859685 C63.4500411,5.58797901 71.790252,3.38507672 72.3472669,4.24354952 C74.3230466,7.28862609 74.9864072,8.61770676 74.9864072,11.9369874 C74.9864072,15.256268 71.5513533,17.8198306 71.5513533,22.8391129 C71.5513533,27.8583952 74.9864072,25.1480117 74.9864072,28.5985691 C74.9864072,32.0491265 72.5065781,35.3204635 71.5513533,42.5450382 C70.5961284,49.7696128 73.6609189,52.0829787 71.5513533,54.5786343 C69.4417876,57.0742898 63.7891899,52.2745782 61.3794124,54.5786343 C58.9696349,56.8826903 65.5806387,54.8523399 69.0870983,57.2342369 C72.5935579,59.6161339 71.7879876,61.819654 71.5513533,64.2888607 C71.3640641,66.2431654 73.2699961,69.2482102 71.5513533,72.1784408 C68.5585414,75.9397029 64.4168528,74.2720571 61.3794124,74.2720571 C58.3419721,74.2720571 55.9317399,76.0497327 51.0619532,74.2720571 C46.1921664,72.4943814 46.9056621,72.6097921 45.3621411,68.4250838 C43.81862,64.2403755 44.0080746,62.1084532 45.3621411,58.8190443 C46.7162075,55.5296354 48.1735583,54.5786343 51.0619532,54.5786343 C53.950348,54.5786343 56.2749739,59.8802192 57.8869709,58.8190443 C59.498968,57.7578695 55.6654254,55.5957809 54.1272978,52.9561354 C52.5891703,50.31649 48.0637717,52.3837881 45.3621411,52.9561354 C42.6605104,53.5284828 41.3899356,60.1526376 41.3899356,64.2888607 C41.3899356,68.4250838 43.7798301,72.6512637 45.3621411,74.2720571 C46.944452,75.8928504 48.5479633,75.1274063 49.1960826,75.8928504 C49.7811894,76.5838752 47.8915395,77.5605539 46.944452,77.6160339 C44.770695,77.7433716 36.5407964,74.5774347 33.8887329,72.1784408 C32.1271438,70.5849489 30.4680258,66.8181005 30.4680258,61.4883147 C30.4680258,56.1585289 33.8887329,56.1412413 33.8887329,51.0591981 C33.8887329,45.9771549 29.327794,44.9624884 30.4680258,42.5450382 C31.6082576,40.1275879 36.7355167,37.0395188 39.79555,38.5359232 C42.8555834,40.0323276 38.3576761,47.1063441 39.79555,47.1063441 C41.233424,47.1063441 43.7186336,40.715555 48.3196488,38.5359232 C52.9206639,36.3562914 53.6949002,41.1387447 57.8869709,38.5359232 C60.6816847,36.8007088 62.8275687,33.4882575 64.3246228,28.5985691 C66.9170777,22.0970407 67.9603011,18.3515188 67.4542931,17.3620034 C66.9482851,16.372488 65.9050616,19.1500374 64.3246228,25.6946515 C61.7961723,30.8093972 59.6502883,34.3357966 57.8869709,36.2738498 C55.2419948,39.1809295 54.331733,34.3955326 52.6357166,34.3955326 C50.9397003,34.3955326 45.2283832,39.7313012 42.808444,36.2738498 C40.3885049,32.8163983 44.6656881,27.6050415 48.3196488,22.8391129 C51.9736094,18.0731843 53.1324642,19.8452803 57.8869709,16.6066478 C62.6414776,13.3680153 65.5034494,12.7435377 64.3246228,11.9369874 C63.1457961,11.1304371 57.0815835,14.1110135 51.0619532,11.9369874 C45.0423229,9.76296134 46.8156843,7.22175172 48.3196488,6.1566938 C49.8236132,5.09163587 63.3572329,-1.53509627 67.4542931,0.328474178 Z M42.5931251,11.7228935 C45.9445968,9.70964513 47.0434114,14.4818234 53.5354411,14.4818234 C56.5816463,14.4818234 54.0175618,15.1839782 49.1619771,18.8369285 C47.1187925,20.3740559 46.7766984,20.3960515 44.0700618,25.1451756 C41.9082584,28.9383236 41.7905521,30.759109 40.1283459,32.7707558 C39.7094248,33.2777454 41.4639937,35.9725582 40.7914196,36.5384232 C40.2058373,37.0310985 36.8418134,36.1621511 36.4423115,36.5384232 C35.2810972,37.6321166 33.7080967,38.0784395 32.0686412,38.817407 C31.0538459,39.2748155 30.3962593,42.0155147 28.5296656,42.3521721 C26.5265228,42.7134574 25.1728221,39.5683883 23.2998704,38.817407 C21.4828815,38.0888648 12.6235791,37.9346702 17.3387806,32.7707558 C22.0539822,27.6068415 29.9051362,30.0448849 35.7840679,25.1451756 C41.6629996,20.2454664 39.2416533,13.7361419 42.5931251,11.7228935 Z M39.1998329,13.0189463 C40.0406496,14.3379327 39.2759492,17.2528017 36.9057318,21.7635534 L31.7271231,26.0172584 L21.8698468,28.4565597 L26.5848738,20.737753 L32.6438979,15.0780282 C36.1737046,12.3863205 38.3590162,11.6999598 39.1998329,13.0189463 Z M39.445989,9.43154846 C41.8169531,7.67091313 43.1168047,6.02942265 44.2948199,6.02942265 C44.5903078,6.02942265 45.1979612,5.79957255 45.4491256,6.02942265 C45.6444099,6.2081348 47.3353832,5.21764602 47.3772376,5.6054116 C47.4210116,6.01096124 45.6127266,7.06218389 45.4491256,7.697525 C45.2555453,8.44928993 46.8821102,10.4159277 46.7693993,10.6474266 C46.370228,11.4672918 43.5223852,9.71538676 42.1415035,10.6474266 C40.7606218,11.5794665 41.4827074,12.6122747 40.5215799,12.7574445 C39.8854776,12.8535221 39.1927629,12.1048627 38.7475233,11.4345502 C38.520022,11.0920447 36.0746704,12.1592207 36.0169594,11.9807691 C35.846303,11.4530726 37.0750249,11.1921838 39.445989,9.43154846 Z M27.9192729,44.3822429 C30.5520496,46.233172 31.9575742,47.0337951 32.2074381,50.53068 C32.4573021,54.027565 29.6829888,54.4450902 28.9011711,58.124062 C28.1193533,61.8030339 27.5772459,61.5014674 28.9011711,66.0888632 C30.2250963,70.676259 33.5662059,73.3584616 33.5662059,74.2883903 C33.5662059,74.8295508 35.0713789,78.6911801 32.2074381,79.7560454 C30.1499916,80.5210414 24.0087061,78.6673318 21.967449,78.5855031 C17.0847867,78.3897697 11.8989341,74.4936003 10.368692,73.3584616 C8.83844995,72.2233228 7.0320872,68.1622355 10.368692,67.0540008 C13.7052969,65.9457661 18.3480143,70.1192445 20.1211273,70.1192445 C21.8942404,70.1192445 25.296628,68.902635 23.1652833,67.0540008 C21.0339385,65.2053666 16.0563775,65.5745075 14.0830648,64.8820961 C12.109752,64.1896847 11.0767132,64.674191 10.368692,62.5638329 C9.89667795,61.1569275 10.2328049,59.2411501 11.3770729,56.8165009 C12.1672904,53.3706913 13.0692877,51.7667312 14.0830648,52.0046205 C15.0968418,52.2425097 16.0522572,54.2823236 16.9493111,58.124062 L23.1652833,62.5638329 L21.967449,56.8165009 L16.9493111,50.53068 L20.1211273,42.0336034 C23.5647066,42.3654103 26.1640885,43.1482902 27.9192729,44.3822429 Z M18.9285512,40.638804 C19.1187111,42.2828958 17.8708115,45.2227948 15.1848523,49.4585008 C13.8251154,49.9856589 12.5422153,49.9856589 11.3361519,49.4585008 C10.1300885,48.9313428 9.10445218,47.9223049 8.25924297,46.4313872 L9.99461689,41.8571976 C11.6875649,39.4195247 12.8881039,38.2006883 13.596234,38.2006883 C14.6584291,38.2006883 18.6433113,38.1726662 18.9285512,40.638804 Z M7.19858279,49.129839 C8.21108488,48.6172026 8.68416321,49.6322601 9.49019106,50.127198 C10.3387991,50.6482821 11.5010824,50.6944021 11.7817993,51.9345887 C12.3291479,54.3527335 9.88477509,57.0085392 9.49019106,59.2539926 C9.09560703,61.499446 9.49019106,61.9964578 9.49019106,64.9754094 C9.49019106,66.1081136 7.69556147,67.165678 7.19858279,67.9543611 C6.94900083,68.3504365 6.94900083,68.8146508 7.19858279,69.3470039 C7.19858279,71.1013512 7.96245221,72.5763913 9.49019106,73.7721242 C10.5267511,74.5834206 8.32455004,75.8529286 6.62574194,75.8282 C4.56885551,75.798259 2.74140033,74.3294836 1.7289714,73.7721242 C-0.119635186,72.7544349 -0.479473029,70.2644226 0.618799929,68.5008871 C1.71707289,66.7373516 5.3520864,68.7100584 5.3520864,67.9543611 C5.3520864,67.4553205 4.83231293,67.1493403 3.76551272,66.8162334 C3.21685684,66.6449164 1.99410611,67.0028132 1.7289714,66.2029734 C1.12913057,64.3934156 1.47499077,66.0210903 2.8544614,63.5692115 C3.27029537,62.8301059 2.30091982,60.7521954 2.8544614,59.6923887 C3.14055831,59.1446296 5.83193784,57.5078583 6.0824652,57.0244016 C7.92465455,53.4694252 5.36891536,50.0562117 7.19858279,49.129839 Z" id="Combined-Shape"></path>
                <path d="M67.4542931,354.328474 C70.3963036,355.666664 62.9055842,357.49739 63.296547,358.998597 C63.4500411,359.587979 71.790252,357.385077 72.3472669,358.24355 C74.3230466,361.288626 74.9864072,362.617707 74.9864072,365.936987 C74.9864072,369.256268 71.5513533,371.819831 71.5513533,376.839113 C71.5513533,381.858395 74.9864072,379.148012 74.9864072,382.598569 C74.9864072,386.049127 72.5065781,389.320463 71.5513533,396.545038 C70.5961284,403.769613 73.6609189,406.082979 71.5513533,408.578634 C69.4417876,411.07429 63.7891899,406.274578 61.3794124,408.578634 C58.9696349,410.88269 65.5806387,408.85234 69.0870983,411.234237 C72.5935579,413.616134 71.7879876,415.819654 71.5513533,418.288861 C71.3640641,420.243165 73.2699961,423.24821 71.5513533,426.178441 C68.5585414,429.939703 64.4168528,428.272057 61.3794124,428.272057 C58.3419721,428.272057 55.9317399,430.049733 51.0619532,428.272057 C46.1921664,426.494381 46.9056621,426.609792 45.3621411,422.425084 C43.81862,418.240376 44.0080746,416.108453 45.3621411,412.819044 C46.7162075,409.529635 48.1735583,408.578634 51.0619532,408.578634 C53.950348,408.578634 56.2749739,413.880219 57.8869709,412.819044 C59.498968,411.757869 55.6654254,409.595781 54.1272978,406.956135 C52.5891703,404.31649 48.0637717,406.383788 45.3621411,406.956135 C42.6605104,407.528483 41.3899356,414.152638 41.3899356,418.288861 C41.3899356,422.425084 43.7798301,426.651264 45.3621411,428.272057 C46.944452,429.89285 48.5479633,429.127406 49.1960826,429.89285 C49.7811894,430.583875 47.8915395,431.560554 46.944452,431.616034 C44.770695,431.743372 36.5407964,428.577435 33.8887329,426.178441 C32.1271438,424.584949 30.4680258,420.8181 30.4680258,415.488315 C30.4680258,410.158529 33.8887329,410.141241 33.8887329,405.059198 C33.8887329,399.977155 29.327794,398.962488 30.4680258,396.545038 C31.6082576,394.127588 36.7355167,391.039519 39.79555,392.535923 C42.8555834,394.032328 38.3576761,401.106344 39.79555,401.106344 C41.233424,401.106344 43.7186336,394.715555 48.3196488,392.535923 C52.9206639,390.356291 53.6949002,395.138745 57.8869709,392.535923 C60.6816847,390.800709 62.8275687,387.488257 64.3246228,382.598569 C66.9170777,376.097041 67.9603011,372.351519 67.4542931,371.362003 C66.9482851,370.372488 65.9050616,373.150037 64.3246228,379.694652 C61.7961723,384.809397 59.6502883,388.335797 57.8869709,390.27385 C55.2419948,393.180929 54.331733,388.395533 52.6357166,388.395533 C50.9397003,388.395533 45.2283832,393.731301 42.808444,390.27385 C40.3885049,386.816398 44.6656881,381.605041 48.3196488,376.839113 C51.9736094,372.073184 53.1324642,373.84528 57.8869709,370.606648 C62.6414776,367.368015 65.5034494,366.743538 64.3246228,365.936987 C63.1457961,365.130437 57.0815835,368.111013 51.0619532,365.936987 C45.0423229,363.762961 46.8156843,361.221752 48.3196488,360.156694 C49.8236132,359.091636 63.3572329,352.464904 67.4542931,354.328474 Z M42.5931251,365.722893 C45.9445968,363.709645 47.0434114,368.481823 53.5354411,368.481823 C56.5816463,368.481823 54.0175618,369.183978 49.1619771,372.836929 C47.1187925,374.374056 46.7766984,374.396051 44.0700618,379.145176 C41.9082584,382.938324 41.7905521,384.759109 40.1283459,386.770756 C39.7094248,387.277745 41.4639937,389.972558 40.7914196,390.538423 C40.2058373,391.031098 36.8418134,390.162151 36.4423115,390.538423 C35.2810972,391.632117 33.7080967,392.078439 32.0686412,392.817407 C31.0538459,393.274816 30.3962593,396.015515 28.5296656,396.352172 C26.5265228,396.713457 25.1728221,393.568388 23.2998704,392.817407 C21.4828815,392.088865 12.6235791,391.93467 17.3387806,386.770756 C22.0539822,381.606842 29.9051362,384.044885 35.7840679,379.145176 C41.6629996,374.245466 39.2416533,367.736142 42.5931251,365.722893 Z M39.1998329,367.018946 C40.0406496,368.337933 39.2759492,371.252802 36.9057318,375.763553 L31.7271231,380.017258 L21.8698468,382.45656 L26.5848738,374.737753 L32.6438979,369.078028 C36.1737046,366.38632 38.3590162,365.69996 39.1998329,367.018946 Z M39.445989,363.431548 C41.8169531,361.670913 43.1168047,360.029423 44.2948199,360.029423 C44.5903078,360.029423 45.1979612,359.799573 45.4491256,360.029423 C45.6444099,360.208135 47.3353832,359.217646 47.3772376,359.605412 C47.4210116,360.010961 45.6127266,361.062184 45.4491256,361.697525 C45.2555453,362.44929 46.8821102,364.415928 46.7693993,364.647427 C46.370228,365.467292 43.5223852,363.715387 42.1415035,364.647427 C40.7606218,365.579466 41.4827074,366.612275 40.5215799,366.757445 C39.8854776,366.853522 39.1927629,366.104863 38.7475233,365.43455 C38.520022,365.092045 36.0746704,366.159221 36.0169594,365.980769 C35.846303,365.453073 37.0750249,365.192184 39.445989,363.431548 Z M27.9192729,398.382243 C30.5520496,400.233172 31.9575742,401.033795 32.2074381,404.53068 C32.4573021,408.027565 29.6829888,408.44509 28.9011711,412.124062 C28.1193533,415.803034 27.5772459,415.501467 28.9011711,420.088863 C30.2250963,424.676259 33.5662059,427.358462 33.5662059,428.28839 C33.5662059,428.829551 35.0713789,432.69118 32.2074381,433.756045 C30.1499916,434.521041 24.0087061,432.667332 21.967449,432.585503 C17.0847867,432.38977 11.8989341,428.4936 10.368692,427.358462 C8.83844995,426.223323 7.0320872,422.162235 10.368692,421.054001 C13.7052969,419.945766 18.3480143,424.119245 20.1211273,424.119245 C21.8942404,424.119245 25.296628,422.902635 23.1652833,421.054001 C21.0339385,419.205367 16.0563775,419.574507 14.0830648,418.882096 C12.109752,418.189685 11.0767132,418.674191 10.368692,416.563833 C9.89667795,415.156927 10.2328049,413.24115 11.3770729,410.816501 C12.1672904,407.370691 13.0692877,405.766731 14.0830648,406.00462 C15.0968418,406.24251 16.0522572,408.282324 16.9493111,412.124062 L23.1652833,416.563833 L21.967449,410.816501 L16.9493111,404.53068 L20.1211273,396.033603 C23.5647066,396.36541 26.1640885,397.14829 27.9192729,398.382243 Z M18.9285512,394.638804 C19.1187111,396.282896 17.8708115,399.222795 15.1848523,403.458501 C13.8251154,403.985659 12.5422153,403.985659 11.3361519,403.458501 C10.1300885,402.931343 9.10445218,401.922305 8.25924297,400.431387 L9.99461689,395.857198 C11.6875649,393.419525 12.8881039,392.200688 13.596234,392.200688 C14.6584291,392.200688 18.6433113,392.172666 18.9285512,394.638804 Z M7.19858279,403.129839 C8.21108488,402.617203 8.68416321,403.63226 9.49019106,404.127198 C10.3387991,404.648282 11.5010824,404.694402 11.7817993,405.934589 C12.3291479,408.352734 9.88477509,411.008539 9.49019106,413.253993 C9.09560703,415.499446 9.49019106,415.996458 9.49019106,418.975409 C9.49019106,420.108114 7.69556147,421.165678 7.19858279,421.954361 C6.94900083,422.350437 6.94900083,422.814651 7.19858279,423.347004 C7.19858279,425.101351 7.96245221,426.576391 9.49019106,427.772124 C10.5267511,428.583421 8.32455004,429.852929 6.62574194,429.8282 C4.56885551,429.798259 2.74140033,428.329484 1.7289714,427.772124 C-0.119635186,426.754435 -0.479473029,424.264423 0.618799929,422.500887 C1.71707289,420.737352 5.3520864,422.710058 5.3520864,421.954361 C5.3520864,421.455321 4.83231293,421.14934 3.76551272,420.816233 C3.21685684,420.644916 1.99410611,421.002813 1.7289714,420.202973 C1.12913057,418.393416 1.47499077,420.02109 2.8544614,417.569211 C3.27029537,416.830106 2.30091982,414.752195 2.8544614,413.692389 C3.14055831,413.14463 5.83193784,411.507858 6.0824652,411.024402 C7.92465455,407.469425 5.36891536,404.056212 7.19858279,403.129839 Z" id="Combined-Shape" transform="translate(37.493204, 393.970362) scale(1, -1) translate(-37.493204, -393.970362) "></path>
                <path d="M417.454293,354.328474 C420.396304,355.666664 412.905584,357.49739 413.296547,358.998597 C413.450041,359.587979 421.790252,357.385077 422.347267,358.24355 C424.323047,361.288626 424.986407,362.617707 424.986407,365.936987 C424.986407,369.256268 421.551353,371.819831 421.551353,376.839113 C421.551353,381.858395 424.986407,379.148012 424.986407,382.598569 C424.986407,386.049127 422.506578,389.320463 421.551353,396.545038 C420.596128,403.769613 423.660919,406.082979 421.551353,408.578634 C419.441788,411.07429 413.78919,406.274578 411.379412,408.578634 C408.969635,410.88269 415.580639,408.85234 419.087098,411.234237 C422.593558,413.616134 421.787988,415.819654 421.551353,418.288861 C421.364064,420.243165 423.269996,423.24821 421.551353,426.178441 C418.558541,429.939703 414.416853,428.272057 411.379412,428.272057 C408.341972,428.272057 405.93174,430.049733 401.061953,428.272057 C396.192166,426.494381 396.905662,426.609792 395.362141,422.425084 C393.81862,418.240376 394.008075,416.108453 395.362141,412.819044 C396.716208,409.529635 398.173558,408.578634 401.061953,408.578634 C403.950348,408.578634 406.274974,413.880219 407.886971,412.819044 C409.498968,411.757869 405.665425,409.595781 404.127298,406.956135 C402.58917,404.31649 398.063772,406.383788 395.362141,406.956135 C392.66051,407.528483 391.389936,414.152638 391.389936,418.288861 C391.389936,422.425084 393.77983,426.651264 395.362141,428.272057 C396.944452,429.89285 398.547963,429.127406 399.196083,429.89285 C399.781189,430.583875 397.89154,431.560554 396.944452,431.616034 C394.770695,431.743372 386.540796,428.577435 383.888733,426.178441 C382.127144,424.584949 380.468026,420.8181 380.468026,415.488315 C380.468026,410.158529 383.888733,410.141241 383.888733,405.059198 C383.888733,399.977155 379.327794,398.962488 380.468026,396.545038 C381.608258,394.127588 386.735517,391.039519 389.79555,392.535923 C392.855583,394.032328 388.357676,401.106344 389.79555,401.106344 C391.233424,401.106344 393.718634,394.715555 398.319649,392.535923 C402.920664,390.356291 403.6949,395.138745 407.886971,392.535923 C410.681685,390.800709 412.827569,387.488257 414.324623,382.598569 C416.917078,376.097041 417.960301,372.351519 417.454293,371.362003 C416.948285,370.372488 415.905062,373.150037 414.324623,379.694652 C411.796172,384.809397 409.650288,388.335797 407.886971,390.27385 C405.241995,393.180929 404.331733,388.395533 402.635717,388.395533 C400.9397,388.395533 395.228383,393.731301 392.808444,390.27385 C390.388505,386.816398 394.665688,381.605041 398.319649,376.839113 C401.973609,372.073184 403.132464,373.84528 407.886971,370.606648 C412.641478,367.368015 415.503449,366.743538 414.324623,365.936987 C413.145796,365.130437 407.081583,368.111013 401.061953,365.936987 C395.042323,363.762961 396.815684,361.221752 398.319649,360.156694 C399.823613,359.091636 413.357233,352.464904 417.454293,354.328474 Z M392.593125,365.722893 C395.944597,363.709645 397.043411,368.481823 403.535441,368.481823 C406.581646,368.481823 404.017562,369.183978 399.161977,372.836929 C397.118792,374.374056 396.776698,374.396051 394.070062,379.145176 C391.908258,382.938324 391.790552,384.759109 390.128346,386.770756 C389.709425,387.277745 391.463994,389.972558 390.79142,390.538423 C390.205837,391.031098 386.841813,390.162151 386.442312,390.538423 C385.281097,391.632117 383.708097,392.078439 382.068641,392.817407 C381.053846,393.274816 380.396259,396.015515 378.529666,396.352172 C376.526523,396.713457 375.172822,393.568388 373.29987,392.817407 C371.482882,392.088865 362.623579,391.93467 367.338781,386.770756 C372.053982,381.606842 379.905136,384.044885 385.784068,379.145176 C391.663,374.245466 389.241653,367.736142 392.593125,365.722893 Z M389.199833,367.018946 C390.04065,368.337933 389.275949,371.252802 386.905732,375.763553 L381.727123,380.017258 L371.869847,382.45656 L376.584874,374.737753 L382.643898,369.078028 C386.173705,366.38632 388.359016,365.69996 389.199833,367.018946 Z M389.445989,363.431548 C391.816953,361.670913 393.116805,360.029423 394.29482,360.029423 C394.590308,360.029423 395.197961,359.799573 395.449126,360.029423 C395.64441,360.208135 397.335383,359.217646 397.377238,359.605412 C397.421012,360.010961 395.612727,361.062184 395.449126,361.697525 C395.255545,362.44929 396.88211,364.415928 396.769399,364.647427 C396.370228,365.467292 393.522385,363.715387 392.141504,364.647427 C390.760622,365.579466 391.482707,366.612275 390.52158,366.757445 C389.885478,366.853522 389.192763,366.104863 388.747523,365.43455 C388.520022,365.092045 386.07467,366.159221 386.016959,365.980769 C385.846303,365.453073 387.075025,365.192184 389.445989,363.431548 Z M377.919273,398.382243 C380.55205,400.233172 381.957574,401.033795 382.207438,404.53068 C382.457302,408.027565 379.682989,408.44509 378.901171,412.124062 C378.119353,415.803034 377.577246,415.501467 378.901171,420.088863 C380.225096,424.676259 383.566206,427.358462 383.566206,428.28839 C383.566206,428.829551 385.071379,432.69118 382.207438,433.756045 C380.149992,434.521041 374.008706,432.667332 371.967449,432.585503 C367.084787,432.38977 361.898934,428.4936 360.368692,427.358462 C358.83845,426.223323 357.032087,422.162235 360.368692,421.054001 C363.705297,419.945766 368.348014,424.119245 370.121127,424.119245 C371.89424,424.119245 375.296628,422.902635 373.165283,421.054001 C371.033938,419.205367 366.056377,419.574507 364.083065,418.882096 C362.109752,418.189685 361.076713,418.674191 360.368692,416.563833 C359.896678,415.156927 360.232805,413.24115 361.377073,410.816501 C362.16729,407.370691 363.069288,405.766731 364.083065,406.00462 C365.096842,406.24251 366.052257,408.282324 366.949311,412.124062 L373.165283,416.563833 L371.967449,410.816501 L366.949311,404.53068 L370.121127,396.033603 C373.564707,396.36541 376.164088,397.14829 377.919273,398.382243 Z M368.928551,394.638804 C369.118711,396.282896 367.870811,399.222795 365.184852,403.458501 C363.825115,403.985659 362.542215,403.985659 361.336152,403.458501 C360.130088,402.931343 359.104452,401.922305 358.259243,400.431387 L359.994617,395.857198 C361.687565,393.419525 362.888104,392.200688 363.596234,392.200688 C364.658429,392.200688 368.643311,392.172666 368.928551,394.638804 Z M357.198583,403.129839 C358.211085,402.617203 358.684163,403.63226 359.490191,404.127198 C360.338799,404.648282 361.501082,404.694402 361.781799,405.934589 C362.329148,408.352734 359.884775,411.008539 359.490191,413.253993 C359.095607,415.499446 359.490191,415.996458 359.490191,418.975409 C359.490191,420.108114 357.695561,421.165678 357.198583,421.954361 C356.949001,422.350437 356.949001,422.814651 357.198583,423.347004 C357.198583,425.101351 357.962452,426.576391 359.490191,427.772124 C360.526751,428.583421 358.32455,429.852929 356.625742,429.8282 C354.568856,429.798259 352.7414,428.329484 351.728971,427.772124 C349.880365,426.754435 349.520527,424.264423 350.6188,422.500887 C351.717073,420.737352 355.352086,422.710058 355.352086,421.954361 C355.352086,421.455321 354.832313,421.14934 353.765513,420.816233 C353.216857,420.644916 351.994106,421.002813 351.728971,420.202973 C351.129131,418.393416 351.474991,420.02109 352.854461,417.569211 C353.270295,416.830106 352.30092,414.752195 352.854461,413.692389 C353.140558,413.14463 355.831938,411.507858 356.082465,411.024402 C357.924655,407.469425 355.368915,404.056212 357.198583,403.129839 Z" id="Combined-Shape" transform="translate(387.493204, 393.970362) scale(-1, -1) translate(-387.493204, -393.970362) "></path>
                <path d="M417.454293,0.328474178 C420.396304,1.6666639 412.905584,3.49739 413.296547,4.99859685 C413.450041,5.58797901 421.790252,3.38507672 422.347267,4.24354952 C424.323047,7.28862609 424.986407,8.61770676 424.986407,11.9369874 C424.986407,15.256268 421.551353,17.8198306 421.551353,22.8391129 C421.551353,27.8583952 424.986407,25.1480117 424.986407,28.5985691 C424.986407,32.0491265 422.506578,35.3204635 421.551353,42.5450382 C420.596128,49.7696128 423.660919,52.0829787 421.551353,54.5786343 C419.441788,57.0742898 413.78919,52.2745782 411.379412,54.5786343 C408.969635,56.8826903 415.580639,54.8523399 419.087098,57.2342369 C422.593558,59.6161339 421.787988,61.819654 421.551353,64.2888607 C421.364064,66.2431654 423.269996,69.2482102 421.551353,72.1784408 C418.558541,75.9397029 414.416853,74.2720571 411.379412,74.2720571 C408.341972,74.2720571 405.93174,76.0497327 401.061953,74.2720571 C396.192166,72.4943814 396.905662,72.6097921 395.362141,68.4250838 C393.81862,64.2403755 394.008075,62.1084532 395.362141,58.8190443 C396.716208,55.5296354 398.173558,54.5786343 401.061953,54.5786343 C403.950348,54.5786343 406.274974,59.8802192 407.886971,58.8190443 C409.498968,57.7578695 405.665425,55.5957809 404.127298,52.9561354 C402.58917,50.31649 398.063772,52.3837881 395.362141,52.9561354 C392.66051,53.5284828 391.389936,60.1526376 391.389936,64.2888607 C391.389936,68.4250838 393.77983,72.6512637 395.362141,74.2720571 C396.944452,75.8928504 398.547963,75.1274063 399.196083,75.8928504 C399.781189,76.5838752 397.89154,77.5605539 396.944452,77.6160339 C394.770695,77.7433716 386.540796,74.5774347 383.888733,72.1784408 C382.127144,70.5849489 380.468026,66.8181005 380.468026,61.4883147 C380.468026,56.1585289 383.888733,56.1412413 383.888733,51.0591981 C383.888733,45.9771549 379.327794,44.9624884 380.468026,42.5450382 C381.608258,40.1275879 386.735517,37.0395188 389.79555,38.5359232 C392.855583,40.0323276 388.357676,47.1063441 389.79555,47.1063441 C391.233424,47.1063441 393.718634,40.715555 398.319649,38.5359232 C402.920664,36.3562914 403.6949,41.1387447 407.886971,38.5359232 C410.681685,36.8007088 412.827569,33.4882575 414.324623,28.5985691 C416.917078,22.0970407 417.960301,18.3515188 417.454293,17.3620034 C416.948285,16.372488 415.905062,19.1500374 414.324623,25.6946515 C411.796172,30.8093972 409.650288,34.3357966 407.886971,36.2738498 C405.241995,39.1809295 404.331733,34.3955326 402.635717,34.3955326 C400.9397,34.3955326 395.228383,39.7313012 392.808444,36.2738498 C390.388505,32.8163983 394.665688,27.6050415 398.319649,22.8391129 C401.973609,18.0731843 403.132464,19.8452803 407.886971,16.6066478 C412.641478,13.3680153 415.503449,12.7435377 414.324623,11.9369874 C413.145796,11.1304371 407.081583,14.1110135 401.061953,11.9369874 C395.042323,9.76296134 396.815684,7.22175172 398.319649,6.1566938 C399.823613,5.09163587 413.357233,-1.53509627 417.454293,0.328474178 Z M392.593125,11.7228935 C395.944597,9.70964513 397.043411,14.4818234 403.535441,14.4818234 C406.581646,14.4818234 404.017562,15.1839782 399.161977,18.8369285 C397.118792,20.3740559 396.776698,20.3960515 394.070062,25.1451756 C391.908258,28.9383236 391.790552,30.759109 390.128346,32.7707558 C389.709425,33.2777454 391.463994,35.9725582 390.79142,36.5384232 C390.205837,37.0310985 386.841813,36.1621511 386.442312,36.5384232 C385.281097,37.6321166 383.708097,38.0784395 382.068641,38.817407 C381.053846,39.2748155 380.396259,42.0155147 378.529666,42.3521721 C376.526523,42.7134574 375.172822,39.5683883 373.29987,38.817407 C371.482882,38.0888648 362.623579,37.9346702 367.338781,32.7707558 C372.053982,27.6068415 379.905136,30.0448849 385.784068,25.1451756 C391.663,20.2454664 389.241653,13.7361419 392.593125,11.7228935 Z M389.199833,13.0189463 C390.04065,14.3379327 389.275949,17.2528017 386.905732,21.7635534 L381.727123,26.0172584 L371.869847,28.4565597 L376.584874,20.737753 L382.643898,15.0780282 C386.173705,12.3863205 388.359016,11.6999598 389.199833,13.0189463 Z M389.445989,9.43154846 C391.816953,7.67091313 393.116805,6.02942265 394.29482,6.02942265 C394.590308,6.02942265 395.197961,5.79957255 395.449126,6.02942265 C395.64441,6.2081348 397.335383,5.21764602 397.377238,5.6054116 C397.421012,6.01096124 395.612727,7.06218389 395.449126,7.697525 C395.255545,8.44928993 396.88211,10.4159277 396.769399,10.6474266 C396.370228,11.4672918 393.522385,9.71538676 392.141504,10.6474266 C390.760622,11.5794665 391.482707,12.6122747 390.52158,12.7574445 C389.885478,12.8535221 389.192763,12.1048627 388.747523,11.4345502 C388.520022,11.0920447 386.07467,12.1592207 386.016959,11.9807691 C385.846303,11.4530726 387.075025,11.1921838 389.445989,9.43154846 Z M377.919273,44.3822429 C380.55205,46.233172 381.957574,47.0337951 382.207438,50.53068 C382.457302,54.027565 379.682989,54.4450902 378.901171,58.124062 C378.119353,61.8030339 377.577246,61.5014674 378.901171,66.0888632 C380.225096,70.676259 383.566206,73.3584616 383.566206,74.2883903 C383.566206,74.8295508 385.071379,78.6911801 382.207438,79.7560454 C380.149992,80.5210414 374.008706,78.6673318 371.967449,78.5855031 C367.084787,78.3897697 361.898934,74.4936003 360.368692,73.3584616 C358.83845,72.2233228 357.032087,68.1622355 360.368692,67.0540008 C363.705297,65.9457661 368.348014,70.1192445 370.121127,70.1192445 C371.89424,70.1192445 375.296628,68.902635 373.165283,67.0540008 C371.033938,65.2053666 366.056377,65.5745075 364.083065,64.8820961 C362.109752,64.1896847 361.076713,64.674191 360.368692,62.5638329 C359.896678,61.1569275 360.232805,59.2411501 361.377073,56.8165009 C362.16729,53.3706913 363.069288,51.7667312 364.083065,52.0046205 C365.096842,52.2425097 366.052257,54.2823236 366.949311,58.124062 L373.165283,62.5638329 L371.967449,56.8165009 L366.949311,50.53068 L370.121127,42.0336034 C373.564707,42.3654103 376.164088,43.1482902 377.919273,44.3822429 Z M368.928551,40.638804 C369.118711,42.2828958 367.870811,45.2227948 365.184852,49.4585008 C363.825115,49.9856589 362.542215,49.9856589 361.336152,49.4585008 C360.130088,48.9313428 359.104452,47.9223049 358.259243,46.4313872 L359.994617,41.8571976 C361.687565,39.4195247 362.888104,38.2006883 363.596234,38.2006883 C364.658429,38.2006883 368.643311,38.1726662 368.928551,40.638804 Z M357.198583,49.129839 C358.211085,48.6172026 358.684163,49.6322601 359.490191,50.127198 C360.338799,50.6482821 361.501082,50.6944021 361.781799,51.9345887 C362.329148,54.3527335 359.884775,57.0085392 359.490191,59.2539926 C359.095607,61.499446 359.490191,61.9964578 359.490191,64.9754094 C359.490191,66.1081136 357.695561,67.165678 357.198583,67.9543611 C356.949001,68.3504365 356.949001,68.8146508 357.198583,69.3470039 C357.198583,71.1013512 357.962452,72.5763913 359.490191,73.7721242 C360.526751,74.5834206 358.32455,75.8529286 356.625742,75.8282 C354.568856,75.798259 352.7414,74.3294836 351.728971,73.7721242 C349.880365,72.7544349 349.520527,70.2644226 350.6188,68.5008871 C351.717073,66.7373516 355.352086,68.7100584 355.352086,67.9543611 C355.352086,67.4553205 354.832313,67.1493403 353.765513,66.8162334 C353.216857,66.6449164 351.994106,67.0028132 351.728971,66.2029734 C351.129131,64.3934156 351.474991,66.0210903 352.854461,63.5692115 C353.270295,62.8301059 352.30092,60.7521954 352.854461,59.6923887 C353.140558,59.1446296 355.831938,57.5078583 356.082465,57.0244016 C357.924655,53.4694252 355.368915,50.0562117 357.198583,49.129839 Z" id="Combined-Shape" transform="translate(387.493204, 39.970362) scale(-1, 1) translate(-387.493204, -39.970362) "></path>
            </g>
            <g id="shape" transform="translate(94.000000, 93.000000)">
                <path d="M221.424148,182.573272 C219.74201,191.757551 215.406747,199.992835 209.257936,206.425148 C209.146184,207.779909 209.359519,208.950826 209.359519,209.618727 C209.359519,212.049855 214.884198,215.523716 216.400526,217.814567 C225.169342,223.510989 229.798835,235.727826 235.649982,245.763888 C243.804529,249.113576 254.167705,248.232545 266.73951,243.120796 C279.090416,235.395216 298.173811,234.938143 323.989694,241.749576 C300.95587,237.692977 281.872475,240.493488 266.73951,250.151111 C257.785175,255.865628 250.208546,257.670708 244.355881,257.662298 C254.617254,268.90733 268.986512,277.193671 287.463655,282.521322 C274.807574,280.446566 263.942584,277.517145 254.868684,273.733058 C257.113401,282.873954 262.179378,290.508933 269.288923,298.102642 C272.664891,301.708516 278.815056,307.003278 287.739421,313.986928 C266.014297,299.713855 253.542052,285.948856 250.322686,272.691931 C249.83286,272.069595 249.387709,271.517143 248.987235,271.034576 C236.555296,264.760285 228.176929,256.551727 223.852133,246.4089 C217.513462,231.542985 207.446317,223.65889 193.650697,222.756614 C191.263033,223.7884 187.82156,224.907413 185.317504,227.411469 C182.415002,230.31397 180.437857,234.589248 179.730798,236.269364 C179.874181,236.907297 180.009704,237.561491 180.136845,238.232326 C183.330704,255.084127 193.989712,269.703657 212.113869,282.090915 C190.199143,269.809012 177.883074,256.846543 175.165661,243.20351 C172.989161,237.687826 170.676888,233.312928 168.228843,230.078816 C166.625698,229.162151 163.975735,226.564061 160.97804,226.564061 C158.536206,226.564061 156.3251,228.287959 154.722571,229.422729 C153.008802,231.181264 150.883333,233.025107 148.276511,234.948838 C131.954121,246.994114 127.220964,262.183784 134.07704,280.517848 C131.16002,275.311092 129.031738,270.448404 127.692197,265.929783 C126.782117,269.268875 125.64469,272.841465 123.998722,276.831723 C115.503751,297.425759 106.774097,306.31534 97.1146794,314.644657 C90.7828071,320.104631 80.6062477,324.223079 66.5850012,327 C90.754995,319.416861 107.543869,303.951433 116.951624,280.603714 C119.687665,273.813539 120.836868,265.547041 122.462301,258.111229 C116.612327,264.578271 108.430311,269.932516 97.9162513,274.173967 L98.9665662,274.181614 C98.3380616,274.24927 97.7373776,274.346652 97.1645144,274.47376 C96.0707773,274.904958 94.9523267,275.324364 93.8091627,275.731976 C90.8882418,277.394904 89.1325182,280.302841 88.5419918,284.455788 C88.4097812,285.385575 88.1751278,286.296357 87.8380317,287.188136 C87.9676152,288.235808 88.2272094,289.244056 88.6168141,290.212881 C89.7843487,293.116174 88.7708988,296.791393 85.5764646,301.238538 C87.4377389,297.869035 88.018433,294.707786 87.318547,291.754789 C87.1477914,291.034328 86.8971152,290.292031 86.6763617,289.55399 C84.1911711,293.637833 79.3824822,297.290649 72.2502949,300.512437 C78.8436194,296.537561 83.0106611,291.64281 84.7514198,285.828183 C85.5103777,283.293048 85.8970057,280.381911 86.8481535,277.979528 C80.6490651,279.788459 73.8317573,281.30239 66.3962302,282.521322 C90.0516789,275.700572 106.974091,264.030374 117.163465,247.510728 C124.010962,236.409142 128.865482,221.816156 139.642384,216.578876 C139.854823,216.475636 140.074457,216.368929 140.301286,216.258753 C140.379414,216.027612 140.451313,215.789989 140.516251,215.545536 C141.721357,211.009054 137.413003,200.118682 136.608392,196.822999 C134.668354,193.325039 133.16051,189.54612 132.158575,185.561222 C122.547317,180.080674 111.484485,178.420451 98.9700796,180.580554 L99.4126029,181.347027 C96.0394878,185.251818 93.5544179,188.12544 91.9573933,189.967894 C88.1155673,194.40013 81.3985579,195.712762 74.9134302,197.195795 C74.6150494,198.754535 74.3825904,199.965563 74.2160532,200.828879 C73.5063268,204.508043 69.4912728,207.155511 66.692138,210.122396 C66.4273087,210.403097 66.170604,210.690432 65.9220239,210.984402 C66.2287834,211.866863 66.4625245,212.540406 66.6232474,213.005031 C67.235718,214.775587 66.1590157,216.925738 65.688676,218.910221 C64.9887899,221.863218 65.5694841,225.024467 67.4307584,228.39397 C64.2363241,223.946825 63.2228743,220.271606 64.3904088,217.368313 C65.0819596,215.648643 65.1363817,214.122506 64.5536753,212.789903 C61.78666,216.87532 60.3440228,222.042291 60.2257635,228.290815 C59.4514791,220.519917 60.2056676,214.538038 62.4883289,210.345179 C62.473942,210.334541 62.4594921,210.323922 62.4449792,210.313322 L62.505721,210.313322 C63.421342,208.6408 64.5812286,207.254182 65.9853806,206.153467 C68.9692916,203.81438 70.5963808,201.159465 70.8666482,198.188724 C70.4508877,198.301939 70.0390572,198.418983 69.6320721,198.540824 C58.0028184,202.022342 48.2133158,210.356425 40.2635643,223.543074 C49.2800578,203.582939 59.9844901,192.721808 72.3768614,190.95968 C79.1541141,189.995992 84.2735471,187.480759 87.7351604,183.413983 C64.5826242,190.644148 35.3375682,184.112894 0,163.820219 C10.8604696,168.616263 21.4505018,172.082856 31.7700966,174.219997 C29.9315897,171.52292 25.2886872,166.43956 22.6287276,161.529487 C20.9222324,158.379433 19.0758933,153.079486 17.08971,145.629646 C19.8437556,152.340047 22.101135,157.021131 23.8618483,159.672898 C27.2297359,164.745192 32.0223069,168.472973 34.7424933,171.732475 C35.9088101,173.130031 36.9771889,174.33441 37.9476298,175.345613 C51.0324983,177.400753 63.6732875,177.272831 75.8699974,174.961847 C81.41902,173.91044 87.1299581,172.385259 92.8165456,171.01321 C92.8562476,170.715575 92.8924688,170.414682 92.9252093,170.110531 L93.3696081,170.880253 C103.764829,168.390694 114.058433,166.481137 123.111518,168.98472 C125.16924,169.553772 127.73918,170.265945 130.821339,171.121237 C131.207919,164.68294 132.882033,158.598513 135.585113,153.130958 C123.761035,134.041786 111.169075,126.307149 97.8092372,129.92704 C92.5526077,131.351341 85.7553778,128.864737 82.2114304,126.441686 C78.0229356,123.577947 74.6285923,114.829673 72.0284005,100.196863 C71.8264878,99.7444389 71.5271352,98.927582 71.1303428,97.7462925 C69.9600793,94.2623043 68.1388531,91.6845257 65.6666643,90.0129565 L58.9911289,86.2450469 C62.6882431,86.8893193 65.7701426,87.8019324 68.2368273,88.9828862 C70.4949506,90.0639886 71.7646072,91.1435723 72.0457972,92.2216371 L74.4394932,76.2416745 C74.5900817,101.875039 78.6965106,117.168926 86.7587801,122.123335 C91.22227,124.866229 100.898846,120.995162 107.145923,122.123335 C123.047023,124.994947 135.374204,130.075595 144.127466,137.365278 C144.997917,137.689481 145.959698,138.072944 146.993477,138.432326 C151.285637,134.748826 156.253739,131.854497 161.681519,129.969314 C161.89601,129.214353 162.076306,128.373943 162.076306,127.488235 C162.076306,125.646253 161.296519,124.000188 161.051081,122.911188 C160.770392,122.235618 160.480294,121.558405 160.180786,120.879548 L159.973014,121.23942 C156.962114,112.054174 149.664197,105.881228 138.07926,102.720582 C126.494324,99.5599363 115.089017,89.9127544 103.863341,73.7790364 C113.100298,84.7361792 123.291393,92.3746846 134.436625,96.6945526 C139.883802,98.8058666 146.054167,100.365594 151.065741,102.955427 C139.715434,77.9832557 137.898157,43.9918193 145.61391,0.981117841 C143.797135,22.3091368 144.738248,42.1109747 148.437249,60.3866313 C148.575245,60.5521134 148.718235,60.7262275 148.866399,60.9091968 C152.80786,65.7765351 160.970533,42.681781 160.970533,46.1500299 C160.970533,48.1270285 155.872143,60.4515644 152.708041,66.7937954 C152.475317,68.4716396 151.952922,70.8473602 151.952922,73.4815178 C151.952922,73.891822 151.965596,74.295856 151.987876,74.691959 C153.898142,81.1424571 156.184783,87.384674 158.847799,93.4186097 C159.826338,95.6358111 160.86835,97.8615568 161.944562,100.093309 C164.162895,101.404443 167.11475,103.311342 168.847135,99.4282507 C174.081938,87.6945957 177.764426,58.9324887 183.519827,52.044503 C188.676982,45.8724906 199.95926,41.9952098 217.366661,40.4126606 C201.830623,44.0172853 191.94638,48.7793502 187.713933,54.6988554 C180.726886,64.4709486 179.742157,104.189727 176.379266,120.361192 C178.012231,122.368405 179.890519,125.502297 182.642754,127.904959 C187.750658,128.606296 192.591002,130.165383 197.019038,132.434993 C197.966857,132.570853 198.782576,132.742528 199.407344,133.016991 C201.521634,130.000133 203.329062,126.455484 204.829627,122.383044 C207.670949,114.671876 212.863463,108.203459 220.407169,102.977793 C220.867085,101.660553 221.250754,100.420875 221.533321,99.3423307 C223.449932,92.0267182 222.067349,88.9993171 225.048943,80.7044485 C233.689821,56.6653103 242.569413,46.2886227 252.394738,36.5659246 C258.835364,30.1925711 269.186713,25.3851632 283.448784,22.1437009 C258.863654,30.9953958 241.786419,49.0479803 232.21708,76.3014543 C229.643584,83.6307701 229.785525,90.7841588 229.057718,98.0114289 C239.930058,92.8307642 254.110044,89.398395 271.597676,87.7143212 C246.272394,93.3886876 228.665121,104.865122 218.775858,122.143625 C215.328374,128.167062 212.537174,135.256928 209.060822,141.371531 C215.948547,148.489076 220.600004,157.852139 221.85702,168.282681 C222.65681,168.269138 223.465502,168.256746 224.2806,168.24919 C231.770195,165.35617 238.302757,161.121663 243.878288,155.545669 L243.438766,155.291911 C243.807208,155.171137 244.165955,155.036568 244.515009,154.888202 C246.261598,152.155862 248.501758,149.88021 251.235492,148.061248 C251.385932,147.846373 251.521545,147.624614 251.64233,147.395969 C251.820323,146.983207 251.987982,146.555738 252.145309,146.113563 C252.498051,144.803708 252.453601,143.309432 252.011959,141.630735 C251.248141,138.727442 251.911154,135.052223 254.000997,130.605078 C252.783326,133.974581 252.403428,137.135831 252.861303,140.088828 C252.982804,140.872434 253.166158,141.681871 253.318903,142.483568 C255.350976,137.329829 259.967661,132.247664 267.168958,127.237075 C261.690387,131.855554 257.871134,136.951101 255.7112,142.523717 C255.245121,143.726198 254.832801,144.999165 254.40618,146.261633 C261.305211,142.942439 270.661627,141.896997 282.475426,143.125306 C266.001921,143.343318 253.948397,149.576727 246.314854,161.825534 C244.214996,165.194972 242.095834,167.680034 240.03517,169.481252 C258.884289,172.699443 268.819749,178.604729 278.50305,185.425646 C285.327481,190.232774 291.872873,199.164039 298.139225,212.219441 C284.681468,190.438103 265.647865,177.94788 241.038416,174.748771 C237.219608,174.252345 231.859344,174.277567 226.257315,174.451619 C229.695167,177.467375 233.176801,181.883843 236.250938,188.262376 C243.697536,203.713334 257.77716,215.075961 278.48981,222.350257 C254.14302,216.158797 238.891677,206.825647 232.735781,194.350807 C228.756702,188.980118 224.986158,185.054273 221.424148,182.573272 Z M173.917605,220.446115 C173.489587,220.422192 173.063136,220.392283 172.638334,220.356467 C172.893603,220.677641 173.146867,221.010865 173.397599,221.356525 C173.558392,221.048107 173.731729,220.744382 173.917605,220.446115 Z M250.08087,271.612986 C250.078092,271.599459 250.075324,271.585934 250.072565,271.572409 C250.001468,271.537815 249.930499,271.50316 249.859658,271.468444 C249.933985,271.516662 250.007788,271.564858 250.08087,271.612986 Z" id="Combined-Shape" fill="#FF4E71"></path>
                <path d="M153.693111,165.296053 C149.311728,165.296053 145.759916,161.712367 145.759916,157.291667 C145.759916,152.870966 149.311728,149.287281 153.693111,149.287281 C158.074493,149.287281 161.626305,152.870966 161.626305,157.291667 C161.626305,161.712367 158.074493,165.296053 153.693111,165.296053 Z M181.617954,155.210526 C176.360295,155.210526 172.098121,150.910104 172.098121,145.605263 C172.098121,140.300423 176.360295,136 181.617954,136 C186.875613,136 191.137787,140.300423 191.137787,145.605263 C191.137787,150.910104 186.875613,155.210526 181.617954,155.210526 Z M206.845511,173.780702 C201.237342,173.780702 196.691023,169.193584 196.691023,163.535088 C196.691023,157.876591 201.237342,153.289474 206.845511,153.289474 C212.453681,153.289474 217,157.876591 217,163.535088 C217,169.193584 212.453681,173.780702 206.845511,173.780702 Z M145.759916,185.14693 C143.131087,185.14693 141,182.996718 141,180.344298 C141,177.691878 143.131087,175.541667 145.759916,175.541667 C148.388746,175.541667 150.519833,177.691878 150.519833,180.344298 C150.519833,182.996718 148.388746,185.14693 145.759916,185.14693 Z M154.169102,201.796053 C152.416549,201.796053 150.995825,200.362578 150.995825,198.594298 C150.995825,196.826018 152.416549,195.392544 154.169102,195.392544 C155.921655,195.392544 157.34238,196.826018 157.34238,198.594298 C157.34238,200.362578 155.921655,201.796053 154.169102,201.796053 Z M167.814196,209 C166.762665,209 165.91023,208.139915 165.91023,207.078947 C165.91023,206.017979 166.762665,205.157895 167.814196,205.157895 C168.865728,205.157895 169.718163,206.017979 169.718163,207.078947 C169.718163,208.139915 168.865728,209 167.814196,209 Z" id="Combined-Shape" fill="#FFFFFF"></path>
                <circle id="nucleus" fill="#FFFFFF" cx="176.5" cy="178.5" r="14.5"></circle>
            </g>
        </g>
    </g>
</svg>