<?xml version="1.0" encoding="UTF-8"?>
<svg width="512px" height="512px" viewBox="0 0 512 512" version="1.1" xmlns="http://www.w3.org/2000/svg" xmlns:xlink="http://www.w3.org/1999/xlink">
    <!-- Generator: Sketch 51.1 (57501) - http://www.bohemiancoding.com/sketch -->
    <title>neuron</title>
    <desc>Created with Sketch.</desc>
    <defs>
        <radialGradient cx="50%" cy="51.7214674%" fx="50%" fy="51.7214674%" r="67.780988%" id="radialGradient-1">
            <stop stop-color="#FFFFFF" offset="0%"></stop>
            <stop stop-color="#9ADFC9" offset="100%"></stop>
        </radialGradient>
        <rect id="path-2" x="0" y="0" width="512" height="512" rx="96"></rect>
        <filter x="-0.6%" y="-0.6%" width="101.2%" height="101.2%" filterUnits="objectBoundingBox" id="filter-3">
            <feGaussianBlur stdDeviation="2" in="SourceAlpha" result="shadowBlurInner1"></feGaussianBlur>
            <feOffset dx="2" dy="2" in="shadowBlurInner1" result="shadowOffsetInner1"></feOffset>
            <feComposite in="shadowOffsetInner1" in2="SourceAlpha" operator="arithmetic" k2="-1" k3="1" result="shadowInnerInner1"></feComposite>
            <feColorMatrix values="0 0 0 0 0.980973639   0 0 0 0 0.141897465   0 0 0 0 0.141897465  0 0 0 0.5 0" type="matrix" in="shadowInnerInner1"></feColorMatrix>
        </filter>
    </defs>
    <g id="Page-1" stroke="none" stroke-width="1" fill="none" fill-rule="evenodd">
        <g id="neuron">
            <g id="background">
                <use fill="url(#radialGradient-1)" fill-rule="evenodd" xlink:href="#path-2"></use>
                <use fill="black" fill-opacity="1" filter="url(#filter-3)" xlink:href="#path-2"></use>
                <rect stroke="#A8E1CF" stroke-width="4" stroke-linejoin="square" x="2" y="2" width="508" height="508" rx="96"></rect>
            </g>
            <g id="frame" transform="translate(256.500000, 256.500000) scale(-1, 1) translate(-256.500000, -256.500000) translate(47.000000, 41.000000)" fill="#FFFFFF" stroke="#EEF6E4" stroke-width="2">
                <g id="cerebrum_upper" transform="translate(369.000000, 393.500000) scale(-1, -1) translate(-369.000000, -393.500000) translate(319.000000, 356.000000)">
                    <path d="M1.06000216,51.1114363 C2.21615105,49.2632947 0.972115108,57.3876072 7.88266462,62.7205764 C10.0969719,64.4293887 15.397694,66.4053663 23.7848309,68.6485092 L21.2803328,74.3297164 C15.2155403,72.7951221 10.7496509,70.9013864 7.88266462,68.6485092 C5.01567837,66.395632 2.74145755,62.9929905 1.06000216,58.4405846 C0.289236229,54.7865801 0.289236229,52.3435307 1.06000216,51.1114363 Z" id="Path-23"></path>
                    <path d="M23.9833312,68.3930112 L27.587929,62.2218785 C19.3344044,61.6743567 13.7923649,60.3601067 10.9618104,58.2791284 C6.71597862,55.157661 2.40391855,43.6643042 0.801306183,42.528783 C-0.267102061,41.7717689 -0.267102061,44.622163 0.801306183,51.0799653 C3.28035967,57.273018 5.81443674,61.3363541 8.40353741,63.2699737 C10.9926381,65.2035934 16.1859027,66.9112725 23.9833312,68.3930112 Z" id="Path-24"></path>
                    <path d="M27.6218802,61.9054528 L32.1229062,56.152732 C23.9710613,52.9689665 18.2043737,50.0927044 14.8228435,47.5239458 C9.75054825,43.6708078 3.61986219,34.1774444 1.8320101,33.1424387 C0.0441580138,32.1074331 0.826662546,37.5200578 0.596839323,39.288368 C0.44362384,40.4672414 0.44362384,41.5864897 0.596839323,42.646113 C4.60397392,51.2644295 8.0441183,56.5973614 10.9172725,58.6449088 C13.7904266,60.6924563 19.3586292,61.7793042 27.6218802,61.9054528 Z" id="Path-25"></path>
                    <path d="M32.3609945,56.1641656 L38.6851068,49.6817871 C19.7108191,32.3727573 8.81658994,23.0904714 6.00241945,21.8349294 C1.7811637,19.9516163 -1.04092897,25.1007361 1.36768942,33.032623 C3.7763078,40.9645098 8.91557054,44.1053248 13.8932216,47.8203448 C17.2116556,50.2970247 23.3675799,53.0782983 32.3609945,56.1641656 Z" id="Path-26"></path>
                    <path d="M38.7594557,49.7166494 L45.7420424,44.9802805 C27.2749807,25.0939808 16.6343646,14.5230599 13.8201941,13.2675178 C9.59893838,11.3842048 3.17665365,14.9194454 5.58527203,22.8513322 C7.99389042,30.7832191 14.5103591,35.7680526 19.4880101,39.4830725 C22.8064441,41.9597525 29.2302593,45.3709448 38.7594557,49.7166494 Z" id="Path-26"></path>
                    <path d="M45.9463642,45.6687031 C31.4904148,35.1214458 21.4348589,26.9879824 15.7796963,21.2683129 C7.29695249,12.6888087 12.7706186,-1.30117921 28.6606131,10.6514847 C39.2539428,18.6199273 47.7203696,29.5806204 54.0598935,43.5335639 L45.9463642,45.6687031 Z" id="Path-27"></path>
                    <path d="M53.645413,43.2714767 C37.7986802,29.1148072 28.0997594,17.470745 24.5486507,8.33929012 C22.6011232,3.33134426 26.8508646,-6.22528896 39.0970319,5.86122039 C47.2611434,13.9188933 53.7358637,25.9214596 58.5211927,41.8689192 L53.645413,43.2714767 Z" id="Path-28"></path>
                    <path d="M58.7625133,42.598522 C46.6447503,22.5745631 40.399429,10.5209155 40.0265494,6.43757905 C39.4672302,0.312574405 47.8468332,-3.6166438 55.5705502,7.64390937 C60.7196949,15.1509448 63.806069,26.8024823 64.8296727,42.598522 L58.7625133,42.598522 Z" id="Path-29"></path>
                    <path d="M64.9438898,41.5908005 C58.3906887,23.5230837 55.4002478,12.2509189 55.9725672,7.77430594 C56.8310462,1.05938651 64.8448923,1.39483892 68.941319,10.3233912 C71.6722702,16.2757595 72.5210309,26.6982292 71.4876011,41.5908005 L64.9438898,41.5908005 Z" id="Path-30"></path>
                    <path d="M71.8921634,41.6785927 C69.1193975,26.0366448 68.2838638,15.8658212 69.3855622,11.1661219 C70.9974661,4.28995352 76.8060212,6.4071954 78.4210662,13.8271582 C79.4977629,18.7738 78.6997315,28.0576115 76.0269721,41.6785927 L71.8921634,41.6785927 Z" id="Path-31"></path>
                    <path d="M76.1445783,41.2946378 L78.8000242,13.6891814 C83.579211,10.1133412 86.0930331,11.0548598 86.3414905,16.5137372 C86.5899479,21.9726146 84.4949409,30.2329148 80.0564694,41.2946378 L76.1445783,41.2946378 Z" id="Path-32"></path>
                    <path d="M80.7228916,40.9435919 L86.4712331,16.6567441 C89.2240453,14.8487115 91.3251087,15.5069826 92.7744231,18.6315572 C94.2237375,21.7561319 91.4699935,29.1934768 84.5131912,40.9435919 L80.7228916,40.9435919 Z" id="Path-33"></path>
                    <path d="M84.8192771,40.8184426 L93.073521,19.2499328 C93.8119213,17.6096126 95.228625,18.1236976 97.323632,20.7921878 C99.4186391,23.460678 96.9378936,30.4827018 89.8813955,41.8582593 L84.8192771,40.8184426 Z" id="Path-34"></path>
                    <path d="M90.3614458,41.6096855 C92.9996483,30.3781654 95.4007305,23.5785934 97.5646922,21.2109695 C98.9797559,19.6627263 100.398883,25.6698233 99.6834584,31.4103275 C99.2065088,35.2373302 97.6528401,38.6371162 95.0224521,41.6096855 L90.3614458,41.6096855 Z" id="Path-35"></path>
                </g>
                <g id="cerebrum_upper" transform="translate(50.000000, 393.500000) scale(1, -1) translate(-50.000000, -393.500000) translate(0.000000, 356.000000)">
                    <path d="M1.06000216,51.1114363 C2.21615105,49.2632947 0.972115108,57.3876072 7.88266462,62.7205764 C10.0969719,64.4293887 15.397694,66.4053663 23.7848309,68.6485092 L21.2803328,74.3297164 C15.2155403,72.7951221 10.7496509,70.9013864 7.88266462,68.6485092 C5.01567837,66.395632 2.74145755,62.9929905 1.06000216,58.4405846 C0.289236229,54.7865801 0.289236229,52.3435307 1.06000216,51.1114363 Z" id="Path-23"></path>
                    <path d="M23.9833312,68.3930112 L27.587929,62.2218785 C19.3344044,61.6743567 13.7923649,60.3601067 10.9618104,58.2791284 C6.71597862,55.157661 2.40391855,43.6643042 0.801306183,42.528783 C-0.267102061,41.7717689 -0.267102061,44.622163 0.801306183,51.0799653 C3.28035967,57.273018 5.81443674,61.3363541 8.40353741,63.2699737 C10.9926381,65.2035934 16.1859027,66.9112725 23.9833312,68.3930112 Z" id="Path-24"></path>
                    <path d="M27.6218802,61.9054528 L32.1229062,56.152732 C23.9710613,52.9689665 18.2043737,50.0927044 14.8228435,47.5239458 C9.75054825,43.6708078 3.61986219,34.1774444 1.8320101,33.1424387 C0.0441580138,32.1074331 0.826662546,37.5200578 0.596839323,39.288368 C0.44362384,40.4672414 0.44362384,41.5864897 0.596839323,42.646113 C4.60397392,51.2644295 8.0441183,56.5973614 10.9172725,58.6449088 C13.7904266,60.6924563 19.3586292,61.7793042 27.6218802,61.9054528 Z" id="Path-25"></path>
                    <path d="M32.3609945,56.1641656 L38.6851068,49.6817871 C19.7108191,32.3727573 8.81658994,23.0904714 6.00241945,21.8349294 C1.7811637,19.9516163 -1.04092897,25.1007361 1.36768942,33.032623 C3.7763078,40.9645098 8.91557054,44.1053248 13.8932216,47.8203448 C17.2116556,50.2970247 23.3675799,53.0782983 32.3609945,56.1641656 Z" id="Path-26"></path>
                    <path d="M38.7594557,49.7166494 L45.7420424,44.9802805 C27.2749807,25.0939808 16.6343646,14.5230599 13.8201941,13.2675178 C9.59893838,11.3842048 3.17665365,14.9194454 5.58527203,22.8513322 C7.99389042,30.7832191 14.5103591,35.7680526 19.4880101,39.4830725 C22.8064441,41.9597525 29.2302593,45.3709448 38.7594557,49.7166494 Z" id="Path-26"></path>
                    <path d="M45.9463642,45.6687031 C31.4904148,35.1214458 21.4348589,26.9879824 15.7796963,21.2683129 C7.29695249,12.6888087 12.7706186,-1.30117921 28.6606131,10.6514847 C39.2539428,18.6199273 47.7203696,29.5806204 54.0598935,43.5335639 L45.9463642,45.6687031 Z" id="Path-27"></path>
                    <path d="M53.645413,43.2714767 C37.7986802,29.1148072 28.0997594,17.470745 24.5486507,8.33929012 C22.6011232,3.33134426 26.8508646,-6.22528896 39.0970319,5.86122039 C47.2611434,13.9188933 53.7358637,25.9214596 58.5211927,41.8689192 L53.645413,43.2714767 Z" id="Path-28"></path>
                    <path d="M58.7625133,42.598522 C46.6447503,22.5745631 40.399429,10.5209155 40.0265494,6.43757905 C39.4672302,0.312574405 47.8468332,-3.6166438 55.5705502,7.64390937 C60.7196949,15.1509448 63.806069,26.8024823 64.8296727,42.598522 L58.7625133,42.598522 Z" id="Path-29"></path>
                    <path d="M64.9438898,41.5908005 C58.3906887,23.5230837 55.4002478,12.2509189 55.9725672,7.77430594 C56.8310462,1.05938651 64.8448923,1.39483892 68.941319,10.3233912 C71.6722702,16.2757595 72.5210309,26.6982292 71.4876011,41.5908005 L64.9438898,41.5908005 Z" id="Path-30"></path>
                    <path d="M71.8921634,41.6785927 C69.1193975,26.0366448 68.2838638,15.8658212 69.3855622,11.1661219 C70.9974661,4.28995352 76.8060212,6.4071954 78.4210662,13.8271582 C79.4977629,18.7738 78.6997315,28.0576115 76.0269721,41.6785927 L71.8921634,41.6785927 Z" id="Path-31"></path>
                    <path d="M76.1445783,41.2946378 L78.8000242,13.6891814 C83.579211,10.1133412 86.0930331,11.0548598 86.3414905,16.5137372 C86.5899479,21.9726146 84.4949409,30.2329148 80.0564694,41.2946378 L76.1445783,41.2946378 Z" id="Path-32"></path>
                    <path d="M80.7228916,40.9435919 L86.4712331,16.6567441 C89.2240453,14.8487115 91.3251087,15.5069826 92.7744231,18.6315572 C94.2237375,21.7561319 91.4699935,29.1934768 84.5131912,40.9435919 L80.7228916,40.9435919 Z" id="Path-33"></path>
                    <path d="M84.8192771,40.8184426 L93.073521,19.2499328 C93.8119213,17.6096126 95.228625,18.1236976 97.323632,20.7921878 C99.4186391,23.460678 96.9378936,30.4827018 89.8813955,41.8582593 L84.8192771,40.8184426 Z" id="Path-34"></path>
                    <path d="M90.3614458,41.6096855 C92.9996483,30.3781654 95.4007305,23.5785934 97.5646922,21.2109695 C98.9797559,19.6627263 100.398883,25.6698233 99.6834584,31.4103275 C99.2065088,35.2373302 97.6528401,38.6371162 95.0224521,41.6096855 L90.3614458,41.6096855 Z" id="Path-35"></path>
                </g>
                <g id="cerebrum_upper" transform="translate(369.000000, 37.500000) scale(-1, 1) translate(-369.000000, -37.500000) translate(319.000000, 0.000000)">
                    <path d="M1.06000216,51.1114363 C2.21615105,49.2632947 0.972115108,57.3876072 7.88266462,62.7205764 C10.0969719,64.4293887 15.397694,66.4053663 23.7848309,68.6485092 L21.2803328,74.3297164 C15.2155403,72.7951221 10.7496509,70.9013864 7.88266462,68.6485092 C5.01567837,66.395632 2.74145755,62.9929905 1.06000216,58.4405846 C0.289236229,54.7865801 0.289236229,52.3435307 1.06000216,51.1114363 Z" id="Path-23"></path>
                    <path d="M23.9833312,68.3930112 L27.587929,62.2218785 C19.3344044,61.6743567 13.7923649,60.3601067 10.9618104,58.2791284 C6.71597862,55.157661 2.40391855,43.6643042 0.801306183,42.528783 C-0.267102061,41.7717689 -0.267102061,44.622163 0.801306183,51.0799653 C3.28035967,57.273018 5.81443674,61.3363541 8.40353741,63.2699737 C10.9926381,65.2035934 16.1859027,66.9112725 23.9833312,68.3930112 Z" id="Path-24"></path>
                    <path d="M27.6218802,61.9054528 L32.1229062,56.152732 C23.9710613,52.9689665 18.2043737,50.0927044 14.8228435,47.5239458 C9.75054825,43.6708078 3.61986219,34.1774444 1.8320101,33.1424387 C0.0441580138,32.1074331 0.826662546,37.5200578 0.596839323,39.288368 C0.44362384,40.4672414 0.44362384,41.5864897 0.596839323,42.646113 C4.60397392,51.2644295 8.0441183,56.5973614 10.9172725,58.6449088 C13.7904266,60.6924563 19.3586292,61.7793042 27.6218802,61.9054528 Z" id="Path-25"></path>
                    <path d="M32.3609945,56.1641656 L38.6851068,49.6817871 C19.7108191,32.3727573 8.81658994,23.0904714 6.00241945,21.8349294 C1.7811637,19.9516163 -1.04092897,25.1007361 1.36768942,33.032623 C3.7763078,40.9645098 8.91557054,44.1053248 13.8932216,47.8203448 C17.2116556,50.2970247 23.3675799,53.0782983 32.3609945,56.1641656 Z" id="Path-26"></path>
                    <path d="M38.7594557,49.7166494 L45.7420424,44.9802805 C27.2749807,25.0939808 16.6343646,14.5230599 13.8201941,13.2675178 C9.59893838,11.3842048 3.17665365,14.9194454 5.58527203,22.8513322 C7.99389042,30.7832191 14.5103591,35.7680526 19.4880101,39.4830725 C22.8064441,41.9597525 29.2302593,45.3709448 38.7594557,49.7166494 Z" id="Path-26"></path>
                    <path d="M45.9463642,45.6687031 C31.4904148,35.1214458 21.4348589,26.9879824 15.7796963,21.2683129 C7.29695249,12.6888087 12.7706186,-1.30117921 28.6606131,10.6514847 C39.2539428,18.6199273 47.7203696,29.5806204 54.0598935,43.5335639 L45.9463642,45.6687031 Z" id="Path-27"></path>
                    <path d="M53.645413,43.2714767 C37.7986802,29.1148072 28.0997594,17.470745 24.5486507,8.33929012 C22.6011232,3.33134426 26.8508646,-6.22528896 39.0970319,5.86122039 C47.2611434,13.9188933 53.7358637,25.9214596 58.5211927,41.8689192 L53.645413,43.2714767 Z" id="Path-28"></path>
                    <path d="M58.7625133,42.598522 C46.6447503,22.5745631 40.399429,10.5209155 40.0265494,6.43757905 C39.4672302,0.312574405 47.8468332,-3.6166438 55.5705502,7.64390937 C60.7196949,15.1509448 63.806069,26.8024823 64.8296727,42.598522 L58.7625133,42.598522 Z" id="Path-29"></path>
                    <path d="M64.9438898,41.5908005 C58.3906887,23.5230837 55.4002478,12.2509189 55.9725672,7.77430594 C56.8310462,1.05938651 64.8448923,1.39483892 68.941319,10.3233912 C71.6722702,16.2757595 72.5210309,26.6982292 71.4876011,41.5908005 L64.9438898,41.5908005 Z" id="Path-30"></path>
                    <path d="M71.8921634,41.6785927 C69.1193975,26.0366448 68.2838638,15.8658212 69.3855622,11.1661219 C70.9974661,4.28995352 76.8060212,6.4071954 78.4210662,13.8271582 C79.4977629,18.7738 78.6997315,28.0576115 76.0269721,41.6785927 L71.8921634,41.6785927 Z" id="Path-31"></path>
                    <path d="M76.1445783,41.2946378 L78.8000242,13.6891814 C83.579211,10.1133412 86.0930331,11.0548598 86.3414905,16.5137372 C86.5899479,21.9726146 84.4949409,30.2329148 80.0564694,41.2946378 L76.1445783,41.2946378 Z" id="Path-32"></path>
                    <path d="M80.7228916,40.9435919 L86.4712331,16.6567441 C89.2240453,14.8487115 91.3251087,15.5069826 92.7744231,18.6315572 C94.2237375,21.7561319 91.4699935,29.1934768 84.5131912,40.9435919 L80.7228916,40.9435919 Z" id="Path-33"></path>
                    <path d="M84.8192771,40.8184426 L93.073521,19.2499328 C93.8119213,17.6096126 95.228625,18.1236976 97.323632,20.7921878 C99.4186391,23.460678 96.9378936,30.4827018 89.8813955,41.8582593 L84.8192771,40.8184426 Z" id="Path-34"></path>
                    <path d="M90.3614458,41.6096855 C92.9996483,30.3781654 95.4007305,23.5785934 97.5646922,21.2109695 C98.9797559,19.6627263 100.398883,25.6698233 99.6834584,31.4103275 C99.2065088,35.2373302 97.6528401,38.6371162 95.0224521,41.6096855 L90.3614458,41.6096855 Z" id="Path-35"></path>
                </g>
                <g id="cerebrum_upper" transform="translate(9.000000, 0.000000)">
                    <path d="M1.06000216,51.1114363 C2.21615105,49.2632947 0.972115108,57.3876072 7.88266462,62.7205764 C10.0969719,64.4293887 15.397694,66.4053663 23.7848309,68.6485092 L21.2803328,74.3297164 C15.2155403,72.7951221 10.7496509,70.9013864 7.88266462,68.6485092 C5.01567837,66.395632 2.74145755,62.9929905 1.06000216,58.4405846 C0.289236229,54.7865801 0.289236229,52.3435307 1.06000216,51.1114363 Z" id="Path-23"></path>
                    <path d="M23.9833312,68.3930112 L27.587929,62.2218785 C19.3344044,61.6743567 13.7923649,60.3601067 10.9618104,58.2791284 C6.71597862,55.157661 2.40391855,43.6643042 0.801306183,42.528783 C-0.267102061,41.7717689 -0.267102061,44.622163 0.801306183,51.0799653 C3.28035967,57.273018 5.81443674,61.3363541 8.40353741,63.2699737 C10.9926381,65.2035934 16.1859027,66.9112725 23.9833312,68.3930112 Z" id="Path-24"></path>
                    <path d="M27.6218802,61.9054528 L32.1229062,56.152732 C23.9710613,52.9689665 18.2043737,50.0927044 14.8228435,47.5239458 C9.75054825,43.6708078 3.61986219,34.1774444 1.8320101,33.1424387 C0.0441580138,32.1074331 0.826662546,37.5200578 0.596839323,39.288368 C0.44362384,40.4672414 0.44362384,41.5864897 0.596839323,42.646113 C4.60397392,51.2644295 8.0441183,56.5973614 10.9172725,58.6449088 C13.7904266,60.6924563 19.3586292,61.7793042 27.6218802,61.9054528 Z" id="Path-25"></path>
                    <path d="M32.3609945,56.1641656 L38.6851068,49.6817871 C19.7108191,32.3727573 8.81658994,23.0904714 6.00241945,21.8349294 C1.7811637,19.9516163 -1.04092897,25.1007361 1.36768942,33.032623 C3.7763078,40.9645098 8.91557054,44.1053248 13.8932216,47.8203448 C17.2116556,50.2970247 23.3675799,53.0782983 32.3609945,56.1641656 Z" id="Path-26"></path>
                    <path d="M38.7594557,49.7166494 L45.7420424,44.9802805 C27.2749807,25.0939808 16.6343646,14.5230599 13.8201941,13.2675178 C9.59893838,11.3842048 3.17665365,14.9194454 5.58527203,22.8513322 C7.99389042,30.7832191 14.5103591,35.7680526 19.4880101,39.4830725 C22.8064441,41.9597525 29.2302593,45.3709448 38.7594557,49.7166494 Z" id="Path-26"></path>
                    <path d="M45.9463642,45.6687031 C31.4904148,35.1214458 21.4348589,26.9879824 15.7796963,21.2683129 C7.29695249,12.6888087 12.7706186,-1.30117921 28.6606131,10.6514847 C39.2539428,18.6199273 47.7203696,29.5806204 54.0598935,43.5335639 L45.9463642,45.6687031 Z" id="Path-27"></path>
                    <path d="M53.645413,43.2714767 C37.7986802,29.1148072 28.0997594,17.470745 24.5486507,8.33929012 C22.6011232,3.33134426 26.8508646,-6.22528896 39.0970319,5.86122039 C47.2611434,13.9188933 53.7358637,25.9214596 58.5211927,41.8689192 L53.645413,43.2714767 Z" id="Path-28"></path>
                    <path d="M58.7625133,42.598522 C46.6447503,22.5745631 40.399429,10.5209155 40.0265494,6.43757905 C39.4672302,0.312574405 47.8468332,-3.6166438 55.5705502,7.64390937 C60.7196949,15.1509448 63.806069,26.8024823 64.8296727,42.598522 L58.7625133,42.598522 Z" id="Path-29"></path>
                    <path d="M64.9438898,41.5908005 C58.3906887,23.5230837 55.4002478,12.2509189 55.9725672,7.77430594 C56.8310462,1.05938651 64.8448923,1.39483892 68.941319,10.3233912 C71.6722702,16.2757595 72.5210309,26.6982292 71.4876011,41.5908005 L64.9438898,41.5908005 Z" id="Path-30"></path>
                    <path d="M71.8921634,41.6785927 C69.1193975,26.0366448 68.2838638,15.8658212 69.3855622,11.1661219 C70.9974661,4.28995352 76.8060212,6.4071954 78.4210662,13.8271582 C79.4977629,18.7738 78.6997315,28.0576115 76.0269721,41.6785927 L71.8921634,41.6785927 Z" id="Path-31"></path>
                    <path d="M76.1445783,41.2946378 L78.8000242,13.6891814 C83.579211,10.1133412 86.0930331,11.0548598 86.3414905,16.5137372 C86.5899479,21.9726146 84.4949409,30.2329148 80.0564694,41.2946378 L76.1445783,41.2946378 Z" id="Path-32"></path>
                    <path d="M80.7228916,40.9435919 L86.4712331,16.6567441 C89.2240453,14.8487115 91.3251087,15.5069826 92.7744231,18.6315572 C94.2237375,21.7561319 91.4699935,29.1934768 84.5131912,40.9435919 L80.7228916,40.9435919 Z" id="Path-33"></path>
                    <path d="M84.8192771,40.8184426 L93.073521,19.2499328 C93.8119213,17.6096126 95.228625,18.1236976 97.323632,20.7921878 C99.4186391,23.460678 96.9378936,30.4827018 89.8813955,41.8582593 L84.8192771,40.8184426 Z" id="Path-34"></path>
                    <path d="M90.3614458,41.6096855 C92.9996483,30.3781654 95.4007305,23.5785934 97.5646922,21.2109695 C98.9797559,19.6627263 100.398883,25.6698233 99.6834584,31.4103275 C99.2065088,35.2373302 97.6528401,38.6371162 95.0224521,41.6096855 L90.3614458,41.6096855 Z" id="Path-35"></path>
                </g>
            </g>
            <g id="shape" transform="translate(94.000000, 93.000000)">
                <path d="M221.406209,182.555751 C219.723796,191.740094 215.389157,199.975426 209.241519,206.407933 C209.129776,207.762888 209.343094,208.933972 209.343094,209.601969 C209.343094,212.036424 214.880893,215.51632 216.389107,217.807399 C225.156558,223.505011 229.784441,235.722711 235.635174,245.757933 C243.788912,249.101126 254.149262,248.218398 266.716224,243.109748 C279.068894,235.384774 298.155013,234.927736 323.974582,241.738636 C300.93747,237.682354 281.851351,240.482646 266.716224,250.139512 C257.764232,255.85127 250.189027,257.657059 244.336499,257.650118 C254.597004,268.89476 268.966037,277.18003 287.443597,282.505927 C274.78616,280.432312 263.920298,277.503646 254.846014,273.719929 C257.0911,282.863921 262.15872,290.501319 269.270828,298.097655 C272.647303,301.704018 278.798252,306.99963 287.723676,313.984493 C265.994507,299.707396 253.520076,285.939496 250.300384,272.680792 C249.809742,272.05733 249.363959,271.504053 248.963034,271.02096 C236.533689,264.748112 228.157353,256.540919 223.834024,246.39938 C217.494339,231.52793 207.422397,223.644347 193.618199,222.748631 C191.231104,223.778481 187.800834,224.898595 185.302966,227.396463 C182.399493,230.299936 180.421609,234.576653 179.714693,236.256227 C179.858218,236.89445 179.993878,237.548946 180.12115,238.220097 C183.316976,255.072793 193.977944,269.693972 212.104054,282.083633 C190.187265,269.798911 177.869366,256.834663 175.150357,243.19089 C172.972307,237.672585 170.658497,233.295998 168.208929,230.061131 C166.605231,229.140936 163.958688,226.549722 160.965411,226.549722 C158.523768,226.549722 156.312836,228.273866 154.710433,229.408798 C152.996799,231.167583 150.871497,233.01169 148.264878,234.935696 C131.943769,246.982692 127.210984,262.17453 134.066522,280.511211 C131.14973,275.303713 129.021616,270.44033 127.68218,265.921064 C126.772171,269.260633 125.634834,272.833733 123.988995,276.82456 C115.49469,297.421537 106.765721,306.312387 97.1070607,314.642893 C90.7756852,320.103647 80.5999241,324.222682 66.5797776,327 C90.7478752,319.415778 107.535432,303.948142 116.942449,280.59709 C119.678118,273.806335 120.827256,265.539216 122.452414,258.102674 C116.599444,264.57263 108.411695,269.928285 97.8891686,274.169641 L98.9597574,274.177537 C98.3134537,274.24704 97.6965698,274.347974 97.1091057,274.480339 C96.0431409,274.899877 94.9537301,275.308226 93.8408732,275.705384 C90.8965849,277.364285 89.1280457,280.279315 88.5352554,284.450475 C88.4030915,285.380444 88.1684263,286.29139 87.8312598,287.183315 C87.9608641,288.230885 88.2204931,289.239036 88.6101466,290.207768 C89.7778478,293.110833 88.7642533,296.785764 85.5693629,301.23256 C87.430903,297.863321 88.01168,294.70232 87.311694,291.749554 C87.1409311,291.029221 86.8902519,290.287059 86.6694829,289.549148 C84.1843305,293.632349 79.3757268,297.284363 72.2436716,300.505191 C78.8371921,296.531039 83.0041293,291.6368 84.7444833,285.822475 C85.5042133,283.284303 85.8906131,280.36916 86.8442176,277.965196 C80.6441662,279.773965 73.8256028,281.287542 66.3885274,282.505927 C90.0439824,275.687575 106.965648,264.018874 117.153523,247.499823 C124.000012,236.398638 128.853073,221.805719 139.629743,216.569463 C139.841977,216.46634 140.061392,216.359758 140.287988,216.249714 C140.366996,216.01641 140.43966,215.7765 140.505228,215.529624 C141.710239,210.992494 137.402223,200.100568 136.597675,196.804414 C134.657789,193.305954 133.150064,189.526495 132.148208,185.541029 C122.53722,180.059423 111.474627,178.399072 98.9604285,180.559975 L99.4051361,181.330232 C96.0324731,185.235041 93.547736,188.108677 91.9509249,189.951139 C88.1096873,194.383308 81.3931463,195.695447 74.9084283,197.177952 C74.6099489,198.737791 74.3774317,199.949573 74.2108767,200.813298 C73.5014407,204.492309 69.4862891,207.139332 66.6871936,210.10588 C66.4221957,210.386731 66.1653343,210.674226 65.9166094,210.968366 C66.2236393,211.851408 66.4575674,212.525339 66.6183937,212.99016 C67.2309517,214.760578 66.1540957,216.91056 65.6836888,218.894887 C64.9837028,221.847652 65.5644798,225.008654 67.4260199,228.377892 C64.2311296,223.931096 63.217535,220.256166 64.3852363,217.3531 C65.0770461,215.633166 65.1313409,214.10684 64.5481204,212.774122 C61.7816976,216.859022 60.3396554,222.025401 60.221994,228.273258 C59.4470019,220.503513 60.2003759,214.52241 62.482116,210.329949 C62.4679811,210.319502 62.4537854,210.309073 62.4395289,210.298662 L62.4991903,210.298662 C63.4149237,208.625255 64.5751917,207.238026 65.9799943,206.136975 C68.9646534,203.79767 70.5916948,201.142265 70.8611187,198.17076 C70.445493,198.283916 70.0337958,198.4009 69.6269416,198.52268 C57.9982905,202.003388 48.2098129,210.337263 40.2615085,223.524304 C49.2758813,203.563287 59.9790256,192.702231 72.3709412,190.941136 C79.1500111,189.977719 84.2701399,187.461517 87.7313275,183.39253 C64.5801196,190.625253 35.3363437,184.093383 0,163.796921 C10.8605469,168.594061 21.4506313,172.061331 31.7702533,174.198734 C29.9322373,171.502044 25.2868433,166.417088 22.625539,161.50569 C20.9185929,158.355546 19.0715845,153.055545 17.0845139,145.605687 C19.8394431,152.316196 22.0974684,156.997388 23.8585897,159.649263 C27.2272577,164.721761 32.020605,168.449915 34.7413416,171.709602 C35.9085203,173.107988 36.9776289,174.312984 37.9486672,175.324592 C51.0310802,177.379369 63.6695396,177.251218 75.8640453,174.94014 C81.4124654,173.888615 87.1227785,172.363277 92.80875,170.991064 C92.8482234,170.694651 92.8842455,170.395006 92.9168163,170.092132 L93.3593719,170.858661 C103.754767,168.368406 114.04864,166.457986 123.10186,168.96216 C125.15942,169.531294 127.729159,170.243568 130.811076,171.098982 C131.197626,164.659766 132.871608,158.57447 135.574476,153.106135 C123.751326,134.014237 111.160354,126.278496 97.801564,129.898904 C92.5453469,131.323408 85.7486503,128.836449 82.2049809,126.413052 C78.0168147,123.548904 74.6227377,114.799381 72.0227498,100.164482 C71.8208529,99.7119936 71.5215239,98.8950201 71.1247626,97.7135619 C69.9545909,94.2290763 68.1335076,91.6509296 65.6615127,89.9791218 L58.986501,86.2106742 C62.6833252,86.8550387 65.7649829,87.7677821 68.2314741,88.9489044 C70.4894202,90.0301612 71.7589772,91.109899 72.0401452,92.1881177 L74.4336534,76.2058737 C74.5842301,101.842898 78.6903369,117.138968 86.7519738,122.094084 C91.2151136,124.837371 100.890931,120.965751 107.137517,122.094084 C123.03737,124.966107 135.363584,130.04748 144.116159,137.338204 C144.986542,137.662453 145.948247,138.04597 146.981946,138.405404 C151.273768,134.721378 156.241481,131.826636 161.668835,129.941183 C161.883309,129.186115 162.063592,128.345585 162.063592,127.45975 C162.063592,125.609218 161.276834,123.956396 161.035166,122.867383 C160.755599,122.194723 160.4667,121.520433 160.168471,120.844515 L159.959742,121.206044 C156.949792,112.020283 149.652635,105.847496 138.068269,102.687683 C126.483904,99.5278708 115.079785,89.8809376 103.855914,73.7468838 C113.091609,84.7041001 123.281736,92.3422974 134.426296,96.6614756 C139.872436,98.7721781 146.041613,100.33132 151.052472,102.920295 C139.702371,77.9504033 137.886845,43.9614574 145.605893,0.953456903 C143.787952,22.2773348 144.72759,42.0753889 148.424808,60.3476193 C148.563037,60.5134008 148.706282,60.6878586 148.85472,60.8712069 C152.795872,65.7392402 160.957905,42.6411888 160.957905,46.1099329 C160.957905,48.0872137 155.859915,60.4135092 152.696061,66.7566457 C152.463355,68.4347294 151.941001,70.8107892 151.941001,73.4453229 C151.941001,73.8561705 151.953704,74.2607322 151.976031,74.6573412 C153.8863,81.1080024 156.173077,87.3503336 158.836363,93.3843349 C159.815895,95.6035836 160.859036,97.8313898 161.936419,100.06521 C164.153906,101.376283 167.101973,103.276815 168.833011,99.3963862 C174.068129,87.6609403 177.751973,58.8949495 183.50739,52.0057641 C188.664558,45.8326768 199.946332,41.954276 217.352713,40.3705616 C201.817464,43.9765066 191.933587,48.7397275 187.701082,54.6602242 C180.713645,64.4343643 179.726993,104.161202 176.363081,120.333625 C177.996011,122.340489 179.874282,125.473531 182.62597,127.876197 C187.736063,128.577703 192.578376,130.137946 197.007964,132.409461 C197.952312,132.54498 198.765447,132.716094 199.389142,132.98906 C201.50424,129.971568 203.312165,126.425818 204.812919,122.35181 C207.653548,114.640521 212.845697,108.172344 220.389365,102.947277 C220.849473,101.629303 221.233292,100.388927 221.515942,99.309828 C223.432402,91.993171 222.049927,88.9653377 225.031288,80.6692849 C233.671488,56.6267145 242.550383,46.2485455 252.374937,36.5244592 C258.815058,30.1501958 269.165595,25.3421016 283.426547,22.1001765 C258.843346,30.9531352 241.767451,49.008297 232.198862,76.265662 C229.625189,83.5971048 229.76754,90.7525435 229.039426,97.9819326 C239.9115,92.8023926 254.091451,89.3715344 271.57928,87.689358 C246.253811,93.3611056 228.647242,104.835962 218.759572,122.113927 C215.311975,128.138344 212.521055,135.229711 209.044328,141.344932 C215.931564,148.463506 220.582692,157.827943 221.839615,168.260021 C222.639343,168.246476 223.447971,168.234082 224.263005,168.226525 C231.752909,165.332746 238.285626,161.096967 243.861158,155.519187 L243.419044,155.263932 C243.788757,155.142786 244.148709,155.00775 244.498899,154.858824 C246.244284,152.129202 248.482273,149.855475 251.212866,148.037642 C251.365049,147.82066 251.502097,147.596653 251.624009,147.365619 C251.801321,146.954196 251.968368,146.528166 252.125149,146.087528 C252.478298,144.777483 252.433952,143.282917 251.992109,141.603831 C251.228183,138.700765 251.89129,135.025835 253.981431,130.579039 C252.763586,133.948277 252.383634,137.109279 252.841574,140.062044 C252.963065,140.845405 253.146387,141.654583 253.299132,142.456033 C255.331051,137.302881 259.947548,132.221543 267.148624,127.212019 C261.670016,131.829866 257.850917,136.924929 255.691328,142.497209 C255.225212,143.699905 254.812893,144.973123 254.386246,146.235817 C261.284734,142.916159 270.640407,141.870571 282.453265,143.099054 C265.981053,143.317097 253.928475,149.551396 246.29553,161.801952 C244.195837,165.171871 242.076841,167.657288 240.016339,169.458763 C258.863979,172.677413 268.79866,178.583543 278.481202,185.405433 C285.305097,190.213247 291.849975,199.145787 298.115836,212.203054 C284.659135,190.418606 265.627025,177.9266 241.019506,174.727034 C237.199454,174.230336 231.836821,174.255784 226.232771,174.43005 C229.671828,177.446105 233.154906,181.863257 236.23049,188.243112 C243.67922,203.694426 257.761164,215.058138 278.476321,222.33425 C254.126809,216.140602 238.873238,206.806207 232.715609,194.331066 C228.737288,188.962306 224.967488,185.037202 221.406209,182.555751 Z M173.904236,220.430918 C173.474131,220.406876 173.045608,220.376786 172.61875,220.340732 C172.875288,220.663421 173.129803,220.998275 173.381762,221.345684 C173.54326,221.03577 173.717421,220.730589 173.904236,220.430918 Z M250.058923,271.603545 C250.05591,271.588874 250.052907,271.574203 250.049916,271.559533 C249.972557,271.521896 249.895349,271.484186 249.818293,271.446404 C249.899184,271.498824 249.979478,271.551225 250.058923,271.603545 Z" id="Combined-Shape" fill="#78B893"></path>
                <path d="M153.693111,165.296053 C149.311728,165.296053 145.759916,161.712367 145.759916,157.291667 C145.759916,152.870966 149.311728,149.287281 153.693111,149.287281 C158.074493,149.287281 161.626305,152.870966 161.626305,157.291667 C161.626305,161.712367 158.074493,165.296053 153.693111,165.296053 Z M181.617954,155.210526 C176.360295,155.210526 172.098121,150.910104 172.098121,145.605263 C172.098121,140.300423 176.360295,136 181.617954,136 C186.875613,136 191.137787,140.300423 191.137787,145.605263 C191.137787,150.910104 186.875613,155.210526 181.617954,155.210526 Z M206.845511,173.780702 C201.237342,173.780702 196.691023,169.193584 196.691023,163.535088 C196.691023,157.876591 201.237342,153.289474 206.845511,153.289474 C212.453681,153.289474 217,157.876591 217,163.535088 C217,169.193584 212.453681,173.780702 206.845511,173.780702 Z M145.759916,185.14693 C143.131087,185.14693 141,182.996718 141,180.344298 C141,177.691878 143.131087,175.541667 145.759916,175.541667 C148.388746,175.541667 150.519833,177.691878 150.519833,180.344298 C150.519833,182.996718 148.388746,185.14693 145.759916,185.14693 Z M154.169102,201.796053 C152.416549,201.796053 150.995825,200.362578 150.995825,198.594298 C150.995825,196.826018 152.416549,195.392544 154.169102,195.392544 C155.921655,195.392544 157.34238,196.826018 157.34238,198.594298 C157.34238,200.362578 155.921655,201.796053 154.169102,201.796053 Z M167.814196,209 C166.762665,209 165.91023,208.139915 165.91023,207.078947 C165.91023,206.017979 166.762665,205.157895 167.814196,205.157895 C168.865728,205.157895 169.718163,206.017979 169.718163,207.078947 C169.718163,208.139915 168.865728,209 167.814196,209 Z" id="Combined-Shape" fill="#FFFFFF"></path>
                <circle id="nucleus" fill="#FFFFFF" cx="176.5" cy="178.5" r="14.5"></circle>
            </g>
        </g>
    </g>
</svg>