<?xml version="1.0" encoding="UTF-8"?>
<svg width="512px" height="512px" viewBox="0 0 512 512" version="1.1" xmlns="http://www.w3.org/2000/svg" xmlns:xlink="http://www.w3.org/1999/xlink">
    <!-- Generator: Sketch 51.1 (57501) - http://www.bohemiancoding.com/sketch -->
    <title>neuron</title>
    <desc>Created with Sketch.</desc>
    <defs>
        <radialGradient cx="50%" cy="51.7214674%" fx="50%" fy="51.7214674%" r="69.5040769%" id="radialGradient-1">
            <stop stop-color="#FFFFFF" offset="0%"></stop>
            <stop stop-color="#FFD6F0" offset="100%"></stop>
        </radialGradient>
        <rect id="path-2" x="0" y="0" width="512" height="512" rx="96"></rect>
        <filter x="-0.6%" y="-0.6%" width="101.2%" height="101.2%" filterUnits="objectBoundingBox" id="filter-3">
            <feGaussianBlur stdDeviation="2" in="SourceAlpha" result="shadowBlurInner1"></feGaussianBlur>
            <feOffset dx="2" dy="2" in="shadowBlurInner1" result="shadowOffsetInner1"></feOffset>
            <feComposite in="shadowOffsetInner1" in2="SourceAlpha" operator="arithmetic" k2="-1" k3="1" result="shadowInnerInner1"></feComposite>
            <feColorMatrix values="0 0 0 0 0.980973639   0 0 0 0 0.141897465   0 0 0 0 0.141897465  0 0 0 0.5 0" type="matrix" in="shadowInnerInner1"></feColorMatrix>
        </filter>
    </defs>
    <g id="Page-1" stroke="none" stroke-width="1" fill="none" fill-rule="evenodd">
        <g id="neuron">
            <g id="background">
                <use fill="url(#radialGradient-1)" fill-rule="evenodd" xlink:href="#path-2"></use>
                <use fill="black" fill-opacity="1" filter="url(#filter-3)" xlink:href="#path-2"></use>
                <rect stroke="#FFD5F0" stroke-width="4" stroke-linejoin="square" x="2" y="2" width="508" height="508" rx="96"></rect>
            </g>
            <g id="shape" transform="translate(94.000000, 93.000000)">
                <path d="M221.406209,182.555751 C219.723796,191.740094 215.389157,199.975426 209.241519,206.407933 C209.129776,207.762888 209.343094,208.933972 209.343094,209.601969 C209.343094,212.036424 214.880893,215.51632 216.389107,217.807399 C225.156558,223.505011 229.784441,235.722711 235.635174,245.757933 C243.788912,249.101126 254.149262,248.218398 266.716224,243.109748 C279.068894,235.384774 298.155013,234.927736 323.974582,241.738636 C300.93747,237.682354 281.851351,240.482646 266.716224,250.139512 C257.764232,255.85127 250.189027,257.657059 244.336499,257.650118 C254.597004,268.89476 268.966037,277.18003 287.443597,282.505927 C274.78616,280.432312 263.920298,277.503646 254.846014,273.719929 C257.0911,282.863921 262.15872,290.501319 269.270828,298.097655 C272.647303,301.704018 278.798252,306.99963 287.723676,313.984493 C265.994507,299.707396 253.520076,285.939496 250.300384,272.680792 C249.809742,272.05733 249.363959,271.504053 248.963034,271.02096 C236.533689,264.748112 228.157353,256.540919 223.834024,246.39938 C217.494339,231.52793 207.422397,223.644347 193.618199,222.748631 C191.231104,223.778481 187.800834,224.898595 185.302966,227.396463 C182.399493,230.299936 180.421609,234.576653 179.714693,236.256227 C179.858218,236.89445 179.993878,237.548946 180.12115,238.220097 C183.316976,255.072793 193.977944,269.693972 212.104054,282.083633 C190.187265,269.798911 177.869366,256.834663 175.150357,243.19089 C172.972307,237.672585 170.658497,233.295998 168.208929,230.061131 C166.605231,229.140936 163.958688,226.549722 160.965411,226.549722 C158.523768,226.549722 156.312836,228.273866 154.710433,229.408798 C152.996799,231.167583 150.871497,233.01169 148.264878,234.935696 C131.943769,246.982692 127.210984,262.17453 134.066522,280.511211 C131.14973,275.303713 129.021616,270.44033 127.68218,265.921064 C126.772171,269.260633 125.634834,272.833733 123.988995,276.82456 C115.49469,297.421537 106.765721,306.312387 97.1070607,314.642893 C90.7756852,320.103647 80.5999241,324.222682 66.5797776,327 C90.7478752,319.415778 107.535432,303.948142 116.942449,280.59709 C119.678118,273.806335 120.827256,265.539216 122.452414,258.102674 C116.599444,264.57263 108.411695,269.928285 97.8891686,274.169641 L98.9597574,274.177537 C98.3134537,274.24704 97.6965698,274.347974 97.1091057,274.480339 C96.0431409,274.899877 94.9537301,275.308226 93.8408732,275.705384 C90.8965849,277.364285 89.1280457,280.279315 88.5352554,284.450475 C88.4030915,285.380444 88.1684263,286.29139 87.8312598,287.183315 C87.9608641,288.230885 88.2204931,289.239036 88.6101466,290.207768 C89.7778478,293.110833 88.7642533,296.785764 85.5693629,301.23256 C87.430903,297.863321 88.01168,294.70232 87.311694,291.749554 C87.1409311,291.029221 86.8902519,290.287059 86.6694829,289.549148 C84.1843305,293.632349 79.3757268,297.284363 72.2436716,300.505191 C78.8371921,296.531039 83.0041293,291.6368 84.7444833,285.822475 C85.5042133,283.284303 85.8906131,280.36916 86.8442176,277.965196 C80.6441662,279.773965 73.8256028,281.287542 66.3885274,282.505927 C90.0439824,275.687575 106.965648,264.018874 117.153523,247.499823 C124.000012,236.398638 128.853073,221.805719 139.629743,216.569463 C139.841977,216.46634 140.061392,216.359758 140.287988,216.249714 C140.366996,216.01641 140.43966,215.7765 140.505228,215.529624 C141.710239,210.992494 137.402223,200.100568 136.597675,196.804414 C134.657789,193.305954 133.150064,189.526495 132.148208,185.541029 C122.53722,180.059423 111.474627,178.399072 98.9604285,180.559975 L99.4051361,181.330232 C96.0324731,185.235041 93.547736,188.108677 91.9509249,189.951139 C88.1096873,194.383308 81.3931463,195.695447 74.9084283,197.177952 C74.6099489,198.737791 74.3774317,199.949573 74.2108767,200.813298 C73.5014407,204.492309 69.4862891,207.139332 66.6871936,210.10588 C66.4221957,210.386731 66.1653343,210.674226 65.9166094,210.968366 C66.2236393,211.851408 66.4575674,212.525339 66.6183937,212.99016 C67.2309517,214.760578 66.1540957,216.91056 65.6836888,218.894887 C64.9837028,221.847652 65.5644798,225.008654 67.4260199,228.377892 C64.2311296,223.931096 63.217535,220.256166 64.3852363,217.3531 C65.0770461,215.633166 65.1313409,214.10684 64.5481204,212.774122 C61.7816976,216.859022 60.3396554,222.025401 60.221994,228.273258 C59.4470019,220.503513 60.2003759,214.52241 62.482116,210.329949 C62.4679811,210.319502 62.4537854,210.309073 62.4395289,210.298662 L62.4991903,210.298662 C63.4149237,208.625255 64.5751917,207.238026 65.9799943,206.136975 C68.9646534,203.79767 70.5916948,201.142265 70.8611187,198.17076 C70.445493,198.283916 70.0337958,198.4009 69.6269416,198.52268 C57.9982905,202.003388 48.2098129,210.337263 40.2615085,223.524304 C49.2758813,203.563287 59.9790256,192.702231 72.3709412,190.941136 C79.1500111,189.977719 84.2701399,187.461517 87.7313275,183.39253 C64.5801196,190.625253 35.3363437,184.093383 0,163.796921 C10.8605469,168.594061 21.4506313,172.061331 31.7702533,174.198734 C29.9322373,171.502044 25.2868433,166.417088 22.625539,161.50569 C20.9185929,158.355546 19.0715845,153.055545 17.0845139,145.605687 C19.8394431,152.316196 22.0974684,156.997388 23.8585897,159.649263 C27.2272577,164.721761 32.020605,168.449915 34.7413416,171.709602 C35.9085203,173.107988 36.9776289,174.312984 37.9486672,175.324592 C51.0310802,177.379369 63.6695396,177.251218 75.8640453,174.94014 C81.4124654,173.888615 87.1227785,172.363277 92.80875,170.991064 C92.8482234,170.694651 92.8842455,170.395006 92.9168163,170.092132 L93.3593719,170.858661 C103.754767,168.368406 114.04864,166.457986 123.10186,168.96216 C125.15942,169.531294 127.729159,170.243568 130.811076,171.098982 C131.197626,164.659766 132.871608,158.57447 135.574476,153.106135 C123.751326,134.014237 111.160354,126.278496 97.801564,129.898904 C92.5453469,131.323408 85.7486503,128.836449 82.2049809,126.413052 C78.0168147,123.548904 74.6227377,114.799381 72.0227498,100.164482 C71.8208529,99.7119936 71.5215239,98.8950201 71.1247626,97.7135619 C69.9545909,94.2290763 68.1335076,91.6509296 65.6615127,89.9791218 L58.986501,86.2106742 C62.6833252,86.8550387 65.7649829,87.7677821 68.2314741,88.9489044 C70.4894202,90.0301612 71.7589772,91.109899 72.0401452,92.1881177 L74.4336534,76.2058737 C74.5842301,101.842898 78.6903369,117.138968 86.7519738,122.094084 C91.2151136,124.837371 100.890931,120.965751 107.137517,122.094084 C123.03737,124.966107 135.363584,130.04748 144.116159,137.338204 C144.986542,137.662453 145.948247,138.04597 146.981946,138.405404 C151.273768,134.721378 156.241481,131.826636 161.668835,129.941183 C161.883309,129.186115 162.063592,128.345585 162.063592,127.45975 C162.063592,125.609218 161.276834,123.956396 161.035166,122.867383 C160.755599,122.194723 160.4667,121.520433 160.168471,120.844515 L159.959742,121.206044 C156.949792,112.020283 149.652635,105.847496 138.068269,102.687683 C126.483904,99.5278708 115.079785,89.8809376 103.855914,73.7468838 C113.091609,84.7041001 123.281736,92.3422974 134.426296,96.6614756 C139.872436,98.7721781 146.041613,100.33132 151.052472,102.920295 C139.702371,77.9504033 137.886845,43.9614574 145.605893,0.953456903 C143.787952,22.2773348 144.72759,42.0753889 148.424808,60.3476193 C148.563037,60.5134008 148.706282,60.6878586 148.85472,60.8712069 C152.795872,65.7392402 160.957905,42.6411888 160.957905,46.1099329 C160.957905,48.0872137 155.859915,60.4135092 152.696061,66.7566457 C152.463355,68.4347294 151.941001,70.8107892 151.941001,73.4453229 C151.941001,73.8561705 151.953704,74.2607322 151.976031,74.6573412 C153.8863,81.1080024 156.173077,87.3503336 158.836363,93.3843349 C159.815895,95.6035836 160.859036,97.8313898 161.936419,100.06521 C164.153906,101.376283 167.101973,103.276815 168.833011,99.3963862 C174.068129,87.6609403 177.751973,58.8949495 183.50739,52.0057641 C188.664558,45.8326768 199.946332,41.954276 217.352713,40.3705616 C201.817464,43.9765066 191.933587,48.7397275 187.701082,54.6602242 C180.713645,64.4343643 179.726993,104.161202 176.363081,120.333625 C177.996011,122.340489 179.874282,125.473531 182.62597,127.876197 C187.736063,128.577703 192.578376,130.137946 197.007964,132.409461 C197.952312,132.54498 198.765447,132.716094 199.389142,132.98906 C201.50424,129.971568 203.312165,126.425818 204.812919,122.35181 C207.653548,114.640521 212.845697,108.172344 220.389365,102.947277 C220.849473,101.629303 221.233292,100.388927 221.515942,99.309828 C223.432402,91.993171 222.049927,88.9653377 225.031288,80.6692849 C233.671488,56.6267145 242.550383,46.2485455 252.374937,36.5244592 C258.815058,30.1501958 269.165595,25.3421016 283.426547,22.1001765 C258.843346,30.9531352 241.767451,49.008297 232.198862,76.265662 C229.625189,83.5971048 229.76754,90.7525435 229.039426,97.9819326 C239.9115,92.8023926 254.091451,89.3715344 271.57928,87.689358 C246.253811,93.3611056 228.647242,104.835962 218.759572,122.113927 C215.311975,128.138344 212.521055,135.229711 209.044328,141.344932 C215.931564,148.463506 220.582692,157.827943 221.839615,168.260021 C222.639343,168.246476 223.447971,168.234082 224.263005,168.226525 C231.752909,165.332746 238.285626,161.096967 243.861158,155.519187 L243.419044,155.263932 C243.788757,155.142786 244.148709,155.00775 244.498899,154.858824 C246.244284,152.129202 248.482273,149.855475 251.212866,148.037642 C251.365049,147.82066 251.502097,147.596653 251.624009,147.365619 C251.801321,146.954196 251.968368,146.528166 252.125149,146.087528 C252.478298,144.777483 252.433952,143.282917 251.992109,141.603831 C251.228183,138.700765 251.89129,135.025835 253.981431,130.579039 C252.763586,133.948277 252.383634,137.109279 252.841574,140.062044 C252.963065,140.845405 253.146387,141.654583 253.299132,142.456033 C255.331051,137.302881 259.947548,132.221543 267.148624,127.212019 C261.670016,131.829866 257.850917,136.924929 255.691328,142.497209 C255.225212,143.699905 254.812893,144.973123 254.386246,146.235817 C261.284734,142.916159 270.640407,141.870571 282.453265,143.099054 C265.981053,143.317097 253.928475,149.551396 246.29553,161.801952 C244.195837,165.171871 242.076841,167.657288 240.016339,169.458763 C258.863979,172.677413 268.79866,178.583543 278.481202,185.405433 C285.305097,190.213247 291.849975,199.145787 298.115836,212.203054 C284.659135,190.418606 265.627025,177.9266 241.019506,174.727034 C237.199454,174.230336 231.836821,174.255784 226.232771,174.43005 C229.671828,177.446105 233.154906,181.863257 236.23049,188.243112 C243.67922,203.694426 257.761164,215.058138 278.476321,222.33425 C254.126809,216.140602 238.873238,206.806207 232.715609,194.331066 C228.737288,188.962306 224.967488,185.037202 221.406209,182.555751 Z M173.904236,220.430918 C173.474131,220.406876 173.045608,220.376786 172.61875,220.340732 C172.875288,220.663421 173.129803,220.998275 173.381762,221.345684 C173.54326,221.03577 173.717421,220.730589 173.904236,220.430918 Z M250.058923,271.603545 C250.05591,271.588874 250.052907,271.574203 250.049916,271.559533 C249.972557,271.521896 249.895349,271.484186 249.818293,271.446404 C249.899184,271.498824 249.979478,271.551225 250.058923,271.603545 Z" id="Combined-Shape" fill="#E9719D"></path>
                <path d="M153.693111,165.296053 C149.311728,165.296053 145.759916,161.712367 145.759916,157.291667 C145.759916,152.870966 149.311728,149.287281 153.693111,149.287281 C158.074493,149.287281 161.626305,152.870966 161.626305,157.291667 C161.626305,161.712367 158.074493,165.296053 153.693111,165.296053 Z M181.617954,155.210526 C176.360295,155.210526 172.098121,150.910104 172.098121,145.605263 C172.098121,140.300423 176.360295,136 181.617954,136 C186.875613,136 191.137787,140.300423 191.137787,145.605263 C191.137787,150.910104 186.875613,155.210526 181.617954,155.210526 Z M206.845511,173.780702 C201.237342,173.780702 196.691023,169.193584 196.691023,163.535088 C196.691023,157.876591 201.237342,153.289474 206.845511,153.289474 C212.453681,153.289474 217,157.876591 217,163.535088 C217,169.193584 212.453681,173.780702 206.845511,173.780702 Z M145.759916,185.14693 C143.131087,185.14693 141,182.996718 141,180.344298 C141,177.691878 143.131087,175.541667 145.759916,175.541667 C148.388746,175.541667 150.519833,177.691878 150.519833,180.344298 C150.519833,182.996718 148.388746,185.14693 145.759916,185.14693 Z M154.169102,201.796053 C152.416549,201.796053 150.995825,200.362578 150.995825,198.594298 C150.995825,196.826018 152.416549,195.392544 154.169102,195.392544 C155.921655,195.392544 157.34238,196.826018 157.34238,198.594298 C157.34238,200.362578 155.921655,201.796053 154.169102,201.796053 Z M167.814196,209 C166.762665,209 165.91023,208.139915 165.91023,207.078947 C165.91023,206.017979 166.762665,205.157895 167.814196,205.157895 C168.865728,205.157895 169.718163,206.017979 169.718163,207.078947 C169.718163,208.139915 168.865728,209 167.814196,209 Z" id="Combined-Shape" fill="#FFFFFF"></path>
                <circle id="nucleus" fill="#FFFFFF" cx="176.5" cy="178.5" r="14.5"></circle>
            </g>
            <g id="frame" transform="translate(44.000000, 39.000000)" fill="#FFFFFF">
                <path d="M67.4542931,0.328474178 C70.3963036,1.6666639 62.9055842,3.49739 63.296547,4.99859685 C63.4500411,5.58797901 71.790252,3.38507672 72.3472669,4.24354952 C74.3230466,7.28862609 74.9864072,8.61770676 74.9864072,11.9369874 C74.9864072,15.256268 71.5513533,17.8198306 71.5513533,22.8391129 C71.5513533,27.8583952 74.9864072,25.1480117 74.9864072,28.5985691 C74.9864072,32.0491265 72.5065781,35.3204635 71.5513533,42.5450382 C70.5961284,49.7696128 73.6609189,52.0829787 71.5513533,54.5786343 C69.4417876,57.0742898 63.7891899,52.2745782 61.3794124,54.5786343 C58.9696349,56.8826903 65.5806387,54.8523399 69.0870983,57.2342369 C72.5935579,59.6161339 71.7879876,61.819654 71.5513533,64.2888607 C71.3640641,66.2431654 73.2699961,69.2482102 71.5513533,72.1784408 C68.5585414,75.9397029 64.4168528,74.2720571 61.3794124,74.2720571 C58.3419721,74.2720571 55.9317399,76.0497327 51.0619532,74.2720571 C46.1921664,72.4943814 46.9056621,72.6097921 45.3621411,68.4250838 C43.81862,64.2403755 44.0080746,62.1084532 45.3621411,58.8190443 C46.7162075,55.5296354 48.1735583,54.5786343 51.0619532,54.5786343 C53.950348,54.5786343 56.2749739,59.8802192 57.8869709,58.8190443 C59.498968,57.7578695 55.6654254,55.5957809 54.1272978,52.9561354 C52.5891703,50.31649 48.0637717,52.3837881 45.3621411,52.9561354 C42.6605104,53.5284828 41.3899356,60.1526376 41.3899356,64.2888607 C41.3899356,68.4250838 43.7798301,72.6512637 45.3621411,74.2720571 C46.944452,75.8928504 48.5479633,75.1274063 49.1960826,75.8928504 C49.7811894,76.5838752 47.8915395,77.5605539 46.944452,77.6160339 C44.770695,77.7433716 36.5407964,74.5774347 33.8887329,72.1784408 C32.1271438,70.5849489 30.4680258,66.8181005 30.4680258,61.4883147 C30.4680258,56.1585289 33.8887329,56.1412413 33.8887329,51.0591981 C33.8887329,45.9771549 29.327794,44.9624884 30.4680258,42.5450382 C31.6082576,40.1275879 36.7355167,37.0395188 39.79555,38.5359232 C42.8555834,40.0323276 38.3576761,47.1063441 39.79555,47.1063441 C41.233424,47.1063441 43.7186336,40.715555 48.3196488,38.5359232 C52.9206639,36.3562914 53.6949002,41.1387447 57.8869709,38.5359232 C60.6816847,36.8007088 62.8275687,33.4882575 64.3246228,28.5985691 C66.9170777,22.0970407 67.9603011,18.3515188 67.4542931,17.3620034 C66.9482851,16.372488 65.9050616,19.1500374 64.3246228,25.6946515 C61.7961723,30.8093972 59.6502883,34.3357966 57.8869709,36.2738498 C55.2419948,39.1809295 54.331733,34.3955326 52.6357166,34.3955326 C50.9397003,34.3955326 45.2283832,39.7313012 42.808444,36.2738498 C40.3885049,32.8163983 44.6656881,27.6050415 48.3196488,22.8391129 C51.9736094,18.0731843 53.1324642,19.8452803 57.8869709,16.6066478 C62.6414776,13.3680153 65.5034494,12.7435377 64.3246228,11.9369874 C63.1457961,11.1304371 57.0815835,14.1110135 51.0619532,11.9369874 C45.0423229,9.76296134 46.8156843,7.22175172 48.3196488,6.1566938 C49.8236132,5.09163587 63.3572329,-1.53509627 67.4542931,0.328474178 Z M42.5931251,11.7228935 C45.9445968,9.70964513 47.0434114,14.4818234 53.5354411,14.4818234 C56.5816463,14.4818234 54.0175618,15.1839782 49.1619771,18.8369285 C47.1187925,20.3740559 46.7766984,20.3960515 44.0700618,25.1451756 C41.9082584,28.9383236 41.7905521,30.759109 40.1283459,32.7707558 C39.7094248,33.2777454 41.4639937,35.9725582 40.7914196,36.5384232 C40.2058373,37.0310985 36.8418134,36.1621511 36.4423115,36.5384232 C35.2810972,37.6321166 33.7080967,38.0784395 32.0686412,38.817407 C31.0538459,39.2748155 30.3962593,42.0155147 28.5296656,42.3521721 C26.5265228,42.7134574 25.1728221,39.5683883 23.2998704,38.817407 C21.4828815,38.0888648 12.6235791,37.9346702 17.3387806,32.7707558 C22.0539822,27.6068415 29.9051362,30.0448849 35.7840679,25.1451756 C41.6629996,20.2454664 39.2416533,13.7361419 42.5931251,11.7228935 Z M39.1998329,13.0189463 C40.0406496,14.3379327 39.2759492,17.2528017 36.9057318,21.7635534 L31.7271231,26.0172584 L21.8698468,28.4565597 L26.5848738,20.737753 L32.6438979,15.0780282 C36.1737046,12.3863205 38.3590162,11.6999598 39.1998329,13.0189463 Z M39.445989,9.43154846 C41.8169531,7.67091313 43.1168047,6.02942265 44.2948199,6.02942265 C44.5903078,6.02942265 45.1979612,5.79957255 45.4491256,6.02942265 C45.6444099,6.2081348 47.3353832,5.21764602 47.3772376,5.6054116 C47.4210116,6.01096124 45.6127266,7.06218389 45.4491256,7.697525 C45.2555453,8.44928993 46.8821102,10.4159277 46.7693993,10.6474266 C46.370228,11.4672918 43.5223852,9.71538676 42.1415035,10.6474266 C40.7606218,11.5794665 41.4827074,12.6122747 40.5215799,12.7574445 C39.8854776,12.8535221 39.1927629,12.1048627 38.7475233,11.4345502 C38.520022,11.0920447 36.0746704,12.1592207 36.0169594,11.9807691 C35.846303,11.4530726 37.0750249,11.1921838 39.445989,9.43154846 Z M27.9192729,44.3822429 C30.5520496,46.233172 31.9575742,47.0337951 32.2074381,50.53068 C32.4573021,54.027565 29.6829888,54.4450902 28.9011711,58.124062 C28.1193533,61.8030339 27.5772459,61.5014674 28.9011711,66.0888632 C30.2250963,70.676259 33.5662059,73.3584616 33.5662059,74.2883903 C33.5662059,74.8295508 35.0713789,78.6911801 32.2074381,79.7560454 C30.1499916,80.5210414 24.0087061,78.6673318 21.967449,78.5855031 C17.0847867,78.3897697 11.8989341,74.4936003 10.368692,73.3584616 C8.83844995,72.2233228 7.0320872,68.1622355 10.368692,67.0540008 C13.7052969,65.9457661 18.3480143,70.1192445 20.1211273,70.1192445 C21.8942404,70.1192445 25.296628,68.902635 23.1652833,67.0540008 C21.0339385,65.2053666 16.0563775,65.5745075 14.0830648,64.8820961 C12.109752,64.1896847 11.0767132,64.674191 10.368692,62.5638329 C9.89667795,61.1569275 10.2328049,59.2411501 11.3770729,56.8165009 C12.1672904,53.3706913 13.0692877,51.7667312 14.0830648,52.0046205 C15.0968418,52.2425097 16.0522572,54.2823236 16.9493111,58.124062 L23.1652833,62.5638329 L21.967449,56.8165009 L16.9493111,50.53068 L20.1211273,42.0336034 C23.5647066,42.3654103 26.1640885,43.1482902 27.9192729,44.3822429 Z M18.9285512,40.638804 C19.1187111,42.2828958 17.8708115,45.2227948 15.1848523,49.4585008 C13.8251154,49.9856589 12.5422153,49.9856589 11.3361519,49.4585008 C10.1300885,48.9313428 9.10445218,47.9223049 8.25924297,46.4313872 L9.99461689,41.8571976 C11.6875649,39.4195247 12.8881039,38.2006883 13.596234,38.2006883 C14.6584291,38.2006883 18.6433113,38.1726662 18.9285512,40.638804 Z M7.19858279,49.129839 C8.21108488,48.6172026 8.68416321,49.6322601 9.49019106,50.127198 C10.3387991,50.6482821 11.5010824,50.6944021 11.7817993,51.9345887 C12.3291479,54.3527335 9.88477509,57.0085392 9.49019106,59.2539926 C9.09560703,61.499446 9.49019106,61.9964578 9.49019106,64.9754094 C9.49019106,66.1081136 7.69556147,67.165678 7.19858279,67.9543611 C6.94900083,68.3504365 6.94900083,68.8146508 7.19858279,69.3470039 C7.19858279,71.1013512 7.96245221,72.5763913 9.49019106,73.7721242 C10.5267511,74.5834206 8.32455004,75.8529286 6.62574194,75.8282 C4.56885551,75.798259 2.74140033,74.3294836 1.7289714,73.7721242 C-0.119635186,72.7544349 -0.479473029,70.2644226 0.618799929,68.5008871 C1.71707289,66.7373516 5.3520864,68.7100584 5.3520864,67.9543611 C5.3520864,67.4553205 4.83231293,67.1493403 3.76551272,66.8162334 C3.21685684,66.6449164 1.99410611,67.0028132 1.7289714,66.2029734 C1.12913057,64.3934156 1.47499077,66.0210903 2.8544614,63.5692115 C3.27029537,62.8301059 2.30091982,60.7521954 2.8544614,59.6923887 C3.14055831,59.1446296 5.83193784,57.5078583 6.0824652,57.0244016 C7.92465455,53.4694252 5.36891536,50.0562117 7.19858279,49.129839 Z" id="Combined-Shape"></path>
                <path d="M67.4542931,354.328474 C70.3963036,355.666664 62.9055842,357.49739 63.296547,358.998597 C63.4500411,359.587979 71.790252,357.385077 72.3472669,358.24355 C74.3230466,361.288626 74.9864072,362.617707 74.9864072,365.936987 C74.9864072,369.256268 71.5513533,371.819831 71.5513533,376.839113 C71.5513533,381.858395 74.9864072,379.148012 74.9864072,382.598569 C74.9864072,386.049127 72.5065781,389.320463 71.5513533,396.545038 C70.5961284,403.769613 73.6609189,406.082979 71.5513533,408.578634 C69.4417876,411.07429 63.7891899,406.274578 61.3794124,408.578634 C58.9696349,410.88269 65.5806387,408.85234 69.0870983,411.234237 C72.5935579,413.616134 71.7879876,415.819654 71.5513533,418.288861 C71.3640641,420.243165 73.2699961,423.24821 71.5513533,426.178441 C68.5585414,429.939703 64.4168528,428.272057 61.3794124,428.272057 C58.3419721,428.272057 55.9317399,430.049733 51.0619532,428.272057 C46.1921664,426.494381 46.9056621,426.609792 45.3621411,422.425084 C43.81862,418.240376 44.0080746,416.108453 45.3621411,412.819044 C46.7162075,409.529635 48.1735583,408.578634 51.0619532,408.578634 C53.950348,408.578634 56.2749739,413.880219 57.8869709,412.819044 C59.498968,411.757869 55.6654254,409.595781 54.1272978,406.956135 C52.5891703,404.31649 48.0637717,406.383788 45.3621411,406.956135 C42.6605104,407.528483 41.3899356,414.152638 41.3899356,418.288861 C41.3899356,422.425084 43.7798301,426.651264 45.3621411,428.272057 C46.944452,429.89285 48.5479633,429.127406 49.1960826,429.89285 C49.7811894,430.583875 47.8915395,431.560554 46.944452,431.616034 C44.770695,431.743372 36.5407964,428.577435 33.8887329,426.178441 C32.1271438,424.584949 30.4680258,420.8181 30.4680258,415.488315 C30.4680258,410.158529 33.8887329,410.141241 33.8887329,405.059198 C33.8887329,399.977155 29.327794,398.962488 30.4680258,396.545038 C31.6082576,394.127588 36.7355167,391.039519 39.79555,392.535923 C42.8555834,394.032328 38.3576761,401.106344 39.79555,401.106344 C41.233424,401.106344 43.7186336,394.715555 48.3196488,392.535923 C52.9206639,390.356291 53.6949002,395.138745 57.8869709,392.535923 C60.6816847,390.800709 62.8275687,387.488257 64.3246228,382.598569 C66.9170777,376.097041 67.9603011,372.351519 67.4542931,371.362003 C66.9482851,370.372488 65.9050616,373.150037 64.3246228,379.694652 C61.7961723,384.809397 59.6502883,388.335797 57.8869709,390.27385 C55.2419948,393.180929 54.331733,388.395533 52.6357166,388.395533 C50.9397003,388.395533 45.2283832,393.731301 42.808444,390.27385 C40.3885049,386.816398 44.6656881,381.605041 48.3196488,376.839113 C51.9736094,372.073184 53.1324642,373.84528 57.8869709,370.606648 C62.6414776,367.368015 65.5034494,366.743538 64.3246228,365.936987 C63.1457961,365.130437 57.0815835,368.111013 51.0619532,365.936987 C45.0423229,363.762961 46.8156843,361.221752 48.3196488,360.156694 C49.8236132,359.091636 63.3572329,352.464904 67.4542931,354.328474 Z M42.5931251,365.722893 C45.9445968,363.709645 47.0434114,368.481823 53.5354411,368.481823 C56.5816463,368.481823 54.0175618,369.183978 49.1619771,372.836929 C47.1187925,374.374056 46.7766984,374.396051 44.0700618,379.145176 C41.9082584,382.938324 41.7905521,384.759109 40.1283459,386.770756 C39.7094248,387.277745 41.4639937,389.972558 40.7914196,390.538423 C40.2058373,391.031098 36.8418134,390.162151 36.4423115,390.538423 C35.2810972,391.632117 33.7080967,392.078439 32.0686412,392.817407 C31.0538459,393.274816 30.3962593,396.015515 28.5296656,396.352172 C26.5265228,396.713457 25.1728221,393.568388 23.2998704,392.817407 C21.4828815,392.088865 12.6235791,391.93467 17.3387806,386.770756 C22.0539822,381.606842 29.9051362,384.044885 35.7840679,379.145176 C41.6629996,374.245466 39.2416533,367.736142 42.5931251,365.722893 Z M39.1998329,367.018946 C40.0406496,368.337933 39.2759492,371.252802 36.9057318,375.763553 L31.7271231,380.017258 L21.8698468,382.45656 L26.5848738,374.737753 L32.6438979,369.078028 C36.1737046,366.38632 38.3590162,365.69996 39.1998329,367.018946 Z M39.445989,363.431548 C41.8169531,361.670913 43.1168047,360.029423 44.2948199,360.029423 C44.5903078,360.029423 45.1979612,359.799573 45.4491256,360.029423 C45.6444099,360.208135 47.3353832,359.217646 47.3772376,359.605412 C47.4210116,360.010961 45.6127266,361.062184 45.4491256,361.697525 C45.2555453,362.44929 46.8821102,364.415928 46.7693993,364.647427 C46.370228,365.467292 43.5223852,363.715387 42.1415035,364.647427 C40.7606218,365.579466 41.4827074,366.612275 40.5215799,366.757445 C39.8854776,366.853522 39.1927629,366.104863 38.7475233,365.43455 C38.520022,365.092045 36.0746704,366.159221 36.0169594,365.980769 C35.846303,365.453073 37.0750249,365.192184 39.445989,363.431548 Z M27.9192729,398.382243 C30.5520496,400.233172 31.9575742,401.033795 32.2074381,404.53068 C32.4573021,408.027565 29.6829888,408.44509 28.9011711,412.124062 C28.1193533,415.803034 27.5772459,415.501467 28.9011711,420.088863 C30.2250963,424.676259 33.5662059,427.358462 33.5662059,428.28839 C33.5662059,428.829551 35.0713789,432.69118 32.2074381,433.756045 C30.1499916,434.521041 24.0087061,432.667332 21.967449,432.585503 C17.0847867,432.38977 11.8989341,428.4936 10.368692,427.358462 C8.83844995,426.223323 7.0320872,422.162235 10.368692,421.054001 C13.7052969,419.945766 18.3480143,424.119245 20.1211273,424.119245 C21.8942404,424.119245 25.296628,422.902635 23.1652833,421.054001 C21.0339385,419.205367 16.0563775,419.574507 14.0830648,418.882096 C12.109752,418.189685 11.0767132,418.674191 10.368692,416.563833 C9.89667795,415.156927 10.2328049,413.24115 11.3770729,410.816501 C12.1672904,407.370691 13.0692877,405.766731 14.0830648,406.00462 C15.0968418,406.24251 16.0522572,408.282324 16.9493111,412.124062 L23.1652833,416.563833 L21.967449,410.816501 L16.9493111,404.53068 L20.1211273,396.033603 C23.5647066,396.36541 26.1640885,397.14829 27.9192729,398.382243 Z M18.9285512,394.638804 C19.1187111,396.282896 17.8708115,399.222795 15.1848523,403.458501 C13.8251154,403.985659 12.5422153,403.985659 11.3361519,403.458501 C10.1300885,402.931343 9.10445218,401.922305 8.25924297,400.431387 L9.99461689,395.857198 C11.6875649,393.419525 12.8881039,392.200688 13.596234,392.200688 C14.6584291,392.200688 18.6433113,392.172666 18.9285512,394.638804 Z M7.19858279,403.129839 C8.21108488,402.617203 8.68416321,403.63226 9.49019106,404.127198 C10.3387991,404.648282 11.5010824,404.694402 11.7817993,405.934589 C12.3291479,408.352734 9.88477509,411.008539 9.49019106,413.253993 C9.09560703,415.499446 9.49019106,415.996458 9.49019106,418.975409 C9.49019106,420.108114 7.69556147,421.165678 7.19858279,421.954361 C6.94900083,422.350437 6.94900083,422.814651 7.19858279,423.347004 C7.19858279,425.101351 7.96245221,426.576391 9.49019106,427.772124 C10.5267511,428.583421 8.32455004,429.852929 6.62574194,429.8282 C4.56885551,429.798259 2.74140033,428.329484 1.7289714,427.772124 C-0.119635186,426.754435 -0.479473029,424.264423 0.618799929,422.500887 C1.71707289,420.737352 5.3520864,422.710058 5.3520864,421.954361 C5.3520864,421.455321 4.83231293,421.14934 3.76551272,420.816233 C3.21685684,420.644916 1.99410611,421.002813 1.7289714,420.202973 C1.12913057,418.393416 1.47499077,420.02109 2.8544614,417.569211 C3.27029537,416.830106 2.30091982,414.752195 2.8544614,413.692389 C3.14055831,413.14463 5.83193784,411.507858 6.0824652,411.024402 C7.92465455,407.469425 5.36891536,404.056212 7.19858279,403.129839 Z" id="Combined-Shape" transform="translate(37.493204, 393.970362) scale(1, -1) translate(-37.493204, -393.970362) "></path>
                <path d="M417.454293,354.328474 C420.396304,355.666664 412.905584,357.49739 413.296547,358.998597 C413.450041,359.587979 421.790252,357.385077 422.347267,358.24355 C424.323047,361.288626 424.986407,362.617707 424.986407,365.936987 C424.986407,369.256268 421.551353,371.819831 421.551353,376.839113 C421.551353,381.858395 424.986407,379.148012 424.986407,382.598569 C424.986407,386.049127 422.506578,389.320463 421.551353,396.545038 C420.596128,403.769613 423.660919,406.082979 421.551353,408.578634 C419.441788,411.07429 413.78919,406.274578 411.379412,408.578634 C408.969635,410.88269 415.580639,408.85234 419.087098,411.234237 C422.593558,413.616134 421.787988,415.819654 421.551353,418.288861 C421.364064,420.243165 423.269996,423.24821 421.551353,426.178441 C418.558541,429.939703 414.416853,428.272057 411.379412,428.272057 C408.341972,428.272057 405.93174,430.049733 401.061953,428.272057 C396.192166,426.494381 396.905662,426.609792 395.362141,422.425084 C393.81862,418.240376 394.008075,416.108453 395.362141,412.819044 C396.716208,409.529635 398.173558,408.578634 401.061953,408.578634 C403.950348,408.578634 406.274974,413.880219 407.886971,412.819044 C409.498968,411.757869 405.665425,409.595781 404.127298,406.956135 C402.58917,404.31649 398.063772,406.383788 395.362141,406.956135 C392.66051,407.528483 391.389936,414.152638 391.389936,418.288861 C391.389936,422.425084 393.77983,426.651264 395.362141,428.272057 C396.944452,429.89285 398.547963,429.127406 399.196083,429.89285 C399.781189,430.583875 397.89154,431.560554 396.944452,431.616034 C394.770695,431.743372 386.540796,428.577435 383.888733,426.178441 C382.127144,424.584949 380.468026,420.8181 380.468026,415.488315 C380.468026,410.158529 383.888733,410.141241 383.888733,405.059198 C383.888733,399.977155 379.327794,398.962488 380.468026,396.545038 C381.608258,394.127588 386.735517,391.039519 389.79555,392.535923 C392.855583,394.032328 388.357676,401.106344 389.79555,401.106344 C391.233424,401.106344 393.718634,394.715555 398.319649,392.535923 C402.920664,390.356291 403.6949,395.138745 407.886971,392.535923 C410.681685,390.800709 412.827569,387.488257 414.324623,382.598569 C416.917078,376.097041 417.960301,372.351519 417.454293,371.362003 C416.948285,370.372488 415.905062,373.150037 414.324623,379.694652 C411.796172,384.809397 409.650288,388.335797 407.886971,390.27385 C405.241995,393.180929 404.331733,388.395533 402.635717,388.395533 C400.9397,388.395533 395.228383,393.731301 392.808444,390.27385 C390.388505,386.816398 394.665688,381.605041 398.319649,376.839113 C401.973609,372.073184 403.132464,373.84528 407.886971,370.606648 C412.641478,367.368015 415.503449,366.743538 414.324623,365.936987 C413.145796,365.130437 407.081583,368.111013 401.061953,365.936987 C395.042323,363.762961 396.815684,361.221752 398.319649,360.156694 C399.823613,359.091636 413.357233,352.464904 417.454293,354.328474 Z M392.593125,365.722893 C395.944597,363.709645 397.043411,368.481823 403.535441,368.481823 C406.581646,368.481823 404.017562,369.183978 399.161977,372.836929 C397.118792,374.374056 396.776698,374.396051 394.070062,379.145176 C391.908258,382.938324 391.790552,384.759109 390.128346,386.770756 C389.709425,387.277745 391.463994,389.972558 390.79142,390.538423 C390.205837,391.031098 386.841813,390.162151 386.442312,390.538423 C385.281097,391.632117 383.708097,392.078439 382.068641,392.817407 C381.053846,393.274816 380.396259,396.015515 378.529666,396.352172 C376.526523,396.713457 375.172822,393.568388 373.29987,392.817407 C371.482882,392.088865 362.623579,391.93467 367.338781,386.770756 C372.053982,381.606842 379.905136,384.044885 385.784068,379.145176 C391.663,374.245466 389.241653,367.736142 392.593125,365.722893 Z M389.199833,367.018946 C390.04065,368.337933 389.275949,371.252802 386.905732,375.763553 L381.727123,380.017258 L371.869847,382.45656 L376.584874,374.737753 L382.643898,369.078028 C386.173705,366.38632 388.359016,365.69996 389.199833,367.018946 Z M389.445989,363.431548 C391.816953,361.670913 393.116805,360.029423 394.29482,360.029423 C394.590308,360.029423 395.197961,359.799573 395.449126,360.029423 C395.64441,360.208135 397.335383,359.217646 397.377238,359.605412 C397.421012,360.010961 395.612727,361.062184 395.449126,361.697525 C395.255545,362.44929 396.88211,364.415928 396.769399,364.647427 C396.370228,365.467292 393.522385,363.715387 392.141504,364.647427 C390.760622,365.579466 391.482707,366.612275 390.52158,366.757445 C389.885478,366.853522 389.192763,366.104863 388.747523,365.43455 C388.520022,365.092045 386.07467,366.159221 386.016959,365.980769 C385.846303,365.453073 387.075025,365.192184 389.445989,363.431548 Z M377.919273,398.382243 C380.55205,400.233172 381.957574,401.033795 382.207438,404.53068 C382.457302,408.027565 379.682989,408.44509 378.901171,412.124062 C378.119353,415.803034 377.577246,415.501467 378.901171,420.088863 C380.225096,424.676259 383.566206,427.358462 383.566206,428.28839 C383.566206,428.829551 385.071379,432.69118 382.207438,433.756045 C380.149992,434.521041 374.008706,432.667332 371.967449,432.585503 C367.084787,432.38977 361.898934,428.4936 360.368692,427.358462 C358.83845,426.223323 357.032087,422.162235 360.368692,421.054001 C363.705297,419.945766 368.348014,424.119245 370.121127,424.119245 C371.89424,424.119245 375.296628,422.902635 373.165283,421.054001 C371.033938,419.205367 366.056377,419.574507 364.083065,418.882096 C362.109752,418.189685 361.076713,418.674191 360.368692,416.563833 C359.896678,415.156927 360.232805,413.24115 361.377073,410.816501 C362.16729,407.370691 363.069288,405.766731 364.083065,406.00462 C365.096842,406.24251 366.052257,408.282324 366.949311,412.124062 L373.165283,416.563833 L371.967449,410.816501 L366.949311,404.53068 L370.121127,396.033603 C373.564707,396.36541 376.164088,397.14829 377.919273,398.382243 Z M368.928551,394.638804 C369.118711,396.282896 367.870811,399.222795 365.184852,403.458501 C363.825115,403.985659 362.542215,403.985659 361.336152,403.458501 C360.130088,402.931343 359.104452,401.922305 358.259243,400.431387 L359.994617,395.857198 C361.687565,393.419525 362.888104,392.200688 363.596234,392.200688 C364.658429,392.200688 368.643311,392.172666 368.928551,394.638804 Z M357.198583,403.129839 C358.211085,402.617203 358.684163,403.63226 359.490191,404.127198 C360.338799,404.648282 361.501082,404.694402 361.781799,405.934589 C362.329148,408.352734 359.884775,411.008539 359.490191,413.253993 C359.095607,415.499446 359.490191,415.996458 359.490191,418.975409 C359.490191,420.108114 357.695561,421.165678 357.198583,421.954361 C356.949001,422.350437 356.949001,422.814651 357.198583,423.347004 C357.198583,425.101351 357.962452,426.576391 359.490191,427.772124 C360.526751,428.583421 358.32455,429.852929 356.625742,429.8282 C354.568856,429.798259 352.7414,428.329484 351.728971,427.772124 C349.880365,426.754435 349.520527,424.264423 350.6188,422.500887 C351.717073,420.737352 355.352086,422.710058 355.352086,421.954361 C355.352086,421.455321 354.832313,421.14934 353.765513,420.816233 C353.216857,420.644916 351.994106,421.002813 351.728971,420.202973 C351.129131,418.393416 351.474991,420.02109 352.854461,417.569211 C353.270295,416.830106 352.30092,414.752195 352.854461,413.692389 C353.140558,413.14463 355.831938,411.507858 356.082465,411.024402 C357.924655,407.469425 355.368915,404.056212 357.198583,403.129839 Z" id="Combined-Shape" transform="translate(387.493204, 393.970362) scale(-1, -1) translate(-387.493204, -393.970362) "></path>
                <path d="M417.454293,0.328474178 C420.396304,1.6666639 412.905584,3.49739 413.296547,4.99859685 C413.450041,5.58797901 421.790252,3.38507672 422.347267,4.24354952 C424.323047,7.28862609 424.986407,8.61770676 424.986407,11.9369874 C424.986407,15.256268 421.551353,17.8198306 421.551353,22.8391129 C421.551353,27.8583952 424.986407,25.1480117 424.986407,28.5985691 C424.986407,32.0491265 422.506578,35.3204635 421.551353,42.5450382 C420.596128,49.7696128 423.660919,52.0829787 421.551353,54.5786343 C419.441788,57.0742898 413.78919,52.2745782 411.379412,54.5786343 C408.969635,56.8826903 415.580639,54.8523399 419.087098,57.2342369 C422.593558,59.6161339 421.787988,61.819654 421.551353,64.2888607 C421.364064,66.2431654 423.269996,69.2482102 421.551353,72.1784408 C418.558541,75.9397029 414.416853,74.2720571 411.379412,74.2720571 C408.341972,74.2720571 405.93174,76.0497327 401.061953,74.2720571 C396.192166,72.4943814 396.905662,72.6097921 395.362141,68.4250838 C393.81862,64.2403755 394.008075,62.1084532 395.362141,58.8190443 C396.716208,55.5296354 398.173558,54.5786343 401.061953,54.5786343 C403.950348,54.5786343 406.274974,59.8802192 407.886971,58.8190443 C409.498968,57.7578695 405.665425,55.5957809 404.127298,52.9561354 C402.58917,50.31649 398.063772,52.3837881 395.362141,52.9561354 C392.66051,53.5284828 391.389936,60.1526376 391.389936,64.2888607 C391.389936,68.4250838 393.77983,72.6512637 395.362141,74.2720571 C396.944452,75.8928504 398.547963,75.1274063 399.196083,75.8928504 C399.781189,76.5838752 397.89154,77.5605539 396.944452,77.6160339 C394.770695,77.7433716 386.540796,74.5774347 383.888733,72.1784408 C382.127144,70.5849489 380.468026,66.8181005 380.468026,61.4883147 C380.468026,56.1585289 383.888733,56.1412413 383.888733,51.0591981 C383.888733,45.9771549 379.327794,44.9624884 380.468026,42.5450382 C381.608258,40.1275879 386.735517,37.0395188 389.79555,38.5359232 C392.855583,40.0323276 388.357676,47.1063441 389.79555,47.1063441 C391.233424,47.1063441 393.718634,40.715555 398.319649,38.5359232 C402.920664,36.3562914 403.6949,41.1387447 407.886971,38.5359232 C410.681685,36.8007088 412.827569,33.4882575 414.324623,28.5985691 C416.917078,22.0970407 417.960301,18.3515188 417.454293,17.3620034 C416.948285,16.372488 415.905062,19.1500374 414.324623,25.6946515 C411.796172,30.8093972 409.650288,34.3357966 407.886971,36.2738498 C405.241995,39.1809295 404.331733,34.3955326 402.635717,34.3955326 C400.9397,34.3955326 395.228383,39.7313012 392.808444,36.2738498 C390.388505,32.8163983 394.665688,27.6050415 398.319649,22.8391129 C401.973609,18.0731843 403.132464,19.8452803 407.886971,16.6066478 C412.641478,13.3680153 415.503449,12.7435377 414.324623,11.9369874 C413.145796,11.1304371 407.081583,14.1110135 401.061953,11.9369874 C395.042323,9.76296134 396.815684,7.22175172 398.319649,6.1566938 C399.823613,5.09163587 413.357233,-1.53509627 417.454293,0.328474178 Z M392.593125,11.7228935 C395.944597,9.70964513 397.043411,14.4818234 403.535441,14.4818234 C406.581646,14.4818234 404.017562,15.1839782 399.161977,18.8369285 C397.118792,20.3740559 396.776698,20.3960515 394.070062,25.1451756 C391.908258,28.9383236 391.790552,30.759109 390.128346,32.7707558 C389.709425,33.2777454 391.463994,35.9725582 390.79142,36.5384232 C390.205837,37.0310985 386.841813,36.1621511 386.442312,36.5384232 C385.281097,37.6321166 383.708097,38.0784395 382.068641,38.817407 C381.053846,39.2748155 380.396259,42.0155147 378.529666,42.3521721 C376.526523,42.7134574 375.172822,39.5683883 373.29987,38.817407 C371.482882,38.0888648 362.623579,37.9346702 367.338781,32.7707558 C372.053982,27.6068415 379.905136,30.0448849 385.784068,25.1451756 C391.663,20.2454664 389.241653,13.7361419 392.593125,11.7228935 Z M389.199833,13.0189463 C390.04065,14.3379327 389.275949,17.2528017 386.905732,21.7635534 L381.727123,26.0172584 L371.869847,28.4565597 L376.584874,20.737753 L382.643898,15.0780282 C386.173705,12.3863205 388.359016,11.6999598 389.199833,13.0189463 Z M389.445989,9.43154846 C391.816953,7.67091313 393.116805,6.02942265 394.29482,6.02942265 C394.590308,6.02942265 395.197961,5.79957255 395.449126,6.02942265 C395.64441,6.2081348 397.335383,5.21764602 397.377238,5.6054116 C397.421012,6.01096124 395.612727,7.06218389 395.449126,7.697525 C395.255545,8.44928993 396.88211,10.4159277 396.769399,10.6474266 C396.370228,11.4672918 393.522385,9.71538676 392.141504,10.6474266 C390.760622,11.5794665 391.482707,12.6122747 390.52158,12.7574445 C389.885478,12.8535221 389.192763,12.1048627 388.747523,11.4345502 C388.520022,11.0920447 386.07467,12.1592207 386.016959,11.9807691 C385.846303,11.4530726 387.075025,11.1921838 389.445989,9.43154846 Z M377.919273,44.3822429 C380.55205,46.233172 381.957574,47.0337951 382.207438,50.53068 C382.457302,54.027565 379.682989,54.4450902 378.901171,58.124062 C378.119353,61.8030339 377.577246,61.5014674 378.901171,66.0888632 C380.225096,70.676259 383.566206,73.3584616 383.566206,74.2883903 C383.566206,74.8295508 385.071379,78.6911801 382.207438,79.7560454 C380.149992,80.5210414 374.008706,78.6673318 371.967449,78.5855031 C367.084787,78.3897697 361.898934,74.4936003 360.368692,73.3584616 C358.83845,72.2233228 357.032087,68.1622355 360.368692,67.0540008 C363.705297,65.9457661 368.348014,70.1192445 370.121127,70.1192445 C371.89424,70.1192445 375.296628,68.902635 373.165283,67.0540008 C371.033938,65.2053666 366.056377,65.5745075 364.083065,64.8820961 C362.109752,64.1896847 361.076713,64.674191 360.368692,62.5638329 C359.896678,61.1569275 360.232805,59.2411501 361.377073,56.8165009 C362.16729,53.3706913 363.069288,51.7667312 364.083065,52.0046205 C365.096842,52.2425097 366.052257,54.2823236 366.949311,58.124062 L373.165283,62.5638329 L371.967449,56.8165009 L366.949311,50.53068 L370.121127,42.0336034 C373.564707,42.3654103 376.164088,43.1482902 377.919273,44.3822429 Z M368.928551,40.638804 C369.118711,42.2828958 367.870811,45.2227948 365.184852,49.4585008 C363.825115,49.9856589 362.542215,49.9856589 361.336152,49.4585008 C360.130088,48.9313428 359.104452,47.9223049 358.259243,46.4313872 L359.994617,41.8571976 C361.687565,39.4195247 362.888104,38.2006883 363.596234,38.2006883 C364.658429,38.2006883 368.643311,38.1726662 368.928551,40.638804 Z M357.198583,49.129839 C358.211085,48.6172026 358.684163,49.6322601 359.490191,50.127198 C360.338799,50.6482821 361.501082,50.6944021 361.781799,51.9345887 C362.329148,54.3527335 359.884775,57.0085392 359.490191,59.2539926 C359.095607,61.499446 359.490191,61.9964578 359.490191,64.9754094 C359.490191,66.1081136 357.695561,67.165678 357.198583,67.9543611 C356.949001,68.3504365 356.949001,68.8146508 357.198583,69.3470039 C357.198583,71.1013512 357.962452,72.5763913 359.490191,73.7721242 C360.526751,74.5834206 358.32455,75.8529286 356.625742,75.8282 C354.568856,75.798259 352.7414,74.3294836 351.728971,73.7721242 C349.880365,72.7544349 349.520527,70.2644226 350.6188,68.5008871 C351.717073,66.7373516 355.352086,68.7100584 355.352086,67.9543611 C355.352086,67.4553205 354.832313,67.1493403 353.765513,66.8162334 C353.216857,66.6449164 351.994106,67.0028132 351.728971,66.2029734 C351.129131,64.3934156 351.474991,66.0210903 352.854461,63.5692115 C353.270295,62.8301059 352.30092,60.7521954 352.854461,59.6923887 C353.140558,59.1446296 355.831938,57.5078583 356.082465,57.0244016 C357.924655,53.4694252 355.368915,50.0562117 357.198583,49.129839 Z" id="Combined-Shape" transform="translate(387.493204, 39.970362) scale(-1, 1) translate(-387.493204, -39.970362) "></path>
            </g>
        </g>
    </g>
</svg>