<?xml version="1.0" encoding="UTF-8"?>
<svg width="28px" height="28px" viewBox="0 0 28 28" version="1.1" xmlns="http://www.w3.org/2000/svg" xmlns:xlink="http://www.w3.org/1999/xlink">
    <!-- Generator: Sketch 50.2 (55047) - http://www.bohemiancoding.com/sketch -->
    <title>logo</title>
    <desc>Created with Sketch.</desc>
    <defs></defs>
    <g id="Page-1" stroke="none" stroke-width="1" fill="none" fill-rule="evenodd">
        <g id="logo" transform="translate(-6.000000, -6.000000)">
            <path d="M10.1502059,21.9149542 C10.6568673,21.6882773 12.330497,22.4943254 12.5164842,22.6238746 C12.7024713,22.7534238 12.9217734,23.0625259 12.1773582,23.3269654 C11.432943,23.5914048 10.6830145,23.22886 10.5372354,23.3269654 C10.4433724,23.5075062 9.8915333,23.6018109 10.1502059,24.6530545 C10.4088786,25.704298 10.8149343,26.2457527 11.333345,26.562349 C11.8517558,26.8789454 11.9475014,26.2972277 12.5164842,26.562349 C13.0854669,26.8274703 13.3927994,27.6048193 13.5706135,27.6048193 C13.7484276,27.6048193 13.1921957,26.7443654 13.5706135,26.562349 C13.9490313,26.3803326 14.5830918,26.7559525 14.7240981,27.0500011 C14.8651044,27.3440496 14.3010777,27.4674694 14.3010777,28.085628 C14.3010777,28.7037865 14.7240981,28.7058893 14.7240981,29.3541822 C14.7240981,30.0024752 14.5189239,30.4606589 14.3010777,30.6544846 C13.6719383,31.2142528 12.9818174,30.8840248 12.8822232,30.9091434 C12.6811036,30.9598675 13.3734444,30.1979419 13.3734444,29.694829 C13.3734444,29.191716 13.2163193,28.3859815 12.8822232,28.3163635 C12.5481271,28.2467456 11.9884955,27.9952881 11.7982835,28.3163635 C11.6080716,28.637439 11.1339981,28.9004264 11.333345,29.0295033 C11.532692,29.1585802 11.820166,28.5137175 12.1773582,28.5137175 C12.5345504,28.5137175 12.7147731,28.6293933 12.8822232,29.0295033 C13.0496733,29.4296133 13.0731021,29.6889314 12.8822232,30.1979419 C12.6913443,30.7069524 12.7795784,30.6929143 12.1773582,30.9091434 C11.5751379,31.1253724 11.2770775,30.9091434 10.9014536,30.9091434 C10.5258298,30.9091434 10.0136495,31.1119888 9.64354459,30.6544846 C9.4310093,30.2980636 9.66670563,29.9325424 9.64354459,29.694829 C9.6142813,29.394485 9.51466077,29.126458 9.94828571,28.8367339 C10.3819107,28.5470099 11.1994578,28.7939733 10.9014536,28.5137175 C10.6034495,28.2334617 9.9044232,28.8172786 9.64354459,28.5137175 C9.38266599,28.2101564 9.7616721,27.9287682 9.64354459,27.0500011 C9.52541709,26.1712339 9.21875,25.7733221 9.21875,25.3536107 C9.21875,24.9338993 9.21875,25.0036798 9.21875,24.3931553 C9.21875,23.7826307 9.21875,23.7307088 9.21875,23.3269654 C9.21875,22.9232219 9.30078423,22.7615581 9.54511825,22.3911677 C9.61400128,22.2867466 9.6245628,22.2586393 9.64354459,22.1869493 C9.69189286,22.0043488 9.78638336,22.077726 10.1502059,21.9149542 Z M13.0420077,23.6365086 C13.4564661,23.8813918 13.2582746,24.682877 13.9852904,25.2788572 C14.7123062,25.8748374 15.7040637,25.3903307 16.2871672,26.0184477 C16.8702708,26.6465647 15.7106591,26.390559 15.4859619,26.4791759 C15.2543441,26.5705221 15.3401608,26.744044 15.0924429,26.7000987 C14.8616114,26.6591491 14.7571439,26.3750187 14.6316496,26.3193815 C14.428907,26.2294965 13.9852904,26.1877079 13.9852904,26.127781 C13.9021168,26.0589515 13.8342563,25.8695519 13.6287002,25.6248636 C13.4231442,25.3801753 13.3093462,25.3528868 13.0420077,24.8915041 C12.7072925,24.3138405 12.6649876,24.3532152 12.412318,24.1662454 C11.811854,23.7219158 11.4947675,23.6365086 11.8714753,23.6365086 C12.6743096,23.6365086 12.6275492,23.3916255 13.0420077,23.6365086 Z M13.6442826,23.4585703 C13.7482619,23.2981343 14.0185076,23.3816204 14.4550197,23.7090285 L15.2043065,24.3974538 L15.7873885,25.3363373 L14.5683923,25.0396308 L13.9279817,24.5222279 C13.6348697,23.9735589 13.5403033,23.6190063 13.6442826,23.4585703 Z M16.1511226,26.8181347 C16.1863967,26.518164 16.6791856,26.5215724 16.8105416,26.5215724 C16.8981122,26.5215724 17.0465764,26.6698266 17.2559341,26.966335 L17.4705384,27.5227203 C17.366016,27.7040694 17.2391811,27.8268045 17.0900337,27.8909258 C16.9408864,27.9550471 16.782237,27.9550471 16.6140857,27.8909258 C16.2819276,27.3757122 16.1276066,27.0181151 16.1511226,26.8181347 Z M10.6383068,23.9060653 C10.6944059,23.584772 10.8472962,23.4573681 11.6804257,24.1958029 C12.5135553,24.9342376 13.3845804,25.8004238 13.090678,26.0796961 C12.7358021,26.4169067 12.7358021,26.0983551 12.3811965,26.0796961 C12.0358727,26.0615255 11.6594411,26.2171708 11.2995531,25.8981882 C10.5701039,25.2516493 10.5822077,24.2273586 10.6383068,23.9060653 Z M15.114944,27.9515439 C15.2448543,27.3689541 15.3391726,27.1125004 15.8540049,27.4877225 C16.3688373,27.8629446 16.5941598,28.5072834 16.7765588,29.1625685 C16.9589578,29.8178537 17.3253655,30.2605755 16.7765588,30.8020827 C16.2277521,31.3435899 15.1138346,31.8248193 14.715825,31.1420245 C14.5072418,30.7841952 15.3233447,30.4268479 15.3648842,29.8475412 C15.4026085,29.3214394 15.0531153,28.2288184 15.114944,27.9515439 Z M17.0426382,28.3598231 C17.0758229,27.9462795 17.0839313,28.7055809 17.6370275,28.0182819 C18.0057582,27.5600825 18.3246657,28.4545745 18.59375,30.7017577 C18.3493355,30.9577798 18.0885761,30.8765989 17.8114719,30.4582151 C17.3958155,29.8306394 17.0094534,28.7733666 17.0426382,28.3598231 Z" id="Combined-Shape" fill="#4C6F94" transform="translate(13.906250, 26.676757) scale(-1, -1) translate(-13.906250, -26.676757) "></path>
            <path d="M22.9627059,21.9149542 C23.4693673,21.6882773 25.142997,22.4943254 25.3289842,22.6238746 C25.5149713,22.7534238 25.7342734,23.0625259 24.9898582,23.3269654 C24.245443,23.5914048 23.4955145,23.22886 23.3497354,23.3269654 C23.2558724,23.5075062 22.7040333,23.6018109 22.9627059,24.6530545 C23.2213786,25.704298 23.6274343,26.2457527 24.145845,26.562349 C24.6642558,26.8789454 24.7600014,26.2972277 25.3289842,26.562349 C25.8979669,26.8274703 26.2052994,27.6048193 26.3831135,27.6048193 C26.5609276,27.6048193 26.0046957,26.7443654 26.3831135,26.562349 C26.7615313,26.3803326 27.3955918,26.7559525 27.5365981,27.0500011 C27.6776044,27.3440496 27.1135777,27.4674694 27.1135777,28.085628 C27.1135777,28.7037865 27.5365981,28.7058893 27.5365981,29.3541822 C27.5365981,30.0024752 27.3314239,30.4606589 27.1135777,30.6544846 C26.4844383,31.2142528 25.7943174,30.8840248 25.6947232,30.9091434 C25.4936036,30.9598675 26.1859444,30.1979419 26.1859444,29.694829 C26.1859444,29.191716 26.0288193,28.3859815 25.6947232,28.3163635 C25.3606271,28.2467456 24.8009955,27.9952881 24.6107835,28.3163635 C24.4205716,28.637439 23.9464981,28.9004264 24.145845,29.0295033 C24.345192,29.1585802 24.632666,28.5137175 24.9898582,28.5137175 C25.3470504,28.5137175 25.5272731,28.6293933 25.6947232,29.0295033 C25.8621733,29.4296133 25.8856021,29.6889314 25.6947232,30.1979419 C25.5038443,30.7069524 25.5920784,30.6929143 24.9898582,30.9091434 C24.3876379,31.1253724 24.0895775,30.9091434 23.7139536,30.9091434 C23.3383298,30.9091434 22.8261495,31.1119888 22.4560446,30.6544846 C22.2435093,30.2980636 22.4792056,29.9325424 22.4560446,29.694829 C22.4267813,29.394485 22.3271608,29.126458 22.7607857,28.8367339 C23.1944107,28.5470099 24.0119578,28.7939733 23.7139536,28.5137175 C23.4159495,28.2334617 22.7169232,28.8172786 22.4560446,28.5137175 C22.195166,28.2101564 22.5741721,27.9287682 22.4560446,27.0500011 C22.3379171,26.1712339 22.03125,25.7733221 22.03125,25.3536107 C22.03125,24.9338993 22.03125,25.0036798 22.03125,24.3931553 C22.03125,23.7826307 22.03125,23.7307088 22.03125,23.3269654 C22.03125,22.9232219 22.1132842,22.7615581 22.3576182,22.3911677 C22.4265013,22.2867466 22.4370628,22.2586393 22.4560446,22.1869493 C22.5043929,22.0043488 22.5988834,22.077726 22.9627059,21.9149542 Z M25.8545077,23.6365086 C26.2689661,23.8813918 26.0707746,24.682877 26.7977904,25.2788572 C27.5248062,25.8748374 28.5165637,25.3903307 29.0996672,26.0184477 C29.6827708,26.6465647 28.5231591,26.390559 28.2984619,26.4791759 C28.0668441,26.5705221 28.1526608,26.744044 27.9049429,26.7000987 C27.6741114,26.6591491 27.5696439,26.3750187 27.4441496,26.3193815 C27.241407,26.2294965 26.7977904,26.1877079 26.7977904,26.127781 C26.7146168,26.0589515 26.6467563,25.8695519 26.4412002,25.6248636 C26.2356442,25.3801753 26.1218462,25.3528868 25.8545077,24.8915041 C25.5197925,24.3138405 25.4774876,24.3532152 25.224818,24.1662454 C24.624354,23.7219158 24.3072675,23.6365086 24.6839753,23.6365086 C25.4868096,23.6365086 25.4400492,23.3916255 25.8545077,23.6365086 Z M26.4567826,23.4585703 C26.5607619,23.2981343 26.8310076,23.3816204 27.2675197,23.7090285 L28.0168065,24.3974538 L28.5998885,25.3363373 L27.3808923,25.0396308 L26.7404817,24.5222279 C26.4473697,23.9735589 26.3528033,23.6190063 26.4567826,23.4585703 Z M28.9636226,26.8181347 C28.9988967,26.518164 29.4916856,26.5215724 29.6230416,26.5215724 C29.7106122,26.5215724 29.8590764,26.6698266 30.0684341,26.966335 L30.2830384,27.5227203 C30.178516,27.7040694 30.0516811,27.8268045 29.9025337,27.8909258 C29.7533864,27.9550471 29.594737,27.9550471 29.4265857,27.8909258 C29.0944276,27.3757122 28.9401066,27.0181151 28.9636226,26.8181347 Z M23.4508068,23.9060653 C23.5069059,23.584772 23.6597962,23.4573681 24.4929257,24.1958029 C25.3260553,24.9342376 26.1970804,25.8004238 25.903178,26.0796961 C25.5483021,26.4169067 25.5483021,26.0983551 25.1936965,26.0796961 C24.8483727,26.0615255 24.4719411,26.2171708 24.1120531,25.8981882 C23.3826039,25.2516493 23.3947077,24.2273586 23.4508068,23.9060653 Z M27.927444,27.9515439 C28.0573543,27.3689541 28.1516726,27.1125004 28.6665049,27.4877225 C29.1813373,27.8629446 29.4066598,28.5072834 29.5890588,29.1625685 C29.7714578,29.8178537 30.1378655,30.2605755 29.5890588,30.8020827 C29.0402521,31.3435899 27.9263346,31.8248193 27.528325,31.1420245 C27.3197418,30.7841952 28.1358447,30.4268479 28.1773842,29.8475412 C28.2151085,29.3214394 27.8656153,28.2288184 27.927444,27.9515439 Z M29.8551382,28.3598231 C29.8883229,27.9462795 29.8964313,28.7055809 30.4495275,28.0182819 C30.8182582,27.5600825 31.1371657,28.4545745 31.40625,30.7017577 C31.1618355,30.9577798 30.9010761,30.8765989 30.6239719,30.4582151 C30.2083155,29.8306394 29.8219534,28.7733666 29.8551382,28.3598231 Z" id="Combined-Shape" fill="#496D92" transform="translate(26.718750, 26.676757) scale(1, -1) translate(-26.718750, -26.676757) "></path>
            <path d="M10.1502059,7.85245423 C10.6568673,7.62577729 12.330497,8.43182536 12.5164842,8.56137456 C12.7024713,8.69092377 12.9217734,9.00002591 12.1773582,9.26446538 C11.432943,9.52890484 10.6830145,9.16635996 10.5372354,9.26446538 C10.4433724,9.44500617 9.8915333,9.53931089 10.1502059,10.5905545 C10.4088786,11.641798 10.8149343,12.1832527 11.333345,12.499849 C11.8517558,12.8164454 11.9475014,12.2347277 12.5164842,12.499849 C13.0854669,12.7649703 13.3927994,13.5423193 13.5706135,13.5423193 C13.7484276,13.5423193 13.1921957,12.6818654 13.5706135,12.499849 C13.9490313,12.3178326 14.5830918,12.6934525 14.7240981,12.9875011 C14.8651044,13.2815496 14.3010777,13.4049694 14.3010777,14.023128 C14.3010777,14.6412865 14.7240981,14.6433893 14.7240981,15.2916822 C14.7240981,15.9399752 14.5189239,16.3981589 14.3010777,16.5919846 C13.6719383,17.1517528 12.9818174,16.8215248 12.8822232,16.8466434 C12.6811036,16.8973675 13.3734444,16.1354419 13.3734444,15.632329 C13.3734444,15.129216 13.2163193,14.3234815 12.8822232,14.2538635 C12.5481271,14.1842456 11.9884955,13.9327881 11.7982835,14.2538635 C11.6080716,14.574939 11.1339981,14.8379264 11.333345,14.9670033 C11.532692,15.0960802 11.820166,14.4512175 12.1773582,14.4512175 C12.5345504,14.4512175 12.7147731,14.5668933 12.8822232,14.9670033 C13.0496733,15.3671133 13.0731021,15.6264314 12.8822232,16.1354419 C12.6913443,16.6444524 12.7795784,16.6304143 12.1773582,16.8466434 C11.5751379,17.0628724 11.2770775,16.8466434 10.9014536,16.8466434 C10.5258298,16.8466434 10.0136495,17.0494888 9.64354459,16.5919846 C9.4310093,16.2355636 9.66670563,15.8700424 9.64354459,15.632329 C9.6142813,15.331985 9.51466077,15.063958 9.94828571,14.7742339 C10.3819107,14.4845099 11.1994578,14.7314733 10.9014536,14.4512175 C10.6034495,14.1709617 9.9044232,14.7547786 9.64354459,14.4512175 C9.38266599,14.1476564 9.7616721,13.8662682 9.64354459,12.9875011 C9.52541709,12.1087339 9.21875,11.7108221 9.21875,11.2911107 C9.21875,10.8713993 9.21875,10.9411798 9.21875,10.3306553 C9.21875,9.7201307 9.21875,9.66820884 9.21875,9.26446538 C9.21875,8.86072192 9.30078423,8.69905809 9.54511825,8.32866767 C9.61400128,8.22424662 9.6245628,8.1961393 9.64354459,8.12444931 C9.69189286,7.94184877 9.78638336,8.01522605 10.1502059,7.85245423 Z M13.0420077,9.57400862 C13.4564661,9.81889176 13.2582746,10.620377 13.9852904,11.2163572 C14.7123062,11.8123374 15.7040637,11.3278307 16.2871672,11.9559477 C16.8702708,12.5840647 15.7106591,12.328059 15.4859619,12.4166759 C15.2543441,12.5080221 15.3401608,12.681544 15.0924429,12.6375987 C14.8616114,12.5966491 14.7571439,12.3125187 14.6316496,12.2568815 C14.428907,12.1669965 13.9852904,12.1252079 13.9852904,12.065281 C13.9021168,11.9964515 13.8342563,11.8070519 13.6287002,11.5623636 C13.4231442,11.3176753 13.3093462,11.2903868 13.0420077,10.8290041 C12.7072925,10.2513405 12.6649876,10.2907152 12.412318,10.1037454 C11.811854,9.6594158 11.4947675,9.57400862 11.8714753,9.57400862 C12.6743096,9.57400862 12.6275492,9.32912548 13.0420077,9.57400862 Z M13.6442826,9.39607034 C13.7482619,9.23563433 14.0185076,9.31912038 14.4550197,9.64652848 L15.2043065,10.3349538 L15.7873885,11.2738373 L14.5683923,10.9771308 L13.9279817,10.4597279 C13.6348697,9.91105886 13.5403033,9.55650635 13.6442826,9.39607034 Z M16.1511226,12.7556347 C16.1863967,12.455664 16.6791856,12.4590724 16.8105416,12.4590724 C16.8981122,12.4590724 17.0465764,12.6073266 17.2559341,12.903835 L17.4705384,13.4602203 C17.366016,13.6415694 17.2391811,13.7643045 17.0900337,13.8284258 C16.9408864,13.8925471 16.782237,13.8925471 16.6140857,13.8284258 C16.2819276,13.3132122 16.1276066,12.9556151 16.1511226,12.7556347 Z M10.6383068,9.84356527 C10.6944059,9.52227197 10.8472962,9.39486813 11.6804257,10.1333029 C12.5135553,10.8717376 13.3845804,11.7379238 13.090678,12.0171961 C12.7358021,12.3544067 12.7358021,12.0358551 12.3811965,12.0171961 C12.0358727,11.9990255 11.6594411,12.1546708 11.2995531,11.8356882 C10.5701039,11.1891493 10.5822077,10.1648586 10.6383068,9.84356527 Z M15.114944,13.8890439 C15.2448543,13.3064541 15.3391726,13.0500004 15.8540049,13.4252225 C16.3688373,13.8004446 16.5941598,14.4447834 16.7765588,15.1000685 C16.9589578,15.7553537 17.3253655,16.1980755 16.7765588,16.7395827 C16.2277521,17.2810899 15.1138346,17.7623193 14.715825,17.0795245 C14.5072418,16.7216952 15.3233447,16.3643479 15.3648842,15.7850412 C15.4026085,15.2589394 15.0531153,14.1663184 15.114944,13.8890439 Z M17.0426382,14.2973231 C17.0758229,13.8837795 17.0839313,14.6430809 17.6370275,13.9557819 C18.0057582,13.4975825 18.3246657,14.3920745 18.59375,16.6392577 C18.3493355,16.8952798 18.0885761,16.8140989 17.8114719,16.3957151 C17.3958155,15.7681394 17.0094534,14.7108666 17.0426382,14.2973231 Z" id="Combined-Shape" fill="#496D92" transform="translate(13.906250, 12.614257) scale(-1, 1) translate(-13.906250, -12.614257) "></path>
            <path d="M22.9627059,7.85245423 C23.4693673,7.62577729 25.142997,8.43182536 25.3289842,8.56137456 C25.5149713,8.69092377 25.7342734,9.00002591 24.9898582,9.26446538 C24.245443,9.52890484 23.4955145,9.16635996 23.3497354,9.26446538 C23.2558724,9.44500617 22.7040333,9.53931089 22.9627059,10.5905545 C23.2213786,11.641798 23.6274343,12.1832527 24.145845,12.499849 C24.6642558,12.8164454 24.7600014,12.2347277 25.3289842,12.499849 C25.8979669,12.7649703 26.2052994,13.5423193 26.3831135,13.5423193 C26.5609276,13.5423193 26.0046957,12.6818654 26.3831135,12.499849 C26.7615313,12.3178326 27.3955918,12.6934525 27.5365981,12.9875011 C27.6776044,13.2815496 27.1135777,13.4049694 27.1135777,14.023128 C27.1135777,14.6412865 27.5365981,14.6433893 27.5365981,15.2916822 C27.5365981,15.9399752 27.3314239,16.3981589 27.1135777,16.5919846 C26.4844383,17.1517528 25.7943174,16.8215248 25.6947232,16.8466434 C25.4936036,16.8973675 26.1859444,16.1354419 26.1859444,15.632329 C26.1859444,15.129216 26.0288193,14.3234815 25.6947232,14.2538635 C25.3606271,14.1842456 24.8009955,13.9327881 24.6107835,14.2538635 C24.4205716,14.574939 23.9464981,14.8379264 24.145845,14.9670033 C24.345192,15.0960802 24.632666,14.4512175 24.9898582,14.4512175 C25.3470504,14.4512175 25.5272731,14.5668933 25.6947232,14.9670033 C25.8621733,15.3671133 25.8856021,15.6264314 25.6947232,16.1354419 C25.5038443,16.6444524 25.5920784,16.6304143 24.9898582,16.8466434 C24.3876379,17.0628724 24.0895775,16.8466434 23.7139536,16.8466434 C23.3383298,16.8466434 22.8261495,17.0494888 22.4560446,16.5919846 C22.2435093,16.2355636 22.4792056,15.8700424 22.4560446,15.632329 C22.4267813,15.331985 22.3271608,15.063958 22.7607857,14.7742339 C23.1944107,14.4845099 24.0119578,14.7314733 23.7139536,14.4512175 C23.4159495,14.1709617 22.7169232,14.7547786 22.4560446,14.4512175 C22.195166,14.1476564 22.5741721,13.8662682 22.4560446,12.9875011 C22.3379171,12.1087339 22.03125,11.7108221 22.03125,11.2911107 C22.03125,10.8713993 22.03125,10.9411798 22.03125,10.3306553 C22.03125,9.7201307 22.03125,9.66820884 22.03125,9.26446538 C22.03125,8.86072192 22.1132842,8.69905809 22.3576182,8.32866767 C22.4265013,8.22424662 22.4370628,8.1961393 22.4560446,8.12444931 C22.5043929,7.94184877 22.5988834,8.01522605 22.9627059,7.85245423 Z M25.8545077,9.57400862 C26.2689661,9.81889176 26.0707746,10.620377 26.7977904,11.2163572 C27.5248062,11.8123374 28.5165637,11.3278307 29.0996672,11.9559477 C29.6827708,12.5840647 28.5231591,12.328059 28.2984619,12.4166759 C28.0668441,12.5080221 28.1526608,12.681544 27.9049429,12.6375987 C27.6741114,12.5966491 27.5696439,12.3125187 27.4441496,12.2568815 C27.241407,12.1669965 26.7977904,12.1252079 26.7977904,12.065281 C26.7146168,11.9964515 26.6467563,11.8070519 26.4412002,11.5623636 C26.2356442,11.3176753 26.1218462,11.2903868 25.8545077,10.8290041 C25.5197925,10.2513405 25.4774876,10.2907152 25.224818,10.1037454 C24.624354,9.6594158 24.3072675,9.57400862 24.6839753,9.57400862 C25.4868096,9.57400862 25.4400492,9.32912548 25.8545077,9.57400862 Z M26.4567826,9.39607034 C26.5607619,9.23563433 26.8310076,9.31912038 27.2675197,9.64652848 L28.0168065,10.3349538 L28.5998885,11.2738373 L27.3808923,10.9771308 L26.7404817,10.4597279 C26.4473697,9.91105886 26.3528033,9.55650635 26.4567826,9.39607034 Z M28.9636226,12.7556347 C28.9988967,12.455664 29.4916856,12.4590724 29.6230416,12.4590724 C29.7106122,12.4590724 29.8590764,12.6073266 30.0684341,12.903835 L30.2830384,13.4602203 C30.178516,13.6415694 30.0516811,13.7643045 29.9025337,13.8284258 C29.7533864,13.8925471 29.594737,13.8925471 29.4265857,13.8284258 C29.0944276,13.3132122 28.9401066,12.9556151 28.9636226,12.7556347 Z M23.4508068,9.84356527 C23.5069059,9.52227197 23.6597962,9.39486813 24.4929257,10.1333029 C25.3260553,10.8717376 26.1970804,11.7379238 25.903178,12.0171961 C25.5483021,12.3544067 25.5483021,12.0358551 25.1936965,12.0171961 C24.8483727,11.9990255 24.4719411,12.1546708 24.1120531,11.8356882 C23.3826039,11.1891493 23.3947077,10.1648586 23.4508068,9.84356527 Z M27.927444,13.8890439 C28.0573543,13.3064541 28.1516726,13.0500004 28.6665049,13.4252225 C29.1813373,13.8004446 29.4066598,14.4447834 29.5890588,15.1000685 C29.7714578,15.7553537 30.1378655,16.1980755 29.5890588,16.7395827 C29.0402521,17.2810899 27.9263346,17.7623193 27.528325,17.0795245 C27.3197418,16.7216952 28.1358447,16.3643479 28.1773842,15.7850412 C28.2151085,15.2589394 27.8656153,14.1663184 27.927444,13.8890439 Z M29.8551382,14.2973231 C29.8883229,13.8837795 29.8964313,14.6430809 30.4495275,13.9557819 C30.8182582,13.4975825 31.1371657,14.3920745 31.40625,16.6392577 C31.1618355,16.8952798 30.9010761,16.8140989 30.6239719,16.3957151 C30.2083155,15.7681394 29.8219534,14.7108666 29.8551382,14.2973231 Z" id="Combined-Shape" fill="#496D92"></path>
            <rect id="Rectangle-5" fill="#DCA92C" transform="translate(12.734375, 19.687500) rotate(90.000000) translate(-12.734375, -19.687500) " x="12.421875" y="13.828125" width="1" height="11.71875" rx="0.5"></rect>
            <rect id="Rectangle-5" fill="#DCA92C" transform="translate(27.890625, 19.687500) rotate(90.000000) translate(-27.890625, -19.687500) " x="27.578125" y="13.828125" width="1" height="11.71875" rx="0.5"></rect>
            <rect id="Rectangle-5" fill="#DCA92C" x="20" y="6.171875" width="1" height="11.71875" rx="0.5"></rect>
            <rect id="Rectangle-5" fill="#DCA92C" x="20" y="21.484375" width="1" height="11.71875" rx="0.5"></rect>
        </g>
    </g>
</svg>