<?xml version="1.0" encoding="UTF-8"?>
<svg xmlns="http://www.w3.org/2000/svg" xmlns:xlink="http://www.w3.org/1999/xlink" width="395.200012pt" height="357.600006pt" viewBox="0 0 395.200012 357.600006" version="1.1">
<g id="surface1">
<path style=" stroke:none;fill-rule:nonzero;fill:rgb(70%,70%,70%);fill-opacity:1;" d="M 197.601562 357.601562 L 0 128 L 85.601562 12 L 197.601562 0 L 309.601562 12 L 395.199219 128 Z M 197.601562 357.601562 "/>
<path style=" stroke:none;fill-rule:nonzero;fill:rgb(53%,53%,53%);fill-opacity:1;" d="M 197.601562 357.601562 L 0 128 L 395.199219 128 Z M 197.601562 357.601562 "/>
<path style=" stroke:none;fill-rule:nonzero;fill:rgb(70%,70%,70%);fill-opacity:1;" d="M 197.601562 357.601562 L 80 128 L 315.199219 128 Z M 197.601562 357.601562 "/>
<path style=" stroke:none;fill-rule:nonzero;fill:rgb(93%,93%,93%);fill-opacity:1;" d="M 197.601562 0 L 80 128 L 315.199219 128 Z M 197.601562 0 "/>
<path style=" stroke:none;fill-rule:nonzero;fill:rgb(70%,70%,70%);fill-opacity:1;" d="M 85.601562 12 L 41.601562 70.398438 L 0 128 L 80.800781 128 Z M 85.601562 12 "/>
<path style=" stroke:none;fill-rule:nonzero;fill:rgb(70%,70%,70%);fill-opacity:1;" d="M 309.601562 12 L 353.601562 70.398438 L 395.199219 128 L 314.398438 128 Z M 309.601562 12 "/>
<path style=" stroke:none;fill-rule:nonzero;fill:rgb(79%,79%,79%);fill-opacity:1;" d="M 85.601562 12 L 80 128 L 197.601562 0 Z M 85.601562 12 "/>
<path style=" stroke:none;fill-rule:nonzero;fill:rgb(79%,79%,79%);fill-opacity:1;" d="M 309.601562 12 L 315.199219 128 L 197.601562 0 Z M 309.601562 12 "/>
</g>
</svg>
