<?xml version="1.0" encoding="UTF-8"?>
<svg width="150px" height="150px" viewBox="0 0 150 150" version="1.1" xmlns="http://www.w3.org/2000/svg" xmlns:xlink="http://www.w3.org/1999/xlink">
    <!-- Generator: Sketch 50.2 (55047) - http://www.bohemiancoding.com/sketch -->
    <title>logo</title>
    <desc>Created with Sketch.</desc>
    <defs>
        <radialGradient cx="47.9949422%" cy="50%" fx="47.9949422%" fy="50%" r="96.2743858%" id="radialGradient-1">
            <stop stop-color="#FFFFFF" offset="0%"></stop>
            <stop stop-color="#9D9D9D" offset="100%"></stop>
        </radialGradient>
    </defs>
    <g id="Page-1" stroke="none" stroke-width="1" fill="none" fill-rule="evenodd">
        <g id="logo">
            <rect id="Rectangle" fill="url(#radialGradient-1)" fill-rule="nonzero" x="0" y="0" width="150" height="150" rx="20"></rect>
            <g id="Group-2" transform="translate(33.000000, 28.000000)">
                <path d="M38.883,1.389 C39.635,2.272 40.386,3.155 41.306,4.234 C40.863,4.297 40.556,4.279 40.304,4.389 C39.732,4.641 39.188,4.956 38.632,5.244 C39.088,5.781 39.439,6.525 40.018,6.812 C41.691,7.643 41.997,8.42 41.055,10.504 C40.762,10.392 40.455,10.282 40.156,10.159 C39.943,10.071 39.738,9.964 39.035,9.633 C40.194,11.508 41.148,12.855 41.892,14.31 C42.687,15.866 43.055,17.371 41.205,18.708 C40.566,19.17 40.24,20.425 40.231,21.322 C40.212,23.038 40.339,24.801 40.733,26.466 C41.582,30.053 40.526,31.429 36.91,31.522 C33.895,31.6 30.914,32.07 28.354,33.815 C28.393,34.01 28.431,34.204 28.47,34.398 C30.058,34.143 31.641,33.802 33.241,33.655 C34.602,33.53 36.236,33.164 37.294,33.74 C38.684,34.497 40.182,35.902 40.628,37.34 C41.23,39.282 40.421,41.382 38.564,42.643 C38.07,42.979 37.212,42.863 36.528,42.823 C34.829,42.726 33.11,42.303 31.448,42.475 C29.246,42.703 27.115,42.889 25.197,41.637 C21.358,39.131 20.888,35.26 23.99,31.874 C25.073,30.692 26.296,29.638 27.456,28.524 C27.335,28.357 27.216,28.188 27.097,28.02 C26.277,28.423 25.464,28.841 24.634,29.225 C22.897,30.028 22.386,29.668 22.293,27.807 C22.11,24.152 24.357,22.079 27.049,20.263 C27.711,19.817 28.366,19.362 29.027,18.661 C26.765,19.332 25.682,18.536 25.2,16.402 C24.696,14.177 25.04,12.516 27.042,11.367 C28.571,10.492 30.335,10.028 31.908,9.414 C31.722,8.756 31.082,7.715 31.374,7.195 C31.712,6.588 32.884,6.471 33.661,6.076 C34.549,5.624 35.42,5.126 36.243,4.566 C36.318,4.514 35.912,3.534 35.861,3.545 C34.898,3.771 33.888,3.953 33.028,4.409 C32,4.953 31.109,5.752 30.146,6.422 C30.066,6.478 29.883,6.385 29.642,6.342 C29.502,4.864 29.846,3.65 31.362,3.006 C32.75,2.417 34.143,1.837 35.533,1.253 C36.65,1.3 37.767,1.345 38.883,1.389 Z" id="Combined-Shape-path" fill="#4A4A4A"></path>
                <path d="M0.62,46.386 C1.016,45.666 1.427,44.953 1.808,44.224 C2.675,42.569 3.79,41.923 5.715,42.744 C6.439,43.052 7.522,42.652 8.4,42.416 C9.184,42.204 9.91,41.775 10.78,41.392 C10.81,42.524 10.835,43.469 10.859,44.414 C11.05,44.578 11.24,44.742 11.43,44.906 C11.633,44.499 11.772,44.044 12.048,43.695 C12.652,42.932 13.268,42.166 13.975,41.503 C17.013,38.649 19.958,38.748 22.429,42.014 C23.627,43.597 24.787,44.25 26.858,44.17 C29.746,44.06 32.743,44.211 35.539,44.884 C40.329,46.036 41.885,49.315 40.369,54.293 C38.837,53.625 37.314,52.958 35.793,52.294 C35.7,52.457 35.608,52.621 35.516,52.785 C36.682,53.616 37.925,54.36 38.986,55.306 C39.875,56.098 41.06,57.046 41.224,58.069 C41.655,60.757 41.948,63.562 41.641,66.247 C41.356,68.737 38.952,69.367 36.909,67.844 C36.522,67.553 36.124,67.23 35.858,66.836 C34.662,65.066 33.288,63.657 30.963,63.443 C30.457,63.395 29.934,62.639 29.57,62.107 C27.573,59.188 25.728,56.158 23.596,53.344 C22.97,52.52 21.62,52.111 20.521,51.811 C18.722,51.321 16.84,51.141 15.022,50.711 C12.458,50.104 10.071,49.675 7.364,50.747 C3.765,52.17 2.489,51.55 0.52,48.895 C0.553,48.059 0.586,47.223 0.62,46.386 Z" id="Combined-Shape-path" fill="#C22C3E"></path>
                <path d="M33.966,92.985 C32.228,92.302 30.508,91.566 28.745,90.952 C27.018,90.351 25.25,89.873 22.974,89.183 C25.803,88.36 27.974,89.048 30.128,89.637 C31.462,90.006 32.735,90.593 34.054,91.029 C36.041,91.682 38.112,90.973 39.749,88.888 C38.871,89.092 38.316,89.257 37.747,89.341 C36.665,89.501 35.571,89.752 34.492,89.706 C33.115,89.646 31.24,89.463 31.316,87.794 C31.361,86.785 32.772,85.462 33.877,84.959 C35.932,84.024 38.211,83.589 40.707,82.855 C39.776,86.883 36.185,85.935 33.774,86.918 C33.809,87.101 33.845,87.287 33.882,87.47 C34.585,87.374 35.315,87.366 35.987,87.168 C38.42,86.448 40.742,86.928 41.276,88.32 C41.712,89.459 39.757,91.761 37.748,92.475 C37.186,92.673 36.621,92.87 36.058,93.067 C35.361,93.041 34.664,93.012 33.966,92.985 Z" id="Combined-Shape-path" fill="#4A90E2"></path>
                <path d="M24.514,76.28 C24.957,76.954 25.4,77.629 25.841,78.301 C22.277,79.754 19.955,77.842 18.046,72.058 C17.906,72.864 17.767,73.667 17.603,74.608 C15.2,74.94 12.585,74.919 10.823,73.153 C9.276,71.603 8.469,69.315 7.366,67.408 C7.225,67.671 6.919,68.249 6.618,68.811 C4.485,68.536 2.872,66.395 2.104,62.339 C4.612,65.124 7.37,66.149 10.878,65.877 C10.371,65.394 10.028,64.864 9.545,64.648 C8.152,64.023 6.74,63.375 5.266,63.021 C3.683,62.642 3.093,61.736 2.999,60.032 C5.978,59.752 8.415,60.812 10.811,62.297 C13.554,63.997 13.141,66.861 13.374,69.524 C13.562,69.509 13.75,69.495 13.939,69.48 C14.219,68.878 14.397,68.194 14.804,67.692 C15.364,66.998 16.116,65.922 16.745,65.95 C17.67,65.987 18.721,66.697 19.427,67.41 C20.239,68.231 20.624,69.464 21.399,70.335 C22.073,71.092 22.953,71.792 23.883,72.167 C26.345,73.16 28.872,74.003 31.403,74.809 C31.956,74.986 32.636,74.763 33.258,74.348 C32.099,73.885 30.939,73.423 29.663,72.913 C30.372,71.87 30.87,71.136 31.634,70.011 C30.759,70.311 30.264,70.429 29.819,70.646 C24.677,73.129 20.342,70.286 20.445,64.476 C20.467,63.253 20.538,62.029 20.588,60.804 C20.358,60.77 20.129,60.735 19.9,60.7 C19.77,60.857 19.602,60.997 19.517,61.177 C18.992,62.249 19.668,64.205 17.659,64.174 C15.58,64.141 13.287,63.984 12.12,61.925 C11.143,60.2 10.616,58.22 9.887,56.355 C9.777,56.073 9.658,55.792 9.291,54.895 C8.937,56.569 8.717,57.609 8.499,58.635 C4.393,59.439 1.885,58.117 1.181,54.806 C0.807,53.045 1.322,52.567 3.147,52.478 C4.648,52.405 6.186,52.181 7.613,51.729 C10.353,50.86 13.637,51.208 17.422,53.057 C16.876,53.828 16.327,54.605 15.755,55.414 C16.114,55.586 16.191,55.654 16.227,55.638 C20.867,53.403 23.068,54.252 25.132,59.008 C26.363,61.848 28.236,64.058 31.252,65.196 C32.106,65.52 32.864,66.198 33.553,66.834 C35.25,68.408 36.548,70.544 39.398,70.299 C39.764,70.267 40.548,71.42 40.606,72.072 C40.912,75.535 38.634,78.29 34.952,79.195 C31.874,79.951 29.371,78.85 27.072,76.908 C26.466,76.394 25.72,76.041 25.037,75.614 C24.862,75.834 24.688,76.058 24.514,76.28 Z" id="Combined-Shape-path" fill="#F5A623"></path>
                <path d="M28.096,3.513 C28.259,5.281 28.392,6.721 28.551,8.427 C28.455,8.49 28.083,8.819 27.65,9 C24.203,10.436 23.236,13.32 23.472,16.652 C23.616,18.677 23.318,20.198 21.761,21.671 C19.75,23.572 19.463,27.707 20.785,30.261 C21.027,30.728 21.186,31.24 21.506,32.035 C20.318,31.81 19.443,31.644 18.424,31.452 C21.075,35.267 21.085,35.303 20.354,38.066 C18.029,36.82 15.847,36.929 13.647,38.5 C11.527,40.014 9.196,40.987 6.456,40.895 C5.255,40.855 4.178,40.972 3.769,39.611 C3.303,38.061 2.975,36.482 4.406,34.555 C4.821,36.222 5.104,37.363 5.469,38.823 C6.645,37.344 5.894,34.675 8.58,35.014 C10.22,35.222 11.857,35.44 13.797,35.692 C12.377,33.967 10.567,33.913 8.96,33.985 C7.381,34.055 6.758,33.476 6.551,32.11 C6.447,31.425 6.374,30.726 6.384,30.036 C6.409,28.038 6.93,26.094 8.989,25.473 C10.925,24.889 12.138,26.394 13.248,27.82 C13.947,28.719 14.834,29.473 15.637,30.293 C15.801,30.15 15.965,30.008 16.13,29.866 C15.762,29.387 15.433,28.871 15.022,28.432 C13.355,26.648 12.819,24.587 13.587,22.274 C14.156,20.564 15.259,19.493 17.221,19.339 C19.045,19.197 21.023,19.102 21.847,16.743 C20.123,16.411 18.024,18.511 16.89,16.156 C15.733,13.753 18.885,13.383 19.513,11.232 C18.284,12.005 17.346,12.598 16.407,13.19 C16.298,13.098 16.189,13.005 16.082,12.913 C16.481,12.39 16.77,11.626 17.3,11.38 C21.011,9.655 23.645,6.519 26.897,4.204 C27.169,4.005 27.481,3.863 28.096,3.513 Z" id="Combined-Shape-path" fill="#9CDD5B"></path>
                <path d="M3.341,69.3 C5.542,70.228 7.034,71.426 8.354,73.179 C10.24,75.679 13.349,76.063 16.306,76.158 C17.356,76.192 17.877,76.363 18.394,77.34 C19.804,80.01 22.01,80.785 25.101,80.277 C26.611,80.028 28.246,79.998 29.738,80.297 C33.778,81.109 37.667,81.66 40.581,77.58 C40.738,77.685 40.896,77.792 41.054,77.896 C40.993,78.539 41.136,79.314 40.822,79.787 C40.386,80.443 39.688,81.115 38.962,81.357 C35.219,82.612 31.476,83.92 27.647,84.843 C23.759,85.781 20.335,84.058 18.114,80.747 C17.657,80.066 16.754,79.436 15.957,79.272 C10.564,78.169 6.1,75.854 3.752,70.537 C3.615,70.229 3.536,69.896 3.341,69.3 Z" id="Combined-Shape-path" fill="#4A90E2"></path>
                <path d="M10.837,79.649 C11.042,79.605 11.111,79.576 11.178,79.579 C14.336,79.785 16.799,80.961 18.847,83.621 C19.993,85.108 22.282,85.716 24.028,86.7 C20.112,88.166 14.481,85.214 10.837,79.649 Z" id="Combined-Shape-path" fill="#4A90E2"></path>
                <path d="M14.735,15.937 C14.839,16.827 15.138,17.516 14.937,17.993 C14.214,19.701 13.46,21.431 12.424,22.953 C11.999,23.578 10.824,23.69 9.989,24.035 C9.816,23.363 9.302,22.53 9.531,22.048 C10.34,20.335 11.33,18.69 12.411,17.131 C12.752,16.639 13.594,16.497 14.735,15.937 Z" id="Combined-Shape-path" fill="#9CDD5B"></path>
                <path d="M47.38,0.97 C48.498,0.958 49.614,0.944 50.728,0.929 C52.103,1.551 53.478,2.17 54.85,2.798 C56.347,3.483 56.657,4.707 56.476,6.18 C56.233,6.216 56.049,6.304 55.971,6.246 C55.026,5.549 54.158,4.725 53.146,4.153 C52.299,3.673 51.294,3.464 50.338,3.211 C50.288,3.198 49.854,4.167 49.928,4.221 C50.734,4.804 51.59,5.325 52.467,5.802 C53.232,6.219 54.398,6.368 54.721,6.985 C54.997,7.513 54.328,8.535 54.125,9.188 C55.681,9.845 57.43,10.358 58.932,11.276 C60.905,12.48 61.2,14.15 60.634,16.36 C60.093,18.48 58.987,19.245 56.745,18.511 C57.386,19.23 58.028,19.704 58.677,20.168 C61.319,22.058 63.505,24.194 63.221,27.842 C63.077,29.7 62.556,30.045 60.842,29.195 C60.023,28.789 59.223,28.348 58.413,27.922 C58.289,28.088 58.165,28.252 58.041,28.417 C59.169,29.562 60.362,30.65 61.412,31.862 C64.419,35.333 63.84,39.19 59.933,41.587 C57.979,42.785 55.854,42.541 53.662,42.251 C52.003,42.031 50.273,42.408 48.573,42.457 C47.889,42.477 47.028,42.57 46.543,42.221 C44.723,40.907 43.972,38.784 44.629,36.861 C45.114,35.437 46.652,34.074 48.06,33.356 C49.136,32.81 50.759,33.221 52.116,33.384 C53.711,33.575 55.283,33.959 56.865,34.259 C56.91,34.066 56.952,33.873 56.996,33.68 C54.487,31.864 51.522,31.31 48.508,31.148 C44.894,30.954 43.879,29.55 44.828,25.988 C45.267,24.334 45.445,22.576 45.474,20.86 C45.49,19.962 45.198,18.699 44.572,18.219 C42.762,16.83 43.171,15.335 44.009,13.803 C44.795,12.37 45.785,11.048 46.995,9.207 C46.284,9.519 46.076,9.62 45.86,9.702 C45.558,9.816 45.25,9.917 44.953,10.021 C44.07,7.912 44.397,7.144 46.091,6.36 C46.678,6.089 47.051,5.354 47.524,4.831 C46.975,4.528 46.44,4.198 45.875,3.93 C45.627,3.812 45.32,3.822 44.878,3.746 C45.828,2.694 46.603,1.832 47.38,0.97 Z" id="Combined-Shape-path" fill="#4A4A4A"></path>
                <path d="M84.372,47.018 C84.382,47.855 84.392,48.693 84.402,49.531 C82.361,52.127 81.066,52.712 77.508,51.188 C74.833,50.042 72.435,50.403 69.855,50.939 C68.026,51.319 66.14,51.444 64.328,51.885 C63.222,52.152 61.86,52.523 61.212,53.332 C59.003,56.084 57.072,59.06 54.997,61.923 C54.618,62.447 54.071,63.186 53.567,63.219 C51.236,63.37 49.825,64.739 48.579,66.474 C48.303,66.86 47.896,67.174 47.5,67.453 C45.414,68.919 43.03,68.222 42.814,65.725 C42.582,63.033 42.954,60.237 43.459,57.561 C43.652,56.544 44.863,55.629 45.773,54.862 C46.861,53.945 48.125,53.237 49.312,52.439 C49.224,52.272 49.137,52.107 49.048,51.939 C47.51,52.562 45.969,53.184 44.419,53.811 C43.042,48.79 44.691,45.559 49.51,44.54 C52.324,43.945 55.323,43.877 58.207,44.069 C60.274,44.206 61.451,43.585 62.693,42.037 C65.255,38.843 68.204,38.824 71.159,41.762 C71.845,42.446 72.441,43.229 73.023,44.008 C73.289,44.364 73.417,44.824 73.608,45.236 C73.801,45.079 73.998,44.919 74.192,44.761 C74.243,43.816 74.295,42.873 74.356,41.742 C75.215,42.15 75.929,42.599 76.707,42.833 C77.578,43.093 78.65,43.523 79.382,43.236 C81.329,42.469 82.425,43.146 83.245,44.824 C83.605,45.563 83.996,46.287 84.372,47.018 Z" id="Combined-Shape-path" fill="#C22C3E"></path>
                <path d="M49.737,92.668 C49.04,92.677 48.343,92.686 47.642,92.695 C47.083,92.483 46.525,92.271 45.969,92.055 C43.979,91.285 42.091,88.931 42.558,87.806 C43.132,86.425 45.466,86.012 47.876,86.8 C48.545,87.016 49.273,87.046 49.975,87.161 C50.014,86.978 50.057,86.795 50.096,86.61 C47.717,85.561 44.097,86.407 43.281,82.356 C45.754,83.159 48.022,83.657 50.048,84.648 C51.139,85.181 52.511,86.544 52.53,87.553 C52.561,89.227 50.68,89.356 49.3,89.377 C48.22,89.392 47.135,89.109 46.057,88.921 C45.491,88.822 44.94,88.64 44.068,88.412 C45.648,90.543 47.698,91.309 49.703,90.71 C51.034,90.312 52.323,89.76 53.667,89.43 C55.835,88.901 58.025,88.274 60.831,89.173 C58.537,89.801 56.755,90.228 55.013,90.783 C53.235,91.346 51.494,92.034 49.737,92.668 Z" id="Combined-Shape-path" fill="#4A90E2"></path>
                <path d="M59.651,76.233 C59.484,76.006 59.317,75.778 59.15,75.552 C58.457,75.959 57.701,76.29 57.079,76.787 C54.729,78.664 52.195,79.696 49.138,78.854 C45.485,77.846 43.285,75.027 43.687,71.575 C43.764,70.925 44.58,69.795 44.945,69.837 C47.785,70.161 49.143,68.064 50.884,66.538 C51.591,65.921 52.369,65.265 53.23,64.966 C56.275,63.91 58.21,61.754 59.519,58.95 C61.715,54.254 63.939,53.466 68.514,55.829 C68.551,55.848 68.63,55.78 68.993,55.619 C68.444,54.794 67.914,54.003 67.393,53.215 C71.227,51.474 74.52,51.218 77.235,52.162 C78.648,52.655 80.179,52.921 81.677,53.036 C83.5,53.176 84,53.669 83.577,55.417 C82.781,58.71 80.237,59.959 76.156,59.041 C75.966,58.008 75.775,56.962 75.468,55.279 C75.076,56.166 74.948,56.443 74.831,56.721 C74.049,58.567 73.468,60.531 72.443,62.226 C71.218,64.254 68.922,64.347 66.843,64.323 C64.834,64.296 65.564,62.36 65.069,61.275 C64.988,61.092 64.825,60.949 64.7,60.787 C64.47,60.815 64.238,60.845 64.008,60.874 C64.023,62.099 64.063,63.323 64.049,64.547 C63.989,70.357 59.576,73.079 54.505,70.451 C54.065,70.224 53.576,70.093 52.71,69.768 C53.441,70.913 53.92,71.661 54.598,72.724 C53.308,73.198 52.136,73.627 50.966,74.056 C51.576,74.49 52.249,74.73 52.807,74.569 C55.36,73.834 57.909,73.064 60.398,72.14 C61.337,71.791 62.238,71.114 62.931,70.377 C63.731,69.528 64.149,68.307 64.984,67.509 C65.709,66.815 66.781,66.135 67.708,66.123 C68.338,66.112 69.06,67.21 69.6,67.918 C69.991,68.431 70.15,69.12 70.413,69.732 C70.601,69.751 70.789,69.77 70.977,69.791 C71.283,67.137 70.951,64.261 73.74,62.639 C76.175,61.221 78.64,60.229 81.612,60.591 C81.469,62.292 80.855,63.182 79.261,63.518 C77.779,63.83 76.348,64.44 74.939,65.025 C74.449,65.227 74.094,65.748 73.573,66.216 C77.072,66.585 79.857,65.639 82.442,62.923 C81.561,66.958 79.889,69.054 77.748,69.269 C77.465,68.697 77.174,68.11 77.041,67.843 C75.886,69.719 75.015,71.983 73.425,73.489 C71.615,75.206 69.001,75.153 66.607,74.755 C66.47,73.811 66.353,73.002 66.235,72.195 C64.166,77.922 61.791,79.769 58.27,78.217 C58.729,77.558 59.191,76.894 59.651,76.233 Z" id="Combined-Shape-path" fill="#F5A623"></path>
                <path d="M58.104,3.395 C58.707,3.761 59.016,3.913 59.285,4.114 C62.472,6.52 65.018,9.727 68.679,11.555 C69.202,11.816 69.469,12.588 69.853,13.122 C69.744,13.211 69.632,13.301 69.521,13.39 C68.6,12.772 67.677,12.155 66.471,11.346 C67.037,13.515 70.177,13.974 68.955,16.344 C67.755,18.666 65.715,16.509 63.983,16.791 C64.74,19.173 66.716,19.322 68.535,19.516 C70.491,19.724 71.565,20.825 72.085,22.55 C72.79,24.884 72.196,26.929 70.48,28.665 C70.058,29.093 69.714,29.598 69.334,30.068 C69.492,30.215 69.652,30.362 69.814,30.508 C70.638,29.712 71.545,28.982 72.272,28.103 C73.418,26.708 74.675,25.237 76.594,25.875 C78.633,26.553 79.101,28.51 79.071,30.508 C79.06,31.199 78.967,31.895 78.845,32.577 C78.599,33.938 77.959,34.5 76.384,34.386 C74.781,34.269 72.968,34.272 71.501,35.956 C73.447,35.759 75.089,35.587 76.733,35.426 C79.428,35.162 78.604,37.809 79.74,39.321 C80.144,37.871 80.459,36.74 80.918,35.084 C82.296,37.051 81.924,38.62 81.416,40.156 C80.969,41.505 79.894,41.359 78.692,41.365 C75.953,41.38 73.646,40.342 71.572,38.769 C69.416,37.137 67.238,36.967 64.881,38.149 C64.225,35.366 64.236,35.331 66.995,31.591 C65.969,31.756 65.089,31.897 63.896,32.09 C64.238,31.303 64.411,30.796 64.667,30.336 C66.06,27.819 65.888,23.679 63.931,21.721 C62.416,20.207 62.162,18.678 62.36,16.657 C62.69,13.334 61.804,10.424 58.399,8.892 C57.969,8.699 57.606,8.359 57.513,8.295 C57.719,6.593 57.892,5.158 58.104,3.395 Z" id="Combined-Shape-path" fill="#9CDD5B"></path>
                <path d="M81.014,69.849 C80.802,70.436 80.712,70.768 80.568,71.072 C78.073,76.321 73.546,78.511 68.124,79.464 C67.323,79.604 66.403,80.209 65.927,80.877 C63.615,84.123 60.143,85.751 56.284,84.704 C52.48,83.673 48.776,82.26 45.071,80.903 C44.351,80.638 43.672,79.951 43.255,79.283 C42.954,78.802 43.117,78.029 43.075,77.387 C43.235,77.286 43.396,77.184 43.557,77.082 C46.356,81.244 50.258,80.799 54.32,80.102 C55.819,79.844 57.453,79.919 58.956,80.209 C62.032,80.806 64.258,80.094 65.741,77.462 C66.285,76.501 66.81,76.344 67.86,76.338 C70.822,76.327 73.939,76.032 75.893,73.583 C77.262,71.869 78.786,70.712 81.014,69.849 Z" id="Combined-Shape-path" fill="#4A90E2"></path>
                <path d="M73.231,79.982 C69.434,85.445 63.722,88.238 59.846,86.665 C61.621,85.726 63.925,85.183 65.111,83.728 C67.234,81.127 69.728,80.02 72.891,79.904 C72.959,79.901 73.026,79.933 73.231,79.982 Z" id="Combined-Shape-path" fill="#4A90E2"></path>
                <path d="M71.113,16.187 C72.237,16.779 73.075,16.944 73.402,17.443 C74.438,19.033 75.383,20.703 76.144,22.439 C76.358,22.928 75.822,23.746 75.629,24.413 C74.806,24.045 73.634,23.9 73.227,23.265 C72.232,21.714 71.527,19.963 70.852,18.236 C70.664,17.754 70.983,17.073 71.113,16.187 Z" id="Combined-Shape-path" fill="#9CDD5B"></path>
            </g>
        </g>
    </g>
</svg>