<?xml version="1.0" encoding="UTF-8"?>
<svg width="150px" height="150px" viewBox="0 0 150 150" version="1.1" xmlns="http://www.w3.org/2000/svg" xmlns:xlink="http://www.w3.org/1999/xlink">
    <!-- Generator: Sketch 50.2 (55047) - http://www.bohemiancoding.com/sketch -->
    <title>Group</title>
    <desc>Created with Sketch.</desc>
    <defs></defs>
    <g id="Page-1" stroke="none" stroke-width="1" fill="none" fill-rule="evenodd">
        <g id="noun_183053_cc">
            <g id="Group">
                <rect id="Rectangle" fill="#E8F7CD" x="0" y="0" width="150" height="150"></rect>
                <g id="Group-6" transform="translate(30.000000, 32.000000)" fill-rule="nonzero">
                    <g id="Group-4" transform="translate(9.557522, 66.106195)">
                        <path d="M25.480354,18.4221239 C24.0961062,17.8781416 22.7261947,17.2919469 21.3220354,16.8029204 C19.9465487,16.3242478 18.5384071,15.9435398 16.7256637,15.3939823 C18.9788496,14.7384956 20.7079646,15.2864602 22.4235398,15.7555752 C23.4860177,16.049469 24.4999115,16.5169912 25.5504425,16.8642478 C27.1330088,17.3843363 28.7824779,16.819646 30.0862832,15.1590265 C29.3869912,15.3215044 28.9449558,15.4529204 28.4917699,15.519823 C27.63,15.6472566 26.7586726,15.8471681 25.899292,15.810531 C24.8025664,15.7627434 23.3092035,15.6169912 23.3697345,14.2876991 C23.4055752,13.4840708 24.5293805,12.430354 25.409469,12.0297345 C27.0461947,11.2850442 28.8613274,10.9385841 30.849292,10.3539823 C30.1077876,13.5621239 27.2476991,12.8070796 25.3274336,13.59 C25.3553097,13.7357522 25.3839823,13.8838938 25.4134513,14.029646 C25.9733628,13.9531858 26.5547788,13.9468142 27.09,13.789115 C29.0277876,13.2156637 30.8771681,13.5979646 31.3024779,14.7066372 C31.6497345,15.6138053 30.0926549,17.4472566 28.4925664,18.0159292 C28.0449558,18.1736283 27.5949558,18.330531 27.1465487,18.4874336 C26.5914159,18.4667257 26.0362832,18.4436283 25.480354,18.4221239 Z" id="Shape" fill="#00A096"></path>
                        <path d="M0,0 C1.75300885,0.739115044 2.94132743,1.69327434 3.99265487,3.08946903 C5.49477876,5.08061947 7.97097345,5.38646018 10.3261062,5.46212389 C11.1623894,5.48920354 11.5773451,5.62539823 11.989115,6.40353982 C13.1121239,8.5300885 14.869115,9.14734513 17.3309735,8.74274336 C18.5336283,8.54442478 19.8358407,8.52053097 21.0241593,8.75867257 C24.2418584,9.40539823 27.339292,9.84424779 29.660177,6.59469027 C29.7852212,6.67831858 29.9110619,6.76353982 30.0369027,6.84637168 C29.9883186,7.35849558 30.1022124,7.97575221 29.8521239,8.35247788 C29.5048673,8.87495575 28.9489381,9.41017699 28.370708,9.60292035 C25.3895575,10.6024779 22.4084071,11.6442478 19.3587611,12.3793805 C16.2621239,13.1264602 13.5350442,11.7541593 11.7661062,9.11707965 C11.4021239,8.57469027 10.6829204,8.07292035 10.0481416,7.94230088 C5.75283186,7.06380531 2.19743363,5.22 0.327345133,0.985221239 C0.218230088,0.739911504 0.155309735,0.474690265 0,0 Z" id="Shape" fill="#FE6B00"></path>
                        <path d="M6.37168142,8.81698358 C6.53495575,8.78193934 6.5899115,8.75884199 6.64327434,8.76123137 C9.15849558,8.92530217 11.120177,9.86193934 12.7513274,11.9805234 C13.6640708,13.1648597 15.4871681,13.6491075 16.8777876,14.4328243 C13.7588496,15.6004349 9.2739823,13.2492845 6.37168142,8.81698358 Z" id="Shape" fill="#019188"></path>
                    </g>
                    <g id="Group-5" transform="translate(50.973451, 66.902655)">
                        <path d="M5.77499265,17.7706195 C7.17437318,17.2656637 8.56101035,16.7176991 9.97711654,16.269292 C11.3645502,15.8272566 12.7838422,15.4871681 14.6109219,14.9869912 C12.3760546,14.2709735 10.6318068,14.770354 8.90508115,15.1916814 C7.83463867,15.4545133 6.8080015,15.8941593 5.747913,16.2111504 C4.15101035,16.6882301 2.51826699,16.0781416 1.25985991,14.380885 C1.95437318,14.5624779 2.39322274,14.7074336 2.8440192,14.7862832 C3.70260327,14.9360177 4.56676256,15.1614159 5.42693955,15.149469 C6.5260546,15.1327434 8.02419619,15.03 7.99950592,13.6967257 C7.98437318,12.8930973 6.89162982,11.8075221 6.02269176,11.3830088 C4.40906345,10.5937168 2.60269176,10.1970796 0.633045747,9.55752212 C1.28295725,12.7839823 4.16614309,12.110177 6.06092185,12.9456637 C6.02985991,13.0930088 5.99561212,13.2387611 5.96455017,13.3845133 C5.40543513,13.2929204 4.82561212,13.2690265 4.29278026,13.0969912 C2.37331123,12.4693805 0.514373181,12.7983186 0.0572050393,13.8982301 C-0.314741863,14.7942478 1.18897495,16.669115 2.7739307,17.2823894 C3.21676256,17.4544248 3.66118734,17.6232743 4.10640858,17.7921239 C4.66472716,17.7849558 5.21985991,17.7777876 5.77499265,17.7706195 Z" id="Shape" fill="#019188"></path>
                        <path d="M30.2226633,0 C28.44815,0.687345133 27.2343447,1.60884956 26.1439907,2.9739823 C24.5877075,4.92451327 22.1051411,5.15946903 19.7460261,5.16823009 C18.9097429,5.17300885 18.4916013,5.2980531 18.058327,6.06345133 C16.8771765,8.15973451 15.1042562,8.72681416 12.6543447,8.25132743 C11.457265,8.02035398 10.1558491,7.96061947 8.9619553,8.16610619 C5.72673407,8.72123894 2.61894645,9.07566372 0.389654419,5.76079646 C0.261424331,5.8420354 0.133194242,5.92327434 0.00576061378,6.00371681 C0.0392119412,6.51504425 -0.0906110676,7.13070796 0.149123446,7.51380531 C0.481247339,8.04584071 1.0220438,8.59300885 1.59549513,8.8040708 C4.54638008,9.88486726 7.49646858,11.0102655 10.5262031,11.8314159 C13.5997429,12.6653097 16.3650526,11.3686726 18.2064686,8.78336283 C18.5855836,8.25132743 19.318327,7.76946903 19.9562916,7.6579646 C24.2746987,6.89893805 27.8802739,5.15469027 29.867442,0.974070796 C29.9821323,0.731946903 30.0538137,0.467522124 30.2226633,0 Z" id="Shape" fill="#FE6B00"></path>
                        <path d="M24.9969027,8.02688041 C24.8336283,7.98785387 24.7802655,7.96236714 24.7261062,7.96475652 C22.2069027,8.0571459 20.220531,8.93882732 18.529646,11.0104202 C17.5850442,12.1692698 15.75,12.6017477 14.3362832,13.3496238 C17.4233628,14.6024556 21.9727434,12.3779424 24.9969027,8.02688041 Z" id="Shape" fill="#029589"></path>
                    </g>
                    <g id="Group-2" transform="translate(7.168142, 0.000000)" fill="#D53932">
                        <path d="M19.9879646,2.00150442 C20.1177876,3.40964602 20.2237168,4.55654867 20.350354,5.91530973 C20.2738938,5.96548673 19.9776106,6.22752212 19.6327434,6.37168142 C16.8873451,7.51539823 16.1171681,9.81238938 16.3051327,12.4661947 C16.419823,14.0790265 16.1824779,15.2904425 14.9423894,16.4636283 C13.340708,17.9776991 13.1121239,21.2710619 14.1650442,23.3052212 C14.3577876,23.6771681 14.4844248,24.0849558 14.739292,24.7181416 C13.7930973,24.5389381 13.0961947,24.4067257 12.2846018,24.2538053 C14.3960177,27.2923009 14.4039823,27.3209735 13.8217699,29.5215929 C11.97,28.5292035 10.2321239,28.6160177 8.4799115,29.8672566 C6.79141593,31.0730973 4.93486726,31.8480531 2.75256637,31.7747788 C1.7960177,31.7429204 0.938230088,31.8361062 0.612477876,30.7521239 C0.241327434,29.5176106 -0.0199115044,28.26 1.11982301,26.7252212 C1.45035398,28.0529204 1.67575221,28.9616814 1.96646018,30.1245133 C2.90309735,28.9465487 2.30495575,26.8207965 4.44424779,27.0907965 C5.75044248,27.2564602 7.05424779,27.4300885 8.59938053,27.6307965 C7.46840708,26.2569027 6.02681416,26.2138938 4.74690265,26.2712389 C3.48929204,26.3269912 2.99309735,25.8658407 2.82823009,24.7778761 C2.74539823,24.2323009 2.68725664,23.6755752 2.69522124,23.1260177 C2.71513274,21.5346903 3.1300885,19.9863717 4.77,19.4917699 C6.3119469,19.0266372 7.2780531,20.2253097 8.16212389,21.3610619 C8.71884956,22.0770796 9.42530973,22.6776106 10.0648673,23.330708 C10.1954867,23.2168142 10.3261062,23.1037168 10.4575221,22.9906195 C10.1644248,22.609115 9.90238938,22.1981416 9.57504425,21.8484956 C8.24734513,20.4276106 7.82044248,18.7861062 8.43212389,16.9438938 C8.88530973,15.5819469 9.76380531,14.7289381 11.3264602,14.6062832 C12.7792035,14.4931858 14.3546018,14.4175221 15.010885,12.5386726 C13.6377876,12.2742478 11.9660177,13.9468142 11.0628319,12.0711504 C10.1413274,10.1572566 12.6517699,9.86256637 13.1519469,8.14938053 C12.1730973,8.76504425 11.4260177,9.23734513 10.6781416,9.70884956 C10.5913274,9.63557522 10.5045133,9.56150442 10.419292,9.48823009 C10.7370796,9.07168142 10.9672566,8.46318584 11.3893805,8.26725664 C14.3450442,6.89336283 16.4429204,4.39566372 19.0330088,2.55185841 C19.249646,2.39336283 19.4981416,2.28026549 19.9879646,2.00150442 Z" id="Shape"></path>
                        <path d="M28.5793805,0.309823009 C29.1783186,1.01309735 29.7764602,1.71637168 30.5092035,2.57575221 C30.1563717,2.6259292 29.9118584,2.61159292 29.7111504,2.69920354 C29.2555752,2.8999115 28.8223009,3.15079646 28.379469,3.38017699 C28.7426549,3.80787611 29.0222124,4.40044248 29.4833628,4.62902655 C30.8158407,5.29088496 31.0595575,5.90973451 30.309292,7.56955752 C30.0759292,7.48035398 29.8314159,7.39274336 29.5932743,7.29477876 C29.4236283,7.22469027 29.260354,7.13946903 28.7004425,6.87584071 C29.6235398,8.36920354 30.3833628,9.4420354 30.9759292,10.600885 C31.609115,11.840177 31.9022124,13.0388496 30.4287611,14.1037168 C29.919823,14.4716814 29.660177,15.4712389 29.6530088,16.1856637 C29.6378761,17.5523894 29.7390265,18.9565487 30.0528319,20.2826549 C30.7290265,23.1395575 29.8879646,24.2354867 27.0079646,24.3095575 C24.6066372,24.3716814 22.2323894,24.7460177 20.1934513,26.1358407 C20.2245133,26.2911504 20.2547788,26.4456637 20.2858407,26.600177 C21.5506195,26.3970796 22.8114159,26.1254867 24.0857522,26.0084071 C25.1697345,25.9088496 26.4711504,25.6173451 27.3138053,26.0761062 C28.420885,26.6790265 29.6139823,27.7980531 29.9692035,28.9433628 C30.4486726,30.4900885 29.8043363,32.1626549 28.3253097,33.1669912 C27.9318584,33.4346018 27.2484956,33.3422124 26.7037168,33.310354 C25.350531,33.2330973 23.9814159,32.8961947 22.6576991,33.0331858 C20.9038938,33.2147788 19.2066372,33.3629204 17.6790265,32.3657522 C14.6214159,30.369823 14.2470796,27.2867257 16.7176991,24.5899115 C17.5802655,23.6484956 18.5543363,22.8090265 19.4782301,21.9217699 C19.3818584,21.7887611 19.2870796,21.6541593 19.1923009,21.520354 C18.5392035,21.8413274 17.8916814,22.1742478 17.2306195,22.4800885 C15.8471681,23.119646 15.440177,22.8329204 15.3661062,21.350708 C15.220354,18.439646 17.01,16.7885841 19.1540708,15.3422124 C19.6813274,14.9869912 20.2030088,14.6246018 20.729469,14.0662832 C18.9278761,14.600708 18.0653097,13.9667257 17.6814159,12.2670796 C17.28,10.4949558 17.5539823,9.1720354 19.1484956,8.25690265 C20.3662832,7.56 21.7712389,7.19044248 23.0240708,6.70141593 C22.8759292,6.17734513 22.3661947,5.34823009 22.5987611,4.9340708 C22.8679646,4.45061947 23.8014159,4.35743363 24.4202655,4.04283186 C25.1275221,3.68283186 25.8212389,3.28619469 26.4767257,2.84017699 C26.5364602,2.79876106 26.2130973,2.01823009 26.1724779,2.02699115 C25.4054867,2.20699115 24.6010619,2.3519469 23.9161062,2.71513274 C23.0973451,3.14840708 22.3876991,3.78477876 21.620708,4.31840708 C21.5569912,4.36300885 21.4112389,4.28893805 21.219292,4.25469027 C21.1077876,3.07752212 21.3817699,2.11061947 22.5892035,1.59769912 C23.6946903,1.12858407 24.8041593,0.666637168 25.9112389,0.201504425 C26.800885,0.238938053 27.690531,0.274778761 28.5793805,0.309823009 Z" id="Shape"></path>
                        <path d="M9.34646018,11.8967257 C9.42929204,12.6055752 9.66743363,13.1543363 9.50734513,13.5342478 C8.93150442,14.8946018 8.33097345,16.2724779 7.50584071,17.4846903 C7.16734513,17.9824779 6.23150442,18.0716814 5.56646018,18.3464602 C5.42867257,17.8112389 5.01929204,17.1477876 5.20168142,16.7638938 C5.8460177,15.3995575 6.63451327,14.0893805 7.49548673,12.8476991 C7.76707965,12.4558407 8.43769912,12.3427434 9.34646018,11.8967257 Z" id="Shape"></path>
                    </g>
                    <g id="Group-3" transform="translate(53.362832, 0.000000)" fill="#D53932">
                        <path d="M3.25222186,0.0326548673 C2.6333723,0.71920354 2.01611567,1.40575221 1.2594785,2.24362832 C1.6115139,2.30415929 1.85602717,2.29619469 2.0535493,2.39017699 C2.5035493,2.60362832 2.92965549,2.86646018 3.36691213,3.10778761 C2.99018646,3.52433628 2.69310682,4.10973451 2.22558469,4.32557522 C0.876381155,4.95 0.615938677,5.56168142 1.31921301,7.24141593 C1.55576169,7.15858407 1.80107142,7.07814159 2.04160239,6.98734513 C2.21363779,6.9220354 2.37930151,6.84159292 2.94558469,6.59309735 C1.98186788,8.05938053 1.1933723,9.11230088 0.567354606,10.2536283 C-0.100079022,11.4738053 -0.425831235,12.6645133 1.01576169,13.7707965 C1.51434576,14.1530973 1.74691213,15.1590265 1.73416877,15.8742478 C1.71107142,17.2409735 1.56930151,18.6411504 1.21965549,19.9584956 C0.463814783,22.7954867 1.27222186,23.9137168 4.15062894,24.0682301 C6.55115992,24.1972566 8.91266434,24.6384956 10.9109829,26.0848673 C10.8759387,26.2385841 10.8424873,26.3923009 10.8066466,26.5460177 C9.54664664,26.3070796 8.29461124,26.0012389 7.02425726,25.849115 C5.9434608,25.719292 4.65080593,25.3919469 3.79381478,25.8268142 C2.67239885,26.3986726 1.4474431,27.4842478 1.06115992,28.6184071 C0.537885579,30.15 1.13602717,31.840885 2.58558469,32.8874336 C2.97186788,33.1653982 3.65762009,33.0913274 4.20239885,33.0753982 C5.55638115,33.0363717 6.93425726,32.7361062 8.25558469,32.9113274 C10.0014254,33.1423009 11.6939033,33.3366372 13.2501865,32.3824779 C16.3619564,30.4733628 16.8231068,27.4014159 14.4281511,24.6369027 C13.5918679,23.6715929 12.6416909,22.8050442 11.7432838,21.8930973 C11.8420449,21.7616814 11.9408059,21.6310619 12.039567,21.4988496 C12.6846997,21.8381416 13.3218679,22.1893805 13.9741688,22.5127434 C15.3393015,23.1897345 15.7542573,22.9149558 15.8689475,21.4351327 C16.0951422,18.529646 14.3540803,16.8284071 12.2498325,15.3230973 C11.7329298,14.9535398 11.2216024,14.5760177 10.7110714,14.0033628 C12.4967351,14.5879646 13.3776201,13.9786726 13.808505,12.290177 C14.2593015,10.53 14.0243458,9.1999115 12.4529298,8.24097345 C11.2566466,7.50982301 9.86363779,7.10123894 8.62434576,6.5779646 C8.78602717,6.05787611 9.31885903,5.24389381 9.09903602,4.82336283 C8.84177938,4.3319469 7.91310682,4.21327434 7.30381478,3.88115044 C6.60531921,3.50123894 5.9235493,3.08628319 5.28160239,2.6219469 C5.22266434,2.57893805 5.56832806,1.80716814 5.60815107,1.81752212 C6.369567,2.01902655 7.17000947,2.18548673 7.84461124,2.56778761 C8.65062894,3.02336283 9.34195638,3.67964602 10.0946112,4.23477876 C10.1567351,4.28097345 10.3032838,4.21088496 10.4968236,4.18221239 C10.6409829,3.00902655 10.3940803,2.03415929 9.20177938,1.48858407 C8.10903602,0.98840708 7.01390328,0.49539823 5.91877054,0 C5.0315139,0.0119469027 4.14266434,0.0230973451 3.25222186,0.0326548673 Z" id="Shape"></path>
                        <path d="M11.6211504,1.59292035 C11.4523009,2.99707965 11.3145133,4.14 11.1504425,5.49557522 C11.2245133,5.54654867 11.5136283,5.81734513 11.8561062,5.97106195 C14.5680531,7.19123894 15.2737168,9.50893805 15.010885,12.1555752 C14.8531858,13.7652212 15.0554867,14.9830088 16.2621239,16.1888496 C17.8207965,17.7483186 17.9577876,21.0456637 16.8483186,23.050354 C16.6444248,23.4167257 16.5066372,23.820531 16.2342478,24.4473451 C17.1844248,24.2936283 17.8853097,24.1813274 18.7024779,24.0499115 C16.5050442,27.0286726 16.4962832,27.0565487 17.0187611,29.2730973 C18.8960177,28.3316814 20.630708,28.4670796 22.3478761,29.7669027 C23.9997345,31.0197345 25.8371681,31.8464602 28.0186726,31.8345133 C28.9760177,31.8297345 29.8322124,31.9460177 30.1882301,30.8715929 C30.5928319,29.6482301 30.889115,28.3985841 29.7915929,26.8319469 C29.4260177,28.150885 29.1751327,29.0516814 28.8533628,30.2065487 C27.9485841,29.0023009 28.6048673,26.8940708 26.4584071,27.1043363 C25.1490265,27.2325664 23.8412389,27.3695575 22.2913274,27.5264602 C23.4597345,26.1852212 24.9037168,26.1828319 26.1804425,26.2760177 C27.4348673,26.3668142 27.9446018,25.9192035 28.140531,24.8352212 C28.2376991,24.2920354 28.3117699,23.7376991 28.320531,23.1873451 C28.3444248,21.5960177 27.9716814,20.0373451 26.3476991,19.4973451 C24.819292,18.9892035 23.8181416,20.1607965 22.9053982,21.2718584 C22.3263717,21.9719469 21.6039823,22.5533628 20.9476991,23.1873451 C20.8186726,23.0710619 20.6912389,22.9539823 20.5653982,22.8369027 C20.8680531,22.4625664 21.1420354,22.060354 21.4781416,21.719469 C22.8448673,20.3368142 23.3179646,18.7080531 22.7564602,16.849115 C22.3423009,15.4752212 21.4869027,14.5983186 19.9290265,14.4326549 C18.4802655,14.2781416 16.9064602,14.159469 16.3035398,12.2623009 C17.6830088,12.0376991 19.3077876,13.7556637 20.2635398,11.9062832 C21.2368142,10.0186726 18.7359292,9.65309735 18.2851327,7.92557522 C19.2456637,8.5699115 19.9807965,9.06132743 20.7143363,9.55353982 C20.8027434,9.48265487 20.8919469,9.41097345 20.9787611,9.3400885 C20.6729204,8.91477876 20.4602655,8.2999115 20.0437168,8.0920354 C17.1278761,6.63610619 15.1000885,4.08185841 12.5617699,2.16557522 C12.3475221,2.00548673 12.1014159,1.88442478 11.6211504,1.59292035 Z" id="Shape"></path>
                        <path d="M22.5548592,11.9469027 C22.4513193,12.6525664 22.1972485,13.1949558 22.3469831,13.5788496 C22.8845937,14.9543363 23.4460981,16.3489381 24.238576,17.5842478 C24.5627353,18.09 25.4961866,18.2054867 26.1516733,18.4985841 C26.3053901,17.9673451 26.7322928,17.3158407 26.5618503,16.9263717 C25.9557441,15.5437168 25.2030892,14.2136283 24.3779565,12.9472566 C24.117514,12.549823 23.4500804,12.4184071 22.5548592,11.9469027 Z" id="Shape"></path>
                    </g>
                    <path d="M8.84070796,42.1552062 C9.15610619,41.5817549 9.48345133,41.0138788 9.78690265,40.4332593 C10.4774336,39.1151177 11.3654867,38.6006045 12.8986726,39.2544983 C13.4753097,39.499808 14.3378761,39.1812239 15.0371681,38.9932593 C15.6615929,38.8244098 16.239823,38.4827284 16.9327434,38.1776841 C16.9566372,39.079277 16.9765487,39.8319319 16.9956637,40.5845868 C17.1477876,40.7152062 17.299115,40.8458257 17.4504425,40.9764452 C17.6121239,40.6522859 17.7228319,40.2898965 17.9426549,40.0119319 C18.4237168,39.4042328 18.9143363,38.7941443 19.4774336,38.2660912 C21.8970796,35.9929938 24.2426549,36.0718434 26.210708,38.6730823 C27.1648673,39.9338788 28.0887611,40.4539673 29.7382301,40.3902505 C32.0384071,40.3026399 34.4253982,40.4229053 36.6523009,40.958923 C40.4673451,41.8764452 41.7066372,44.4880381 40.4992035,48.4528168 C39.2790265,47.9207815 38.0660177,47.3895425 36.8546018,46.860693 C36.780531,46.990516 36.7072566,47.1211354 36.6339823,47.2517549 C37.5626549,47.9136133 38.5526549,48.5061797 39.3976991,49.259631 C40.1057522,49.8904275 41.0495575,50.6454717 41.180177,51.4602505 C41.5234513,53.6011354 41.7568142,55.8352062 41.5123009,57.9737018 C41.2853097,59.9568876 39.3706195,60.4586576 37.7434513,59.2456487 C37.4352212,59.0138788 37.1182301,58.7566222 36.9063717,58.4428168 C35.9538053,57.0330823 34.859469,55.9108699 33.0076991,55.7404275 C32.6046903,55.7021974 32.1881416,55.1000735 31.8982301,54.6763567 C30.3076991,52.3514894 28.8382301,49.9382151 27.140177,47.6969761 C26.6415929,47.040693 25.5663717,46.7149407 24.6910619,46.4760027 C23.2582301,46.0857372 21.759292,45.9423744 20.3113274,45.5998965 C18.2692035,45.1164452 16.3680531,44.7747638 14.2120354,45.6285691 C11.3455752,46.7619319 10.329292,46.2681266 8.76106195,44.1535248 C8.78734513,43.4876841 8.81362832,42.8218434 8.84070796,42.1552062 Z" id="Shape" fill="#125D8C"></path>
                    <path d="M82.5360642,43.3428227 C82.2365952,42.7606103 81.9251793,42.1839732 81.6384536,41.5953891 C80.9853562,40.2589289 80.1124359,39.7197254 78.5617279,40.3306103 C77.9787191,40.5591944 77.1249138,40.2167165 76.431197,40.0096369 C75.8115509,39.8232652 75.2428784,39.4656546 74.5587191,39.1406988 C74.510135,40.0414953 74.4687191,40.7925572 74.4280996,41.5452121 C74.2735863,41.6710528 74.1166837,41.7984864 73.9629669,41.9235307 C73.810843,41.5953891 73.7088961,41.2290174 73.4970377,40.9454776 C73.0334978,40.3250351 72.5588076,39.7014068 72.0124359,39.156628 C69.6588961,36.816628 67.310135,36.8317608 65.269604,39.3756546 C64.2804005,40.6085749 63.3429669,41.1031767 61.6966837,40.9940617 C59.3996925,40.8411413 57.0111085,40.8953006 54.7698695,41.3691944 C50.9317279,42.1807873 49.6183651,44.7541502 50.7150908,48.7531767 C51.949604,48.2537962 53.1769492,47.7583979 54.4019049,47.2622033 C54.4727899,47.3960086 54.5420819,47.5274245 54.6121704,47.6604333 C53.6667722,48.2960086 52.6600465,48.8599024 51.7934978,49.5902564 C51.0687191,50.2011413 50.1042058,50.9299024 49.950489,51.7399024 C49.5482766,53.8712298 49.2519934,56.0981325 49.4367722,58.2422033 C49.6088076,60.2309643 51.5075686,60.7860971 53.1689846,59.6184864 C53.4843828,59.3962741 53.8085421,59.1461856 54.0283651,58.8387519 C55.0207545,57.4568935 56.1445598,56.3665395 58.0011085,56.2462741 C58.4025244,56.2199909 58.8381881,55.6314068 59.1400465,55.2140617 C60.7927014,52.9337962 62.330666,50.5635307 64.0900465,48.3716723 C64.6061527,47.727336 65.6909315,47.4318493 66.5718164,47.2191944 C68.0150023,46.8679555 69.5171262,46.7683979 70.9738518,46.4657431 C73.0287191,46.0388404 74.9386306,45.7513183 77.0691616,46.6640617 C79.9029669,47.877867 80.9343828,47.4119378 82.559958,45.3443271 C82.5519934,44.6768935 82.5440288,44.0094599 82.5360642,43.3428227 Z" id="Shape" fill="#0F5E8E"></path>
                    <path d="M18.6748836,69.295384 C19.0277155,69.8321982 19.3805473,70.3698088 19.7317863,70.90503 C16.8932022,72.0622867 15.0438217,70.5394548 13.5233792,65.9327291 C13.4118748,66.5746761 13.3011668,67.2142336 13.1705473,67.9637026 C11.2566535,68.2281274 9.17391017,68.2114017 7.77054733,66.804853 C6.53842344,65.5703398 5.89568008,63.7480389 5.0171845,62.2291893 C4.90488362,62.4386584 4.6611668,62.8990123 4.42143229,63.346623 C2.72258273,63.1275964 1.43789247,61.4223752 0.826211051,58.1919327 C2.82373317,60.4100743 5.02037034,61.226446 7.81435264,61.0098088 C7.41054733,60.6251185 7.13736149,60.2029946 6.75267123,60.0309592 C5.6432022,59.5331716 4.51860043,59.0170654 3.34461813,58.7351185 C2.08382167,58.4332601 1.61391017,57.7116672 1.53904291,56.3544991 C3.91169778,56.1314902 5.85267123,56.975738 7.76098981,58.1584814 C9.94568008,59.5124637 9.61674202,61.7935256 9.80231725,63.9144991 C9.95205176,63.9025522 10.1017863,63.8914017 10.2523172,63.8794548 C10.4753261,63.3999858 10.617096,62.855207 10.9412553,62.455384 C11.387273,61.9026407 11.9862111,61.0456495 12.4871845,61.0679504 C13.2239102,61.0974194 14.0609898,61.6629061 14.6232907,62.2307822 C15.2700164,62.8846761 15.5766535,63.8667115 16.1939102,64.5604283 C16.7307243,65.1633486 17.4316093,65.7208707 18.1723172,66.0195433 C20.1332022,66.8104283 22.1458571,67.4818442 24.1616978,68.1237911 C24.6021403,68.2647645 25.1437332,68.0871539 25.6391314,67.756623 C24.7160341,67.3878619 23.7921403,67.0198973 22.7758571,66.6137026 C23.3405473,65.7829946 23.7371845,65.1983929 24.3456801,64.3023752 C23.6487774,64.5413132 23.2545296,64.6352955 22.9001049,64.8081274 C18.8047066,66.785738 15.3520518,64.5214017 15.4340872,59.8939681 C15.4516093,58.9198973 15.508158,57.94503 15.547981,56.9693663 C15.3647951,56.9422867 15.1824057,56.9144106 15.0000164,56.8865345 C14.8964765,57.0115787 14.7626712,57.1230831 14.6949721,57.266446 C14.2768305,58.1202513 14.8152376,59.6781274 13.2151491,59.6534371 C11.5593084,59.6271539 9.73302521,59.5021097 8.80355618,57.8621982 C8.02541459,56.4883044 7.60568008,54.9113132 7.02506061,53.425915 C6.93744999,53.2013132 6.84267123,52.9775079 6.55037034,52.2630831 C6.26842344,53.5963575 6.0932022,54.4246761 5.91957388,55.2418442 C2.6493084,55.8821982 0.651786272,54.8292778 0.0910783077,52.1921982 C-0.206797798,50.7896318 0.203379193,50.4089238 1.65691902,50.3380389 C2.85240574,50.2798973 4.07736149,50.1014902 5.21391017,49.7414902 C7.39621105,49.0493663 10.0117863,49.3265345 13.026388,50.7991893 C12.5915208,51.4132601 12.1542641,52.0321097 11.6986889,52.676446 C11.9846181,52.8134371 12.0459456,52.8675964 12.0746181,52.854853 C15.7701934,51.0747645 17.5232022,51.7509592 19.167096,55.5389238 C20.1475385,57.8008707 21.6393084,59.5610477 24.0414323,60.4674194 C24.7216093,60.7254725 25.3253261,61.2654725 25.8740872,61.7720212 C27.2256801,63.0256495 28.2594854,64.7268884 30.5293969,64.5317557 C30.8209013,64.506269 31.4453261,65.4245876 31.4915208,65.9438796 C31.7352376,68.7020212 29.9209013,70.896269 26.9883349,71.6170654 C24.5368305,72.2191893 22.5432907,71.3422867 20.7122288,69.795561 C20.2295739,69.3861805 19.6354146,69.10503 19.0914323,68.7649415 C18.9520518,68.9401628 18.8134677,69.1185699 18.6748836,69.295384 Z" id="Shape" fill="#F5A623"></path>
                    <path d="M70.0973557,69.7792536 C69.730984,70.3057138 69.3630194,70.8345633 68.9974442,71.3594306 C71.8017805,72.5955368 73.6933734,71.1244748 75.3412495,66.5631474 C75.4352318,67.2058908 75.5284177,67.8502271 75.6375327,68.6020855 C77.5442584,68.9190766 79.6262053,68.961289 81.0677982,67.5937669 C82.3341699,66.3942979 83.0278867,64.591112 83.9477982,63.0969527 C84.0537274,63.3096076 84.2854973,63.7771297 84.5108955,64.2327049 C86.2161168,64.061466 87.5477982,62.3920855 88.2494796,59.1783687 C86.19063,61.3415545 83.9724884,62.0950058 81.1856743,61.801112 C81.60063,61.4283687 81.8833734,61.0134129 82.2736389,60.8525279 C83.3958513,60.3865987 84.5355858,59.900758 85.7159398,59.6522625 C86.9854973,59.3846518 87.4745238,58.6758023 87.5884177,57.3210235 C85.221338,57.0327049 83.2580637,57.8227934 81.3186831,58.952174 C79.0973557,60.2440324 79.3617805,62.5346518 79.1180637,64.6484571 C78.9683292,64.6317315 78.8185946,64.6165987 78.6688601,64.601466 C78.4593911,64.1140324 78.3327539,63.5652713 78.021338,63.1566872 C77.5912495,62.5927934 77.0162053,61.7182802 76.5144354,61.7270412 C75.7761168,61.7365987 74.9223115,62.2781917 74.3448778,62.830935 C73.6798336,63.4665102 73.3469132,64.4389881 72.7097451,65.1151828 C72.1577982,65.702174 71.4401876,66.2413775 70.6923115,66.5193421 C68.7099221,67.2552713 66.6797451,67.8685456 64.6463823,68.4539439 C64.2019575,68.582174 63.6659398,68.3910235 63.1800991,68.0453598 C64.1119575,67.7036784 65.0454088,67.361997 66.0728424,66.9844748 C65.5328424,66.1378377 65.151338,65.5420855 64.5691256,64.6301386 C65.2588601,64.8889881 65.6483292,64.9933244 65.9987716,65.1741209 C70.0376212,67.2672182 73.5524,65.0992536 73.6001876,60.47182 C73.611338,59.4969527 73.5794796,58.5220855 73.5675327,57.5464217 C73.7507185,57.5233244 73.9354973,57.4994306 74.1186831,57.4771297 C74.2182407,57.6061563 74.3480637,57.7200501 74.4125769,57.8658023 C74.8068247,58.7299616 74.2254088,60.2719085 75.8254973,60.2934129 C77.481338,60.3125279 79.3100106,60.2384571 80.2856743,58.6232359 C81.102046,57.2732359 81.5647893,55.7089881 82.1876212,54.2387226 C82.280807,54.0173067 82.3827539,53.7966872 82.6949663,53.0902271 C82.9394796,54.4306695 83.0916035,55.2637669 83.2429309,56.0865102 C86.4932849,56.8176607 88.5194796,55.8228819 89.1534619,53.2001386 C89.4903646,51.8079262 89.0921345,51.4152713 87.6401876,51.3037669 C86.4470902,51.212174 85.2277097,51.0003156 84.1023115,50.6076607 C81.9399221,49.8558023 79.3171787,50.0596961 76.2635504,51.4463333 C76.6785061,52.0739439 77.10063,52.7039439 77.5378867,53.3610235 C77.2487716,53.4892536 77.1858513,53.5434129 77.1563823,53.5282802 C73.5125769,51.6462448 71.7412495,52.2738554 69.992223,56.0140324 C68.9496566,58.2473067 67.4085061,59.9644748 64.9832849,60.8055368 C64.2975327,61.0436784 63.6778867,61.5661563 63.1147893,62.0575722 C61.7281522,63.2729704 60.6465592,64.9431474 58.3846123,64.6850943 C58.0939044,64.651643 57.4439929,65.551643 57.3826654,66.0693421 C57.0624884,68.8187226 58.8147008,71.0639439 61.7241699,71.8667757 C64.1589486,72.5373952 66.1771787,71.7154483 68.0488601,70.2204925 C68.5442584,69.8246518 69.1463823,69.5610235 69.6983292,69.2368642 C69.831338,69.4168642 69.9643469,69.5984571 70.0973557,69.7792536 Z" id="Shape" fill="#F5A623"></path>
                </g>
            </g>
        </g>
    </g>
</svg>