<?xml version="1.0" encoding="UTF-8"?>
<svg width="90px" height="99px" viewBox="0 0 90 99" version="1.1" xmlns="http://www.w3.org/2000/svg" xmlns:xlink="http://www.w3.org/1999/xlink">
    <!-- Generator: Sketch 50.2 (55047) - http://www.bohemiancoding.com/sketch -->
    <title>noun_183053_cc</title>
    <desc>Created with Sketch.</desc>
    <defs></defs>
    <g id="Page-1" stroke="none" stroke-width="1" fill="none" fill-rule="evenodd">
        <g id="noun_183053_cc" fill="#C94747" fill-rule="nonzero">
            <g id="Group">
                <path d="M41.1702353,1.47070588 C41.9664706,2.40564706 42.7616471,3.34058824 43.7357647,4.48305882 C43.2667059,4.54976471 42.9416471,4.53070588 42.6748235,4.64717647 C42.0691765,4.914 41.4931765,5.24752941 40.9044706,5.55247059 C41.3872941,6.12105882 41.7589412,6.90882353 42.372,7.21270588 C44.1434118,8.09258824 44.4674118,8.91529412 43.47,11.1218824 C43.1597647,11.0032941 42.8347059,10.8868235 42.5181176,10.7565882 C42.2925882,10.6634118 42.0755294,10.5501176 41.3311765,10.1996471 C42.5583529,12.1849412 43.5684706,13.6111765 44.3562353,15.1517647 C45.198,16.7992941 45.5876471,18.3928235 43.6288235,19.8084706 C42.9522353,20.2976471 42.6070588,21.6264706 42.5975294,22.5762353 C42.5774118,24.3931765 42.7118824,26.2598824 43.1290588,28.0228235 C44.028,31.8208235 42.9098824,33.2777647 39.0811765,33.3762353 C35.8888235,33.4588235 32.7324706,33.9564706 30.0218824,35.8041176 C30.0631765,36.0105882 30.1034118,36.216 30.1447059,36.4214118 C31.8261176,36.1514118 33.5022353,35.7903529 35.1963529,35.6347059 C36.6374118,35.5023529 38.3675294,35.1148235 39.4877647,35.7247059 C40.9595294,36.5262353 42.5456471,38.0138824 43.0178824,39.5364706 C43.6552941,41.5927059 42.7987059,43.8162353 40.8324706,45.1514118 C40.3094118,45.5071765 39.4009412,45.3843529 38.6767059,45.342 C36.8777647,45.2392941 35.0576471,44.7914118 33.2978824,44.9735294 C30.9663529,45.2149412 28.71,45.4118824 26.6791765,44.0862353 C22.6143529,41.4328235 22.1167059,37.3341176 25.4011765,33.7489412 C26.5478824,32.4974118 27.8428235,31.3814118 29.0710588,30.2018824 C28.9429412,30.0250588 28.8169412,29.8461176 28.6909412,29.6682353 C27.8227059,30.0949412 26.9618824,30.5375294 26.0830588,30.9441176 C24.2438824,31.7943529 23.7028235,31.4131765 23.6043529,29.4427059 C23.4105882,25.5727059 25.7897647,23.3777647 28.6401176,21.4549412 C29.3410588,20.9827059 30.0345882,20.5009412 30.7344706,19.7587059 C28.3394118,20.4691765 27.1927059,19.6263529 26.6823529,17.3668235 C26.1487059,15.0109412 26.5129412,13.2522353 28.6327059,12.0356471 C30.2516471,11.1091765 32.1194118,10.6178824 33.7849412,9.96776471 C33.588,9.27105882 32.9103529,8.16882353 33.2195294,7.61823529 C33.5774118,6.97552941 34.8183529,6.85164706 35.6410588,6.43341176 C36.5812941,5.95482353 37.5035294,5.42752941 38.3749412,4.83458824 C38.4543529,4.77952941 38.0244706,3.74188235 37.9704706,3.75352941 C36.9508235,3.99282353 35.8814118,4.18552941 34.9708235,4.66835294 C33.8823529,5.24435294 32.9389412,6.09035294 31.9192941,6.79976471 C31.8345882,6.85905882 31.6408235,6.76058824 31.3856471,6.71505882 C31.2374118,5.15011765 31.6016471,3.86470588 33.2068235,3.18282353 C34.6764706,2.55917647 36.1514118,1.94505882 37.6231765,1.32670588 C38.8058824,1.37647059 39.9885882,1.42411765 41.1702353,1.47070588 Z" id="Shape"></path>
                <path d="M0.656470588,49.1145882 C1.07576471,48.3522353 1.51094118,47.5972941 1.91435294,46.8254118 C2.83235294,45.0730588 4.01294118,44.3890588 6.05117647,45.2583529 C6.81776471,45.5844706 7.96447059,45.1609412 8.89411765,44.9110588 C9.72423529,44.6865882 10.4929412,44.2323529 11.4141176,43.8268235 C11.4458824,45.0254118 11.4723529,46.026 11.4977647,47.0265882 C11.7,47.2002353 11.9011765,47.3738824 12.1023529,47.5475294 C12.3172941,47.1165882 12.4644706,46.6348235 12.7567059,46.2652941 C13.3962353,45.4574118 14.0484706,44.6463529 14.7970588,43.9443529 C18.0137647,40.9224706 21.132,41.0272941 23.7483529,44.4854118 C25.0168235,46.1615294 26.2450588,46.8529412 28.4378824,46.7682353 C31.4957647,46.6517647 34.6690588,46.8116471 37.6295294,47.5242353 C42.7012941,48.744 44.3488235,52.2158824 42.7436471,57.4867059 C41.1215294,56.7794118 39.5089412,56.0731765 37.8984706,55.3701176 C37.8,55.5427059 37.7025882,55.7163529 37.6051765,55.89 C38.8397647,56.7698824 40.1558824,57.5576471 41.2792941,58.5592941 C42.2205882,59.3978824 43.4752941,60.4016471 43.6489412,61.4848235 C44.1052941,64.3309412 44.4155294,67.3009412 44.0904706,70.1438824 C43.7887059,72.7803529 41.2432941,73.4474118 39.0801176,71.8348235 C38.6703529,71.5267059 38.2489412,71.1847059 37.9672941,70.7675294 C36.7009412,68.8934118 35.2461176,67.4015294 32.7843529,67.1749412 C32.2485882,67.1241176 31.6948235,66.3236471 31.3094118,65.7603529 C29.1949412,62.6696471 27.2414118,59.4614118 24.984,56.4818824 C24.3211765,55.6094118 22.8917647,55.1763529 21.7281176,54.8587059 C19.8232941,54.3398824 17.8305882,54.1492941 15.9056471,53.694 C13.1908235,53.0512941 10.6634118,52.5970588 7.79717647,53.7321176 C3.98647059,55.2388235 2.63541176,54.5823529 0.550588235,51.7711765 C0.585529412,50.886 0.620470588,50.0008235 0.656470588,49.1145882 Z" id="Shape"></path>
                <path d="M35.964,98.4547059 C34.1237647,97.7315294 32.3025882,96.9522353 30.4358824,96.3021176 C28.6072941,95.6657647 26.7352941,95.1596471 24.3254118,94.4290588 C27.3208235,93.5576471 29.6195294,94.2861176 31.9002353,94.9097647 C33.3127059,95.3004706 34.6605882,95.922 36.0571765,96.3836471 C38.1610588,97.0750588 40.3538824,96.3243529 42.0871765,94.1167059 C41.1575294,94.3327059 40.5698824,94.5074118 39.9674118,94.5963529 C38.8217647,94.7657647 37.6634118,95.0315294 36.5209412,94.9828235 C35.0629412,94.9192941 33.0776471,94.7255294 33.1581176,92.9583529 C33.2057647,91.89 34.6997647,90.4891765 35.8697647,89.9565882 C38.0456471,88.9665882 40.4587059,88.506 43.1015294,87.7288235 C42.1157647,91.9937647 38.3135294,90.99 35.7607059,92.0308235 C35.7977647,92.2245882 35.8358824,92.4215294 35.8750588,92.6152941 C36.6194118,92.5136471 37.3923529,92.5051765 38.1038824,92.2955294 C40.68,91.5331765 43.1385882,92.0414118 43.704,93.5152941 C44.1656471,94.7212941 42.0956471,97.1587059 39.9684706,97.9147059 C39.3734118,98.1243529 38.7751765,98.3329412 38.1790588,98.5415294 C37.4410588,98.514 36.7030588,98.4832941 35.964,98.4547059 Z" id="Shape"></path>
                <path d="M25.956,80.7670588 C26.4250588,81.4807059 26.8941176,82.1954118 27.3610588,82.9069412 C23.5874118,84.4454118 21.1288235,82.4209412 19.1075294,76.2967059 C18.9592941,77.1501176 18.8121176,78.0003529 18.6384706,78.9967059 C16.0941176,79.3482353 13.3252941,79.326 11.4596471,77.4561176 C9.82164706,75.8149412 8.96717647,73.3923529 7.79929412,71.3731765 C7.65,71.6516471 7.326,72.2636471 7.00729412,72.8587059 C4.74882353,72.5675294 3.04094118,70.3005882 2.22776471,66.006 C4.88329412,68.9548235 7.80352941,70.0401176 11.5178824,69.7521176 C10.9810588,69.2407059 10.6178824,68.6795294 10.1064706,68.4508235 C8.63152941,67.7890588 7.13647059,67.1029412 5.57576471,66.7281176 C3.89964706,66.3268235 3.27494118,65.3675294 3.17541176,63.5632941 C6.32964706,63.2668235 8.91,64.3891765 11.4469412,65.9615294 C14.3512941,67.7615294 13.914,70.794 14.1607059,73.6136471 C14.3597647,73.5977647 14.5588235,73.5829412 14.7589412,73.5670588 C15.0554118,72.9296471 15.2438824,72.2054118 15.6748235,71.6738824 C16.2677647,70.9390588 17.064,69.7997647 17.73,69.8294118 C18.7094118,69.8685882 19.8222353,70.6203529 20.5697647,71.3752941 C21.4295294,72.2445882 21.8371765,73.5501176 22.6577647,74.4723529 C23.3714118,75.2738824 24.3031765,76.0150588 25.2878824,76.4121176 C27.8947059,77.4635294 30.5703529,78.3561176 33.2502353,79.2095294 C33.8357647,79.3969412 34.5557647,79.1608235 35.2143529,78.7214118 C33.9871765,78.2311765 32.7589412,77.742 31.4078824,77.202 C32.1585882,76.0976471 32.6858824,75.3204706 33.4948235,74.1292941 C32.5683529,74.4469412 32.0442353,74.5718824 31.5730588,74.8016471 C26.1285882,77.4307059 21.5385882,74.4204706 21.6476471,68.2687059 C21.6709412,66.9737647 21.7461176,65.6777647 21.7990588,64.3807059 C21.5555294,64.3447059 21.3130588,64.3076471 21.0705882,64.2705882 C20.9329412,64.4368235 20.7550588,64.5850588 20.6650588,64.7756471 C20.1091765,65.9107059 20.8249412,67.9817647 18.6977647,67.9489412 C16.4964706,67.914 14.0685882,67.7477647 12.8329412,65.5676471 C11.7984706,63.7411765 11.2404706,61.6447059 10.4685882,59.67 C10.3521176,59.3714118 10.2261176,59.0738824 9.83752941,58.1241176 C9.46270588,59.8965882 9.22976471,60.9977647 8.99894118,62.0841176 C4.65141176,62.9354118 1.99588235,61.5356471 1.25047059,58.0298824 C0.854470588,56.1652941 1.39976471,55.6591765 3.33211765,55.5649412 C4.92141176,55.4876471 6.54988235,55.2504706 8.06082353,54.7718824 C10.962,53.8517647 14.4391765,54.2202353 18.4468235,56.178 C17.8687059,56.9943529 17.2874118,57.8170588 16.6817647,58.6736471 C17.0618824,58.8557647 17.1434118,58.9277647 17.1815294,58.9108235 C22.0944706,56.5443529 24.4249412,57.4432941 26.6103529,62.4790588 C27.9137647,65.4861176 29.8969412,67.8261176 33.0903529,69.0310588 C33.9945882,69.3741176 34.7971765,70.092 35.5267059,70.7654118 C37.3235294,72.432 38.6978824,74.6936471 41.7155294,74.4342353 C42.1030588,74.4003529 42.9331765,75.6211765 42.9945882,76.3115294 C43.3185882,79.9782353 40.9065882,82.8952941 37.008,83.8535294 C33.7489412,84.654 31.0987059,83.4882353 28.6644706,81.432 C28.0228235,80.8877647 27.2329412,80.514 26.5097647,80.0618824 C26.3244706,80.2948235 26.1402353,80.532 25.956,80.7670588 Z" id="Shape"></path>
                <path d="M29.7487059,3.71964706 C29.9212941,5.59164706 30.0621176,7.11635294 30.2304706,8.92270588 C30.1288235,8.98941176 29.7349412,9.33776471 29.2764706,9.52941176 C25.6267059,11.0498824 24.6028235,14.1035294 24.8527059,17.6315294 C25.0051765,19.7756471 24.6896471,21.3861176 23.0410588,22.9457647 C20.9117647,24.9585882 20.6078824,29.3368235 22.0076471,32.0410588 C22.2638824,32.5355294 22.4322353,33.0776471 22.7710588,33.9194118 C21.5131765,33.6811765 20.5867059,33.5054118 19.5077647,33.3021176 C22.3147059,37.3415294 22.3252941,37.3796471 21.5512941,40.3051765 C19.0895294,38.9858824 16.7791765,39.1012941 14.4497647,40.7647059 C12.2050588,42.3677647 9.73694118,43.398 6.83576471,43.3005882 C5.56411765,43.2582353 4.42376471,43.3821176 3.99070588,41.9410588 C3.49729412,40.2998824 3.15,38.628 4.66517647,36.5876471 C5.10458824,38.3527059 5.40423529,39.5608235 5.79070588,41.1067059 C7.03588235,39.5407059 6.24070588,36.7147059 9.08470588,37.0736471 C10.8211765,37.2938824 12.5544706,37.5247059 14.6085882,37.7915294 C13.1050588,35.9650588 11.1885882,35.9078824 9.48705882,35.9841176 C7.81517647,36.0582353 7.15552941,35.4451765 6.93635294,33.9988235 C6.82623529,33.2735294 6.74894118,32.5334118 6.75952941,31.8028235 C6.786,29.6872941 7.33764706,27.6289412 9.51776471,26.9714118 C11.5676471,26.3530588 12.852,27.9465882 14.0272941,29.4564706 C14.7674118,30.4083529 15.7065882,31.2067059 16.5568235,32.0749412 C16.7304706,31.9235294 16.9041176,31.7731765 17.0788235,31.6228235 C16.6891765,31.1156471 16.3408235,30.5692941 15.9056471,30.1044706 C14.1405882,28.2155294 13.5730588,26.0332941 14.3862353,23.5842353 C14.9887059,21.7736471 16.1565882,20.6396471 18.234,20.4765882 C20.1652941,20.3262353 22.2596471,20.2256471 23.1321176,17.7278824 C21.3067059,17.3763529 19.0842353,19.5998824 17.8835294,17.1063529 C16.6584706,14.562 19.9958824,14.1702353 20.6608235,11.8927059 C19.3595294,12.7111765 18.3663529,13.3390588 17.3721176,13.9658824 C17.2567059,13.8684706 17.1412941,13.77 17.028,13.6725882 C17.4504706,13.1188235 17.7564706,12.3098824 18.3176471,12.0494118 C22.2469412,10.2229412 25.0358824,6.90247059 28.4791765,4.45129412 C28.7671765,4.24058824 29.0975294,4.09023529 29.7487059,3.71964706 Z" id="Shape"></path>
                <path d="M3.53752941,73.3764706 C5.868,74.3590588 7.44776471,75.6275294 8.84541176,77.4836471 C10.8423529,80.1307059 14.1342353,80.5372941 17.2651765,80.6378824 C18.3769412,80.6738824 18.9285882,80.8549412 19.476,81.8894118 C20.9689412,84.7164706 23.3047059,85.5370588 26.5775294,84.9991765 C28.1763529,84.7355294 29.9075294,84.7037647 31.4872941,85.0203529 C35.7649412,85.8801176 39.8827059,86.4635294 42.9681176,82.1435294 C43.1343529,82.2547059 43.3016471,82.368 43.4689412,82.4781176 C43.4043529,83.1589412 43.5557647,83.9795294 43.2232941,84.4803529 C42.7616471,85.1749412 42.0225882,85.8864706 41.2538824,86.1427059 C37.2907059,87.4715294 33.3275294,88.8564706 29.2732941,89.8337647 C25.1565882,90.8269412 21.5311765,89.0025882 19.1795294,85.4968235 C18.6956471,84.7757647 17.7395294,84.1087059 16.8956471,83.9350588 C11.1854118,82.7671765 6.45882353,80.316 3.97270588,74.6862353 C3.82764706,74.3601176 3.744,74.0075294 3.53752941,73.3764706 Z" id="Shape"></path>
                <path d="M11.4744706,84.3342353 C11.6915294,84.2876471 11.7645882,84.2569412 11.8355294,84.2601176 C15.1792941,84.4782353 17.7871765,85.7234118 19.9556471,88.5398824 C21.1690588,90.1143529 23.5927059,90.7581176 25.4414118,91.8 C21.2950588,93.3522353 15.3328235,90.2265882 11.4744706,84.3342353 Z" id="Shape"></path>
                <path d="M15.6017647,16.8744706 C15.7118824,17.8168235 16.0284706,18.5463529 15.8156471,19.0514118 C15.0501176,20.8598824 14.2517647,22.6916471 13.1548235,24.3031765 C12.7048235,24.9649412 11.4607059,25.0835294 10.5765882,25.4488235 C10.3934118,24.7372941 9.84917647,23.8552941 10.0916471,23.3449412 C10.9482353,21.5311765 11.9964706,19.7894118 13.1410588,18.1387059 C13.5021176,17.6177647 14.3936471,17.4674118 15.6017647,16.8744706 Z" id="Shape"></path>
                <path d="M50.1670588,1.02705882 C49.3443529,1.93976471 48.5237647,2.85247059 47.5178824,3.96635294 C47.9858824,4.04682353 48.3109412,4.03623529 48.5735294,4.16117647 C49.1717647,4.44494118 49.7382353,4.79435294 50.3195294,5.11517647 C49.8187059,5.66894118 49.4237647,6.44717647 48.8022353,6.73411765 C47.0085882,7.56423529 46.6623529,8.37741176 47.5972941,10.6104706 C47.9117647,10.5003529 48.2378824,10.3934118 48.5576471,10.2727059 C48.7863529,10.1858824 49.0065882,10.0789412 49.7594118,9.74858824 C48.4782353,11.6978824 47.43,13.0976471 46.5977647,14.6149412 C45.7104706,16.2370588 45.2774118,17.82 47.1938824,19.2907059 C47.8567059,19.7989412 48.1658824,21.1362353 48.1489412,22.0870588 C48.1182353,23.904 47.9297647,25.7654118 47.4649412,27.5167059 C46.4601176,31.2882353 47.5348235,32.7748235 51.3614118,32.9802353 C54.5527059,33.1517647 57.6921176,33.7383529 60.3487059,35.6611765 C60.3021176,35.8655294 60.2576471,36.0698824 60.21,36.2742353 C58.5349412,35.9565882 56.8704706,35.55 55.1816471,35.3477647 C53.7448235,35.1751765 52.0263529,34.74 50.8870588,35.3181176 C49.3962353,36.0783529 47.7677647,37.5215294 47.2542353,39.0292941 C46.5585882,41.0654118 47.3537647,43.3132941 49.2808235,44.7045882 C49.7943529,45.0741176 50.706,44.9756471 51.4302353,44.9544706 C53.2302353,44.9025882 55.062,44.5034118 56.8185882,44.7363529 C59.1395294,45.0434118 61.3895294,45.3017647 63.4584706,44.0332941 C67.5952941,41.4952941 68.2083529,37.4114118 65.0244706,33.7362353 C63.9127059,32.4529412 62.6495294,31.3009412 61.4551765,30.0885882 C61.5864706,29.9138824 61.7177647,29.7402353 61.8490588,29.5644706 C62.7067059,30.0155294 63.5537647,30.4824706 64.4209412,30.9123529 C66.2357647,31.8123529 66.7874118,31.4470588 66.9398824,29.4797647 C67.2405882,25.6171765 64.926,23.3555294 62.1285882,21.3543529 C61.4414118,20.8630588 60.7616471,20.3611765 60.0829412,19.5998824 C62.4568235,20.3770588 63.6278824,19.5670588 64.2007059,17.3223529 C64.8,14.9823529 64.4876471,13.2141176 62.3985882,11.9392941 C60.8082353,10.9672941 58.9563529,10.4241176 57.3088235,9.72847059 C57.5237647,9.03705882 58.2321176,7.95494118 57.9398824,7.39588235 C57.5978824,6.74258824 56.3632941,6.58482353 55.5532941,6.14329412 C54.6247059,5.63823529 53.7183529,5.08658824 52.8649412,4.46929412 C52.7865882,4.41211765 53.2461176,3.38611765 53.2990588,3.39988235 C54.3112941,3.66776471 55.3754118,3.88905882 56.2722353,4.39729412 C57.3437647,5.00294118 58.2628235,5.87541176 59.2634118,6.61341176 C59.346,6.67482353 59.5408235,6.58164706 59.7981176,6.54352941 C59.9897647,4.98388235 59.6615294,3.68788235 58.0764706,2.96258824 C56.6237647,2.29764706 55.1678824,1.64223529 53.712,0.983647059 C52.5324706,0.999529412 51.3508235,1.01435294 50.1670588,1.02705882 Z" id="Shape"></path>
                <path d="M89.3350588,49.7837647 C88.9369412,49.0097647 88.5229412,48.2431765 88.1417647,47.4607059 C87.2735294,45.684 86.1130588,44.9671765 84.0515294,45.7792941 C83.2764706,46.0831765 82.1414118,45.6278824 81.2191765,45.3525882 C80.3954118,45.1048235 79.6394118,44.6294118 78.7298824,44.1974118 C78.6652941,45.3949412 78.6102353,46.3934118 78.5562353,47.394 C78.3508235,47.5612941 78.1422353,47.7307059 77.9378824,47.8969412 C77.7356471,47.4607059 77.6001176,46.9736471 77.3184706,46.5967059 C76.7022353,45.7718824 76.0711765,44.9428235 75.3448235,44.2185882 C72.216,41.1077647 69.0935294,41.1278824 66.3808235,44.5097647 C65.0657647,46.1488235 63.8195294,46.8063529 61.6309412,46.6612941 C58.5772941,46.458 55.4018824,46.53 52.4223529,47.16 C47.3198824,48.2389412 45.5738824,51.66 47.0318824,56.9763529 C48.6730588,56.3124706 50.3047059,55.6538824 51.9331765,54.9942353 C52.0274118,55.1721176 52.1195294,55.3468235 52.2127059,55.5236471 C50.9558824,56.3685882 49.6175294,57.1182353 48.4655294,58.0891765 C47.502,58.9012941 46.2197647,59.8701176 46.0154118,60.9469412 C45.4807059,63.7803529 45.0868235,66.7408235 45.3324706,69.5911765 C45.5611765,72.2350588 48.0854118,72.9730588 50.2941176,71.4208235 C50.7134118,71.1254118 51.1443529,70.7929412 51.4365882,70.3842353 C52.7558824,68.5471765 54.2498824,67.0976471 56.718,66.9377647 C57.2516471,66.9028235 57.8308235,66.1203529 58.2321176,65.5655294 C60.4291765,62.5341176 62.4737647,59.3830588 64.8127059,56.4691765 C65.4988235,55.6125882 66.9409412,55.2197647 68.112,54.9370588 C70.0305882,54.4701176 72.0275294,54.3377647 73.9641176,53.9354118 C76.6958824,53.3678824 79.2349412,52.9856471 82.0672941,54.1990588 C85.8345882,55.8127059 87.2057647,55.1932941 89.3668235,52.4445882 C89.3562353,51.5572941 89.3456471,50.67 89.3350588,49.7837647 Z" id="Shape"></path>
                <path d="M52.6627059,98.1190588 C54.5230588,97.4477647 56.3664706,96.7192941 58.2490588,96.1231765 C60.0935294,95.5355294 61.9803529,95.0834118 64.4092941,94.4184706 C61.4382353,93.4665882 59.1194118,94.1304706 56.8238824,94.6905882 C55.4008235,95.04 54.036,95.6244706 52.6267059,96.0458824 C50.5037647,96.6801176 48.3331765,95.8690588 46.6602353,93.6127059 C47.5835294,93.8541176 48.1669412,94.0468235 48.7662353,94.1516471 C49.9076471,94.3507059 51.0564706,94.6503529 52.2,94.6344706 C53.6611765,94.6122353 55.6528235,94.4756471 55.62,92.7031765 C55.5998824,91.6348235 54.1471765,90.1916471 52.992,89.6272941 C50.8468235,88.578 48.4454118,88.0507059 45.8269412,87.2004706 C46.6909412,91.4897647 50.5238824,90.594 53.0428235,91.7047059 C53.0015294,91.9005882 52.956,92.0943529 52.9147059,92.2881176 C52.1714118,92.1663529 51.4005882,92.1345882 50.6922353,91.9058824 C48.1404706,91.0715294 45.6691765,91.5088235 45.0614118,92.9710588 C44.5669412,94.1622353 46.566,96.6547059 48.6730588,97.47 C49.2617647,97.6987059 49.8525882,97.9231765 50.4444706,98.1476471 C51.1867059,98.1381176 51.9247059,98.1285882 52.6627059,98.1190588 Z" id="Shape"></path>
                <path d="M63.1598824,80.7172941 C62.6728235,81.4171765 62.1836471,82.1202353 61.6976471,82.818 C65.4257647,84.4612941 67.9404706,82.5056471 70.1311765,76.4417647 C70.2561176,77.2962353 70.38,78.1528235 70.5250588,79.1523529 C73.0598824,79.5737647 75.8276471,79.6298824 77.7441176,77.8118824 C79.4276471,76.2172941 80.3498824,73.8201176 81.5728235,71.8337647 C81.7136471,72.1164706 82.0217647,72.738 82.3214118,73.3436471 C84.5883529,73.116 86.3587059,70.8967059 87.2915294,66.6243529 C84.5544706,69.5001176 81.6056471,70.5017647 77.9008235,70.1110588 C78.4524706,69.6155294 78.8283529,69.0638824 79.3471765,68.85 C80.8390588,68.2305882 82.3542353,67.5847059 83.9234118,67.2543529 C85.6111765,66.8985882 86.2612941,65.9562353 86.4127059,64.1551765 C83.2658824,63.7718824 80.6558824,64.8222353 78.0776471,66.3236471 C75.1245882,68.0410588 75.4761176,71.0862353 75.1521176,73.8963529 C74.9530588,73.8741176 74.754,73.854 74.5549412,73.8338824 C74.2764706,73.1858824 74.1081176,72.4563529 73.6941176,71.9131765 C73.1223529,71.1635294 72.3578824,70.0009412 71.6908235,70.0125882 C70.7092941,70.0252941 69.5742353,70.7452941 68.8065882,71.4801176 C67.9224706,72.3250588 67.4798824,73.6178824 66.6328235,74.5168235 C65.8990588,75.2971765 64.9450588,76.014 63.9508235,76.3835294 C61.3154118,77.3618824 58.6164706,78.1771765 55.9132941,78.9554118 C55.3224706,79.1258824 54.6098824,78.8717647 53.964,78.4122353 C55.2028235,77.958 56.4437647,77.5037647 57.8096471,77.0018824 C57.0917647,75.8763529 56.5845882,75.0843529 55.8105882,73.872 C56.7275294,74.2161176 57.2452941,74.3548235 57.7111765,74.5951765 C63.0804706,77.3777647 67.7530588,74.4956471 67.8165882,68.3438824 C67.8314118,67.0478824 67.7890588,65.7518824 67.7731765,64.4548235 C68.0167059,64.4241176 68.2623529,64.3923529 68.5058824,64.3627059 C68.6382353,64.5342353 68.8108235,64.6856471 68.8965882,64.8794118 C69.4207059,66.0282353 68.6477647,68.0781176 70.7749412,68.1067059 C72.9762353,68.1321176 75.4072941,68.0336471 76.7043529,65.8863529 C77.7896471,64.0916471 78.4048235,62.0121176 79.2328235,60.0575294 C79.3567059,59.7631765 79.4922353,59.4698824 79.9072941,58.5307059 C80.2323529,60.3127059 80.4345882,61.4202353 80.6357647,62.514 C84.9568235,63.486 87.6504706,62.1635294 88.4932941,58.6768235 C88.9411765,56.826 88.4117647,56.304 86.4815294,56.1557647 C84.8954118,56.034 83.2743529,55.7523529 81.7782353,55.2303529 C78.9035294,54.2308235 75.4168235,54.5018824 71.3572941,56.3452941 C71.9089412,57.1796471 72.4701176,58.0171765 73.0514118,58.8907059 C72.6670588,59.0611765 72.5834118,59.1331765 72.5442353,59.1130588 C67.7001176,56.6110588 65.3452941,57.4454118 63.0201176,62.4176471 C61.6341176,65.3865882 59.5852941,67.6694118 56.3611765,68.7875294 C55.4495294,69.1041176 54.6257647,69.7987059 53.8771765,70.452 C52.0337647,72.0677647 50.5958824,74.2881176 47.5888235,73.9450588 C47.2023529,73.9005882 46.3383529,75.0970588 46.2568235,75.7852941 C45.8311765,79.4403529 48.1605882,82.4251765 52.0284706,83.4924706 C55.2652941,84.384 57.9483529,83.2912941 60.4365882,81.3038824 C61.0951765,80.7776471 61.8956471,80.4271765 62.6294118,79.9962353 C62.8062353,80.2355294 62.9830588,80.4769412 63.1598824,80.7172941 Z" id="Shape"></path>
                <path d="M61.5218824,3.59470588 C61.2974118,5.46141176 61.1142353,6.98082353 60.8961176,8.78294118 C60.9945882,8.85070588 61.3789412,9.21070588 61.8342353,9.41505882 C65.4395294,11.0371765 66.3776471,14.1183529 66.0282353,17.6368235 C65.8185882,19.7767059 66.0875294,21.3956471 67.6916471,22.9987059 C69.7637647,25.0718824 69.9458824,29.4554118 68.4709412,32.1204706 C68.1998824,32.6075294 68.0167059,33.1443529 67.6545882,33.9776471 C68.9177647,33.7732941 69.8495294,33.624 70.9358824,33.4492941 C68.0145882,37.4092941 68.0029412,37.4463529 68.6975294,40.3930588 C71.1931765,39.1415294 73.4992941,39.3215294 75.7821176,41.0495294 C77.9781176,42.7150588 80.4208235,43.8141176 83.3209412,43.7982353 C84.5936471,43.7918824 85.7318824,43.9464706 86.2051765,42.5181176 C86.7430588,40.8917647 87.1369412,39.2304706 85.6778824,37.1477647 C85.1918824,38.9011765 84.8583529,40.0987059 84.4305882,41.634 C83.2277647,40.0330588 84.1002353,37.2303529 81.2467059,37.5098824 C79.506,37.6803529 77.7674118,37.8624706 75.7069412,38.0710588 C77.2602353,36.288 79.1798824,36.2848235 80.8771765,36.4087059 C82.5448235,36.5294118 83.2224706,35.9343529 83.4829412,34.4932941 C83.6121176,33.7711765 83.7105882,33.0342353 83.7222353,32.3025882 C83.754,30.1870588 83.2584706,28.1149412 81.0995294,27.3970588 C79.0676471,26.7215294 77.7367059,28.2790588 76.5232941,29.7561176 C75.7535294,30.6868235 74.7931765,31.4597647 73.9207059,32.3025882 C73.7491765,32.148 73.5797647,31.9923529 73.4124706,31.8367059 C73.8148235,31.3390588 74.1790588,30.8043529 74.6258824,30.3511765 C76.4428235,28.5130588 77.0717647,26.3477647 76.3252941,23.8764706 C75.7747059,22.05 74.6375294,20.8842353 72.5664706,20.664 C70.6404706,20.4585882 68.5482353,20.3008235 67.7467059,17.7787059 C69.5805882,17.4801176 71.7405882,19.764 73.0111765,17.3054118 C74.3050588,14.796 70.9803529,14.31 70.3810588,12.0134118 C71.658,12.87 72.6352941,13.5232941 73.6104706,14.1776471 C73.728,14.0834118 73.8465882,13.9881176 73.962,13.8938824 C73.5554118,13.3284706 73.2727059,12.5110588 72.7189412,12.2347059 C68.8425882,10.2991765 66.1468235,6.90352941 62.7723529,4.356 C62.4875294,4.14317647 62.1603529,3.98223529 61.5218824,3.59470588 Z" id="Shape"></path>
                <path d="M85.7795294,73.9577647 C83.4204706,74.8715294 81.8068235,76.0965882 80.3572941,77.9114118 C78.2883529,80.5044706 74.988,80.8168235 71.8517647,80.8284706 C70.74,80.8348235 70.1841176,81.0010588 69.6081176,82.0185882 C68.0378824,84.8054118 65.6809412,85.5592941 62.424,84.9271765 C60.8325882,84.6201176 59.1024706,84.5407059 57.5152941,84.8138824 C53.2143529,85.5518824 49.0828235,86.0230588 46.1191765,81.6162353 C45.9487059,81.7242353 45.7782353,81.8322353 45.6088235,81.9391765 C45.6532941,82.6189412 45.4807059,83.4374118 45.7994118,83.9467059 C46.2409412,84.654 46.9598824,85.3814118 47.7222353,85.662 C51.6451765,87.0988235 55.5670588,88.5949412 59.5948235,89.6865882 C63.6808235,90.7951765 67.3570588,89.0714118 69.8050588,85.6344706 C70.3090588,84.9271765 71.2831765,84.2865882 72.1312941,84.1383529 C77.8722353,83.1292941 82.6655294,80.8104706 85.3072941,75.2527059 C85.4597647,74.9308235 85.5550588,74.5792941 85.7795294,73.9577647 Z" id="Shape"></path>
                <path d="M77.5387059,84.6868235 C77.3216471,84.6349412 77.2507059,84.6010588 77.1787059,84.6042353 C73.8296471,84.7270588 71.1889412,85.8991765 68.9410588,88.6531765 C67.6852941,90.1937647 65.2457647,90.7687059 63.3663529,91.7629412 C67.4703529,93.4284706 73.5183529,90.4711765 77.5387059,84.6868235 Z" id="Shape"></path>
                <path d="M75.2961176,17.1391765 C75.1584706,18.0772941 74.8207059,18.7983529 75.0197647,19.3087059 C75.7344706,21.1372941 76.4809412,22.9912941 77.5344706,24.6335294 C77.9654118,25.3058824 79.2063529,25.4594118 80.0777647,25.8490588 C80.2821176,25.1428235 80.8496471,24.2767059 80.6230588,23.7589412 C79.8172941,21.9208235 78.8167059,20.1525882 77.7197647,18.4690588 C77.3735294,17.9407059 76.4862353,17.766 75.2961176,17.1391765 Z" id="Shape"></path>
            </g>
        </g>
    </g>
</svg>