<?xml version="1.0" encoding="UTF-8"?>
<svg width="150px" height="150px" viewBox="0 0 150 150" version="1.1" xmlns="http://www.w3.org/2000/svg" xmlns:xlink="http://www.w3.org/1999/xlink">
    <!-- Generator: Sketch 50.2 (55047) - http://www.bohemiancoding.com/sketch -->
    <title>Group 3</title>
    <desc>Created with Sketch.</desc>
    <defs></defs>
    <g id="Page-1" stroke="none" stroke-width="1" fill="none" fill-rule="evenodd">
        <g id="noun_79860_cc" transform="translate(-247.000000, -4.000000)">
            <g id="Group-3" transform="translate(247.000000, 4.000000)">
                <rect id="Rectangle" fill="#FFF8D2" x="0" y="0" width="150" height="150"></rect>
                <g id="Group-2" transform="translate(12.000000, 31.000000)">
                    <g id="Group">
                        <path d="M34.813,29.375 C34.851,29.329 34.886,29.279 34.925,29.233 C34.885,29.281 34.849,29.326 34.813,29.375 Z" id="Shape"></path>
                        <path d="M16.489,46.269 C16.492,46.264 16.512,46.253 16.511,46.251 C16.502,46.254 16.495,46.262 16.489,46.269 Z" id="Shape"></path>
                        <path d="M16.479,46.286 C16.477,46.293 16.477,46.294 16.479,46.286 Z" id="Shape"></path>
                        <circle id="Oval" cx="42.307" cy="39.27" r="5.282"></circle>
                        <path d="M89.784,9.836 C89.67,10.119 89.617,10.573 89.332,11.067 C89.202,11.318 89.076,11.604 88.91,11.898 C88.717,12.174 88.508,12.474 88.284,12.793 C88.04,13.095 87.74,13.385 87.45,13.706 C87.132,14.001 86.77,14.284 86.406,14.585 C85.601,15.127 84.774,15.644 83.722,16.052 C82.726,16.484 81.625,16.75 80.457,16.931 C80.074,16.991 79.672,17.022 79.274,17.058 C79.253,17.023 79.234,17 79.219,17.006 C79.072,17.051 78.981,17.078 78.919,17.097 C78.218,17.153 77.503,17.195 76.773,17.234 C76.132,17.263 75.484,17.295 74.803,17.344 C74.666,17.352 74.544,17.366 74.414,17.377 C74.518,17.252 74.622,17.126 74.707,16.976 C74.93,16.608 75.078,16.153 75.086,15.717 C75.112,15.495 75.074,15.287 75.063,15.074 L75,14.516 C74.942,14.128 74.955,13.785 74.932,13.421 C74.963,13.067 74.941,12.7 75.024,12.369 C75.055,12.2 75.086,12.034 75.117,11.871 C75.172,11.716 75.225,11.564 75.277,11.416 C75.36,11.106 75.547,10.868 75.675,10.621 C75.807,10.373 76.01,10.208 76.149,10.026 C76.287,9.839 76.461,9.734 76.587,9.628 C76.849,9.422 76.998,9.304 76.998,9.304 C76.998,9.304 76.835,9.403 76.55,9.576 C76.409,9.668 76.219,9.754 76.055,9.925 C75.891,10.092 75.658,10.242 75.488,10.482 C75.322,10.721 75.092,10.958 74.962,11.273 C74.887,11.426 74.809,11.583 74.73,11.743 C74.675,11.913 74.62,12.086 74.563,12.263 C74.431,12.616 74.405,12.997 74.326,13.382 C74.3,13.766 74.244,14.184 74.254,14.555 L74.249,15.136 C74.234,15.301 74.248,15.473 74.205,15.621 C74.16,15.933 74.03,16.188 73.856,16.409 C73.686,16.638 73.457,16.811 73.229,16.979 C72.966,17.152 72.682,17.345 72.459,17.505 C72.397,17.551 72.339,17.585 72.279,17.624 C71.149,17.782 70.007,17.972 68.872,18.245 C67.55,18.552 66.272,19.043 65.054,19.657 C64.434,20.002 63.81,20.36 63.373,20.694 L63.013,20.945 L62.835,21.07 L62.6,21.26 C62.365,21.455 62.131,21.647 61.902,21.837 C60.995,22.612 60.189,23.414 59.491,24.205 C58.794,24.998 58.207,25.782 57.719,26.508 C57.487,26.881 57.27,27.23 57.069,27.552 C57.025,27.636 56.991,27.703 56.949,27.785 C54.921,25.922 52.399,24.584 49.587,24.038 C49.691,23.692 49.798,23.335 49.904,22.965 C50.222,22.049 50.435,20.795 50.683,19.566 C50.916,18.34 50.965,16.895 50.747,15.484 C50.54,14.065 50.024,12.577 49.077,11.314 C48.143,10.036 46.745,9.109 45.294,8.638 C43.941,8.226 42.368,8.068 41.009,8.09 C40.532,8.1 40.075,8.133 39.615,8.162 L39.6,8.142 C39.6,8.142 39.582,8.158 39.576,8.164 C39.255,8.185 38.934,8.199 38.62,8.223 C38.113,8.147 37.493,7.986 36.864,7.8 C36.708,7.745 36.433,7.673 36.29,7.593 C36.118,7.524 35.956,7.427 35.806,7.314 C35.661,7.2 35.525,7.076 35.421,6.936 C35.311,6.799 35.218,6.657 35.151,6.512 C35.005,6.231 34.918,5.97 34.866,5.787 C34.813,5.603 34.782,5.498 34.782,5.498 C34.782,5.498 34.79,5.607 34.803,5.799 C34.815,5.991 34.845,6.268 34.933,6.596 C34.97,6.763 35.036,6.937 35.125,7.119 C35.208,7.301 35.334,7.482 35.477,7.655 C35.623,7.825 35.793,7.988 35.998,8.129 C36.142,8.24 36.263,8.31 36.394,8.384 C35.386,8.439 34.408,8.461 33.52,8.345 C32.435,8.208 31.476,7.794 30.907,7.047 C30.553,6.656 30.366,6.272 30.146,5.887 C29.972,5.476 29.792,5.088 29.702,4.694 C29.464,3.922 29.42,3.208 29.411,2.625 C29.439,2.045 29.486,1.578 29.594,1.281 C29.68,0.976 29.725,0.813 29.725,0.813 C29.725,0.813 29.664,0.971 29.551,1.268 C29.415,1.56 29.324,2.022 29.239,2.615 C29.192,3.21 29.17,3.95 29.343,4.779 C29.4,5.2 29.55,5.626 29.697,6.082 C29.889,6.521 30.109,7.031 30.408,7.422 C30.994,8.373 32.161,9.005 33.349,9.258 C34.556,9.529 35.807,9.573 37.096,9.612 C38.375,9.636 39.684,9.625 40.963,9.716 C42.264,9.829 43.392,10.04 44.603,10.514 C45.68,10.991 46.567,11.723 47.126,12.663 C47.694,13.595 47.977,14.692 48.03,15.786 C48.089,16.894 47.97,17.933 47.67,18.965 C47.349,19.988 47.147,20.9 46.711,21.874 C46.445,22.558 46.192,23.175 45.956,23.791 C42.535,23.967 39.272,25.292 36.696,27.478 L36.62,27.411 L36.604,27.399 L36.541,27.351 L36.415,27.256 L36.163,27.066 L35.91,26.876 L35.458,26.616 L34.991,26.376 L34.756,26.265 L34.639,26.212 L34.609,26.199 L34.594,26.192 L34.448,26.143 L34.409,26.134 L33.177,25.849 L31.652,25.66 L30.341,25.588 L29.128,25.522 C28.791,25.506 28.313,25.442 27.912,25.405 C27.348,25.335 26.804,25.246 26.254,25.144 C26.172,25.086 26.091,25.025 26.039,24.949 L25.74,24.59 C25.575,24.097 25.417,23.597 25.274,23.086 C25.126,22.554 24.966,22.019 24.793,21.486 C24.606,20.955 24.386,20.437 24.118,19.945 C23.965,19.709 23.824,19.467 23.664,19.24 L23.135,18.599 L23.58,19.294 C23.71,19.536 23.819,19.788 23.938,20.032 C24.139,20.539 24.29,21.061 24.408,21.593 C24.631,22.659 24.742,23.76 24.99,24.868 L24.99,24.871 C24.416,24.729 23.844,24.573 23.288,24.38 C22.544,24.123 21.813,23.824 21.121,23.463 C20.76,23.302 20.441,23.083 20.105,22.884 L19.854,22.733 L19.792,22.695 C19.796,22.7 19.738,22.657 19.794,22.702 L19.762,22.679 L19.635,22.585 L19.127,22.209 C18.765,21.959 18.507,21.707 18.213,21.457 C17.916,21.22 17.651,20.924 17.377,20.64 C17.089,20.365 16.856,20.051 16.612,19.741 C16.352,19.44 16.151,19.105 15.946,18.77 C15.719,18.444 15.558,18.09 15.399,17.732 C15.212,17.382 15.098,17.011 14.992,16.634 C14.854,16.263 14.795,15.878 14.749,15.488 L14.671,14.926 L14.666,14.294 C14.653,13.867 14.664,13.454 14.707,13.058 C14.736,12.656 14.766,12.249 14.827,11.832 L15.166,9.331 C15.282,8.493 15.359,7.643 15.387,6.796 C15.375,6.37 15.385,5.945 15.356,5.524 L15.184,4.268 L15.232,5.528 C15.219,5.946 15.169,6.364 15.139,6.778 C15.03,7.607 14.872,8.426 14.676,9.242 L14.091,11.705 C13.988,12.115 13.913,12.543 13.84,12.976 C13.752,13.412 13.7,13.838 13.671,14.253 L13.613,14.882 C13.605,15.151 13.627,15.342 13.633,15.577 C13.642,16.029 13.67,16.48 13.781,16.918 C13.861,17.363 13.954,17.807 14.122,18.225 C14.265,18.654 14.415,19.081 14.631,19.475 C14.825,19.881 15.024,20.288 15.279,20.656 C15.518,21.035 15.755,21.421 16.044,21.761 C16.386,22.222 16.803,22.692 17.224,23.123 C17.143,23.086 17.065,23.055 16.983,23.016 C16.704,22.884 16.367,22.736 16.116,22.599 L15.68,22.369 L15.304,22.118 C15.051,21.954 14.82,21.742 14.594,21.549 C14.161,21.137 13.79,20.705 13.506,20.307 C12.932,19.515 12.609,18.936 12.609,18.936 C12.609,18.936 12.844,19.55 13.309,20.433 C13.538,20.876 13.852,21.372 14.247,21.873 C14.456,22.113 14.664,22.368 14.925,22.597 L15.32,22.947 L15.718,23.238 C16.019,23.458 16.269,23.609 16.551,23.796 C16.823,23.977 17.102,24.148 17.375,24.312 C17.647,24.476 17.929,24.62 18.193,24.758 C18.477,24.875 18.725,25.014 18.998,25.09 C19.275,25.168 19.483,25.265 19.785,25.285 C19.798,25.286 19.811,25.288 19.824,25.289 C19.881,25.325 19.933,25.367 19.991,25.4 C20.748,25.896 21.544,26.317 22.357,26.692 C23.172,27.067 24.007,27.382 24.854,27.66 C25.688,27.931 26.587,28.166 27.451,28.359 C27.883,28.443 28.233,28.53 28.732,28.611 L30.03,28.811 L31.231,28.997 C31.556,29.072 31.878,29.139 32.2,29.198 L33.396,29.602 L33.433,29.615 C33.383,29.598 33.286,29.566 33.304,29.573 L33.307,29.576 L33.312,29.582 L33.333,29.604 L33.376,29.644 C33.403,29.668 33.433,29.688 33.464,29.705 C33.495,29.723 33.526,29.733 33.566,29.747 L33.798,29.961 L34.03,30.175 L34.124,30.261 C34.123,30.262 34.123,30.263 34.122,30.264 C34.122,30.264 34.12,30.263 34.122,30.264 C34.12,30.266 34.119,30.268 34.117,30.271 C34.096,30.275 34.078,30.268 34.071,30.254 L34.081,30.301 C34.083,30.308 34.084,30.312 34.086,30.318 C33.347,31.362 32.729,32.505 32.269,33.74 C31.63,35.455 31.34,37.212 31.339,38.945 C31.177,39.113 30.984,39.31 30.808,39.451 C30.535,39.725 30.16,39.988 29.726,40.291 C29.621,40.342 29.512,40.394 29.4,40.448 L29.229,40.537 L29.142,40.584 L29.098,40.608 L29.092,40.611 C28.927,40.651 29.312,40.56 29.269,40.57 L29.251,40.574 L29.216,40.582 C28.857,40.66 28.411,40.788 28.07,40.836 C27.942,40.831 27.813,40.833 27.679,40.841 C27.544,40.847 27.421,40.879 27.211,40.844 C26.829,40.8 26.442,40.796 26.002,40.69 C25.792,40.65 25.579,40.609 25.363,40.568 C25.123,40.507 24.879,40.445 24.632,40.383 C24.139,40.258 23.635,40.131 23.123,40.001 C22.08,39.749 21.071,39.433 19.917,39.216 C19.349,39.106 18.794,38.962 18.208,38.881 L16.43,38.695 L15.988,38.651 L15.961,38.648 L15.862,38.644 L15.809,38.646 L15.704,38.65 L15.493,38.659 L14.65,38.695 L13.809,38.73 C13.529,38.744 13.216,38.822 12.924,38.866 C12.337,38.981 11.739,39.052 11.192,39.208 C10.653,39.381 10.122,39.553 9.599,39.721 C9.073,39.875 8.605,40.149 8.123,40.35 C7.647,40.567 7.179,40.767 6.761,41.035 C5.902,41.526 5.101,41.996 4.418,42.515 C4.07,42.764 3.73,42.993 3.421,43.227 C3.121,43.473 2.836,43.706 2.568,43.925 C2.029,44.358 1.57,44.744 1.214,45.09 C0.488,45.761 0.074,46.144 0.074,46.144 C0.074,46.144 0.527,45.809 1.321,45.224 C1.71,44.921 2.208,44.59 2.785,44.223 C3.071,44.037 3.376,43.84 3.697,43.631 C4.026,43.436 4.383,43.249 4.748,43.045 C5.466,42.614 6.292,42.247 7.164,41.869 C7.59,41.657 8.057,41.518 8.527,41.364 C9.003,41.226 9.465,41.015 9.97,40.928 C10.468,40.827 10.974,40.723 11.487,40.619 C11.996,40.533 12.504,40.538 13.011,40.489 C13.27,40.478 13.507,40.432 13.783,40.448 L14.622,40.506 L15.464,40.564 L15.675,40.579 L15.78,40.586 L15.833,40.589 C15.806,40.588 15.912,40.593 15.775,40.587 L15.788,40.59 L15.812,40.595 L16.204,40.682 L17.758,41.021 C18.273,41.151 18.787,41.349 19.294,41.506 C19.722,41.635 20.157,41.798 20.591,41.962 C20.259,42.082 19.92,42.217 19.585,42.415 C19.114,42.7 18.709,43.122 18.423,43.591 C17.909,44.495 17.404,45.397 16.899,46.208 C16.685,46.219 16.495,46.233 16.489,46.252 C16.485,46.265 16.483,46.269 16.481,46.275 C16.452,46.308 16.352,46.371 16.154,46.407 C15.92,46.452 15.602,46.464 15.264,46.437 C14.907,46.397 14.526,46.354 14.145,46.311 C13.766,46.256 13.335,46.314 12.969,46.313 C12.602,46.364 12.265,46.422 11.977,46.47 C11.414,46.614 11.038,46.708 11.038,46.708 C11.038,46.708 11.422,46.675 11.998,46.625 C12.286,46.623 12.622,46.621 12.975,46.629 C13.328,46.691 13.678,46.686 14.053,46.801 C14.428,46.906 14.803,47.012 15.155,47.112 C15.522,47.2 15.875,47.249 16.21,47.246 C15.985,47.558 15.761,47.848 15.533,48.1 C15.304,48.385 15.064,48.618 14.845,48.82 C14.635,49.031 14.441,49.203 14.264,49.325 C13.922,49.584 13.727,49.732 13.727,49.732 C13.727,49.732 13.936,49.602 14.302,49.377 C14.491,49.272 14.703,49.118 14.935,48.925 C15.176,48.743 15.442,48.529 15.702,48.263 C16.284,47.728 16.874,47.013 17.466,46.224 L17.511,46.186 C17.511,46.186 17.498,46.186 17.493,46.186 C18.014,45.49 18.536,44.738 19.056,43.995 C19.323,43.651 19.637,43.382 20.015,43.195 C20.4,43.017 20.827,42.907 21.262,42.808 C21.622,42.737 21.992,42.652 22.313,42.614 C22.314,42.615 22.315,42.615 22.317,42.616 C22.812,42.802 23.299,42.984 23.776,43.163 C24.014,43.253 24.25,43.341 24.482,43.429 C24.748,43.512 25.009,43.594 25.268,43.676 C25.756,43.85 26.31,43.943 26.826,44.053 C27.334,44.166 28.03,44.157 28.597,44.172 C29.093,44.145 29.441,44.078 29.84,44.037 L29.876,44.033 L29.894,44.031 L30.087,43.985 L30.099,43.981 L30.187,43.952 L30.363,43.892 L30.707,43.773 C30.933,43.69 31.152,43.61 31.364,43.532 C31.572,43.428 31.768,43.324 31.957,43.221 C33.067,47.05 35.613,50.423 39.124,52.443 C38.759,53.234 38.448,54.171 38.257,55.21 C37.996,56.573 37.924,58.098 37.986,59.692 C38.034,61.289 38.22,62.968 38.286,64.663 C38.344,66.323 38.246,68.145 37.196,68.892 C36.946,69.105 36.596,69.236 36.23,69.361 L35.931,69.423 L35.781,69.456 L35.706,69.473 L35.673,69.481 L34.959,69.534 L34.215,69.591 C33.994,69.58 33.792,69.55 33.578,69.534 L32.939,69.481 L32.279,69.317 C30.505,68.882 28.88,67.765 27.403,66.409 C25.89,65.087 24.538,63.482 22.662,62.339 C21.739,61.786 20.603,61.369 19.479,61.502 C18.901,61.491 18.418,61.663 17.862,61.9 C17.369,62.15 16.933,62.471 16.558,62.83 C15.085,64.302 14.305,66.054 13.529,67.644 C12.781,69.255 12.129,70.79 11.462,72.173 C10.8,73.558 10.132,74.798 9.444,75.836 C8.762,76.878 8.068,77.719 7.435,78.351 C7.209,78.582 6.995,78.775 6.789,78.952 C6.776,78.936 6.769,78.916 6.755,78.901 C6.28,78.427 5.164,78.774 4.69,79.248 C4.216,79.723 4.563,80.144 5.038,80.619 C5.512,81.093 5.934,81.44 6.408,80.966 C6.846,80.528 7.168,79.546 6.841,79.026 C7.058,78.857 7.284,78.671 7.526,78.446 C8.194,77.838 8.935,77.018 9.673,75.995 C10.417,74.975 11.15,73.752 11.881,72.387 C12.616,71.025 13.342,69.513 14.154,67.954 C14.978,66.423 15.862,64.738 17.199,63.532 C17.887,62.948 18.635,62.549 19.532,62.585 C20.405,62.515 21.248,62.872 22.021,63.378 C23.581,64.414 24.874,66.047 26.377,67.504 C27.849,68.982 29.637,70.389 31.792,71.03 L32.595,71.262 C32.876,71.311 33.166,71.342 33.453,71.379 C33.737,71.411 34.033,71.452 34.308,71.471 L35.054,71.45 L35.795,71.429 L35.917,71.42 L35.971,71.411 L36.077,71.394 L36.289,71.359 L36.713,71.287 C37.28,71.133 37.865,70.939 38.386,70.563 C39.482,69.847 40.044,68.62 40.283,67.594 C40.536,66.541 40.574,65.564 40.589,64.643 C40.601,62.804 40.491,61.151 40.517,59.664 C40.527,58.176 40.661,56.863 40.921,55.775 C41.125,54.901 41.412,54.185 41.724,53.606 C42.425,53.846 43.142,54.055 43.893,54.192 C46.929,54.743 49.909,54.315 52.553,53.178 C52.806,53.831 53.129,54.51 53.581,55.159 C54.19,56.146 55.075,56.999 56.022,57.813 L56.127,57.899 L56.17,57.929 L56.256,57.989 L56.429,58.109 L56.777,58.352 C57.01,58.515 57.247,58.68 57.486,58.847 C57.936,59.188 58.529,59.504 59.069,59.836 C59.351,60.004 59.635,60.172 59.921,60.342 C60.193,60.487 60.467,60.632 60.742,60.778 C61.293,61.07 61.85,61.366 62.412,61.664 C62.949,61.961 63.49,62.26 64.033,62.56 L64.85,63.012 C65.129,63.174 65.388,63.368 65.659,63.545 C65.828,63.66 65.994,63.774 66.163,63.888 C66.17,63.969 66.173,64.07 66.17,64.191 C66.168,64.254 66.166,64.32 66.164,64.386 C66.154,64.56 66.168,64.555 66.169,64.651 C66.182,64.803 66.175,64.933 66.204,65.125 C66.235,65.313 66.268,65.507 66.303,65.709 C66.349,65.886 66.396,66.069 66.445,66.257 C66.504,66.449 66.564,66.647 66.627,66.848 C66.709,67.034 66.749,67.19 66.87,67.41 C67.095,67.862 67.367,68.189 67.656,68.53 C67.945,68.838 68.238,69.15 68.531,69.462 C68.673,69.605 68.813,69.787 68.925,69.904 C69.043,70.076 69.183,70.256 69.249,70.408 C69.421,70.723 69.543,71.103 69.568,71.466 C69.646,72.198 69.381,72.906 68.945,73.323 C68.734,73.54 68.483,73.675 68.252,73.772 C68.015,73.856 67.798,73.903 67.613,73.916 C67.43,73.949 67.284,73.92 67.185,73.927 C67.085,73.925 67.032,73.924 67.032,73.924 C67.032,73.924 67.085,73.931 67.183,73.944 C67.283,73.949 67.427,73.994 67.616,73.981 C67.805,73.988 68.033,73.966 68.295,73.904 C68.55,73.83 68.839,73.715 69.101,73.5 C69.638,73.092 70.039,72.315 70.042,71.451 C70.056,71.016 69.976,70.58 69.797,70.139 C69.71,69.901 69.603,69.736 69.502,69.546 C69.352,69.33 69.248,69.163 69.109,68.985 C68.856,68.648 68.602,68.31 68.352,67.978 C68.131,67.658 67.922,67.31 67.823,67.032 C67.758,66.9 67.713,66.669 67.658,66.497 C67.628,66.327 67.596,66.161 67.567,65.999 C67.543,65.829 67.519,65.664 67.497,65.505 C67.487,65.365 67.478,65.232 67.471,65.103 C67.462,65.014 67.471,64.903 67.479,64.794 C67.919,65.103 68.356,65.411 68.767,65.733 C69.745,66.483 70.645,67.282 71.368,68.175 C71.758,68.605 72.055,69.083 72.358,69.548 L72.472,69.722 C72.476,69.707 72.527,69.83 72.551,69.877 L72.735,70.266 C72.853,70.523 72.986,70.779 73.089,71.028 C73.409,71.987 73.639,72.988 73.677,73.933 C73.744,74.875 73.678,75.752 73.587,76.524 C73.493,77.297 73.36,77.967 73.231,78.515 C73.124,79.069 72.976,79.488 72.905,79.783 C72.825,80.075 72.782,80.23 72.782,80.23 C72.782,80.23 72.84,80.08 72.948,79.796 C73.047,79.511 73.236,79.105 73.396,78.561 C73.581,78.024 73.779,77.364 73.952,76.586 C74.12,75.811 74.277,74.918 74.303,73.924 C74.355,72.932 74.235,71.851 73.949,70.678 C73.866,70.406 73.762,70.149 73.669,69.878 L73.523,69.474 C73.489,69.39 73.496,69.374 73.427,69.234 L73.322,69.032 C73.042,68.49 72.76,67.928 72.382,67.417 C71.68,66.354 70.782,65.39 69.827,64.497 C68.873,63.59 67.854,62.774 66.863,61.948 C66.384,61.523 65.848,61.146 65.29,60.77 C64.742,60.392 64.195,60.015 63.653,59.641 C63.124,59.29 62.597,58.943 62.079,58.599 C61.939,58.507 61.803,58.416 61.664,58.325 C61.775,58.292 61.886,58.259 61.996,58.224 C62.251,58.151 62.549,58.054 62.751,58.014 C63.036,57.971 63.321,57.929 63.534,57.967 C63.765,57.956 64.019,58.057 64.259,58.111 C64.732,58.288 65.168,58.515 65.539,58.726 C66.282,59.15 66.81,59.367 66.81,59.367 C66.81,59.367 66.328,59.068 65.668,58.531 C65.337,58.263 64.936,57.957 64.449,57.677 C64.186,57.569 63.938,57.414 63.609,57.363 C63.273,57.269 62.992,57.273 62.712,57.266 C62.351,57.274 62.098,57.326 61.806,57.356 C61.532,57.394 61.255,57.43 61.051,57.435 C60.865,57.463 60.621,57.439 60.39,57.418 C60.015,57.147 59.646,56.896 59.279,56.56 C58.858,56.2 58.448,55.846 58.048,55.503 C57.39,54.798 56.801,54.121 56.468,53.408 C56.079,52.723 55.902,52.034 55.769,51.426 C55.763,51.39 55.76,51.358 55.755,51.322 C58.609,49.188 60.752,46.113 61.597,42.531 C61.895,42.448 62.208,42.361 62.548,42.266 C62.919,42.163 63.314,42.054 63.73,41.938 L63.887,41.895 L63.926,41.884 C63.866,41.896 64.074,41.854 63.794,41.909 L63.804,41.907 L63.825,41.903 L63.906,41.886 L64.235,41.818 C64.458,41.772 64.684,41.725 64.917,41.677 C65.379,41.583 65.755,41.558 66.207,41.485 C66.645,41.449 67.106,41.441 67.575,41.429 C67.801,41.451 68.03,41.474 68.262,41.496 L68.615,41.526 L68.66,41.529 L68.671,41.53 C68.446,41.467 68.616,41.514 68.569,41.501 L68.594,41.508 L68.697,41.535 L68.903,41.59 C69.257,41.668 69.274,41.733 69.406,41.763 C69.531,41.851 69.709,41.922 69.832,42.062 C70.402,42.523 70.817,43.518 71.09,44.634 C71.385,45.759 71.528,47.01 71.89,48.347 L71.972,48.641 L72.051,48.865 L72.211,49.311 L72.372,49.757 L72.595,50.238 C72.871,50.896 73.244,51.462 73.599,52.03 C74.041,52.647 74.551,53.201 75.104,53.693 C75.092,53.753 75.084,53.797 75.084,53.797 L75.141,53.725 C75.348,53.908 75.558,54.083 75.777,54.246 C75.794,54.3 75.812,54.344 75.831,54.36 C75.955,54.457 76.1,54.615 76.256,54.797 C76.893,55.5 77.566,56.701 78.319,57.884 C78.709,58.471 79.124,59.053 79.598,59.532 C79.849,59.758 80.077,59.991 80.345,60.151 C80.6,60.328 80.853,60.467 81.11,60.555 C81.349,60.675 81.594,60.709 81.803,60.753 C82.011,60.81 82.197,60.815 82.35,60.813 C82.653,60.819 82.826,60.822 82.826,60.822 C82.826,60.822 82.656,60.796 82.357,60.75 C82.209,60.732 82.03,60.702 81.837,60.62 C81.643,60.55 81.419,60.488 81.209,60.344 C80.984,60.233 80.769,60.071 80.559,59.876 C80.336,59.701 80.154,59.453 79.955,59.22 C79.581,58.722 79.267,58.127 78.974,57.519 C78.646,56.812 78.337,56.085 78.017,55.412 C78.075,55.43 78.133,55.447 78.189,55.468 L78.621,55.609 C78.839,55.672 78.921,55.666 79.076,55.697 C79.35,55.741 79.623,55.785 79.89,55.828 C80.452,55.872 81.036,55.89 81.562,55.874 C82.084,55.817 82.594,55.812 83.068,55.715 C83.306,55.674 83.539,55.633 83.765,55.594 C83.886,55.571 83.974,55.563 84.118,55.527 L84.433,55.437 C84.847,55.303 85.245,55.237 85.61,55.067 C85.971,54.908 86.309,54.76 86.623,54.623 C86.914,54.455 87.182,54.301 87.423,54.162 C87.912,53.896 88.252,53.619 88.504,53.464 C88.749,53.298 88.88,53.209 88.88,53.209 C88.88,53.209 88.741,53.284 88.481,53.425 C88.214,53.556 87.851,53.797 87.342,54.01 C87.092,54.123 86.816,54.248 86.514,54.384 C86.205,54.486 85.871,54.595 85.514,54.711 C85.166,54.838 84.741,54.869 84.323,54.96 L84,55.019 L83.688,55.044 C83.465,55.061 83.238,55.077 83.005,55.095 C82.542,55.143 82.06,55.097 81.565,55.104 C81.073,55.067 80.599,55.008 80.086,54.922 C79.824,54.853 79.558,54.782 79.288,54.711 C79.174,54.676 78.973,54.639 78.927,54.605 L78.565,54.444 C78.327,54.327 78.07,54.248 77.843,54.102 C77.618,53.956 77.391,53.809 77.162,53.661 C76.977,53.521 76.802,53.369 76.629,53.213 C76.528,53.098 76.434,52.995 76.364,52.941 C76.308,52.89 76.278,52.863 76.234,52.824 C75.757,52.33 75.329,51.777 74.974,51.165 C74.724,50.648 74.453,50.135 74.293,49.609 C74.101,49.165 73.938,48.363 73.84,47.906 C73.647,46.777 73.62,45.496 73.419,44.182 C73.393,43.997 73.352,43.807 73.317,43.62 C73.692,44.09 74.055,44.607 74.39,45.142 C74.84,45.861 75.283,46.64 75.801,47.301 C76.049,47.638 76.336,47.931 76.62,48.194 C76.748,48.338 76.929,48.423 77.072,48.533 C77.223,48.637 77.36,48.746 77.527,48.795 C77.841,48.928 78.126,49.042 78.405,49.043 C78.675,49.082 78.906,49.104 79.097,49.051 C79.474,48.991 79.69,48.957 79.69,48.957 C79.69,48.957 79.473,48.968 79.094,48.986 C78.906,49.017 78.681,48.972 78.429,48.907 C78.168,48.881 77.911,48.74 77.637,48.588 C77.491,48.529 77.372,48.41 77.243,48.301 C77.121,48.183 76.969,48.096 76.862,47.946 C76.624,47.673 76.389,47.376 76.188,47.031 C75.769,46.358 75.43,45.578 75.042,44.776 C74.338,43.34 73.454,41.939 72.418,41.02 C72.243,40.722 72.041,40.432 71.794,40.165 C71.537,39.847 71.202,39.606 70.862,39.354 C70.475,39.123 69.996,38.886 69.791,38.829 L69.592,38.754 L69.492,38.717 L69.468,38.708 L69.325,38.668 L69.264,38.655 L68.787,38.557 C68.468,38.495 68.153,38.434 67.843,38.373 C67.231,38.318 66.634,38.272 66.053,38.264 C65.489,38.289 64.876,38.296 64.403,38.346 C64.167,38.371 63.936,38.395 63.711,38.419 L63.377,38.455 L63.294,38.463 L63.273,38.465 L63.111,38.496 L63.07,38.503 L62.91,38.531 C62.581,38.588 62.277,38.641 61.976,38.694 C61.901,35.975 61.088,33.388 59.716,31.152 C59.806,30.885 59.928,30.369 60.102,29.998 C60.189,29.781 60.284,29.541 60.388,29.28 C60.525,29.005 60.672,28.708 60.83,28.39 C61.171,27.762 61.593,27.064 62.119,26.334 C62.646,25.605 63.274,24.845 64.002,24.091 C64.188,23.905 64.375,23.716 64.564,23.526 L64.635,23.454 L64.671,23.418 L64.689,23.4 C64.577,23.492 64.664,23.421 64.641,23.439 L64.652,23.43 L64.817,23.289 L65.151,23.004 C65.616,22.578 66.023,22.32 66.442,22.024 C67.354,21.454 68.398,20.914 69.547,20.531 C70.694,20.135 71.917,19.809 73.179,19.521 C73.753,19.396 74.454,19.242 75.05,19.152 C75.657,19.048 76.295,18.955 76.931,18.864 C77.752,18.739 78.569,18.609 79.377,18.457 L79.403,18.523 C79.403,18.523 79.504,18.474 79.65,18.401 C80.004,18.331 80.36,18.272 80.707,18.183 C80.871,18.141 81.031,18.093 81.193,18.048 C81.404,18.038 81.627,18.036 81.864,18.048 C82.116,18.054 82.382,18.08 82.651,18.104 L83.062,18.152 C83.256,18.179 83.359,18.173 83.512,18.186 C83.794,18.202 84.077,18.219 84.356,18.235 C84.645,18.228 84.941,18.189 85.216,18.167 C85.494,18.149 85.756,18.114 85.995,18.032 C86.234,17.966 86.461,17.903 86.669,17.845 C86.881,17.803 87.051,17.686 87.212,17.623 C87.369,17.55 87.507,17.486 87.619,17.433 C87.844,17.329 87.972,17.269 87.972,17.269 C87.972,17.269 87.835,17.307 87.596,17.373 C87.477,17.406 87.333,17.445 87.168,17.491 C87,17.527 86.824,17.611 86.611,17.617 C86.404,17.638 86.179,17.662 85.943,17.686 C85.708,17.727 85.461,17.718 85.208,17.691 C84.955,17.669 84.702,17.666 84.438,17.629 C84.167,17.567 83.89,17.504 83.614,17.441 C83.488,17.41 83.309,17.379 83.228,17.347 L83.211,17.342 C83.523,17.206 83.829,17.061 84.117,16.902 C85.117,16.402 86.045,15.712 86.799,15.082 C87.155,14.727 87.504,14.394 87.807,14.054 C88.081,13.687 88.361,13.357 88.583,13.02 C88.782,12.668 88.968,12.339 89.141,12.034 C89.283,11.716 89.384,11.41 89.491,11.143 C89.729,10.617 89.742,10.149 89.828,9.857 C89.89,9.558 89.924,9.399 89.924,9.399 C89.924,9.399 89.875,9.544 89.784,9.836 Z M16.512,46.251 C16.513,46.253 16.492,46.264 16.49,46.269 C16.495,46.262 16.502,46.254 16.512,46.251 Z M16.479,46.286 C16.477,46.294 16.477,46.293 16.479,46.286 Z M34.926,29.233 C34.887,29.279 34.852,29.329 34.814,29.375 C34.849,29.326 34.885,29.281 34.926,29.233 Z M52.307,43.552 C49.389,43.552 47.025,41.188 47.025,38.27 C47.025,35.353 49.389,32.988 52.307,32.988 C55.225,32.988 57.589,35.353 57.589,38.27 C57.589,41.188 55.225,43.552 52.307,43.552 Z" id="Shape" fill="#D03831" fill-rule="nonzero"></path>
                        <path d="M34.07,30.252 L34.068,30.238 C34.065,30.229 34.067,30.25 34.07,30.252 Z" id="Shape" fill="#000000" fill-rule="nonzero"></path>
                    </g>
                    <g id="Group" transform="translate(105.500000, 53.000000) scale(-1, 1) translate(-105.500000, -53.000000) translate(78.000000, 18.000000)">
                        <path d="M9.4065,26.6875 C9.4255,26.6645 9.443,26.6395 9.4625,26.6165 C9.4425,26.6405 9.4245,26.663 9.4065,26.6875 Z" id="Shape"></path>
                        <path d="M0.2445,35.1345 C0.246,35.132 0.256,35.1265 0.2555,35.1255 C0.251,35.127 0.2475,35.131 0.2445,35.1345 Z" id="Shape"></path>
                        <path d="M0.2395,35.143 C0.2385,35.1465 0.2385,35.147 0.2395,35.143 Z" id="Shape"></path>
                        <circle id="Oval" cx="13.1535" cy="31.635" r="2.641"></circle>
                        <path d="M53.9454647,3.51480245 C53.9010573,3.62504174 53.8804118,3.80189204 53.7693934,3.99432387 C53.7187535,4.09209794 53.6696717,4.20350584 53.6050083,4.31803005 C53.5298275,4.42554257 53.448414,4.54240401 53.3611575,4.66666667 C53.2661102,4.78430718 53.1492487,4.89727323 53.0362827,5.02231497 C52.9124096,5.13722871 52.7713968,5.247468 52.6296049,5.36471898 C52.3160267,5.57584864 51.9938787,5.77723984 51.5840846,5.9361714 C51.1961046,6.10445186 50.7672231,6.208069 50.3122426,6.2785754 C50.1630495,6.30194769 50.0064552,6.31402337 49.851419,6.32804674 C49.8432387,6.31441291 49.8358375,6.30545353 49.8299944,6.30779076 C49.7727323,6.32531998 49.7372844,6.33583751 49.713133,6.34323873 C49.4400668,6.36505287 49.161547,6.38141347 48.8771842,6.39660545 C48.6274903,6.40790206 48.3750696,6.42036728 48.1097941,6.43945465 C48.0564274,6.44257095 48.0089037,6.44802449 47.9582638,6.4523094 C47.9987757,6.40361714 48.0392877,6.35453534 48.0723984,6.29610462 C48.1592654,6.15275459 48.2169171,5.97551475 48.2200334,5.80567613 C48.2301614,5.71919866 48.2153589,5.63817474 48.211074,5.55520312 L48.1865331,5.33784085 C48.1639399,5.18670006 48.1690039,5.05308848 48.1600445,4.91129661 C48.1721202,4.77340011 48.1635504,4.63043962 48.195882,4.5015025 C48.2079577,4.43567056 48.2200334,4.37100723 48.2321091,4.30751252 C48.2535337,4.24713411 48.2741792,4.18792432 48.2944352,4.13027268 C48.3267668,4.00951586 48.3996105,3.91680579 48.4494713,3.82058987 C48.5008904,3.72398442 48.5799666,3.65971063 48.6341124,3.58881469 C48.6878687,3.51597106 48.7556483,3.47506956 48.8047301,3.43377852 C48.9067891,3.35353367 48.9648303,3.30756817 48.9648303,3.30756817 C48.9648303,3.30756817 48.9013356,3.34613244 48.7903172,3.41352254 C48.7353923,3.44936004 48.6613801,3.48286032 48.5974958,3.54947134 C48.5336116,3.61452421 48.4428492,3.67295492 48.3766277,3.76644407 C48.3119644,3.85954368 48.2223706,3.95186422 48.1717307,4.07456873 C48.1425153,4.13416806 48.1121313,4.19532554 48.0813578,4.25765164 C48.0599332,4.32387312 48.0385086,4.39126322 48.016305,4.46021146 C47.9648859,4.59771842 47.9547579,4.74613244 47.9239844,4.89610462 C47.9138564,5.04568726 47.8920423,5.20851419 47.8959377,5.35303283 L47.89399,5.57935448 C47.8881469,5.64362827 47.8936004,5.71062883 47.8768503,5.76828047 C47.8593211,5.88981636 47.8086811,5.98914858 47.7409015,6.07523651 C47.67468,6.16444073 47.5854758,6.23183083 47.4966611,6.29727323 C47.3942126,6.36466333 47.2835838,6.43984418 47.1967168,6.50217028 C47.1725654,6.52008904 47.1499722,6.53333333 47.1265999,6.54852532 C46.6864218,6.61007234 46.2415693,6.68408459 45.7994435,6.79042849 C45.2844741,6.91001669 44.7866444,7.10127991 44.312187,7.34045632 C44.0706733,7.47484697 43.8276016,7.61430161 43.6573734,7.74440735 L43.5171397,7.84218141 L43.4478019,7.89087368 L43.3562604,7.96488592 C43.264719,8.04084585 43.1735671,8.11563717 43.0843628,8.18964942 C42.7310518,8.49154146 42.417084,8.80395103 42.1451864,9.11207568 C41.8736784,9.42097941 41.6450195,9.7263773 41.4549249,10.009182 C41.364552,10.1544797 41.2800223,10.2904285 41.2017251,10.4158598 C41.1845854,10.448581 41.1713411,10.47468 41.1549805,10.5066221 C40.3649972,9.78091263 39.3825821,9.25971063 38.2872009,9.04702282 C38.3277129,8.91224263 38.3693934,8.77317752 38.4106845,8.62904841 C38.5345576,8.2722315 38.6175292,7.7837507 38.7141347,7.30500835 C38.8048971,6.82743461 38.8239844,6.26455203 38.7390651,5.71491375 C38.6584307,5.16215915 38.457429,4.58252643 38.0885364,4.09053979 C37.7247078,3.59271007 37.1801336,3.23160824 36.6149137,3.04813578 C36.0878687,2.88764608 35.4751252,2.82609905 34.9457429,2.83466889 C34.7599332,2.83856427 34.5819143,2.85141903 34.4027268,2.86271564 L34.3968837,2.85492487 C34.3968837,2.85492487 34.389872,2.86115748 34.3875348,2.86349471 C34.262493,2.87167501 34.1374513,2.87712855 34.0151363,2.88647746 C33.8176405,2.85687257 33.5761269,2.79415693 33.3311074,2.72170284 C33.2703395,2.70027824 33.1632165,2.6722315 33.1075125,2.64106845 C33.040512,2.61419032 32.9774068,2.57640512 32.9189761,2.53238731 C32.862493,2.48797997 32.8095159,2.43967724 32.7690039,2.3851419 C32.7261547,2.33177518 32.6899277,2.27646077 32.6638286,2.21997774 C32.606956,2.11051753 32.5730662,2.00884808 32.5528102,1.9375626 C32.5321647,1.86588759 32.520089,1.82498609 32.520089,1.82498609 C32.520089,1.82498609 32.5232053,1.86744574 32.5282693,1.94223706 C32.5329438,2.01702838 32.5446299,2.12493044 32.5789093,2.25269894 C32.5933222,2.31775181 32.6190317,2.38553144 32.6537006,2.45642738 C32.6860323,2.52732332 32.7351141,2.59782972 32.790818,2.66521981 C32.8476906,2.73144129 32.9139121,2.794936 32.9937674,2.84986088 C33.0498609,2.89309961 33.096995,2.92036728 33.1480245,2.9491931 C32.7553701,2.9706177 32.3744018,2.97918753 32.0284919,2.93400111 C31.6058431,2.88063439 31.232276,2.71936561 31.0106288,2.42838063 C30.8727323,2.27607123 30.7998887,2.12648859 30.7141903,1.97651642 C30.6464107,1.81641625 30.5762938,1.66527546 30.5412354,1.51179744 C30.4485253,1.21107401 30.4313856,0.932943795 30.4278798,0.705843072 C30.4387869,0.479910963 30.4570952,0.297996661 30.4991653,0.18230384 C30.5326656,0.0634947134 30.5501948,0 30.5501948,0 C30.5501948,0 30.5264329,0.0615470228 30.4824151,0.177239844 C30.429438,0.290984975 30.39399,0.470951586 30.3608792,0.701947691 C30.342571,0.933722871 30.3340011,1.22198108 30.4013912,1.54490818 C30.4235949,1.70890373 30.4820256,1.87484697 30.5392877,2.05247635 C30.614079,2.22348358 30.6997774,2.42214802 30.8162493,2.57445743 C31.0445186,2.94490818 31.4991096,3.19109627 31.9618809,3.28964942 C32.4320534,3.39521425 32.9193656,3.41235392 33.4214802,3.42754591 C33.9196995,3.43689482 34.4296049,3.43260991 34.9278242,3.46805787 C35.4346132,3.51207568 35.8740122,3.59426822 36.3457429,3.77890929 C36.7652755,3.96471898 37.1107958,4.24986088 37.3285476,4.61602671 C37.5498052,4.97907624 37.6600445,5.40639955 37.68069,5.83255426 C37.7036728,6.26416249 37.6573178,6.6688926 37.5404563,7.07089594 C37.4154146,7.46939343 37.3367279,7.8246522 37.1668893,8.20406233 C37.0632721,8.4705064 36.964719,8.71085142 36.872788,8.9508069 C35.5401781,9.01936561 34.2691152,9.53550362 33.265665,10.3870339 L33.2360601,10.3609349 L33.2298275,10.3562604 L33.2052866,10.3375626 L33.1562048,10.3005565 L33.0580412,10.2265442 L32.959488,10.152532 L32.7834168,10.0512521 L32.6015025,9.95776294 L32.509961,9.91452421 L32.4643851,9.89387869 L32.4526989,9.88881469 L32.4468559,9.88608792 L32.3899833,9.86700056 L32.3747913,9.86349471 L31.8948804,9.75247635 L31.3008347,9.67885364 L30.7901503,9.6508069 L30.3176405,9.62509738 C30.1863662,9.61886477 30.0001669,9.59393434 29.8439622,9.57952142 C29.6242627,9.55225376 29.4123539,9.51758486 29.198108,9.47785198 C29.1661658,9.45525876 29.1346132,9.43149694 29.1143573,9.40189204 L28.9978854,9.26204786 C28.9336116,9.07000556 28.8720646,8.87523651 28.8163606,8.67618253 C28.758709,8.46894825 28.6963829,8.26054535 28.6289928,8.05292154 C28.5561491,7.84607679 28.4704508,7.64429605 28.3660545,7.45264329 C28.3064552,7.3607123 28.2515303,7.26644407 28.1892042,7.17801892 L27.9831386,6.92832499 L28.156483,7.19905398 C28.207123,7.2933222 28.2495826,7.39148581 28.2959377,7.48653311 C28.3742348,7.68402894 28.4330551,7.88736784 28.4790206,8.09460211 C28.5658876,8.50984975 28.6091263,8.93873122 28.7057318,9.37033945 L28.7057318,9.37150807 C28.4821369,9.31619366 28.2593211,9.25542571 28.0427379,9.18024485 C27.7529215,9.08013356 27.4681692,8.96366166 27.1986088,8.8230384 C27.0579855,8.76032276 26.9337229,8.67501391 26.8028381,8.59749583 L26.705064,8.53867557 L26.6809126,8.52387312 C26.6824708,8.52582081 26.6598776,8.50907067 26.6816917,8.52659989 L26.6692265,8.51764051 L26.6197551,8.48102393 L26.4218698,8.3345576 C26.280857,8.23717307 26.1803561,8.13900946 26.0658319,8.04162493 C25.9501391,7.9493044 25.8469115,7.83400111 25.7401781,7.72337229 C25.6279911,7.6162493 25.5372287,7.49393434 25.4421814,7.37317752 C25.3409015,7.25592654 25.2626043,7.12543127 25.182749,6.994936 C25.0943239,6.86794658 25.0316082,6.73005008 24.9696717,6.59059544 C24.896828,6.4542571 24.8524207,6.30973845 24.8111297,6.16288258 C24.7573734,6.01836394 24.7343907,5.86839176 24.7164719,5.7164719 L24.6860879,5.49755147 L24.6841402,5.25136338 C24.6790762,5.08503061 24.6833612,4.92415136 24.7001113,4.76989427 C24.7114079,4.61329994 24.723094,4.45475793 24.7468559,4.29232053 L24.8789093,3.3180857 C24.9240957,2.99165275 24.9540902,2.66054535 24.9649972,2.33060657 C24.9603228,2.16466333 24.9642181,1.99910963 24.9529215,1.83511408 L24.885921,1.3458542 L24.9046188,1.83667223 C24.8995548,1.99949917 24.8800779,2.1623261 24.8683918,2.32359488 C24.8259321,2.64652198 24.7643851,2.9655537 24.6880356,3.28341681 L24.4601558,4.24284919 C24.4200334,4.40255982 24.390818,4.56928214 24.3623817,4.73795214 C24.3281024,4.90779076 24.3078464,5.073734 24.2965498,5.23539232 L24.2739566,5.4804118 C24.2708403,5.58519755 24.2794101,5.65959933 24.2817474,5.75114079 C24.2852532,5.92721202 24.2961603,6.10289371 24.339399,6.27351141 C24.370562,6.44685587 24.4067891,6.6198108 24.4722315,6.78263773 C24.5279354,6.94974958 24.5863662,7.11608236 24.6705064,7.26956038 C24.7460768,7.42771285 24.8235949,7.58625487 24.9229271,7.7296049 C25.0160267,7.87723984 25.1083472,8.02760156 25.2209238,8.16004452 C25.3541458,8.33962159 25.5165832,8.52270451 25.6805787,8.69059544 C25.6490262,8.67618253 25.6186422,8.66410684 25.5867001,8.64891486 C25.4780189,8.59749583 25.3467446,8.53984418 25.2489705,8.48647746 L25.0791319,8.3968837 L24.9326656,8.29910963 C24.8341124,8.23522538 24.7441291,8.15264329 24.6560935,8.07746244 C24.4874235,7.91697273 24.3429048,7.74869226 24.232276,7.59365609 C24.0086811,7.2851419 23.8828603,7.05959933 23.8828603,7.05959933 C23.8828603,7.05959933 23.9744018,7.29877574 24.155537,7.6427379 C24.2447412,7.81530328 24.3670562,8.00851419 24.5209238,8.20367279 C24.6023372,8.29716194 24.6833612,8.39649416 24.7850306,8.48569839 L24.9388982,8.62203673 L25.0939343,8.73539232 C25.2111853,8.82109071 25.3085698,8.87991096 25.4184196,8.95275459 C25.524374,9.02326099 25.6330551,9.08987201 25.739399,9.15375626 C25.8453534,9.21764051 25.9552031,9.273734 26.0580412,9.32749026 C26.16867,9.37306622 26.2652755,9.42721202 26.3716194,9.45681692 C26.4795214,9.48720089 26.5605454,9.52498609 26.6781859,9.53277685 C26.6832499,9.53316639 26.6883139,9.53394546 26.6933779,9.534335 C26.7155815,9.54835838 26.7358375,9.56471898 26.7584307,9.57757373 C27.0533111,9.77078464 27.3633834,9.93478019 27.6800779,10.080857 C27.9975515,10.2269338 28.3228158,10.3496383 28.6527546,10.4579299 C28.9776294,10.5634947 29.3278242,10.6550362 29.6643851,10.730217 C29.8326656,10.7629382 29.9690039,10.796828 30.1633834,10.8283806 L30.6690039,10.9062883 L31.1368392,10.9787423 C31.2634391,11.0079577 31.3888703,11.0340568 31.5143016,11.0570395 L31.9801892,11.2144129 L31.9946021,11.2194769 C31.9751252,11.2128548 31.93734,11.2003895 31.9443517,11.2031163 L31.9455203,11.2042849 L31.947468,11.2066221 L31.9556483,11.215192 L31.9723984,11.2307735 C31.982916,11.2401224 31.9946021,11.2479132 32.0066778,11.2545353 C32.0187535,11.261547 32.0308292,11.2654424 32.0464107,11.2708959 L32.1367835,11.3542571 L32.2271564,11.4376183 L32.263773,11.4711185 C32.2633834,11.4715081 32.2633834,11.4718976 32.2629939,11.4722871 C32.2629939,11.4722871 32.2622148,11.4718976 32.2629939,11.4722871 C32.2622148,11.4730662 32.2618253,11.4738453 32.2610462,11.4750139 C32.2528659,11.4765721 32.2458542,11.4738453 32.2431274,11.4683918 L32.2470228,11.4867001 C32.2478019,11.4894268 32.2481914,11.490985 32.2489705,11.4933222 C31.9611018,11.9 31.7203673,12.3452421 31.5411797,12.8263216 C31.2922649,13.4943795 31.1792988,14.178798 31.1789093,14.8538676 C31.1158041,14.91931 31.0406233,14.996049 30.9720646,15.0509738 C30.8657206,15.1577073 30.7196439,15.2601558 30.5505843,15.3781859 C30.5096828,15.3980523 30.4672231,15.4183083 30.4235949,15.4393434 L30.3569839,15.4740122 L30.323094,15.4923205 L30.3059544,15.5016694 L30.3036171,15.5028381 C30.2393434,15.5184196 30.3893155,15.4829716 30.3725654,15.486867 L30.3655537,15.4884252 L30.3519199,15.4915415 C30.2120757,15.5219254 30.0383417,15.5717863 29.9055092,15.5904841 C29.8556483,15.5885364 29.8053979,15.5893155 29.7531998,15.5924318 C29.7006121,15.5947691 29.6526989,15.6072343 29.5708959,15.5936004 C29.4220924,15.5764608 29.2713411,15.5749026 29.0999444,15.5336116 C29.0181413,15.5180301 28.9351697,15.502059 28.8510295,15.4860879 C28.7575403,15.4623261 28.662493,15.4381747 28.5662771,15.4140234 C28.3742348,15.3653311 28.1779076,15.3158598 27.9784641,15.2652198 C27.5721758,15.1670562 27.1791319,15.0439622 26.7296049,14.9594324 C26.5083472,14.9165832 26.2921536,14.8604897 26.0638843,14.8289371 L25.3712855,14.756483 L25.1991096,14.7393434 L25.1885921,14.7381747 L25.1500278,14.7366166 L25.1293823,14.7373957 L25.0884808,14.7389538 L25.0062883,14.7424597 L24.6779076,14.756483 L24.3503061,14.7701169 C24.2412354,14.7755704 24.11931,14.8059544 24.0055648,14.823094 C23.776906,14.8678909 23.5439622,14.8955481 23.3308848,14.9563161 C23.1209238,15.0237062 22.914079,15.0907067 22.7103506,15.1561491 C22.5054535,15.216138 22.3231497,15.3228715 22.1353923,15.4011686 C21.9499722,15.4856984 21.7676683,15.563606 21.6048414,15.6680022 C21.2702282,15.8592654 20.9582081,16.0423484 20.6921536,16.2445186 C20.5565943,16.3415136 20.4241514,16.4307179 20.3037841,16.5218698 C20.1869226,16.6176962 20.0759043,16.7084585 19.9715081,16.7937674 C19.761547,16.9624374 19.582749,17.1127991 19.4440735,17.2475793 C19.1612688,17.5089594 19,17.6581525 19,17.6581525 C19,17.6581525 19.1764608,17.5276572 19.485754,17.2997774 C19.6372844,17.1817474 19.8312743,17.0528102 20.0560378,16.9098497 C20.1674457,16.8373957 20.2862549,16.7606566 20.4112966,16.6792432 C20.5394546,16.6032832 20.6785198,16.5304396 20.8207012,16.4509738 C21.1003895,16.2830829 21.422148,16.1401224 21.7618253,15.992877 C21.9277685,15.9102949 22.1096828,15.8561491 22.2927657,15.7961603 C22.4781859,15.742404 22.6581525,15.6602115 22.8548692,15.6263216 C23.0488592,15.5869783 23.2459655,15.5464663 23.4457986,15.5059544 C23.6440735,15.4724541 23.8419588,15.4744018 24.0394546,15.4553144 C24.140345,15.4510295 24.2326656,15.4331107 24.3401781,15.4393434 L24.6670006,15.4619366 L24.9949917,15.4845298 L25.0771842,15.4903728 L25.1180857,15.4930996 L25.1387312,15.4942682 C25.1282137,15.4938787 25.1695047,15.4958264 25.116138,15.4934891 L25.121202,15.4946578 L25.1305509,15.4966055 L25.2832499,15.5304953 L25.8885921,15.6625487 C26.0892042,15.7131886 26.2894268,15.7903172 26.4869226,15.8514747 C26.653645,15.9017251 26.823094,15.9652198 26.9921536,16.0291041 C26.8628269,16.0758486 26.7307735,16.1284363 26.6002782,16.2055648 C26.4168058,16.3165832 26.2590428,16.4809683 26.1476349,16.6636617 C25.9474124,17.0158041 25.7506956,17.3671675 25.5539789,17.6830829 C25.4706177,17.6873678 25.3966055,17.6928214 25.3942682,17.7002226 C25.3927101,17.7052866 25.391931,17.7068447 25.3911519,17.709182 C25.3798553,17.7220367 25.3409015,17.7465776 25.263773,17.760601 C25.172621,17.7781302 25.0487479,17.7828047 24.917084,17.7722871 C24.7780189,17.7567056 24.6296049,17.7399555 24.4811909,17.7232053 C24.3335559,17.7017807 24.165665,17.724374 24.023094,17.7239844 C23.8801336,17.7438509 23.7488592,17.7664441 23.6366722,17.7851419 C23.4173623,17.8412354 23.2708959,17.877852 23.2708959,17.877852 C23.2708959,17.877852 23.4204786,17.8649972 23.6448525,17.8455203 C23.7570395,17.8447412 23.8879243,17.8439622 24.0254313,17.8470785 C24.1629382,17.8712298 24.2992766,17.8692821 24.4453534,17.914079 C24.5914302,17.9549805 24.737507,17.9962716 24.8746244,18.0352254 C25.0175849,18.0695047 25.1550918,18.0885921 25.2855871,18.0874235 C25.197941,18.2089594 25.1106845,18.3219254 25.0218698,18.420089 C24.9326656,18.5311074 24.8391764,18.6218698 24.7538676,18.7005565 C24.6720646,18.782749 24.5964942,18.8497496 24.5275459,18.8972732 C24.3943239,18.9981636 24.3183639,19.0558152 24.3183639,19.0558152 C24.3183639,19.0558152 24.3997774,19.0051753 24.5423484,18.9175292 C24.6159711,18.8766277 24.6985531,18.8166388 24.788926,18.741458 C24.8828047,18.670562 24.9864218,18.5872009 25.0877017,18.4835838 C25.3144129,18.2751809 25.5442404,17.9966611 25.774847,17.6893155 L25.7923762,17.6745131 C25.7923762,17.6745131 25.7873122,17.6745131 25.7853645,17.6745131 C25.9883139,17.4033945 26.1916528,17.1104619 26.3942126,16.8210351 C26.4982193,16.6870339 26.6205342,16.5822482 26.7677796,16.5094046 C26.9177518,16.4400668 27.0840846,16.3972176 27.2535337,16.3586533 C27.3937674,16.3309961 27.5378965,16.2978854 27.6629382,16.2830829 C27.6633278,16.2834725 27.6637173,16.2834725 27.6644964,16.283862 C27.8573178,16.3563161 28.0470228,16.427212 28.2328325,16.4969393 C28.3255426,16.5319978 28.4174736,16.5662771 28.5078464,16.6005565 C28.6114636,16.6328881 28.713133,16.6648303 28.8140234,16.6967724 C29.004118,16.764552 29.2199221,16.8007791 29.4209238,16.8436283 C29.6188091,16.8876461 29.8899277,16.8841402 30.1107958,16.8899833 C30.3040067,16.8794658 30.4395659,16.8533667 30.5949917,16.8373957 L30.609015,16.8358375 L30.6160267,16.8350584 L30.6912076,16.8171397 L30.695882,16.8155815 L30.7301614,16.8042849 L30.7987201,16.7809126 L30.9327212,16.7345576 C31.0207568,16.7022259 31.1060657,16.6710629 31.1886477,16.6406789 C31.2696717,16.6001669 31.3460211,16.559655 31.4196439,16.5195326 C31.8520312,18.011074 32.8437952,19.3249861 34.2114636,20.1118531 C34.0692821,20.4199777 33.9481358,20.784975 33.873734,21.1897051 C33.7720646,21.7206455 33.7440178,22.3146912 33.7681692,22.9356149 C33.786867,23.5577073 33.8593211,24.2117418 33.8850306,24.8720089 C33.9076238,25.5186422 33.8694491,26.2283806 33.4604341,26.5193656 C33.3630495,26.6023372 33.2267112,26.6533667 33.0841402,26.702059 L32.9676683,26.7262104 L32.9092376,26.7390651 L32.8800223,26.7456873 L32.8671675,26.7488036 L32.5890373,26.7694491 L32.2992209,26.7916528 C32.213133,26.7873678 32.1344463,26.7756817 32.0510851,26.7694491 L31.8021703,26.7488036 L31.5450751,26.6849193 C30.8540345,26.5154702 30.2210351,26.0803561 29.6456873,25.5521425 C29.0563161,25.0371731 28.5296605,24.4119644 27.798887,23.9667223 C27.4393434,23.7513077 26.996828,23.5888703 26.5589872,23.6406789 C26.3338342,23.636394 26.1456873,23.7033945 25.9291041,23.7957151 C25.7370618,23.8930996 25.5672231,24.0181413 25.4211464,24.1579855 C24.8473567,24.7313856 24.543517,25.4138564 24.2412354,26.033222 C23.9498609,26.6607679 23.695882,27.258709 23.4360601,27.7974402 C23.1781859,28.3369505 22.9179744,28.8199777 22.6499722,29.2243183 C22.3843072,29.630217 22.1139677,29.9578186 21.8673901,30.2040067 C21.7793545,30.29399 21.6959933,30.3691708 21.6157485,30.4381191 C21.6106845,30.4318865 21.6079577,30.4240957 21.6025042,30.4182526 C21.4174736,30.2336116 20.982749,30.3687813 20.798108,30.5534224 C20.6134669,30.738453 20.7486366,30.9024485 20.9336672,31.0874791 C21.1183083,31.2721202 21.2826934,31.4072899 21.4673344,31.2226489 C21.6379521,31.0520312 21.7633834,30.6695047 21.6360045,30.4669449 C21.7205342,30.401113 21.8085698,30.3286589 21.9028381,30.2410128 C22.1630495,30.0041736 22.4516973,29.6847524 22.7391764,29.2862549 C23.0289928,28.888926 23.3145242,28.4125209 23.5992766,27.8808013 C23.8855871,27.3502504 24.1683918,26.7612688 24.4846967,26.1539789 C24.8056761,25.557596 25.1500278,24.9012243 25.6708403,24.4314413 C25.9388425,24.203951 26.230217,24.0485253 26.5796327,24.0625487 C26.9196995,24.035281 27.2480801,24.1743461 27.5491931,24.3714524 C28.1568726,24.7750139 28.6605454,25.4111297 29.2460211,25.9786867 C29.8194213,26.554424 30.5159154,27.1025042 31.3553701,27.3521981 L31.6681692,27.442571 C31.7776294,27.4616583 31.8905954,27.473734 32.0023929,27.4881469 C32.1130217,27.5006121 32.228325,27.5165832 32.335448,27.5239844 L32.6260434,27.5158041 L32.9146912,27.5076238 L32.9622148,27.504118 L32.9832499,27.5006121 L33.0245409,27.49399 L33.107123,27.4803561 L33.2722871,27.4523094 C33.4931553,27.3923205 33.7210351,27.3167501 33.9239844,27.1702838 C34.3509182,26.8913745 34.5698386,26.4134112 34.6629382,26.0137451 C34.7614914,25.6035615 34.7762938,25.2229827 34.7821369,24.8642181 C34.7868114,24.1478575 34.7439622,23.503951 34.7540902,22.9247078 C34.7579855,22.3450751 34.8101836,21.8336116 34.9114636,21.4097941 C34.9909293,21.0693378 35.1027268,20.7904285 35.2242627,20.5648859 C35.4973289,20.6583751 35.7766277,20.7397885 36.0691708,20.7931553 C37.2518086,21.0077908 38.4126322,20.8410684 39.442571,20.3981636 C39.5411241,20.652532 39.6669449,20.9170284 39.8430161,21.1698386 C40.0802449,21.5543127 40.4249861,21.8865888 40.7938787,22.2036728 L40.8347802,22.2371731 L40.8515303,22.2488592 L40.8850306,22.2722315 L40.9524207,22.3189761 L41.08798,22.4136338 C41.1787423,22.4771285 41.2710629,22.5414023 41.3641625,22.6064552 C41.5394546,22.7392877 41.7704508,22.8623817 41.9808013,22.9917084 C42.0906511,23.0571508 42.2012799,23.1225932 42.3126878,23.1888147 C42.4186422,23.2452977 42.5253756,23.3017807 42.6324986,23.3586533 C42.8471341,23.4723984 43.0641068,23.5877017 43.2830273,23.7037841 C43.4922092,23.8194769 43.7029494,23.9359488 43.9144686,24.0528102 L44.2327212,24.2288815 C44.3414023,24.2919866 44.4422927,24.367557 44.5478575,24.4365053 C44.6136895,24.4813022 44.6783528,24.5257095 44.7441848,24.5701169 C44.7469115,24.6016694 44.7480801,24.6410128 44.7469115,24.6881469 C44.7461324,24.7126878 44.7453534,24.7383973 44.7445743,24.7641068 C44.7406789,24.8318865 44.7461324,24.8299388 44.746522,24.8673344 C44.751586,24.9265442 44.7488592,24.9771842 44.7601558,25.0519755 C44.7722315,25.1252087 44.7850863,25.2007791 44.7987201,25.2794658 C44.8166388,25.348414 44.8349471,25.4196995 44.8540345,25.4929327 C44.8770173,25.567724 44.9003895,25.6448525 44.9249304,25.7231497 C44.9568726,25.7956038 44.9724541,25.8563717 45.0195882,25.9420701 C45.1072343,26.1181413 45.2131886,26.2455203 45.3257652,26.3783528 C45.4383417,26.4983306 45.5524763,26.6198664 45.666611,26.7414023 C45.7219254,26.7971063 45.7764608,26.8680022 45.820089,26.9135782 C45.8660545,26.9805787 45.9205899,27.0506956 45.9462994,27.1099054 C46.0132999,27.2326099 46.0608236,27.3806344 46.070562,27.5220367 C46.100946,27.8071786 45.9977184,28.0829716 45.8278798,28.245409 C45.7456873,28.3299388 45.6479132,28.3825264 45.5579299,28.4203116 C45.4656093,28.4530328 45.3810796,28.4713411 45.309015,28.4764051 C45.2377295,28.4892599 45.180857,28.4779633 45.1422927,28.48069 C45.1033389,28.479911 45.0826934,28.4795214 45.0826934,28.4795214 C45.0826934,28.4795214 45.1033389,28.4822482 45.1415136,28.4873122 C45.1804674,28.4892599 45.2365609,28.5067891 45.3101836,28.5017251 C45.3838063,28.5044519 45.472621,28.495882 45.57468,28.4717307 C45.6740122,28.4429048 45.7865888,28.398108 45.8886477,28.3143573 C46.0978297,28.1554257 46.2540345,27.8527546 46.2552031,27.5161937 C46.2606566,27.3467446 46.2294936,27.176906 46.1597663,27.0051196 C46.1258765,26.9124096 46.0841959,26.8481358 46.0448525,26.7741235 C45.9864218,26.6899833 45.9459098,26.6249304 45.8917641,26.5555927 C45.7932109,26.4243183 45.6942682,26.2926544 45.5968837,26.1633278 C45.5107958,26.0386756 45.4293823,25.9031163 45.390818,25.7948247 C45.3654981,25.7434057 45.3479688,25.6534224 45.3265442,25.5864218 C45.3148581,25.5202003 45.3023929,25.455537 45.2910963,25.3924318 C45.2817474,25.3262104 45.2723984,25.2619366 45.2638286,25.2 C45.2599332,25.1454647 45.2564274,25.0936561 45.2537006,25.0434057 C45.2501948,25.0087368 45.2537006,24.9654981 45.2568169,24.9230384 C45.4282137,25.0434057 45.5984418,25.1633834 45.758542,25.2888147 C46.1395103,25.5809683 46.4900946,25.8922092 46.7717307,26.2400668 C46.9236505,26.4075682 47.0393434,26.5937674 47.1573734,26.7749026 L47.2017807,26.8426822 C47.2033389,26.8368392 47.2232053,26.8847524 47.2325543,26.9030607 L47.3042293,27.054591 C47.3501948,27.1547023 47.4020033,27.254424 47.4421258,27.351419 C47.566778,27.7249861 47.6563717,28.1149137 47.6711742,28.4830273 C47.6972732,28.8499722 47.6715637,29.1915971 47.6361157,29.4923205 C47.5994992,29.7934335 47.5476906,30.054424 47.4974402,30.2678909 C47.4557596,30.483695 47.398108,30.6469115 47.3704508,30.7618253 C47.3392877,30.8755704 47.3225376,30.9359488 47.3225376,30.9359488 C47.3225376,30.9359488 47.3451308,30.8775181 47.3872009,30.7668893 C47.4257652,30.6558709 47.4993879,30.4977184 47.561714,30.2858097 C47.6337785,30.0766277 47.7109071,29.8195326 47.7782972,29.5164719 C47.8437396,29.2145799 47.9048971,28.8667223 47.915025,28.4795214 C47.935281,28.0930996 47.8885364,27.6720089 47.7771285,27.2150807 C47.7447969,27.1091263 47.7042849,27.009015 47.6680579,26.9034502 L47.6111853,26.7460768 C47.597941,26.7133556 47.6006678,26.707123 47.5737896,26.6525876 L47.5328881,26.5739009 C47.4238175,26.3627713 47.3139677,26.1438509 47.1667223,25.9447969 C46.8932666,25.5307179 46.5434613,25.1552031 46.1714524,24.8073456 C45.7998331,24.4540345 45.4028937,24.1361714 45.0168614,23.8144129 C44.8302727,23.6488592 44.6214802,23.5020033 44.404118,23.355537 C44.1906511,23.2082916 43.9775737,23.0614357 43.7664441,22.9157485 C43.5603784,22.7790206 43.3550918,22.6438509 43.1533111,22.5098497 C43.0987757,22.4740122 43.0457986,22.4385643 42.9916528,22.4031163 C43.0348915,22.3902615 43.0781302,22.3774068 43.1209794,22.363773 C43.2203116,22.3353367 43.336394,22.2975515 43.4150807,22.2819699 C43.5260991,22.2652198 43.6371174,22.2488592 43.720089,22.2636617 C43.8100723,22.2593767 43.909015,22.2987201 44.0025042,22.3197551 C44.1867557,22.3887034 44.3565943,22.4771285 44.501113,22.5593211 C44.7905398,22.7244853 44.9962159,22.809015 44.9962159,22.809015 C44.9962159,22.809015 44.8084585,22.6925431 44.5513634,22.4833612 C44.4224263,22.3789649 44.2662215,22.2597663 44.0765164,22.1506956 C43.9740679,22.1086255 43.8774624,22.0482471 43.7493044,22.0283806 C43.6184196,21.9917641 43.5089594,21.9933222 43.3998887,21.9905954 C43.2592654,21.9937117 43.1607123,22.0139677 43.0469672,22.0256539 C42.9402337,22.0404563 42.8323317,22.0544797 42.7528659,22.0564274 C42.6804118,22.0673344 42.5853645,22.0579855 42.4953812,22.0498052 C42.3493044,21.9442404 42.2055648,21.8464663 42.0626043,21.7155815 C41.8986088,21.5753478 41.7388982,21.4374513 41.5830829,21.3038397 C41.3267668,21.0292154 41.0973289,20.7654981 40.9676127,20.4877574 C40.8160824,20.2209238 40.7471341,19.952532 40.6953255,19.7156928 C40.6929883,19.7016694 40.6918197,19.6892042 40.689872,19.6751809 C41.8016138,18.8439065 42.636394,17.6460768 42.9655537,16.2507513 C43.0816361,16.2184196 43.2035615,16.1845298 43.3360045,16.1475237 C43.4805231,16.1074012 43.6343907,16.0649416 43.7964385,16.0197551 L43.857596,16.003005 L43.872788,15.9987201 C43.8494157,16.0033945 43.9304396,15.9870339 43.8213689,16.0084585 L43.8252643,16.0076795 L43.8334446,16.0061213 L43.8649972,15.9994992 L43.9931553,15.9730106 C44.0800223,15.9550918 44.1680579,15.9367835 44.2588203,15.9180857 C44.4387869,15.8814691 44.5852532,15.8717307 44.7613244,15.8432944 C44.9319421,15.829271 45.1115192,15.8261547 45.2942126,15.8214802 C45.3822482,15.8300501 45.4714524,15.8390095 45.5618253,15.8475793 L45.6993322,15.8592654 L45.7168614,15.8604341 L45.7211464,15.8608236 C45.6335003,15.8362827 45.6997218,15.854591 45.6814135,15.849527 L45.6911519,15.8522538 L45.7312743,15.8627713 L45.8115192,15.8841959 C45.9494157,15.9145799 45.9560378,15.9398998 46.0074569,15.951586 C46.0561491,15.9858653 46.1254869,16.0135225 46.1734001,16.0680579 C46.3954368,16.2476349 46.5570952,16.6352254 46.6634391,17.0699499 C46.7783528,17.5081803 46.8340568,17.9954925 46.9750696,18.516305 L47.0070117,18.6308292 L47.0377852,18.7180857 L47.1001113,18.8918197 L47.1628269,19.0655537 L47.2496939,19.2529215 C47.3572065,19.5092376 47.5025042,19.7297162 47.6407902,19.9509738 C47.8129661,20.1913189 48.0116305,20.407123 48.2270451,20.5987757 C48.2223706,20.622148 48.2192543,20.6392877 48.2192543,20.6392877 L48.241458,20.611241 C48.3220924,20.6825264 48.4038954,20.7506956 48.4892042,20.8141903 C48.4958264,20.8352254 48.5028381,20.8523651 48.5102393,20.8585977 C48.558542,20.8963829 48.615025,20.9579299 48.675793,21.0288258 C48.9239288,21.3026711 49.1860879,21.7705064 49.4794101,22.23133 C49.63133,22.4599889 49.7929883,22.6867001 49.9776294,22.8732888 C50.0754035,22.9613244 50.1642181,23.0520868 50.2686144,23.1144129 C50.3679466,23.1833612 50.4664997,23.237507 50.566611,23.2717863 C50.6597106,23.3185309 50.7551475,23.3317752 50.8365609,23.3489149 C50.9175849,23.3711185 50.990039,23.3730662 51.0496383,23.3722871 C51.1676683,23.3746244 51.2350584,23.375793 51.2350584,23.375793 C51.2350584,23.375793 51.168837,23.365665 51.0523651,23.3477462 C50.9947134,23.3407346 50.9249861,23.3290484 50.8498052,23.2971063 C50.7742348,23.2698386 50.6869783,23.2456873 50.6051753,23.1895938 C50.5175292,23.146355 50.4337785,23.0832499 50.3519755,23.0072899 C50.2651085,22.9391208 50.1942126,22.8425153 50.1166945,22.7517529 C49.9710072,22.5577629 49.8486923,22.3259878 49.7345576,22.0891486 C49.6067891,21.8137451 49.4864218,21.5305509 49.3617696,21.2683918 C49.3843628,21.2754035 49.406956,21.2820256 49.4287702,21.2902059 L49.5970506,21.3451308 C49.6819699,21.3696717 49.7139121,21.3673344 49.7742905,21.3794101 C49.8810239,21.3965498 49.9873678,21.4136895 50.0913745,21.4304396 C50.3102949,21.4475793 50.5377852,21.454591 50.7426822,21.4483584 C50.9460211,21.4261547 51.1446856,21.424207 51.3293267,21.3864218 C51.4220367,21.3704508 51.5127991,21.3544797 51.6008347,21.3392877 C51.6479688,21.3303283 51.6822482,21.327212 51.7383417,21.3131886 L51.8610462,21.2781302 C52.022315,21.2259321 52.1773511,21.2002226 52.3195326,21.1340011 C52.4601558,21.0720646 52.5918197,21.0144129 52.7141347,20.9610462 C52.8274903,20.8956038 52.9318865,20.8356149 53.0257652,20.7814691 C53.2162493,20.677852 53.3486923,20.5699499 53.4468559,20.5095715 C53.5422927,20.4449082 53.5933222,20.4102393 53.5933222,20.4102393 C53.5933222,20.4102393 53.5391764,20.4394546 53.4378965,20.4943795 C53.3338898,20.545409 53.1924875,20.6392877 52.9942126,20.7222593 C52.896828,20.7662771 52.7893155,20.8149694 52.671675,20.8679466 C52.5513077,20.9076795 52.421202,20.9501391 52.2821369,20.9953255 C52.1465776,21.0447969 51.9810239,21.0568726 51.818197,21.0923205 L51.6923762,21.1153033 L51.5708403,21.1250417 C51.4839733,21.1316639 51.3955481,21.1378965 51.3047858,21.1449082 C51.1244296,21.163606 50.9366722,21.1456873 50.7438509,21.148414 C50.5521981,21.1340011 50.367557,21.1110184 50.167724,21.0775181 C50.065665,21.05064 49.9620479,21.0229827 49.8568726,20.9953255 C49.8124652,20.9816917 49.7341681,20.9672788 49.7162493,20.9540345 L49.5752365,20.8913189 C49.4825264,20.8457429 49.3824151,20.8149694 49.29399,20.7580968 C49.2063439,20.7012243 49.1179188,20.6439622 49.0287145,20.5863105 C48.95665,20.5317752 48.8884808,20.4725654 48.8210907,20.4117974 C48.7817474,20.3670006 48.7451308,20.3268781 48.7178631,20.3058431 C48.696049,20.2859766 48.6843628,20.2754591 48.6672231,20.2602671 C48.4814135,20.0678353 48.3146912,19.8524207 48.1764051,19.6140234 C48.0790206,19.4126322 47.9734558,19.2127991 47.9111297,19.0079021 C47.8363383,18.8349471 47.7728436,18.5225376 47.7346689,18.3445186 C47.659488,17.9047301 47.6489705,17.4057318 47.5706733,16.8938787 C47.5605454,16.8218141 47.5445743,16.7478019 47.5309405,16.6749583 C47.6770173,16.8580412 47.8184196,17.0594324 47.9489149,17.2678353 C48.124207,17.5479132 48.2967724,17.8513634 48.4985531,18.1088481 C48.5951586,18.2401224 48.706956,18.3542571 48.8175849,18.4567056 C48.8674457,18.5127991 48.9379521,18.5459098 48.9936561,18.588759 C49.0524763,18.629271 49.1058431,18.6717307 49.1708959,18.690818 C49.2932109,18.7426266 49.4042293,18.7870339 49.5129104,18.7874235 C49.6180857,18.8026155 49.708069,18.8111853 49.7824708,18.7905398 C49.9293267,18.7671675 50.0134669,18.7539232 50.0134669,18.7539232 C50.0134669,18.7539232 49.9289371,18.7582081 49.7813022,18.7652198 C49.708069,18.7772955 49.6204229,18.7597663 49.5222593,18.7344463 C49.4205899,18.7243183 49.3204786,18.6693934 49.2137451,18.6101836 C49.1568726,18.5872009 49.1105175,18.5408459 49.0602671,18.4983862 C49.0127435,18.4524207 48.9535337,18.4185309 48.9118531,18.3601002 C48.819143,18.2537563 48.7276016,18.1380634 48.6493044,18.0036728 C48.4860879,17.7415136 48.3540345,17.4376739 48.2028937,17.1252643 C47.9286589,16.5658876 47.5843072,16.0201447 47.1807457,15.6621592 C47.1125765,15.5460768 47.0338898,15.4331107 46.9376739,15.3291041 C46.8375626,15.2052309 46.7070673,15.1113523 46.5746244,15.0131886 C46.4238731,14.9232053 46.2372844,14.8308848 46.157429,14.8086811 L46.079911,14.7794658 L46.0409572,14.7650529 L46.0316082,14.761547 L45.9759043,14.7459655 L45.9521425,14.7409015 L45.7663328,14.7027268 C45.6420701,14.6785754 45.5193656,14.6548136 45.3986088,14.6310518 C45.1602115,14.6096272 44.9276572,14.5917084 44.7013356,14.5885921 C44.4816361,14.5983306 44.2428492,14.6010573 44.0585977,14.6205342 C43.9666667,14.6302727 43.8766834,14.6396216 43.7890373,14.6489705 L43.6589316,14.6629939 L43.6265999,14.6661102 L43.6184196,14.6668893 L43.5553144,14.6789649 L43.5393434,14.6816917 L43.4770173,14.6925988 C43.3488592,14.7148024 43.2304396,14.735448 43.1131886,14.7560935 C43.0839733,13.6969393 42.7672788,12.6892042 42.2328325,11.818197 C42.2678909,11.7141903 42.3154146,11.5131886 42.3831942,11.36867 C42.417084,11.2841402 42.4540902,11.1906511 42.4946021,11.0889816 C42.5479688,10.9818587 42.6052309,10.8661658 42.666778,10.7422927 C42.7996105,10.4976628 42.9639955,10.2257652 43.1688926,9.94140234 C43.3741792,9.65742905 43.6188091,9.36138008 43.9023929,9.06766834 C43.974847,8.99521425 44.0476906,8.92159154 44.1213133,8.8475793 L44.1489705,8.81953255 L44.1629939,8.80550918 L44.1700056,8.7984975 C44.1263773,8.834335 44.1602671,8.8066778 44.1513077,8.81368948 L44.1555927,8.81018364 L44.2198664,8.75525876 L44.3499722,8.6442404 C44.5311074,8.47829716 44.6896494,8.37779633 44.8528659,8.26249304 C45.2081247,8.04045632 45.6148024,7.83010573 46.0623817,7.68091263 C46.509182,7.52665554 46.9855871,7.39966611 47.4771842,7.28747913 C47.7007791,7.23878687 47.9738453,7.178798 48.20601,7.14373957 C48.4424597,7.1032276 48.690985,7.06700056 48.9387312,7.03155259 C49.258542,6.98286032 49.5767947,6.93222037 49.8915415,6.87301057 L49.9016694,6.89872009 C49.9016694,6.89872009 49.9410128,6.87963272 49.9978854,6.85119644 C50.1357819,6.82392877 50.2744574,6.80094602 50.4096272,6.76627713 C50.4735114,6.74991653 50.5358375,6.7312187 50.5989427,6.71368948 C50.6811352,6.7097941 50.7680022,6.70901503 50.8603228,6.71368948 C50.9584864,6.71602671 51.0621035,6.7261547 51.1668893,6.73550362 L51.3269894,6.75420145 C51.4025598,6.76471898 51.4426822,6.76238175 51.5022816,6.76744574 C51.6121313,6.77367835 51.7223706,6.7803005 51.8310518,6.78653311 C51.9436283,6.78380634 52.0589316,6.76861436 52.1660545,6.76004452 C52.2743461,6.75303283 52.3764051,6.739399 52.4695047,6.70745687 C52.5626043,6.68174736 52.6510295,6.65720646 52.7320534,6.63461324 C52.8146355,6.61825264 52.880857,6.57267668 52.9435726,6.54813578 C53.0047301,6.5196995 53.0584864,6.49476906 53.1021146,6.47412354 C53.1897607,6.43361157 53.2396216,6.41023929 53.2396216,6.41023929 C53.2396216,6.41023929 53.1862549,6.42504174 53.0931553,6.45075125 C53.0468002,6.46360601 52.9907067,6.478798 52.9264329,6.49671675 C52.8609905,6.51074012 52.7924318,6.54346132 52.7094602,6.54579855 C52.6288258,6.55397885 52.5411797,6.56332777 52.4492487,6.57267668 C52.3577073,6.58864775 52.2614914,6.5851419 52.1629382,6.57462437 C52.0643851,6.56605454 51.9658319,6.56488592 51.8629939,6.55047301 C51.757429,6.52632165 51.649527,6.50178075 51.5420145,6.47723984 C51.4929327,6.46516416 51.4232053,6.45308848 51.3916528,6.44062326 L51.3850306,6.43867557 C51.5065665,6.38569839 51.6257652,6.32921536 51.7379521,6.2672788 C52.1274903,6.07250974 52.4889816,5.80372844 52.7826934,5.55831942 C52.9213689,5.42003339 53.0573178,5.2903172 53.1753478,5.15787423 C53.2820812,5.01491375 53.3911519,4.88636617 53.4776294,4.75509182 C53.5551475,4.6179744 53.6276016,4.48981636 53.6949917,4.37100723 C53.7503061,4.24713411 53.7896494,4.12793545 53.83133,4.02392877 C53.9240401,3.81903172 53.9291041,3.63672788 53.9626043,3.52298275 C53.9867557,3.40651085 54,3.34457429 54,3.34457429 C54,3.34457429 53.9809126,3.40105732 53.9454647,3.51480245 Z M25.4032276,17.6998331 C25.4036171,17.7006121 25.3954368,17.7048971 25.3946578,17.7068447 C25.3966055,17.704118 25.3993322,17.7010017 25.4032276,17.6998331 Z M25.3903728,17.7134669 C25.3895938,17.7165832 25.3895938,17.7161937 25.3903728,17.7134669 Z M32.5761825,11.0706733 C32.5609905,11.0885921 32.5473567,11.108069 32.5325543,11.1259878 C32.5461881,11.1069004 32.5602115,11.0893712 32.5761825,11.0706733 Z M39.3467446,16.6484697 C38.2100723,16.6484697 37.2892042,15.7276016 37.2892042,14.5909293 C37.2892042,13.4546466 38.2100723,12.533389 39.3467446,12.533389 C40.4834168,12.533389 41.4042849,13.4546466 41.4042849,14.5909293 C41.4042849,15.7276016 40.4834168,16.6484697 39.3467446,16.6484697 Z" id="Shape" fill="#E9960E" fill-rule="nonzero"></path>
                        <path d="M54.855,33.5115 C54.798,33.653 54.7715,33.88 54.629,34.127 C54.564,34.2525 54.501,34.3955 54.418,34.5425 C54.3215,34.6805 54.217,34.8305 54.105,34.99 C53.983,35.141 53.833,35.286 53.688,35.4465 C53.529,35.594 53.348,35.7355 53.166,35.886 C52.7635,36.157 52.35,36.4155 51.824,36.6195 C51.326,36.8355 50.7755,36.9685 50.1915,37.059 C50,37.089 49.799,37.1045 49.6,37.1225 C49.5895,37.105 49.58,37.0935 49.5725,37.0965 C49.499,37.119 49.4535,37.1325 49.4225,37.142 C49.072,37.17 48.7145,37.191 48.3495,37.2105 C48.029,37.225 47.705,37.241 47.3645,37.2655 C47.296,37.2695 47.235,37.2765 47.17,37.282 C47.222,37.2195 47.274,37.1565 47.3165,37.0815 C47.428,36.8975 47.502,36.67 47.506,36.452 C47.519,36.341 47.5,36.237 47.4945,36.1305 L47.463,35.8515 C47.434,35.6575 47.4405,35.486 47.429,35.304 C47.4445,35.127 47.4335,34.9435 47.475,34.778 C47.4905,34.6935 47.506,34.6105 47.5215,34.529 C47.549,34.4515 47.5755,34.3755 47.6015,34.3015 C47.643,34.1465 47.7365,34.0275 47.8005,33.904 C47.8665,33.78 47.968,33.6975 48.0375,33.6065 C48.1065,33.513 48.1935,33.4605 48.2565,33.4075 C48.3875,33.3045 48.462,33.2455 48.462,33.2455 C48.462,33.2455 48.3805,33.295 48.238,33.3815 C48.1675,33.4275 48.0725,33.4705 47.9905,33.556 C47.9085,33.6395 47.792,33.7145 47.707,33.8345 C47.624,33.954 47.509,34.0725 47.444,34.23 C47.4065,34.3065 47.3675,34.385 47.328,34.465 C47.3005,34.55 47.273,34.6365 47.2445,34.725 C47.1785,34.9015 47.1655,35.092 47.126,35.2845 C47.113,35.4765 47.085,35.6855 47.09,35.871 L47.0875,36.1615 C47.08,36.244 47.087,36.33 47.0655,36.404 C47.043,36.56 46.978,36.6875 46.891,36.798 C46.806,36.9125 46.6915,36.999 46.5775,37.083 C46.446,37.1695 46.304,37.266 46.1925,37.346 C46.1615,37.369 46.1325,37.386 46.1025,37.4055 C45.5375,37.4845 44.9665,37.5795 44.399,37.716 C43.738,37.8695 43.099,38.115 42.49,38.422 C42.18,38.5945 41.868,38.7735 41.6495,38.9405 L41.4695,39.066 L41.3805,39.1285 L41.263,39.2235 C41.1455,39.321 41.0285,39.417 40.914,39.512 C40.4605,39.8995 40.0575,40.3005 39.7085,40.696 C39.36,41.0925 39.0665,41.4845 38.8225,41.8475 C38.7065,42.034 38.598,42.2085 38.4975,42.3695 C38.4755,42.4115 38.4585,42.445 38.4375,42.486 C37.4235,41.5545 36.1625,40.8855 34.7565,40.6125 C34.8085,40.4395 34.862,40.261 34.915,40.076 C35.074,39.618 35.1805,38.991 35.3045,38.3765 C35.421,37.7635 35.4455,37.041 35.3365,36.3355 C35.233,35.626 34.975,34.882 34.5015,34.2505 C34.0345,33.6115 33.3355,33.148 32.61,32.9125 C31.9335,32.7065 31.147,32.6275 30.4675,32.6385 C30.229,32.6435 30.0005,32.66 29.7705,32.6745 L29.763,32.6645 C29.763,32.6645 29.754,32.6725 29.751,32.6755 C29.5905,32.686 29.43,32.693 29.273,32.705 C29.0195,32.667 28.7095,32.5865 28.395,32.4935 C28.317,32.466 28.1795,32.43 28.108,32.39 C28.022,32.3555 27.941,32.307 27.866,32.2505 C27.7935,32.1935 27.7255,32.1315 27.6735,32.0615 C27.6185,31.993 27.572,31.922 27.5385,31.8495 C27.4655,31.709 27.422,31.5785 27.396,31.487 C27.3695,31.395 27.354,31.3425 27.354,31.3425 C27.354,31.3425 27.358,31.397 27.3645,31.493 C27.3705,31.589 27.3855,31.7275 27.4295,31.8915 C27.448,31.975 27.481,32.062 27.5255,32.153 C27.567,32.244 27.63,32.3345 27.7015,32.421 C27.7745,32.506 27.8595,32.5875 27.962,32.658 C28.034,32.7135 28.0945,32.7485 28.16,32.7855 C27.656,32.813 27.167,32.824 26.723,32.766 C26.1805,32.6975 25.701,32.4905 25.4165,32.117 C25.2395,31.9215 25.146,31.7295 25.036,31.537 C24.949,31.3315 24.859,31.1375 24.814,30.9405 C24.695,30.5545 24.673,30.1975 24.6685,29.906 C24.6825,29.616 24.706,29.3825 24.76,29.234 C24.803,29.0815 24.8255,29 24.8255,29 C24.8255,29 24.795,29.079 24.7385,29.2275 C24.6705,29.3735 24.625,29.6045 24.5825,29.901 C24.559,30.1985 24.548,30.5685 24.6345,30.983 C24.663,31.1935 24.738,31.4065 24.8115,31.6345 C24.9075,31.854 25.0175,32.109 25.167,32.3045 C25.46,32.78 26.0435,33.096 26.6375,33.2225 C27.241,33.358 27.8665,33.38 28.511,33.3995 C29.1505,33.4115 29.805,33.406 30.4445,33.4515 C31.095,33.508 31.659,33.6135 32.2645,33.8505 C32.803,34.089 33.2465,34.455 33.526,34.925 C33.81,35.391 33.9515,35.9395 33.978,36.4865 C34.0075,37.0405 33.948,37.56 33.798,38.076 C33.6375,38.5875 33.5365,39.0435 33.3185,39.5305 C33.1855,39.8725 33.059,40.181 32.941,40.489 C31.2305,40.577 29.599,41.2395 28.311,42.3325 L28.273,42.299 L28.265,42.293 L28.2335,42.269 L28.1705,42.2215 L28.0445,42.1265 L27.918,42.0315 L27.692,41.9015 L27.4585,41.7815 L27.341,41.726 L27.2825,41.6995 L27.2675,41.693 L27.26,41.6895 L27.187,41.665 L27.1675,41.6605 L26.5515,41.518 L25.789,41.4235 L25.1335,41.3875 L24.527,41.3545 C24.3585,41.3465 24.1195,41.3145 23.919,41.296 C23.637,41.261 23.365,41.2165 23.09,41.1655 C23.049,41.1365 23.0085,41.106 22.9825,41.068 L22.833,40.8885 C22.7505,40.642 22.6715,40.392 22.6,40.1365 C22.526,39.8705 22.446,39.603 22.3595,39.3365 C22.266,39.071 22.156,38.812 22.022,38.566 C21.9455,38.448 21.875,38.327 21.795,38.2135 L21.5305,37.893 L21.753,38.2405 C21.818,38.3615 21.8725,38.4875 21.932,38.6095 C22.0325,38.863 22.108,39.124 22.167,39.39 C22.2785,39.923 22.334,40.4735 22.458,41.0275 L22.458,41.029 C22.171,40.958 21.885,40.88 21.607,40.7835 C21.235,40.655 20.8695,40.5055 20.5235,40.325 C20.343,40.2445 20.1835,40.135 20.0155,40.0355 L19.89,39.96 L19.859,39.941 C19.861,39.9435 19.832,39.922 19.86,39.9445 L19.844,39.933 L19.7805,39.886 L19.5265,39.698 C19.3455,39.573 19.2165,39.447 19.0695,39.322 C18.921,39.2035 18.7885,39.0555 18.6515,38.9135 C18.5075,38.776 18.391,38.619 18.269,38.464 C18.139,38.3135 18.0385,38.146 17.936,37.9785 C17.8225,37.8155 17.742,37.6385 17.6625,37.4595 C17.569,37.2845 17.512,37.099 17.459,36.9105 C17.39,36.725 17.3605,36.5325 17.3375,36.3375 L17.2985,36.0565 L17.296,35.7405 C17.2895,35.527 17.295,35.3205 17.3165,35.1225 C17.331,34.9215 17.346,34.718 17.3765,34.5095 L17.546,33.259 C17.604,32.84 17.6425,32.415 17.6565,31.9915 C17.6505,31.7785 17.6555,31.566 17.641,31.3555 L17.555,30.7275 L17.579,31.3575 C17.5725,31.5665 17.5475,31.7755 17.5325,31.9825 C17.478,32.397 17.399,32.8065 17.301,33.2145 L17.0085,34.446 C16.957,34.651 16.9195,34.865 16.883,35.0815 C16.839,35.2995 16.813,35.5125 16.7985,35.72 L16.7695,36.0345 C16.7655,36.169 16.7765,36.2645 16.7795,36.382 C16.784,36.608 16.798,36.8335 16.8535,37.0525 C16.8935,37.275 16.94,37.497 17.024,37.706 C17.0955,37.9205 17.1705,38.134 17.2785,38.331 C17.3755,38.534 17.475,38.7375 17.6025,38.9215 C17.722,39.111 17.8405,39.304 17.985,39.474 C18.156,39.7045 18.3645,39.9395 18.575,40.155 C18.5345,40.1365 18.4955,40.121 18.4545,40.1015 C18.315,40.0355 18.1465,39.9615 18.021,39.893 L17.803,39.778 L17.615,39.6525 C17.4885,39.5705 17.373,39.4645 17.26,39.368 C17.0435,39.162 16.858,38.946 16.716,38.747 C16.429,38.351 16.2675,38.0615 16.2675,38.0615 C16.2675,38.0615 16.385,38.3685 16.6175,38.81 C16.732,39.0315 16.889,39.2795 17.0865,39.53 C17.191,39.65 17.295,39.7775 17.4255,39.892 L17.623,40.067 L17.822,40.2125 C17.9725,40.3225 18.0975,40.398 18.2385,40.4915 C18.3745,40.582 18.514,40.6675 18.6505,40.7495 C18.7865,40.8315 18.9275,40.9035 19.0595,40.9725 C19.2015,41.031 19.3255,41.1005 19.462,41.1385 C19.6005,41.1775 19.7045,41.226 19.8555,41.236 C19.862,41.2365 19.8685,41.2375 19.875,41.238 C19.9035,41.256 19.9295,41.277 19.9585,41.2935 C20.337,41.5415 20.735,41.752 21.1415,41.9395 C21.549,42.127 21.9665,42.2845 22.39,42.4235 C22.807,42.559 23.2565,42.6765 23.6885,42.773 C23.9045,42.815 24.0795,42.8585 24.329,42.899 L24.978,42.999 L25.5785,43.092 C25.741,43.1295 25.902,43.163 26.063,43.1925 L26.661,43.3945 L26.6795,43.401 C26.6545,43.3925 26.606,43.3765 26.615,43.38 L26.6165,43.3815 L26.619,43.3845 L26.6295,43.3955 L26.651,43.4155 C26.6645,43.4275 26.6795,43.4375 26.695,43.446 C26.7105,43.455 26.726,43.46 26.746,43.467 L26.862,43.574 L26.978,43.681 L27.025,43.724 C27.0245,43.7245 27.0245,43.725 27.024,43.7255 C27.024,43.7255 27.023,43.725 27.024,43.7255 C27.023,43.7265 27.0225,43.7275 27.0215,43.729 C27.011,43.731 27.002,43.7275 26.9985,43.7205 L27.0035,43.744 C27.0045,43.7475 27.005,43.7495 27.006,43.7525 C26.6365,44.2745 26.3275,44.846 26.0975,45.4635 C25.778,46.321 25.633,47.1995 25.6325,48.066 C25.5515,48.15 25.455,48.2485 25.367,48.319 C25.2305,48.456 25.043,48.5875 24.826,48.739 C24.7735,48.7645 24.719,48.7905 24.663,48.8175 L24.5775,48.862 L24.534,48.8855 L24.512,48.8975 L24.509,48.899 C24.4265,48.919 24.619,48.8735 24.5975,48.8785 L24.5885,48.8805 L24.571,48.8845 C24.3915,48.9235 24.1685,48.9875 23.998,49.0115 C23.934,49.009 23.8695,49.01 23.8025,49.014 C23.735,49.017 23.6735,49.033 23.5685,49.0155 C23.3775,48.9935 23.184,48.9915 22.964,48.9385 C22.859,48.9185 22.7525,48.898 22.6445,48.8775 C22.5245,48.847 22.4025,48.816 22.279,48.785 C22.0325,48.7225 21.7805,48.659 21.5245,48.594 C21.003,48.468 20.4985,48.31 19.9215,48.2015 C19.6375,48.1465 19.36,48.0745 19.067,48.034 L18.178,47.941 L17.957,47.919 L17.9435,47.9175 L17.894,47.9155 L17.8675,47.9165 L17.815,47.9185 L17.7095,47.923 L17.288,47.941 L16.8675,47.9585 C16.7275,47.9655 16.571,48.0045 16.425,48.0265 C16.1315,48.084 15.8325,48.1195 15.559,48.1975 C15.2895,48.284 15.024,48.37 14.7625,48.454 C14.4995,48.531 14.2655,48.668 14.0245,48.7685 C13.7865,48.877 13.5525,48.977 13.3435,49.111 C12.914,49.3565 12.5135,49.5915 12.172,49.851 C11.998,49.9755 11.828,50.09 11.6735,50.207 C11.5235,50.33 11.381,50.4465 11.247,50.556 C10.9775,50.7725 10.748,50.9655 10.57,51.1385 C10.207,51.474 10,51.6655 10,51.6655 C10,51.6655 10.2265,51.498 10.6235,51.2055 C10.818,51.054 11.067,50.8885 11.3555,50.705 C11.4985,50.612 11.651,50.5135 11.8115,50.409 C11.976,50.3115 12.1545,50.218 12.337,50.116 C12.696,49.9005 13.109,49.717 13.545,49.528 C13.758,49.422 13.9915,49.3525 14.2265,49.2755 C14.4645,49.2065 14.6955,49.101 14.948,49.0575 C15.197,49.007 15.45,48.955 15.7065,48.903 C15.961,48.86 16.215,48.8625 16.4685,48.838 C16.598,48.8325 16.7165,48.8095 16.8545,48.8175 L17.274,48.8465 L17.695,48.8755 L17.8005,48.883 L17.853,48.8865 L17.8795,48.888 C17.866,48.8875 17.919,48.89 17.8505,48.887 L17.857,48.8885 L17.869,48.891 L18.065,48.9345 L18.842,49.104 C19.0995,49.169 19.3565,49.268 19.61,49.3465 C19.824,49.411 20.0415,49.4925 20.2585,49.5745 C20.0925,49.6345 19.923,49.702 19.7555,49.801 C19.52,49.9435 19.3175,50.1545 19.1745,50.389 C18.9175,50.841 18.665,51.292 18.4125,51.6975 C18.3055,51.703 18.2105,51.71 18.2075,51.7195 C18.2055,51.726 18.2045,51.728 18.2035,51.731 C18.189,51.7475 18.139,51.779 18.04,51.797 C17.923,51.8195 17.764,51.8255 17.595,51.812 C17.4165,51.792 17.226,51.7705 17.0355,51.749 C16.846,51.7215 16.6305,51.7505 16.4475,51.75 C16.264,51.7755 16.0955,51.8045 15.9515,51.8285 C15.67,51.9005 15.482,51.9475 15.482,51.9475 C15.482,51.9475 15.674,51.931 15.962,51.906 C16.106,51.905 16.274,51.904 16.4505,51.908 C16.627,51.939 16.802,51.9365 16.9895,51.994 C17.177,52.0465 17.3645,52.0995 17.5405,52.1495 C17.724,52.1935 17.9005,52.218 18.068,52.2165 C17.9555,52.3725 17.8435,52.5175 17.7295,52.6435 C17.615,52.786 17.495,52.9025 17.3855,53.0035 C17.2805,53.109 17.1835,53.195 17.095,53.256 C16.924,53.3855 16.8265,53.4595 16.8265,53.4595 C16.8265,53.4595 16.931,53.3945 17.114,53.282 C17.2085,53.2295 17.3145,53.1525 17.4305,53.056 C17.551,52.965 17.684,52.858 17.814,52.725 C18.105,52.4575 18.4,52.1 18.696,51.7055 L18.7185,51.6865 C18.7185,51.6865 18.712,51.6865 18.7095,51.6865 C18.97,51.3385 19.231,50.9625 19.491,50.591 C19.6245,50.419 19.7815,50.2845 19.9705,50.191 C20.163,50.102 20.3765,50.047 20.594,49.9975 C20.774,49.962 20.959,49.9195 21.1195,49.9005 C21.12,49.901 21.1205,49.901 21.1215,49.9015 C21.369,49.9945 21.6125,50.0855 21.851,50.175 C21.97,50.22 22.088,50.264 22.204,50.308 C22.337,50.3495 22.4675,50.3905 22.597,50.4315 C22.841,50.5185 23.118,50.565 23.376,50.62 C23.63,50.6765 23.978,50.672 24.2615,50.6795 C24.5095,50.666 24.6835,50.6325 24.883,50.612 L24.901,50.61 L24.91,50.609 L25.0065,50.586 L25.0125,50.584 L25.0565,50.5695 L25.1445,50.5395 L25.3165,50.48 C25.4295,50.4385 25.539,50.3985 25.645,50.3595 C25.749,50.3075 25.847,50.2555 25.9415,50.204 C26.4965,52.1185 27.7695,53.805 29.525,54.815 C29.3425,55.2105 29.187,55.679 29.0915,56.1985 C28.961,56.88 28.925,57.6425 28.956,58.4395 C28.98,59.238 29.073,60.0775 29.106,60.925 C29.135,61.755 29.086,62.666 28.561,63.0395 C28.436,63.146 28.261,63.2115 28.078,63.274 L27.9285,63.305 L27.8535,63.3215 L27.816,63.33 L27.7995,63.334 L27.4425,63.3605 L27.0705,63.389 C26.96,63.3835 26.859,63.3685 26.752,63.3605 L26.4325,63.334 L26.1025,63.252 C25.2155,63.0345 24.403,62.476 23.6645,61.798 C22.908,61.137 22.232,60.3345 21.294,59.763 C20.8325,59.4865 20.2645,59.278 19.7025,59.3445 C19.4135,59.339 19.172,59.425 18.894,59.5435 C18.6475,59.6685 18.4295,59.829 18.242,60.0085 C17.5055,60.7445 17.1155,61.6205 16.7275,62.4155 C16.3535,63.221 16.0275,63.9885 15.694,64.68 C15.363,65.3725 15.029,65.9925 14.685,66.5115 C14.344,67.0325 13.997,67.453 13.6805,67.769 C13.5675,67.8845 13.4605,67.981 13.3575,68.0695 C13.351,68.0615 13.3475,68.0515 13.3405,68.044 C13.103,67.807 12.545,67.9805 12.308,68.2175 C12.071,68.455 12.2445,68.6655 12.482,68.903 C12.719,69.14 12.93,69.3135 13.167,69.0765 C13.386,68.8575 13.547,68.3665 13.3835,68.1065 C13.492,68.022 13.605,67.929 13.726,67.8165 C14.06,67.5125 14.4305,67.1025 14.7995,66.591 C15.1715,66.081 15.538,65.4695 15.9035,64.787 C16.271,64.106 16.634,63.35 17.04,62.5705 C17.452,61.805 17.894,60.9625 18.5625,60.3595 C18.9065,60.0675 19.2805,59.868 19.729,59.886 C20.1655,59.851 20.587,60.0295 20.9735,60.2825 C21.7535,60.8005 22.4,61.617 23.1515,62.3455 C23.8875,63.0845 24.7815,63.788 25.859,64.1085 L26.2605,64.2245 C26.401,64.249 26.546,64.2645 26.6895,64.283 C26.8315,64.299 26.9795,64.3195 27.117,64.329 L27.49,64.3185 L27.8605,64.308 L27.9215,64.3035 L27.9485,64.299 L28.0015,64.2905 L28.1075,64.273 L28.3195,64.237 C28.603,64.16 28.8955,64.063 29.156,63.875 C29.704,63.517 29.985,62.9035 30.1045,62.3905 C30.231,61.864 30.25,61.3755 30.2575,60.915 C30.2635,59.9955 30.2085,59.169 30.2215,58.4255 C30.2265,57.6815 30.2935,57.025 30.4235,56.481 C30.5255,56.044 30.669,55.686 30.825,55.3965 C31.1755,55.5165 31.534,55.621 31.9095,55.6895 C33.4275,55.965 34.9175,55.751 36.2395,55.1825 C36.366,55.509 36.5275,55.8485 36.7535,56.173 C37.058,56.6665 37.5005,57.093 37.974,57.5 L38.0265,57.543 L38.048,57.558 L38.091,57.588 L38.1775,57.648 L38.3515,57.7695 C38.468,57.851 38.5865,57.9335 38.706,58.017 C38.931,58.1875 39.2275,58.3455 39.4975,58.5115 C39.6385,58.5955 39.7805,58.6795 39.9235,58.7645 C40.0595,58.837 40.1965,58.9095 40.334,58.9825 C40.6095,59.1285 40.888,59.2765 41.169,59.4255 C41.4375,59.574 41.708,59.7235 41.9795,59.8735 L42.388,60.0995 C42.5275,60.1805 42.657,60.2775 42.7925,60.366 C42.877,60.4235 42.96,60.4805 43.0445,60.5375 C43.048,60.578 43.0495,60.6285 43.048,60.689 C43.047,60.7205 43.046,60.7535 43.045,60.7865 C43.04,60.8735 43.047,60.871 43.0475,60.919 C43.054,60.995 43.0505,61.06 43.065,61.156 C43.0805,61.25 43.097,61.347 43.1145,61.448 C43.1375,61.5365 43.161,61.628 43.1855,61.722 C43.215,61.818 43.245,61.917 43.2765,62.0175 C43.3175,62.1105 43.3375,62.1885 43.398,62.2985 C43.5105,62.5245 43.6465,62.688 43.791,62.8585 C43.9355,63.0125 44.082,63.1685 44.2285,63.3245 C44.2995,63.396 44.3695,63.487 44.4255,63.5455 C44.4845,63.6315 44.5545,63.7215 44.5875,63.7975 C44.6735,63.955 44.7345,64.145 44.747,64.3265 C44.786,64.6925 44.6535,65.0465 44.4355,65.255 C44.33,65.3635 44.2045,65.431 44.089,65.4795 C43.9705,65.5215 43.862,65.545 43.7695,65.5515 C43.678,65.568 43.605,65.5535 43.5555,65.557 C43.5055,65.556 43.479,65.5555 43.479,65.5555 C43.479,65.5555 43.5055,65.559 43.5545,65.5655 C43.6045,65.568 43.6765,65.5905 43.771,65.584 C43.8655,65.5875 43.9795,65.5765 44.1105,65.5455 C44.238,65.5085 44.3825,65.451 44.5135,65.3435 C44.782,65.1395 44.9825,64.751 44.984,64.319 C44.991,64.1015 44.951,63.8835 44.8615,63.663 C44.818,63.544 44.7645,63.4615 44.714,63.3665 C44.639,63.2585 44.587,63.175 44.5175,63.086 C44.391,62.9175 44.264,62.7485 44.139,62.5825 C44.0285,62.4225 43.924,62.2485 43.8745,62.1095 C43.842,62.0435 43.8195,61.928 43.792,61.842 C43.777,61.757 43.761,61.674 43.7465,61.593 C43.7345,61.508 43.7225,61.4255 43.7115,61.346 C43.7065,61.276 43.702,61.2095 43.6985,61.145 C43.694,61.1005 43.6985,61.045 43.7025,60.9905 C43.9225,61.145 44.141,61.299 44.3465,61.46 C44.8355,61.835 45.2855,62.2345 45.647,62.681 C45.842,62.896 45.9905,63.135 46.142,63.3675 L46.199,63.4545 C46.201,63.447 46.2265,63.5085 46.2385,63.532 L46.3305,63.7265 C46.3895,63.855 46.456,63.983 46.5075,64.1075 C46.6675,64.587 46.7825,65.0875 46.8015,65.56 C46.835,66.031 46.802,66.4695 46.7565,66.8555 C46.7095,67.242 46.643,67.577 46.5785,67.851 C46.525,68.128 46.451,68.3375 46.4155,68.485 C46.3755,68.631 46.354,68.7085 46.354,68.7085 C46.354,68.7085 46.383,68.6335 46.437,68.4915 C46.4865,68.349 46.581,68.146 46.661,67.874 C46.7535,67.6055 46.8525,67.2755 46.939,66.8865 C47.023,66.499 47.1015,66.0525 47.1145,65.5555 C47.1405,65.0595 47.0805,64.519 46.9375,63.9325 C46.896,63.7965 46.844,63.668 46.7975,63.5325 L46.7245,63.3305 C46.7075,63.2885 46.711,63.2805 46.6765,63.2105 L46.624,63.1095 C46.484,62.8385 46.343,62.5575 46.154,62.302 C45.803,61.7705 45.354,61.2885 44.8765,60.842 C44.3995,60.3885 43.89,59.9805 43.3945,59.5675 C43.155,59.355 42.887,59.1665 42.608,58.9785 C42.334,58.7895 42.0605,58.601 41.7895,58.414 C41.525,58.2385 41.2615,58.065 41.0025,57.893 C40.9325,57.847 40.8645,57.8015 40.795,57.756 C40.8505,57.7395 40.906,57.723 40.961,57.7055 C41.0885,57.669 41.2375,57.6205 41.3385,57.6005 C41.481,57.579 41.6235,57.558 41.73,57.577 C41.8455,57.5715 41.9725,57.622 42.0925,57.649 C42.329,57.7375 42.547,57.851 42.7325,57.9565 C43.104,58.1685 43.368,58.277 43.368,58.277 C43.368,58.277 43.127,58.1275 42.797,57.859 C42.6315,57.725 42.431,57.572 42.1875,57.432 C42.056,57.378 41.932,57.3005 41.7675,57.275 C41.5995,57.228 41.459,57.23 41.319,57.2265 C41.1385,57.2305 41.012,57.2565 40.866,57.2715 C40.729,57.2905 40.5905,57.3085 40.4885,57.311 C40.3955,57.325 40.2735,57.313 40.158,57.3025 C39.9705,57.167 39.786,57.0415 39.6025,56.8735 C39.392,56.6935 39.187,56.5165 38.987,56.345 C38.658,55.9925 38.3635,55.654 38.197,55.2975 C38.0025,54.955 37.914,54.6105 37.8475,54.3065 C37.8445,54.2885 37.843,54.2725 37.8405,54.2545 C39.2675,53.1875 40.339,51.65 40.7615,49.859 C40.9105,49.8175 41.067,49.774 41.237,49.7265 C41.4225,49.675 41.62,49.6205 41.828,49.5625 L41.9065,49.541 L41.926,49.5355 C41.896,49.5415 42,49.5205 41.86,49.548 L41.865,49.547 L41.8755,49.545 L41.916,49.5365 L42.0805,49.5025 C42.192,49.4795 42.305,49.456 42.4215,49.432 C42.6525,49.385 42.8405,49.3725 43.0665,49.336 C43.2855,49.318 43.516,49.314 43.7505,49.308 C43.8635,49.319 43.978,49.3305 44.094,49.3415 L44.2705,49.3565 L44.293,49.358 L44.2985,49.3585 C44.186,49.327 44.271,49.3505 44.2475,49.344 L44.26,49.3475 L44.3115,49.361 L44.4145,49.3885 C44.5915,49.4275 44.6,49.46 44.666,49.475 C44.7285,49.519 44.8175,49.5545 44.879,49.6245 C45.164,49.855 45.3715,50.3525 45.508,50.9105 C45.6555,51.473 45.727,52.0985 45.908,52.767 L45.949,52.914 L45.9885,53.026 L46.0685,53.249 L46.149,53.472 L46.2605,53.7125 C46.3985,54.0415 46.585,54.3245 46.7625,54.6085 C46.9835,54.917 47.2385,55.194 47.515,55.44 C47.509,55.47 47.505,55.492 47.505,55.492 L47.5335,55.456 C47.637,55.5475 47.742,55.635 47.8515,55.7165 C47.86,55.7435 47.869,55.7655 47.8785,55.7735 C47.9405,55.822 48.013,55.901 48.091,55.992 C48.4095,56.3435 48.746,56.944 49.1225,57.5355 C49.3175,57.829 49.525,58.12 49.762,58.3595 C49.8875,58.4725 50.0015,58.589 50.1355,58.669 C50.263,58.7575 50.3895,58.827 50.518,58.871 C50.6375,58.931 50.76,58.948 50.8645,58.97 C50.9685,58.9985 51.0615,59.001 51.138,59 C51.2895,59.003 51.376,59.0045 51.376,59.0045 C51.376,59.0045 51.291,58.9915 51.1415,58.9685 C51.0675,58.9595 50.978,58.9445 50.8815,58.9035 C50.7845,58.8685 50.6725,58.8375 50.5675,58.7655 C50.455,58.71 50.3475,58.629 50.2425,58.5315 C50.131,58.444 50.04,58.32 49.9405,58.2035 C49.7535,57.9545 49.5965,57.657 49.45,57.353 C49.286,56.9995 49.1315,56.636 48.9715,56.2995 C49.0005,56.3085 49.0295,56.317 49.0575,56.3275 L49.2735,56.398 C49.3825,56.4295 49.4235,56.4265 49.501,56.442 C49.638,56.464 49.7745,56.486 49.908,56.5075 C50.189,56.5295 50.481,56.5385 50.744,56.5305 C51.005,56.502 51.26,56.4995 51.497,56.451 C51.616,56.4305 51.7325,56.41 51.8455,56.3905 C51.906,56.379 51.95,56.375 52.022,56.357 L52.1795,56.312 C52.3865,56.245 52.5855,56.212 52.768,56.127 C52.9485,56.0475 53.1175,55.9735 53.2745,55.905 C53.42,55.821 53.554,55.744 53.6745,55.6745 C53.919,55.5415 54.089,55.403 54.215,55.3255 C54.3375,55.2425 54.403,55.198 54.403,55.198 C54.403,55.198 54.3335,55.2355 54.2035,55.306 C54.07,55.3715 53.8885,55.492 53.634,55.5985 C53.509,55.655 53.371,55.7175 53.22,55.7855 C53.0655,55.8365 52.8985,55.891 52.72,55.949 C52.546,56.0125 52.3335,56.028 52.1245,56.0735 L51.963,56.103 L51.807,56.1155 C51.6955,56.124 51.582,56.132 51.4655,56.141 C51.234,56.165 50.993,56.142 50.7455,56.1455 C50.4995,56.127 50.2625,56.0975 50.006,56.0545 C49.875,56.02 49.742,55.9845 49.607,55.949 C49.55,55.9315 49.4495,55.913 49.4265,55.896 L49.2455,55.8155 C49.1265,55.757 48.998,55.7175 48.8845,55.6445 C48.772,55.5715 48.6585,55.498 48.544,55.424 C48.4515,55.354 48.364,55.278 48.2775,55.2 C48.227,55.1425 48.18,55.091 48.145,55.064 C48.117,55.0385 48.102,55.025 48.08,55.0055 C47.8415,54.7585 47.6275,54.482 47.45,54.176 C47.325,53.9175 47.1895,53.661 47.1095,53.398 C47.0135,53.176 46.932,52.775 46.883,52.5465 C46.7865,51.982 46.773,51.3415 46.6725,50.6845 C46.6595,50.592 46.639,50.497 46.6215,50.4035 C46.809,50.6385 46.9905,50.897 47.158,51.1645 C47.383,51.524 47.6045,51.9135 47.8635,52.244 C47.9875,52.4125 48.131,52.559 48.273,52.6905 C48.337,52.7625 48.4275,52.805 48.499,52.86 C48.5745,52.912 48.643,52.9665 48.7265,52.991 C48.8835,53.0575 49.026,53.1145 49.1655,53.115 C49.3005,53.1345 49.416,53.1455 49.5115,53.119 C49.7,53.089 49.808,53.072 49.808,53.072 C49.808,53.072 49.6995,53.0775 49.51,53.0865 C49.416,53.102 49.3035,53.0795 49.1775,53.047 C49.047,53.034 48.9185,52.9635 48.7815,52.8875 C48.7085,52.858 48.649,52.7985 48.5845,52.744 C48.5235,52.685 48.4475,52.6415 48.394,52.5665 C48.275,52.43 48.1575,52.2815 48.057,52.109 C47.8475,51.7725 47.678,51.3825 47.484,50.9815 C47.132,50.2635 46.69,49.563 46.172,49.1035 C46.0845,48.9545 45.9835,48.8095 45.86,48.676 C45.7315,48.517 45.564,48.3965 45.394,48.2705 C45.2005,48.155 44.961,48.0365 44.8585,48.008 L44.759,47.9705 L44.709,47.952 L44.697,47.9475 L44.6255,47.9275 L44.595,47.921 L44.3565,47.872 C44.197,47.841 44.0395,47.8105 43.8845,47.78 C43.5785,47.7525 43.28,47.7295 42.9895,47.7255 C42.7075,47.738 42.401,47.7415 42.1645,47.7665 C42.0465,47.779 41.931,47.791 41.8185,47.803 L41.6515,47.821 L41.61,47.825 L41.5995,47.826 L41.5185,47.8415 L41.498,47.845 L41.418,47.859 C41.2535,47.8875 41.1015,47.914 40.951,47.9405 C40.9135,46.581 40.507,45.2875 39.821,44.1695 C39.866,44.036 39.927,43.778 40.014,43.5925 C40.0575,43.484 40.105,43.364 40.157,43.2335 C40.2255,43.096 40.299,42.9475 40.378,42.7885 C40.5485,42.4745 40.7595,42.1255 41.0225,41.7605 C41.286,41.396 41.6,41.016 41.964,40.639 C42.057,40.546 42.1505,40.4515 42.245,40.3565 L42.2805,40.3205 L42.2985,40.3025 L42.3075,40.2935 C42.2515,40.3395 42.295,40.304 42.2835,40.313 L42.289,40.3085 L42.3715,40.238 L42.5385,40.0955 C42.771,39.8825 42.9745,39.7535 43.184,39.6055 C43.64,39.3205 44.162,39.0505 44.7365,38.859 C45.31,38.661 45.9215,38.498 46.5525,38.354 C46.8395,38.2915 47.19,38.2145 47.488,38.1695 C47.7915,38.1175 48.1105,38.071 48.4285,38.0255 C48.839,37.963 49.2475,37.898 49.6515,37.822 L49.6645,37.855 C49.6645,37.855 49.715,37.8305 49.788,37.794 C49.965,37.759 50.143,37.7295 50.3165,37.685 C50.3985,37.664 50.4785,37.64 50.5595,37.6175 C50.665,37.6125 50.7765,37.6115 50.895,37.6175 C51.021,37.6205 51.154,37.6335 51.2885,37.6455 L51.494,37.6695 C51.591,37.683 51.6425,37.68 51.719,37.6865 C51.86,37.6945 52.0015,37.703 52.141,37.711 C52.2855,37.7075 52.4335,37.688 52.571,37.677 C52.71,37.668 52.841,37.6505 52.9605,37.6095 C53.08,37.5765 53.1935,37.545 53.2975,37.516 C53.4035,37.495 53.4885,37.4365 53.569,37.405 C53.6475,37.3685 53.7165,37.3365 53.7725,37.31 C53.885,37.258 53.949,37.228 53.949,37.228 C53.949,37.228 53.8805,37.247 53.761,37.28 C53.7015,37.2965 53.6295,37.316 53.547,37.339 C53.463,37.357 53.375,37.399 53.2685,37.402 C53.165,37.4125 53.0525,37.4245 52.9345,37.4365 C52.817,37.457 52.6935,37.4525 52.567,37.439 C52.4405,37.428 52.314,37.4265 52.182,37.408 C52.0465,37.377 51.908,37.3455 51.77,37.314 C51.707,37.2985 51.6175,37.283 51.577,37.267 L51.5685,37.2645 C51.7245,37.1965 51.8775,37.124 52.0215,37.0445 C52.5215,36.7945 52.9855,36.4495 53.3625,36.1345 C53.5405,35.957 53.715,35.7905 53.8665,35.6205 C54.0035,35.437 54.1435,35.272 54.2545,35.1035 C54.354,34.9275 54.447,34.763 54.5335,34.6105 C54.6045,34.4515 54.655,34.2985 54.7085,34.165 C54.8275,33.902 54.834,33.668 54.877,33.522 C54.908,33.3725 54.925,33.293 54.925,33.293 C54.925,33.293 54.9005,33.3655 54.855,33.5115 Z M17.219,48.719 C17.2195,48.72 17.209,48.7255 17.208,48.728 C17.2105,48.7245 17.214,48.7205 17.219,48.719 Z M17.2025,48.7365 C17.2015,48.7405 17.2015,48.74 17.2025,48.7365 Z M26.426,40.21 C26.4065,40.233 26.389,40.258 26.37,40.281 C26.3875,40.2565 26.4055,40.234 26.426,40.21 Z M35.1165,47.3695 C33.6575,47.3695 32.4755,46.1875 32.4755,44.7285 C32.4755,43.27 33.6575,42.0875 35.1165,42.0875 C36.5755,42.0875 37.7575,43.27 37.7575,44.7285 C37.7575,46.1875 36.5755,47.3695 35.1165,47.3695 Z" id="Shape" fill="#1EA59B" fill-rule="nonzero" transform="translate(32.462500, 49.094764) scale(1, -1) translate(-32.462500, -49.094764) "></path>
                        <path d="M9.035,27.126 L9.034,27.119 C9.0325,27.1145 9.0335,27.125 9.035,27.126 Z" id="Shape" fill="#000000" fill-rule="nonzero"></path>
                    </g>
                </g>
            </g>
        </g>
    </g>
</svg>