<?xml version="1.0" encoding="UTF-8"?>
<svg width="90px" height="81px" viewBox="0 0 90 81" version="1.1" xmlns="http://www.w3.org/2000/svg" xmlns:xlink="http://www.w3.org/1999/xlink">
    <!-- Generator: Sketch 50.2 (55047) - http://www.bohemiancoding.com/sketch -->
    <title>Group</title>
    <desc>Created with Sketch.</desc>
    <defs></defs>
    <g id="Page-1" stroke="none" stroke-width="1" fill="none" fill-rule="evenodd">
        <g id="noun_79860_cc" transform="translate(-5.000000, -1.000000)">
            <g id="Group" transform="translate(5.000000, 0.000000)">
                <path d="M34.813,29.375 C34.851,29.329 34.886,29.279 34.925,29.233 C34.885,29.281 34.849,29.326 34.813,29.375 Z" id="Shape"></path>
                <path d="M16.489,46.269 C16.492,46.264 16.512,46.253 16.511,46.251 C16.502,46.254 16.495,46.262 16.489,46.269 Z" id="Shape"></path>
                <path d="M16.479,46.286 C16.477,46.293 16.477,46.294 16.479,46.286 Z" id="Shape"></path>
                <circle id="Oval" cx="42.307" cy="39.27" r="5.282"></circle>
                <path d="M89.784,9.836 C89.67,10.119 89.617,10.573 89.332,11.067 C89.202,11.318 89.076,11.604 88.91,11.898 C88.717,12.174 88.508,12.474 88.284,12.793 C88.04,13.095 87.74,13.385 87.45,13.706 C87.132,14.001 86.77,14.284 86.406,14.585 C85.601,15.127 84.774,15.644 83.722,16.052 C82.726,16.484 81.625,16.75 80.457,16.931 C80.074,16.991 79.672,17.022 79.274,17.058 C79.253,17.023 79.234,17 79.219,17.006 C79.072,17.051 78.981,17.078 78.919,17.097 C78.218,17.153 77.503,17.195 76.773,17.234 C76.132,17.263 75.484,17.295 74.803,17.344 C74.666,17.352 74.544,17.366 74.414,17.377 C74.518,17.252 74.622,17.126 74.707,16.976 C74.93,16.608 75.078,16.153 75.086,15.717 C75.112,15.495 75.074,15.287 75.063,15.074 L75,14.516 C74.942,14.128 74.955,13.785 74.932,13.421 C74.963,13.067 74.941,12.7 75.024,12.369 C75.055,12.2 75.086,12.034 75.117,11.871 C75.172,11.716 75.225,11.564 75.277,11.416 C75.36,11.106 75.547,10.868 75.675,10.621 C75.807,10.373 76.01,10.208 76.149,10.026 C76.287,9.839 76.461,9.734 76.587,9.628 C76.849,9.422 76.998,9.304 76.998,9.304 C76.998,9.304 76.835,9.403 76.55,9.576 C76.409,9.668 76.219,9.754 76.055,9.925 C75.891,10.092 75.658,10.242 75.488,10.482 C75.322,10.721 75.092,10.958 74.962,11.273 C74.887,11.426 74.809,11.583 74.73,11.743 C74.675,11.913 74.62,12.086 74.563,12.263 C74.431,12.616 74.405,12.997 74.326,13.382 C74.3,13.766 74.244,14.184 74.254,14.555 L74.249,15.136 C74.234,15.301 74.248,15.473 74.205,15.621 C74.16,15.933 74.03,16.188 73.856,16.409 C73.686,16.638 73.457,16.811 73.229,16.979 C72.966,17.152 72.682,17.345 72.459,17.505 C72.397,17.551 72.339,17.585 72.279,17.624 C71.149,17.782 70.007,17.972 68.872,18.245 C67.55,18.552 66.272,19.043 65.054,19.657 C64.434,20.002 63.81,20.36 63.373,20.694 L63.013,20.945 L62.835,21.07 L62.6,21.26 C62.365,21.455 62.131,21.647 61.902,21.837 C60.995,22.612 60.189,23.414 59.491,24.205 C58.794,24.998 58.207,25.782 57.719,26.508 C57.487,26.881 57.27,27.23 57.069,27.552 C57.025,27.636 56.991,27.703 56.949,27.785 C54.921,25.922 52.399,24.584 49.587,24.038 C49.691,23.692 49.798,23.335 49.904,22.965 C50.222,22.049 50.435,20.795 50.683,19.566 C50.916,18.34 50.965,16.895 50.747,15.484 C50.54,14.065 50.024,12.577 49.077,11.314 C48.143,10.036 46.745,9.109 45.294,8.638 C43.941,8.226 42.368,8.068 41.009,8.09 C40.532,8.1 40.075,8.133 39.615,8.162 L39.6,8.142 C39.6,8.142 39.582,8.158 39.576,8.164 C39.255,8.185 38.934,8.199 38.62,8.223 C38.113,8.147 37.493,7.986 36.864,7.8 C36.708,7.745 36.433,7.673 36.29,7.593 C36.118,7.524 35.956,7.427 35.806,7.314 C35.661,7.2 35.525,7.076 35.421,6.936 C35.311,6.799 35.218,6.657 35.151,6.512 C35.005,6.231 34.918,5.97 34.866,5.787 C34.813,5.603 34.782,5.498 34.782,5.498 C34.782,5.498 34.79,5.607 34.803,5.799 C34.815,5.991 34.845,6.268 34.933,6.596 C34.97,6.763 35.036,6.937 35.125,7.119 C35.208,7.301 35.334,7.482 35.477,7.655 C35.623,7.825 35.793,7.988 35.998,8.129 C36.142,8.24 36.263,8.31 36.394,8.384 C35.386,8.439 34.408,8.461 33.52,8.345 C32.435,8.208 31.476,7.794 30.907,7.047 C30.553,6.656 30.366,6.272 30.146,5.887 C29.972,5.476 29.792,5.088 29.702,4.694 C29.464,3.922 29.42,3.208 29.411,2.625 C29.439,2.045 29.486,1.578 29.594,1.281 C29.68,0.976 29.725,0.813 29.725,0.813 C29.725,0.813 29.664,0.971 29.551,1.268 C29.415,1.56 29.324,2.022 29.239,2.615 C29.192,3.21 29.17,3.95 29.343,4.779 C29.4,5.2 29.55,5.626 29.697,6.082 C29.889,6.521 30.109,7.031 30.408,7.422 C30.994,8.373 32.161,9.005 33.349,9.258 C34.556,9.529 35.807,9.573 37.096,9.612 C38.375,9.636 39.684,9.625 40.963,9.716 C42.264,9.829 43.392,10.04 44.603,10.514 C45.68,10.991 46.567,11.723 47.126,12.663 C47.694,13.595 47.977,14.692 48.03,15.786 C48.089,16.894 47.97,17.933 47.67,18.965 C47.349,19.988 47.147,20.9 46.711,21.874 C46.445,22.558 46.192,23.175 45.956,23.791 C42.535,23.967 39.272,25.292 36.696,27.478 L36.62,27.411 L36.604,27.399 L36.541,27.351 L36.415,27.256 L36.163,27.066 L35.91,26.876 L35.458,26.616 L34.991,26.376 L34.756,26.265 L34.639,26.212 L34.609,26.199 L34.594,26.192 L34.448,26.143 L34.409,26.134 L33.177,25.849 L31.652,25.66 L30.341,25.588 L29.128,25.522 C28.791,25.506 28.313,25.442 27.912,25.405 C27.348,25.335 26.804,25.246 26.254,25.144 C26.172,25.086 26.091,25.025 26.039,24.949 L25.74,24.59 C25.575,24.097 25.417,23.597 25.274,23.086 C25.126,22.554 24.966,22.019 24.793,21.486 C24.606,20.955 24.386,20.437 24.118,19.945 C23.965,19.709 23.824,19.467 23.664,19.24 L23.135,18.599 L23.58,19.294 C23.71,19.536 23.819,19.788 23.938,20.032 C24.139,20.539 24.29,21.061 24.408,21.593 C24.631,22.659 24.742,23.76 24.99,24.868 L24.99,24.871 C24.416,24.729 23.844,24.573 23.288,24.38 C22.544,24.123 21.813,23.824 21.121,23.463 C20.76,23.302 20.441,23.083 20.105,22.884 L19.854,22.733 L19.792,22.695 C19.796,22.7 19.738,22.657 19.794,22.702 L19.762,22.679 L19.635,22.585 L19.127,22.209 C18.765,21.959 18.507,21.707 18.213,21.457 C17.916,21.22 17.651,20.924 17.377,20.64 C17.089,20.365 16.856,20.051 16.612,19.741 C16.352,19.44 16.151,19.105 15.946,18.77 C15.719,18.444 15.558,18.09 15.399,17.732 C15.212,17.382 15.098,17.011 14.992,16.634 C14.854,16.263 14.795,15.878 14.749,15.488 L14.671,14.926 L14.666,14.294 C14.653,13.867 14.664,13.454 14.707,13.058 C14.736,12.656 14.766,12.249 14.827,11.832 L15.166,9.331 C15.282,8.493 15.359,7.643 15.387,6.796 C15.375,6.37 15.385,5.945 15.356,5.524 L15.184,4.268 L15.232,5.528 C15.219,5.946 15.169,6.364 15.139,6.778 C15.03,7.607 14.872,8.426 14.676,9.242 L14.091,11.705 C13.988,12.115 13.913,12.543 13.84,12.976 C13.752,13.412 13.7,13.838 13.671,14.253 L13.613,14.882 C13.605,15.151 13.627,15.342 13.633,15.577 C13.642,16.029 13.67,16.48 13.781,16.918 C13.861,17.363 13.954,17.807 14.122,18.225 C14.265,18.654 14.415,19.081 14.631,19.475 C14.825,19.881 15.024,20.288 15.279,20.656 C15.518,21.035 15.755,21.421 16.044,21.761 C16.386,22.222 16.803,22.692 17.224,23.123 C17.143,23.086 17.065,23.055 16.983,23.016 C16.704,22.884 16.367,22.736 16.116,22.599 L15.68,22.369 L15.304,22.118 C15.051,21.954 14.82,21.742 14.594,21.549 C14.161,21.137 13.79,20.705 13.506,20.307 C12.932,19.515 12.609,18.936 12.609,18.936 C12.609,18.936 12.844,19.55 13.309,20.433 C13.538,20.876 13.852,21.372 14.247,21.873 C14.456,22.113 14.664,22.368 14.925,22.597 L15.32,22.947 L15.718,23.238 C16.019,23.458 16.269,23.609 16.551,23.796 C16.823,23.977 17.102,24.148 17.375,24.312 C17.647,24.476 17.929,24.62 18.193,24.758 C18.477,24.875 18.725,25.014 18.998,25.09 C19.275,25.168 19.483,25.265 19.785,25.285 C19.798,25.286 19.811,25.288 19.824,25.289 C19.881,25.325 19.933,25.367 19.991,25.4 C20.748,25.896 21.544,26.317 22.357,26.692 C23.172,27.067 24.007,27.382 24.854,27.66 C25.688,27.931 26.587,28.166 27.451,28.359 C27.883,28.443 28.233,28.53 28.732,28.611 L30.03,28.811 L31.231,28.997 C31.556,29.072 31.878,29.139 32.2,29.198 L33.396,29.602 L33.433,29.615 C33.383,29.598 33.286,29.566 33.304,29.573 L33.307,29.576 L33.312,29.582 L33.333,29.604 L33.376,29.644 C33.403,29.668 33.433,29.688 33.464,29.705 C33.495,29.723 33.526,29.733 33.566,29.747 L33.798,29.961 L34.03,30.175 L34.124,30.261 C34.123,30.262 34.123,30.263 34.122,30.264 C34.122,30.264 34.12,30.263 34.122,30.264 C34.12,30.266 34.119,30.268 34.117,30.271 C34.096,30.275 34.078,30.268 34.071,30.254 L34.081,30.301 C34.083,30.308 34.084,30.312 34.086,30.318 C33.347,31.362 32.729,32.505 32.269,33.74 C31.63,35.455 31.34,37.212 31.339,38.945 C31.177,39.113 30.984,39.31 30.808,39.451 C30.535,39.725 30.16,39.988 29.726,40.291 C29.621,40.342 29.512,40.394 29.4,40.448 L29.229,40.537 L29.142,40.584 L29.098,40.608 L29.092,40.611 C28.927,40.651 29.312,40.56 29.269,40.57 L29.251,40.574 L29.216,40.582 C28.857,40.66 28.411,40.788 28.07,40.836 C27.942,40.831 27.813,40.833 27.679,40.841 C27.544,40.847 27.421,40.879 27.211,40.844 C26.829,40.8 26.442,40.796 26.002,40.69 C25.792,40.65 25.579,40.609 25.363,40.568 C25.123,40.507 24.879,40.445 24.632,40.383 C24.139,40.258 23.635,40.131 23.123,40.001 C22.08,39.749 21.071,39.433 19.917,39.216 C19.349,39.106 18.794,38.962 18.208,38.881 L16.43,38.695 L15.988,38.651 L15.961,38.648 L15.862,38.644 L15.809,38.646 L15.704,38.65 L15.493,38.659 L14.65,38.695 L13.809,38.73 C13.529,38.744 13.216,38.822 12.924,38.866 C12.337,38.981 11.739,39.052 11.192,39.208 C10.653,39.381 10.122,39.553 9.599,39.721 C9.073,39.875 8.605,40.149 8.123,40.35 C7.647,40.567 7.179,40.767 6.761,41.035 C5.902,41.526 5.101,41.996 4.418,42.515 C4.07,42.764 3.73,42.993 3.421,43.227 C3.121,43.473 2.836,43.706 2.568,43.925 C2.029,44.358 1.57,44.744 1.214,45.09 C0.488,45.761 0.074,46.144 0.074,46.144 C0.074,46.144 0.527,45.809 1.321,45.224 C1.71,44.921 2.208,44.59 2.785,44.223 C3.071,44.037 3.376,43.84 3.697,43.631 C4.026,43.436 4.383,43.249 4.748,43.045 C5.466,42.614 6.292,42.247 7.164,41.869 C7.59,41.657 8.057,41.518 8.527,41.364 C9.003,41.226 9.465,41.015 9.97,40.928 C10.468,40.827 10.974,40.723 11.487,40.619 C11.996,40.533 12.504,40.538 13.011,40.489 C13.27,40.478 13.507,40.432 13.783,40.448 L14.622,40.506 L15.464,40.564 L15.675,40.579 L15.78,40.586 L15.833,40.589 C15.806,40.588 15.912,40.593 15.775,40.587 L15.788,40.59 L15.812,40.595 L16.204,40.682 L17.758,41.021 C18.273,41.151 18.787,41.349 19.294,41.506 C19.722,41.635 20.157,41.798 20.591,41.962 C20.259,42.082 19.92,42.217 19.585,42.415 C19.114,42.7 18.709,43.122 18.423,43.591 C17.909,44.495 17.404,45.397 16.899,46.208 C16.685,46.219 16.495,46.233 16.489,46.252 C16.485,46.265 16.483,46.269 16.481,46.275 C16.452,46.308 16.352,46.371 16.154,46.407 C15.92,46.452 15.602,46.464 15.264,46.437 C14.907,46.397 14.526,46.354 14.145,46.311 C13.766,46.256 13.335,46.314 12.969,46.313 C12.602,46.364 12.265,46.422 11.977,46.47 C11.414,46.614 11.038,46.708 11.038,46.708 C11.038,46.708 11.422,46.675 11.998,46.625 C12.286,46.623 12.622,46.621 12.975,46.629 C13.328,46.691 13.678,46.686 14.053,46.801 C14.428,46.906 14.803,47.012 15.155,47.112 C15.522,47.2 15.875,47.249 16.21,47.246 C15.985,47.558 15.761,47.848 15.533,48.1 C15.304,48.385 15.064,48.618 14.845,48.82 C14.635,49.031 14.441,49.203 14.264,49.325 C13.922,49.584 13.727,49.732 13.727,49.732 C13.727,49.732 13.936,49.602 14.302,49.377 C14.491,49.272 14.703,49.118 14.935,48.925 C15.176,48.743 15.442,48.529 15.702,48.263 C16.284,47.728 16.874,47.013 17.466,46.224 L17.511,46.186 C17.511,46.186 17.498,46.186 17.493,46.186 C18.014,45.49 18.536,44.738 19.056,43.995 C19.323,43.651 19.637,43.382 20.015,43.195 C20.4,43.017 20.827,42.907 21.262,42.808 C21.622,42.737 21.992,42.652 22.313,42.614 C22.314,42.615 22.315,42.615 22.317,42.616 C22.812,42.802 23.299,42.984 23.776,43.163 C24.014,43.253 24.25,43.341 24.482,43.429 C24.748,43.512 25.009,43.594 25.268,43.676 C25.756,43.85 26.31,43.943 26.826,44.053 C27.334,44.166 28.03,44.157 28.597,44.172 C29.093,44.145 29.441,44.078 29.84,44.037 L29.876,44.033 L29.894,44.031 L30.087,43.985 L30.099,43.981 L30.187,43.952 L30.363,43.892 L30.707,43.773 C30.933,43.69 31.152,43.61 31.364,43.532 C31.572,43.428 31.768,43.324 31.957,43.221 C33.067,47.05 35.613,50.423 39.124,52.443 C38.759,53.234 38.448,54.171 38.257,55.21 C37.996,56.573 37.924,58.098 37.986,59.692 C38.034,61.289 38.22,62.968 38.286,64.663 C38.344,66.323 38.246,68.145 37.196,68.892 C36.946,69.105 36.596,69.236 36.23,69.361 L35.931,69.423 L35.781,69.456 L35.706,69.473 L35.673,69.481 L34.959,69.534 L34.215,69.591 C33.994,69.58 33.792,69.55 33.578,69.534 L32.939,69.481 L32.279,69.317 C30.505,68.882 28.88,67.765 27.403,66.409 C25.89,65.087 24.538,63.482 22.662,62.339 C21.739,61.786 20.603,61.369 19.479,61.502 C18.901,61.491 18.418,61.663 17.862,61.9 C17.369,62.15 16.933,62.471 16.558,62.83 C15.085,64.302 14.305,66.054 13.529,67.644 C12.781,69.255 12.129,70.79 11.462,72.173 C10.8,73.558 10.132,74.798 9.444,75.836 C8.762,76.878 8.068,77.719 7.435,78.351 C7.209,78.582 6.995,78.775 6.789,78.952 C6.776,78.936 6.769,78.916 6.755,78.901 C6.28,78.427 5.164,78.774 4.69,79.248 C4.216,79.723 4.563,80.144 5.038,80.619 C5.512,81.093 5.934,81.44 6.408,80.966 C6.846,80.528 7.168,79.546 6.841,79.026 C7.058,78.857 7.284,78.671 7.526,78.446 C8.194,77.838 8.935,77.018 9.673,75.995 C10.417,74.975 11.15,73.752 11.881,72.387 C12.616,71.025 13.342,69.513 14.154,67.954 C14.978,66.423 15.862,64.738 17.199,63.532 C17.887,62.948 18.635,62.549 19.532,62.585 C20.405,62.515 21.248,62.872 22.021,63.378 C23.581,64.414 24.874,66.047 26.377,67.504 C27.849,68.982 29.637,70.389 31.792,71.03 L32.595,71.262 C32.876,71.311 33.166,71.342 33.453,71.379 C33.737,71.411 34.033,71.452 34.308,71.471 L35.054,71.45 L35.795,71.429 L35.917,71.42 L35.971,71.411 L36.077,71.394 L36.289,71.359 L36.713,71.287 C37.28,71.133 37.865,70.939 38.386,70.563 C39.482,69.847 40.044,68.62 40.283,67.594 C40.536,66.541 40.574,65.564 40.589,64.643 C40.601,62.804 40.491,61.151 40.517,59.664 C40.527,58.176 40.661,56.863 40.921,55.775 C41.125,54.901 41.412,54.185 41.724,53.606 C42.425,53.846 43.142,54.055 43.893,54.192 C46.929,54.743 49.909,54.315 52.553,53.178 C52.806,53.831 53.129,54.51 53.581,55.159 C54.19,56.146 55.075,56.999 56.022,57.813 L56.127,57.899 L56.17,57.929 L56.256,57.989 L56.429,58.109 L56.777,58.352 C57.01,58.515 57.247,58.68 57.486,58.847 C57.936,59.188 58.529,59.504 59.069,59.836 C59.351,60.004 59.635,60.172 59.921,60.342 C60.193,60.487 60.467,60.632 60.742,60.778 C61.293,61.07 61.85,61.366 62.412,61.664 C62.949,61.961 63.49,62.26 64.033,62.56 L64.85,63.012 C65.129,63.174 65.388,63.368 65.659,63.545 C65.828,63.66 65.994,63.774 66.163,63.888 C66.17,63.969 66.173,64.07 66.17,64.191 C66.168,64.254 66.166,64.32 66.164,64.386 C66.154,64.56 66.168,64.555 66.169,64.651 C66.182,64.803 66.175,64.933 66.204,65.125 C66.235,65.313 66.268,65.507 66.303,65.709 C66.349,65.886 66.396,66.069 66.445,66.257 C66.504,66.449 66.564,66.647 66.627,66.848 C66.709,67.034 66.749,67.19 66.87,67.41 C67.095,67.862 67.367,68.189 67.656,68.53 C67.945,68.838 68.238,69.15 68.531,69.462 C68.673,69.605 68.813,69.787 68.925,69.904 C69.043,70.076 69.183,70.256 69.249,70.408 C69.421,70.723 69.543,71.103 69.568,71.466 C69.646,72.198 69.381,72.906 68.945,73.323 C68.734,73.54 68.483,73.675 68.252,73.772 C68.015,73.856 67.798,73.903 67.613,73.916 C67.43,73.949 67.284,73.92 67.185,73.927 C67.085,73.925 67.032,73.924 67.032,73.924 C67.032,73.924 67.085,73.931 67.183,73.944 C67.283,73.949 67.427,73.994 67.616,73.981 C67.805,73.988 68.033,73.966 68.295,73.904 C68.55,73.83 68.839,73.715 69.101,73.5 C69.638,73.092 70.039,72.315 70.042,71.451 C70.056,71.016 69.976,70.58 69.797,70.139 C69.71,69.901 69.603,69.736 69.502,69.546 C69.352,69.33 69.248,69.163 69.109,68.985 C68.856,68.648 68.602,68.31 68.352,67.978 C68.131,67.658 67.922,67.31 67.823,67.032 C67.758,66.9 67.713,66.669 67.658,66.497 C67.628,66.327 67.596,66.161 67.567,65.999 C67.543,65.829 67.519,65.664 67.497,65.505 C67.487,65.365 67.478,65.232 67.471,65.103 C67.462,65.014 67.471,64.903 67.479,64.794 C67.919,65.103 68.356,65.411 68.767,65.733 C69.745,66.483 70.645,67.282 71.368,68.175 C71.758,68.605 72.055,69.083 72.358,69.548 L72.472,69.722 C72.476,69.707 72.527,69.83 72.551,69.877 L72.735,70.266 C72.853,70.523 72.986,70.779 73.089,71.028 C73.409,71.987 73.639,72.988 73.677,73.933 C73.744,74.875 73.678,75.752 73.587,76.524 C73.493,77.297 73.36,77.967 73.231,78.515 C73.124,79.069 72.976,79.488 72.905,79.783 C72.825,80.075 72.782,80.23 72.782,80.23 C72.782,80.23 72.84,80.08 72.948,79.796 C73.047,79.511 73.236,79.105 73.396,78.561 C73.581,78.024 73.779,77.364 73.952,76.586 C74.12,75.811 74.277,74.918 74.303,73.924 C74.355,72.932 74.235,71.851 73.949,70.678 C73.866,70.406 73.762,70.149 73.669,69.878 L73.523,69.474 C73.489,69.39 73.496,69.374 73.427,69.234 L73.322,69.032 C73.042,68.49 72.76,67.928 72.382,67.417 C71.68,66.354 70.782,65.39 69.827,64.497 C68.873,63.59 67.854,62.774 66.863,61.948 C66.384,61.523 65.848,61.146 65.29,60.77 C64.742,60.392 64.195,60.015 63.653,59.641 C63.124,59.29 62.597,58.943 62.079,58.599 C61.939,58.507 61.803,58.416 61.664,58.325 C61.775,58.292 61.886,58.259 61.996,58.224 C62.251,58.151 62.549,58.054 62.751,58.014 C63.036,57.971 63.321,57.929 63.534,57.967 C63.765,57.956 64.019,58.057 64.259,58.111 C64.732,58.288 65.168,58.515 65.539,58.726 C66.282,59.15 66.81,59.367 66.81,59.367 C66.81,59.367 66.328,59.068 65.668,58.531 C65.337,58.263 64.936,57.957 64.449,57.677 C64.186,57.569 63.938,57.414 63.609,57.363 C63.273,57.269 62.992,57.273 62.712,57.266 C62.351,57.274 62.098,57.326 61.806,57.356 C61.532,57.394 61.255,57.43 61.051,57.435 C60.865,57.463 60.621,57.439 60.39,57.418 C60.015,57.147 59.646,56.896 59.279,56.56 C58.858,56.2 58.448,55.846 58.048,55.503 C57.39,54.798 56.801,54.121 56.468,53.408 C56.079,52.723 55.902,52.034 55.769,51.426 C55.763,51.39 55.76,51.358 55.755,51.322 C58.609,49.188 60.752,46.113 61.597,42.531 C61.895,42.448 62.208,42.361 62.548,42.266 C62.919,42.163 63.314,42.054 63.73,41.938 L63.887,41.895 L63.926,41.884 C63.866,41.896 64.074,41.854 63.794,41.909 L63.804,41.907 L63.825,41.903 L63.906,41.886 L64.235,41.818 C64.458,41.772 64.684,41.725 64.917,41.677 C65.379,41.583 65.755,41.558 66.207,41.485 C66.645,41.449 67.106,41.441 67.575,41.429 C67.801,41.451 68.03,41.474 68.262,41.496 L68.615,41.526 L68.66,41.529 L68.671,41.53 C68.446,41.467 68.616,41.514 68.569,41.501 L68.594,41.508 L68.697,41.535 L68.903,41.59 C69.257,41.668 69.274,41.733 69.406,41.763 C69.531,41.851 69.709,41.922 69.832,42.062 C70.402,42.523 70.817,43.518 71.09,44.634 C71.385,45.759 71.528,47.01 71.89,48.347 L71.972,48.641 L72.051,48.865 L72.211,49.311 L72.372,49.757 L72.595,50.238 C72.871,50.896 73.244,51.462 73.599,52.03 C74.041,52.647 74.551,53.201 75.104,53.693 C75.092,53.753 75.084,53.797 75.084,53.797 L75.141,53.725 C75.348,53.908 75.558,54.083 75.777,54.246 C75.794,54.3 75.812,54.344 75.831,54.36 C75.955,54.457 76.1,54.615 76.256,54.797 C76.893,55.5 77.566,56.701 78.319,57.884 C78.709,58.471 79.124,59.053 79.598,59.532 C79.849,59.758 80.077,59.991 80.345,60.151 C80.6,60.328 80.853,60.467 81.11,60.555 C81.349,60.675 81.594,60.709 81.803,60.753 C82.011,60.81 82.197,60.815 82.35,60.813 C82.653,60.819 82.826,60.822 82.826,60.822 C82.826,60.822 82.656,60.796 82.357,60.75 C82.209,60.732 82.03,60.702 81.837,60.62 C81.643,60.55 81.419,60.488 81.209,60.344 C80.984,60.233 80.769,60.071 80.559,59.876 C80.336,59.701 80.154,59.453 79.955,59.22 C79.581,58.722 79.267,58.127 78.974,57.519 C78.646,56.812 78.337,56.085 78.017,55.412 C78.075,55.43 78.133,55.447 78.189,55.468 L78.621,55.609 C78.839,55.672 78.921,55.666 79.076,55.697 C79.35,55.741 79.623,55.785 79.89,55.828 C80.452,55.872 81.036,55.89 81.562,55.874 C82.084,55.817 82.594,55.812 83.068,55.715 C83.306,55.674 83.539,55.633 83.765,55.594 C83.886,55.571 83.974,55.563 84.118,55.527 L84.433,55.437 C84.847,55.303 85.245,55.237 85.61,55.067 C85.971,54.908 86.309,54.76 86.623,54.623 C86.914,54.455 87.182,54.301 87.423,54.162 C87.912,53.896 88.252,53.619 88.504,53.464 C88.749,53.298 88.88,53.209 88.88,53.209 C88.88,53.209 88.741,53.284 88.481,53.425 C88.214,53.556 87.851,53.797 87.342,54.01 C87.092,54.123 86.816,54.248 86.514,54.384 C86.205,54.486 85.871,54.595 85.514,54.711 C85.166,54.838 84.741,54.869 84.323,54.96 L84,55.019 L83.688,55.044 C83.465,55.061 83.238,55.077 83.005,55.095 C82.542,55.143 82.06,55.097 81.565,55.104 C81.073,55.067 80.599,55.008 80.086,54.922 C79.824,54.853 79.558,54.782 79.288,54.711 C79.174,54.676 78.973,54.639 78.927,54.605 L78.565,54.444 C78.327,54.327 78.07,54.248 77.843,54.102 C77.618,53.956 77.391,53.809 77.162,53.661 C76.977,53.521 76.802,53.369 76.629,53.213 C76.528,53.098 76.434,52.995 76.364,52.941 C76.308,52.89 76.278,52.863 76.234,52.824 C75.757,52.33 75.329,51.777 74.974,51.165 C74.724,50.648 74.453,50.135 74.293,49.609 C74.101,49.165 73.938,48.363 73.84,47.906 C73.647,46.777 73.62,45.496 73.419,44.182 C73.393,43.997 73.352,43.807 73.317,43.62 C73.692,44.09 74.055,44.607 74.39,45.142 C74.84,45.861 75.283,46.64 75.801,47.301 C76.049,47.638 76.336,47.931 76.62,48.194 C76.748,48.338 76.929,48.423 77.072,48.533 C77.223,48.637 77.36,48.746 77.527,48.795 C77.841,48.928 78.126,49.042 78.405,49.043 C78.675,49.082 78.906,49.104 79.097,49.051 C79.474,48.991 79.69,48.957 79.69,48.957 C79.69,48.957 79.473,48.968 79.094,48.986 C78.906,49.017 78.681,48.972 78.429,48.907 C78.168,48.881 77.911,48.74 77.637,48.588 C77.491,48.529 77.372,48.41 77.243,48.301 C77.121,48.183 76.969,48.096 76.862,47.946 C76.624,47.673 76.389,47.376 76.188,47.031 C75.769,46.358 75.43,45.578 75.042,44.776 C74.338,43.34 73.454,41.939 72.418,41.02 C72.243,40.722 72.041,40.432 71.794,40.165 C71.537,39.847 71.202,39.606 70.862,39.354 C70.475,39.123 69.996,38.886 69.791,38.829 L69.592,38.754 L69.492,38.717 L69.468,38.708 L69.325,38.668 L69.264,38.655 L68.787,38.557 C68.468,38.495 68.153,38.434 67.843,38.373 C67.231,38.318 66.634,38.272 66.053,38.264 C65.489,38.289 64.876,38.296 64.403,38.346 C64.167,38.371 63.936,38.395 63.711,38.419 L63.377,38.455 L63.294,38.463 L63.273,38.465 L63.111,38.496 L63.07,38.503 L62.91,38.531 C62.581,38.588 62.277,38.641 61.976,38.694 C61.901,35.975 61.088,33.388 59.716,31.152 C59.806,30.885 59.928,30.369 60.102,29.998 C60.189,29.781 60.284,29.541 60.388,29.28 C60.525,29.005 60.672,28.708 60.83,28.39 C61.171,27.762 61.593,27.064 62.119,26.334 C62.646,25.605 63.274,24.845 64.002,24.091 C64.188,23.905 64.375,23.716 64.564,23.526 L64.635,23.454 L64.671,23.418 L64.689,23.4 C64.577,23.492 64.664,23.421 64.641,23.439 L64.652,23.43 L64.817,23.289 L65.151,23.004 C65.616,22.578 66.023,22.32 66.442,22.024 C67.354,21.454 68.398,20.914 69.547,20.531 C70.694,20.135 71.917,19.809 73.179,19.521 C73.753,19.396 74.454,19.242 75.05,19.152 C75.657,19.048 76.295,18.955 76.931,18.864 C77.752,18.739 78.569,18.609 79.377,18.457 L79.403,18.523 C79.403,18.523 79.504,18.474 79.65,18.401 C80.004,18.331 80.36,18.272 80.707,18.183 C80.871,18.141 81.031,18.093 81.193,18.048 C81.404,18.038 81.627,18.036 81.864,18.048 C82.116,18.054 82.382,18.08 82.651,18.104 L83.062,18.152 C83.256,18.179 83.359,18.173 83.512,18.186 C83.794,18.202 84.077,18.219 84.356,18.235 C84.645,18.228 84.941,18.189 85.216,18.167 C85.494,18.149 85.756,18.114 85.995,18.032 C86.234,17.966 86.461,17.903 86.669,17.845 C86.881,17.803 87.051,17.686 87.212,17.623 C87.369,17.55 87.507,17.486 87.619,17.433 C87.844,17.329 87.972,17.269 87.972,17.269 C87.972,17.269 87.835,17.307 87.596,17.373 C87.477,17.406 87.333,17.445 87.168,17.491 C87,17.527 86.824,17.611 86.611,17.617 C86.404,17.638 86.179,17.662 85.943,17.686 C85.708,17.727 85.461,17.718 85.208,17.691 C84.955,17.669 84.702,17.666 84.438,17.629 C84.167,17.567 83.89,17.504 83.614,17.441 C83.488,17.41 83.309,17.379 83.228,17.347 L83.211,17.342 C83.523,17.206 83.829,17.061 84.117,16.902 C85.117,16.402 86.045,15.712 86.799,15.082 C87.155,14.727 87.504,14.394 87.807,14.054 C88.081,13.687 88.361,13.357 88.583,13.02 C88.782,12.668 88.968,12.339 89.141,12.034 C89.283,11.716 89.384,11.41 89.491,11.143 C89.729,10.617 89.742,10.149 89.828,9.857 C89.89,9.558 89.924,9.399 89.924,9.399 C89.924,9.399 89.875,9.544 89.784,9.836 Z M16.512,46.251 C16.513,46.253 16.492,46.264 16.49,46.269 C16.495,46.262 16.502,46.254 16.512,46.251 Z M16.479,46.286 C16.477,46.294 16.477,46.293 16.479,46.286 Z M34.926,29.233 C34.887,29.279 34.852,29.329 34.814,29.375 C34.849,29.326 34.885,29.281 34.926,29.233 Z M52.307,43.552 C49.389,43.552 47.025,41.188 47.025,38.27 C47.025,35.353 49.389,32.988 52.307,32.988 C55.225,32.988 57.589,35.353 57.589,38.27 C57.589,41.188 55.225,43.552 52.307,43.552 Z" id="Shape" fill="#C94747" fill-rule="nonzero"></path>
                <path d="M34.07,30.252 L34.068,30.238 C34.065,30.229 34.067,30.25 34.07,30.252 Z" id="Shape" fill="#000000" fill-rule="nonzero"></path>
            </g>
        </g>
    </g>
</svg>